M48
; DRILL file {KiCad (6.0.6-0)} date Saturday, August 20, 2022 at 07:22:45 PM
; FORMAT={-:-/ absolute / inch / decimal}
; #@! TF.CreationDate,2022-08-20T19:22:45-04:00
; #@! TF.GenerationSoftware,Kicad,Pcbnew,(6.0.6-0)
; #@! TF.FileFunction,Plated,1,2,PTH
FMAT,2
INCH
; #@! TA.AperFunction,Plated,PTH,ViaDrill
T1C0.0157
; #@! TA.AperFunction,Plated,PTH,ComponentDrill
T2C0.0276
; #@! TA.AperFunction,Plated,PTH,ComponentDrill
T3C0.0354
; #@! TA.AperFunction,Plated,PTH,ComponentDrill
T4C0.0394
%
G90
G05
T1
X4.95Y-3.1
X5.0Y-3.2
X5.05Y-3.1
X5.1Y-2.95
X5.2Y-3.0
X5.7Y-3.1
X5.7Y-3.35
X6.05Y-3.7
X7.45Y-3.2984
X7.8992Y-2.8492
T3
X4.9289Y-2.65
X4.9289Y-2.75
X4.9289Y-2.85
X5.0289Y-2.65
X5.0289Y-2.75
X5.0289Y-2.85
T4
X4.0355Y-2.7964
X4.0355Y-2.8964
X4.0355Y-2.9964
X4.1355Y-2.7964
X4.1355Y-2.8964
X4.1355Y-2.9964
X4.35Y-2.25
X4.35Y-2.35
X4.45Y-2.25
X4.45Y-2.35
X4.55Y-2.25
X4.55Y-2.35
X5.3053Y-3.6025
X5.3053Y-3.7025
X5.4053Y-3.6025
X5.4053Y-3.7025
X5.5053Y-3.6025
X5.5053Y-3.7025
X6.8433Y-3.723
X6.8433Y-3.823
X6.8506Y-2.8492
X6.8506Y-2.9492
X6.887Y-2.0672
X6.887Y-2.1672
X6.9433Y-3.723
X6.9433Y-3.823
X6.9506Y-2.8492
X6.9506Y-2.9492
X6.987Y-2.0672
X6.987Y-2.1672
X7.0433Y-3.723
X7.0433Y-3.823
X7.0506Y-2.8492
X7.0506Y-2.9492
X7.087Y-2.0672
X7.087Y-2.1672
X8.1166Y-2.1871
X8.1166Y-2.2871
X8.2166Y-2.1871
X8.2166Y-2.2871
X8.3166Y-2.1871
X8.3166Y-2.2871
X9.168Y-3.5863
X9.168Y-3.6863
X9.268Y-3.5863
X9.268Y-3.6863
X9.368Y-3.5863
X9.368Y-3.6863
X9.6483Y-2.8309
X9.6483Y-2.9309
X9.6483Y-3.0309
X9.7483Y-2.8309
X9.7483Y-2.9309
X9.7483Y-3.0309
T2
G00X4.0531Y-3.3509
M15
G01X4.0255Y-3.3509
M16
G05
G00X4.0531Y-3.691
M15
G01X4.0255Y-3.691
M16
G05
G00X4.2236Y-3.3509
M15
G01X4.1842Y-3.3509
M16
G05
G00X4.2236Y-3.691
M15
G01X4.1842Y-3.691
M16
G05
T0
M30
