%TF.GenerationSoftware,KiCad,Pcbnew,(6.0.6-0)*%
%TF.CreationDate,2022-08-20T19:49:00-04:00*%
%TF.ProjectId,SAO_Platform,53414f5f-506c-4617-9466-6f726d2e6b69,rev?*%
%TF.SameCoordinates,Original*%
%TF.FileFunction,Paste,Top*%
%TF.FilePolarity,Positive*%
%FSLAX46Y46*%
G04 Gerber Fmt 4.6, Leading zero omitted, Abs format (unit mm)*
G04 Created by KiCad (PCBNEW (6.0.6-0)) date 2022-08-20 19:49:00*
%MOMM*%
%LPD*%
G01*
G04 APERTURE LIST*
G04 Aperture macros list*
%AMRoundRect*
0 Rectangle with rounded corners*
0 $1 Rounding radius*
0 $2 $3 $4 $5 $6 $7 $8 $9 X,Y pos of 4 corners*
0 Add a 4 corners polygon primitive as box body*
4,1,4,$2,$3,$4,$5,$6,$7,$8,$9,$2,$3,0*
0 Add four circle primitives for the rounded corners*
1,1,$1+$1,$2,$3*
1,1,$1+$1,$4,$5*
1,1,$1+$1,$6,$7*
1,1,$1+$1,$8,$9*
0 Add four rect primitives between the rounded corners*
20,1,$1+$1,$2,$3,$4,$5,0*
20,1,$1+$1,$4,$5,$6,$7,0*
20,1,$1+$1,$6,$7,$8,$9,0*
20,1,$1+$1,$8,$9,$2,$3,0*%
%AMFreePoly0*
4,1,9,3.862500,-0.866500,0.737500,-0.866500,0.737500,-0.450000,-0.737500,-0.450000,-0.737500,0.450000,0.737500,0.450000,0.737500,0.866500,3.862500,0.866500,3.862500,-0.866500,3.862500,-0.866500,$1*%
G04 Aperture macros list end*
%ADD10O,2.000000X1.200000*%
%ADD11O,1.800000X1.200000*%
%ADD12R,1.300000X0.300000*%
%ADD13RoundRect,0.250000X-0.350000X-0.450000X0.350000X-0.450000X0.350000X0.450000X-0.350000X0.450000X0*%
%ADD14R,1.300000X0.900000*%
%ADD15FreePoly0,0.000000*%
%ADD16R,2.500000X1.200000*%
%ADD17RoundRect,0.250000X-0.250000X-0.475000X0.250000X-0.475000X0.250000X0.475000X-0.250000X0.475000X0*%
%ADD18R,1.700000X0.650000*%
G04 APERTURE END LIST*
%TO.C,J1*%
G36*
X108023230Y-92082098D02*
G01*
X106833230Y-92082098D01*
X106833230Y-91582098D01*
X108023230Y-91582098D01*
X108023230Y-92082098D01*
G37*
G36*
X102928230Y-84513098D02*
G01*
X102958230Y-84515098D01*
X102987230Y-84519098D01*
X103017230Y-84524098D01*
X103046230Y-84531098D01*
X103075230Y-84539098D01*
X103103230Y-84548098D01*
X103131230Y-84559098D01*
X103158230Y-84571098D01*
X103185230Y-84585098D01*
X103211230Y-84600098D01*
X103236230Y-84616098D01*
X103284230Y-84652098D01*
X103306230Y-84672098D01*
X103327230Y-84693098D01*
X103348230Y-84715098D01*
X103367230Y-84738098D01*
X103385230Y-84762098D01*
X103402230Y-84786098D01*
X103418230Y-84812098D01*
X103432230Y-84838098D01*
X103445230Y-84865098D01*
X103467230Y-84921098D01*
X103476230Y-84949098D01*
X103483230Y-84978098D01*
X103489230Y-85008098D01*
X103493230Y-85037098D01*
X103496230Y-85067098D01*
X103498230Y-85097098D01*
X103498230Y-85127098D01*
X103496230Y-85157098D01*
X103493230Y-85187098D01*
X103489230Y-85216098D01*
X103483230Y-85245098D01*
X103476230Y-85274098D01*
X103467230Y-85303098D01*
X103445230Y-85359098D01*
X103432230Y-85386098D01*
X103418230Y-85412098D01*
X103402230Y-85437098D01*
X103385230Y-85462098D01*
X103367230Y-85486098D01*
X103348230Y-85509098D01*
X103327230Y-85531098D01*
X103306230Y-85552098D01*
X103284230Y-85572098D01*
X103236230Y-85608098D01*
X103211230Y-85624098D01*
X103185230Y-85639098D01*
X103158230Y-85653098D01*
X103131230Y-85665098D01*
X103103230Y-85676098D01*
X103075230Y-85685098D01*
X103046230Y-85693098D01*
X103017230Y-85700098D01*
X102987230Y-85705098D01*
X102958230Y-85709098D01*
X102928230Y-85711098D01*
X102898230Y-85712098D01*
X102298230Y-85712098D01*
X102268230Y-85711098D01*
X102238230Y-85709098D01*
X102209230Y-85705098D01*
X102179230Y-85700098D01*
X102150230Y-85693098D01*
X102121230Y-85685098D01*
X102093230Y-85676098D01*
X102065230Y-85665098D01*
X102038230Y-85653098D01*
X102011230Y-85639098D01*
X101985230Y-85624098D01*
X101960230Y-85608098D01*
X101912230Y-85572098D01*
X101890230Y-85552098D01*
X101868230Y-85531098D01*
X101848230Y-85509098D01*
X101829230Y-85486098D01*
X101811230Y-85462098D01*
X101794230Y-85437098D01*
X101778230Y-85412098D01*
X101764230Y-85386098D01*
X101751230Y-85359098D01*
X101739230Y-85331098D01*
X101729230Y-85303098D01*
X101720230Y-85274098D01*
X101713230Y-85245098D01*
X101707230Y-85216098D01*
X101703230Y-85187098D01*
X101700230Y-85157098D01*
X101698230Y-85127098D01*
X101698230Y-85097098D01*
X101700230Y-85067098D01*
X101703230Y-85037098D01*
X101707230Y-85008098D01*
X101713230Y-84978098D01*
X101720230Y-84949098D01*
X101729230Y-84921098D01*
X101739230Y-84893098D01*
X101751230Y-84865098D01*
X101764230Y-84838098D01*
X101778230Y-84812098D01*
X101794230Y-84786098D01*
X101811230Y-84762098D01*
X101829230Y-84738098D01*
X101848230Y-84715098D01*
X101868230Y-84693098D01*
X101890230Y-84672098D01*
X101912230Y-84652098D01*
X101960230Y-84616098D01*
X101985230Y-84600098D01*
X102011230Y-84585098D01*
X102038230Y-84571098D01*
X102065230Y-84559098D01*
X102093230Y-84548098D01*
X102121230Y-84539098D01*
X102150230Y-84531098D01*
X102179230Y-84524098D01*
X102209230Y-84519098D01*
X102238230Y-84515098D01*
X102268230Y-84513098D01*
X102298230Y-84512098D01*
X102898230Y-84512098D01*
X102928230Y-84513098D01*
G37*
G36*
X108073230Y-88332098D02*
G01*
X106783230Y-88332098D01*
X106783230Y-88032098D01*
X108073230Y-88032098D01*
X108073230Y-88332098D01*
G37*
G36*
X108023230Y-87282098D02*
G01*
X106833230Y-87282098D01*
X106833230Y-86782098D01*
X108023230Y-86782098D01*
X108023230Y-87282098D01*
G37*
G36*
X108023230Y-92882098D02*
G01*
X106833230Y-92882098D01*
X106833230Y-92382098D01*
X108023230Y-92382098D01*
X108023230Y-92882098D01*
G37*
G36*
X108023230Y-86482098D02*
G01*
X106833230Y-86482098D01*
X106833230Y-85982098D01*
X108023230Y-85982098D01*
X108023230Y-86482098D01*
G37*
G36*
X107208230Y-93153098D02*
G01*
X107238230Y-93155098D01*
X107267230Y-93159098D01*
X107297230Y-93164098D01*
X107326230Y-93171098D01*
X107355230Y-93179098D01*
X107383230Y-93188098D01*
X107411230Y-93199098D01*
X107438230Y-93211098D01*
X107465230Y-93225098D01*
X107491230Y-93240098D01*
X107516230Y-93256098D01*
X107564230Y-93292098D01*
X107586230Y-93312098D01*
X107608230Y-93333098D01*
X107628230Y-93355098D01*
X107647230Y-93378098D01*
X107665230Y-93402098D01*
X107682230Y-93427098D01*
X107698230Y-93452098D01*
X107712230Y-93478098D01*
X107725230Y-93505098D01*
X107737230Y-93533098D01*
X107747230Y-93561098D01*
X107756230Y-93590098D01*
X107763230Y-93619098D01*
X107769230Y-93648098D01*
X107773230Y-93677098D01*
X107776230Y-93707098D01*
X107778230Y-93737098D01*
X107778230Y-93767098D01*
X107776230Y-93797098D01*
X107773230Y-93827098D01*
X107769230Y-93856098D01*
X107763230Y-93886098D01*
X107756230Y-93915098D01*
X107747230Y-93943098D01*
X107737230Y-93971098D01*
X107725230Y-93999098D01*
X107712230Y-94026098D01*
X107698230Y-94052098D01*
X107682230Y-94078098D01*
X107665230Y-94102098D01*
X107647230Y-94126098D01*
X107628230Y-94149098D01*
X107608230Y-94171098D01*
X107586230Y-94192098D01*
X107564230Y-94212098D01*
X107516230Y-94248098D01*
X107491230Y-94264098D01*
X107465230Y-94279098D01*
X107438230Y-94293098D01*
X107411230Y-94305098D01*
X107383230Y-94316098D01*
X107355230Y-94325098D01*
X107326230Y-94333098D01*
X107297230Y-94340098D01*
X107267230Y-94345098D01*
X107238230Y-94349098D01*
X107208230Y-94351098D01*
X107178230Y-94352098D01*
X106378230Y-94352098D01*
X106348230Y-94351098D01*
X106318230Y-94349098D01*
X106289230Y-94345098D01*
X106259230Y-94340098D01*
X106230230Y-94333098D01*
X106201230Y-94325098D01*
X106173230Y-94316098D01*
X106145230Y-94305098D01*
X106118230Y-94293098D01*
X106091230Y-94279098D01*
X106065230Y-94264098D01*
X106040230Y-94248098D01*
X105992230Y-94212098D01*
X105970230Y-94192098D01*
X105949230Y-94171098D01*
X105928230Y-94149098D01*
X105909230Y-94126098D01*
X105891230Y-94102098D01*
X105874230Y-94078098D01*
X105858230Y-94052098D01*
X105844230Y-94026098D01*
X105831230Y-93999098D01*
X105809230Y-93943098D01*
X105800230Y-93915098D01*
X105793230Y-93886098D01*
X105787230Y-93856098D01*
X105783230Y-93827098D01*
X105780230Y-93797098D01*
X105778230Y-93767098D01*
X105778230Y-93737098D01*
X105780230Y-93707098D01*
X105783230Y-93677098D01*
X105787230Y-93648098D01*
X105793230Y-93619098D01*
X105800230Y-93590098D01*
X105809230Y-93561098D01*
X105831230Y-93505098D01*
X105844230Y-93478098D01*
X105858230Y-93452098D01*
X105874230Y-93427098D01*
X105891230Y-93402098D01*
X105909230Y-93378098D01*
X105928230Y-93355098D01*
X105949230Y-93333098D01*
X105970230Y-93312098D01*
X105992230Y-93292098D01*
X106040230Y-93256098D01*
X106065230Y-93240098D01*
X106091230Y-93225098D01*
X106118230Y-93211098D01*
X106145230Y-93199098D01*
X106173230Y-93188098D01*
X106201230Y-93179098D01*
X106230230Y-93171098D01*
X106259230Y-93164098D01*
X106289230Y-93159098D01*
X106318230Y-93155098D01*
X106348230Y-93153098D01*
X106378230Y-93152098D01*
X107178230Y-93152098D01*
X107208230Y-93153098D01*
G37*
G36*
X108073230Y-87832098D02*
G01*
X106783230Y-87832098D01*
X106783230Y-87532098D01*
X108073230Y-87532098D01*
X108073230Y-87832098D01*
G37*
G36*
X108073230Y-91332098D02*
G01*
X106783230Y-91332098D01*
X106783230Y-91032098D01*
X108073230Y-91032098D01*
X108073230Y-91332098D01*
G37*
G36*
X108073230Y-90832098D02*
G01*
X106783230Y-90832098D01*
X106783230Y-90532098D01*
X108073230Y-90532098D01*
X108073230Y-90832098D01*
G37*
G36*
X108073230Y-89332098D02*
G01*
X106783230Y-89332098D01*
X106783230Y-89032098D01*
X108073230Y-89032098D01*
X108073230Y-89332098D01*
G37*
G36*
X108073230Y-89832098D02*
G01*
X106783230Y-89832098D01*
X106783230Y-89532098D01*
X108073230Y-89532098D01*
X108073230Y-89832098D01*
G37*
G36*
X102928230Y-93153098D02*
G01*
X102958230Y-93155098D01*
X102987230Y-93159098D01*
X103017230Y-93164098D01*
X103046230Y-93171098D01*
X103075230Y-93179098D01*
X103103230Y-93188098D01*
X103131230Y-93199098D01*
X103158230Y-93211098D01*
X103185230Y-93225098D01*
X103211230Y-93240098D01*
X103236230Y-93256098D01*
X103284230Y-93292098D01*
X103306230Y-93312098D01*
X103327230Y-93333098D01*
X103348230Y-93355098D01*
X103367230Y-93378098D01*
X103385230Y-93402098D01*
X103402230Y-93427098D01*
X103418230Y-93452098D01*
X103432230Y-93478098D01*
X103445230Y-93505098D01*
X103467230Y-93561098D01*
X103476230Y-93590098D01*
X103483230Y-93619098D01*
X103489230Y-93648098D01*
X103493230Y-93677098D01*
X103496230Y-93707098D01*
X103498230Y-93737098D01*
X103498230Y-93767098D01*
X103496230Y-93797098D01*
X103493230Y-93827098D01*
X103489230Y-93856098D01*
X103483230Y-93886098D01*
X103476230Y-93915098D01*
X103467230Y-93943098D01*
X103445230Y-93999098D01*
X103432230Y-94026098D01*
X103418230Y-94052098D01*
X103402230Y-94078098D01*
X103385230Y-94102098D01*
X103367230Y-94126098D01*
X103348230Y-94149098D01*
X103327230Y-94171098D01*
X103306230Y-94192098D01*
X103284230Y-94212098D01*
X103236230Y-94248098D01*
X103211230Y-94264098D01*
X103185230Y-94279098D01*
X103158230Y-94293098D01*
X103131230Y-94305098D01*
X103103230Y-94316098D01*
X103075230Y-94325098D01*
X103046230Y-94333098D01*
X103017230Y-94340098D01*
X102987230Y-94345098D01*
X102958230Y-94349098D01*
X102928230Y-94351098D01*
X102898230Y-94352098D01*
X102298230Y-94352098D01*
X102268230Y-94351098D01*
X102238230Y-94349098D01*
X102209230Y-94345098D01*
X102179230Y-94340098D01*
X102150230Y-94333098D01*
X102121230Y-94325098D01*
X102093230Y-94316098D01*
X102065230Y-94305098D01*
X102038230Y-94293098D01*
X102011230Y-94279098D01*
X101985230Y-94264098D01*
X101960230Y-94248098D01*
X101912230Y-94212098D01*
X101890230Y-94192098D01*
X101868230Y-94171098D01*
X101848230Y-94149098D01*
X101829230Y-94126098D01*
X101811230Y-94102098D01*
X101794230Y-94078098D01*
X101778230Y-94052098D01*
X101764230Y-94026098D01*
X101751230Y-93999098D01*
X101739230Y-93971098D01*
X101729230Y-93943098D01*
X101720230Y-93915098D01*
X101713230Y-93886098D01*
X101707230Y-93856098D01*
X101703230Y-93827098D01*
X101700230Y-93797098D01*
X101698230Y-93767098D01*
X101698230Y-93737098D01*
X101700230Y-93707098D01*
X101703230Y-93677098D01*
X101707230Y-93648098D01*
X101713230Y-93619098D01*
X101720230Y-93590098D01*
X101729230Y-93561098D01*
X101739230Y-93533098D01*
X101751230Y-93505098D01*
X101764230Y-93478098D01*
X101778230Y-93452098D01*
X101794230Y-93427098D01*
X101811230Y-93402098D01*
X101829230Y-93378098D01*
X101848230Y-93355098D01*
X101868230Y-93333098D01*
X101890230Y-93312098D01*
X101912230Y-93292098D01*
X101960230Y-93256098D01*
X101985230Y-93240098D01*
X102011230Y-93225098D01*
X102038230Y-93211098D01*
X102065230Y-93199098D01*
X102093230Y-93188098D01*
X102121230Y-93179098D01*
X102150230Y-93171098D01*
X102179230Y-93164098D01*
X102209230Y-93159098D01*
X102238230Y-93155098D01*
X102268230Y-93153098D01*
X102298230Y-93152098D01*
X102898230Y-93152098D01*
X102928230Y-93153098D01*
G37*
G36*
X108073230Y-90332098D02*
G01*
X106783230Y-90332098D01*
X106783230Y-90032098D01*
X108073230Y-90032098D01*
X108073230Y-90332098D01*
G37*
G36*
X108073230Y-88832098D02*
G01*
X106783230Y-88832098D01*
X106783230Y-88532098D01*
X108073230Y-88532098D01*
X108073230Y-88832098D01*
G37*
G36*
X107208230Y-84513098D02*
G01*
X107238230Y-84515098D01*
X107267230Y-84519098D01*
X107297230Y-84524098D01*
X107326230Y-84531098D01*
X107355230Y-84539098D01*
X107383230Y-84548098D01*
X107411230Y-84559098D01*
X107438230Y-84571098D01*
X107465230Y-84585098D01*
X107491230Y-84600098D01*
X107516230Y-84616098D01*
X107564230Y-84652098D01*
X107586230Y-84672098D01*
X107608230Y-84693098D01*
X107628230Y-84715098D01*
X107647230Y-84738098D01*
X107665230Y-84762098D01*
X107682230Y-84786098D01*
X107698230Y-84812098D01*
X107712230Y-84838098D01*
X107725230Y-84865098D01*
X107737230Y-84893098D01*
X107747230Y-84921098D01*
X107756230Y-84949098D01*
X107763230Y-84978098D01*
X107769230Y-85008098D01*
X107773230Y-85037098D01*
X107776230Y-85067098D01*
X107778230Y-85097098D01*
X107778230Y-85127098D01*
X107776230Y-85157098D01*
X107773230Y-85187098D01*
X107769230Y-85216098D01*
X107763230Y-85245098D01*
X107756230Y-85274098D01*
X107747230Y-85303098D01*
X107737230Y-85331098D01*
X107725230Y-85359098D01*
X107712230Y-85386098D01*
X107698230Y-85412098D01*
X107682230Y-85437098D01*
X107665230Y-85462098D01*
X107647230Y-85486098D01*
X107628230Y-85509098D01*
X107608230Y-85531098D01*
X107586230Y-85552098D01*
X107564230Y-85572098D01*
X107516230Y-85608098D01*
X107491230Y-85624098D01*
X107465230Y-85639098D01*
X107438230Y-85653098D01*
X107411230Y-85665098D01*
X107383230Y-85676098D01*
X107355230Y-85685098D01*
X107326230Y-85693098D01*
X107297230Y-85700098D01*
X107267230Y-85705098D01*
X107238230Y-85709098D01*
X107208230Y-85711098D01*
X107178230Y-85712098D01*
X106378230Y-85712098D01*
X106348230Y-85711098D01*
X106318230Y-85709098D01*
X106289230Y-85705098D01*
X106259230Y-85700098D01*
X106230230Y-85693098D01*
X106201230Y-85685098D01*
X106173230Y-85676098D01*
X106145230Y-85665098D01*
X106118230Y-85653098D01*
X106091230Y-85639098D01*
X106065230Y-85624098D01*
X106040230Y-85608098D01*
X105992230Y-85572098D01*
X105970230Y-85552098D01*
X105949230Y-85531098D01*
X105928230Y-85509098D01*
X105909230Y-85486098D01*
X105891230Y-85462098D01*
X105874230Y-85437098D01*
X105858230Y-85412098D01*
X105844230Y-85386098D01*
X105831230Y-85359098D01*
X105809230Y-85303098D01*
X105800230Y-85274098D01*
X105793230Y-85245098D01*
X105787230Y-85216098D01*
X105783230Y-85187098D01*
X105780230Y-85157098D01*
X105778230Y-85127098D01*
X105778230Y-85097098D01*
X105780230Y-85067098D01*
X105783230Y-85037098D01*
X105787230Y-85008098D01*
X105793230Y-84978098D01*
X105800230Y-84949098D01*
X105809230Y-84921098D01*
X105831230Y-84865098D01*
X105844230Y-84838098D01*
X105858230Y-84812098D01*
X105874230Y-84786098D01*
X105891230Y-84762098D01*
X105909230Y-84738098D01*
X105928230Y-84715098D01*
X105949230Y-84693098D01*
X105970230Y-84672098D01*
X105992230Y-84652098D01*
X106040230Y-84616098D01*
X106065230Y-84600098D01*
X106091230Y-84585098D01*
X106118230Y-84571098D01*
X106145230Y-84559098D01*
X106173230Y-84548098D01*
X106201230Y-84539098D01*
X106230230Y-84531098D01*
X106259230Y-84524098D01*
X106289230Y-84519098D01*
X106318230Y-84515098D01*
X106348230Y-84513098D01*
X106378230Y-84512098D01*
X107178230Y-84512098D01*
X107208230Y-84513098D01*
G37*
%TD*%
D10*
%TO.C,J1*%
X106778230Y-85112098D03*
X106778230Y-93752098D03*
D11*
X102598230Y-85112098D03*
X102598230Y-93752098D03*
D12*
X107428230Y-86082098D03*
X107428230Y-86882098D03*
X107428230Y-88182098D03*
X107428230Y-89182098D03*
X107428230Y-89682098D03*
X107428230Y-90682098D03*
X107428230Y-91982098D03*
X107428230Y-92782098D03*
X107428230Y-92482098D03*
X107428230Y-91682098D03*
X107428230Y-91182098D03*
X107428230Y-90182098D03*
X107428230Y-88682098D03*
X107428230Y-87682098D03*
X107428230Y-87182098D03*
X107428230Y-86382098D03*
%TD*%
D13*
%TO.C,R2*%
X136160000Y-81280000D03*
X138160000Y-81280000D03*
%TD*%
D14*
%TO.C,VR1*%
X125350000Y-92480000D03*
D15*
X125437500Y-93980000D03*
D14*
X125350000Y-95480000D03*
%TD*%
D16*
%TO.C,SW1*%
X113880000Y-96206971D03*
X119380000Y-96206971D03*
X119380000Y-93706971D03*
X113880000Y-93706971D03*
X113880000Y-91206971D03*
X119380000Y-91206971D03*
%TD*%
D17*
%TO.C,C2*%
X127640000Y-87630000D03*
X129540000Y-87630000D03*
%TD*%
D18*
%TO.C,U2*%
X123350000Y-78105000D03*
X123350000Y-79375000D03*
X123350000Y-80645000D03*
X123350000Y-81915000D03*
X130650000Y-81915000D03*
X130650000Y-80645000D03*
X130650000Y-79375000D03*
X130650000Y-78105000D03*
%TD*%
D13*
%TO.C,R1*%
X136160000Y-76200000D03*
X138160000Y-76200000D03*
%TD*%
D17*
%TO.C,C1*%
X123510000Y-87630000D03*
X125410000Y-87630000D03*
%TD*%
M02*
