%TF.GenerationSoftware,KiCad,Pcbnew,(6.0.6-0)*%
%TF.CreationDate,2022-08-20T19:49:00-04:00*%
%TF.ProjectId,SAO_Platform,53414f5f-506c-4617-9466-6f726d2e6b69,rev?*%
%TF.SameCoordinates,Original*%
%TF.FileFunction,Legend,Top*%
%TF.FilePolarity,Positive*%
%FSLAX46Y46*%
G04 Gerber Fmt 4.6, Leading zero omitted, Abs format (unit mm)*
G04 Created by KiCad (PCBNEW (6.0.6-0)) date 2022-08-20 19:49:00*
%MOMM*%
%LPD*%
G01*
G04 APERTURE LIST*
%ADD10C,0.150000*%
%ADD11C,0.500000*%
%ADD12C,0.152000*%
%ADD13C,0.254000*%
%ADD14C,0.120000*%
G04 APERTURE END LIST*
D10*
X206561222Y-53317761D02*
X206704080Y-53365380D01*
X206942175Y-53365380D01*
X207037413Y-53317761D01*
X207085032Y-53270142D01*
X207132651Y-53174904D01*
X207132651Y-53079666D01*
X207085032Y-52984428D01*
X207037413Y-52936809D01*
X206942175Y-52889190D01*
X206751699Y-52841571D01*
X206656461Y-52793952D01*
X206608841Y-52746333D01*
X206561222Y-52651095D01*
X206561222Y-52555857D01*
X206608841Y-52460619D01*
X206656461Y-52413000D01*
X206751699Y-52365380D01*
X206989794Y-52365380D01*
X207132651Y-52413000D01*
X207513603Y-53079666D02*
X207989794Y-53079666D01*
X207418365Y-53365380D02*
X207751699Y-52365380D01*
X208085032Y-53365380D01*
X208608841Y-52365380D02*
X208799318Y-52365380D01*
X208894556Y-52413000D01*
X208989794Y-52508238D01*
X209037413Y-52698714D01*
X209037413Y-53032047D01*
X208989794Y-53222523D01*
X208894556Y-53317761D01*
X208799318Y-53365380D01*
X208608841Y-53365380D01*
X208513603Y-53317761D01*
X208418365Y-53222523D01*
X208370746Y-53032047D01*
X208370746Y-52698714D01*
X208418365Y-52508238D01*
X208513603Y-52413000D01*
X208608841Y-52365380D01*
X210704080Y-52365380D02*
X210227889Y-52365380D01*
X210180270Y-52841571D01*
X210227889Y-52793952D01*
X210323127Y-52746333D01*
X210561222Y-52746333D01*
X210656461Y-52793952D01*
X210704080Y-52841571D01*
X210751699Y-52936809D01*
X210751699Y-53174904D01*
X210704080Y-53270142D01*
X210656461Y-53317761D01*
X210561222Y-53365380D01*
X210323127Y-53365380D01*
X210227889Y-53317761D01*
X210180270Y-53270142D01*
X232854761Y-88034761D02*
X232997619Y-88082380D01*
X233235714Y-88082380D01*
X233330952Y-88034761D01*
X233378571Y-87987142D01*
X233426190Y-87891904D01*
X233426190Y-87796666D01*
X233378571Y-87701428D01*
X233330952Y-87653809D01*
X233235714Y-87606190D01*
X233045238Y-87558571D01*
X232950000Y-87510952D01*
X232902380Y-87463333D01*
X232854761Y-87368095D01*
X232854761Y-87272857D01*
X232902380Y-87177619D01*
X232950000Y-87130000D01*
X233045238Y-87082380D01*
X233283333Y-87082380D01*
X233426190Y-87130000D01*
X233807142Y-87796666D02*
X234283333Y-87796666D01*
X233711904Y-88082380D02*
X234045238Y-87082380D01*
X234378571Y-88082380D01*
X234902380Y-87082380D02*
X235092857Y-87082380D01*
X235188095Y-87130000D01*
X235283333Y-87225238D01*
X235330952Y-87415714D01*
X235330952Y-87749047D01*
X235283333Y-87939523D01*
X235188095Y-88034761D01*
X235092857Y-88082380D01*
X234902380Y-88082380D01*
X234807142Y-88034761D01*
X234711904Y-87939523D01*
X234664285Y-87749047D01*
X234664285Y-87415714D01*
X234711904Y-87225238D01*
X234807142Y-87130000D01*
X234902380Y-87082380D01*
X236950000Y-87415714D02*
X236950000Y-88082380D01*
X236711904Y-87034761D02*
X236473809Y-87749047D01*
X237092857Y-87749047D01*
D11*
X162085714Y-81224285D02*
X162514285Y-81367142D01*
X163228571Y-81367142D01*
X163514285Y-81224285D01*
X163657142Y-81081428D01*
X163800000Y-80795714D01*
X163800000Y-80510000D01*
X163657142Y-80224285D01*
X163514285Y-80081428D01*
X163228571Y-79938571D01*
X162657142Y-79795714D01*
X162371428Y-79652857D01*
X162228571Y-79510000D01*
X162085714Y-79224285D01*
X162085714Y-78938571D01*
X162228571Y-78652857D01*
X162371428Y-78510000D01*
X162657142Y-78367142D01*
X163371428Y-78367142D01*
X163800000Y-78510000D01*
X164942857Y-80510000D02*
X166371428Y-80510000D01*
X164657142Y-81367142D02*
X165657142Y-78367142D01*
X166657142Y-81367142D01*
X168228571Y-78367142D02*
X168800000Y-78367142D01*
X169085714Y-78510000D01*
X169371428Y-78795714D01*
X169514285Y-79367142D01*
X169514285Y-80367142D01*
X169371428Y-80938571D01*
X169085714Y-81224285D01*
X168800000Y-81367142D01*
X168228571Y-81367142D01*
X167942857Y-81224285D01*
X167657142Y-80938571D01*
X167514285Y-80367142D01*
X167514285Y-79367142D01*
X167657142Y-78795714D01*
X167942857Y-78510000D01*
X168228571Y-78367142D01*
X172942857Y-81224285D02*
X173371428Y-81367142D01*
X174085714Y-81367142D01*
X174371428Y-81224285D01*
X174514285Y-81081428D01*
X174657142Y-80795714D01*
X174657142Y-80510000D01*
X174514285Y-80224285D01*
X174371428Y-80081428D01*
X174085714Y-79938571D01*
X173514285Y-79795714D01*
X173228571Y-79652857D01*
X173085714Y-79510000D01*
X172942857Y-79224285D01*
X172942857Y-78938571D01*
X173085714Y-78652857D01*
X173228571Y-78510000D01*
X173514285Y-78367142D01*
X174228571Y-78367142D01*
X174657142Y-78510000D01*
X175942857Y-81367142D02*
X175942857Y-78367142D01*
X177228571Y-81367142D02*
X177228571Y-79795714D01*
X177085714Y-79510000D01*
X176800000Y-79367142D01*
X176371428Y-79367142D01*
X176085714Y-79510000D01*
X175942857Y-79652857D01*
X179085714Y-81367142D02*
X178800000Y-81224285D01*
X178657142Y-81081428D01*
X178514285Y-80795714D01*
X178514285Y-79938571D01*
X178657142Y-79652857D01*
X178800000Y-79510000D01*
X179085714Y-79367142D01*
X179514285Y-79367142D01*
X179800000Y-79510000D01*
X179942857Y-79652857D01*
X180085714Y-79938571D01*
X180085714Y-80795714D01*
X179942857Y-81081428D01*
X179800000Y-81224285D01*
X179514285Y-81367142D01*
X179085714Y-81367142D01*
X181085714Y-79367142D02*
X181657142Y-81367142D01*
X182228571Y-79938571D01*
X182800000Y-81367142D01*
X183371428Y-79367142D01*
X185800000Y-81224285D02*
X185514285Y-81367142D01*
X184942857Y-81367142D01*
X184657142Y-81224285D01*
X184514285Y-81081428D01*
X184371428Y-80795714D01*
X184371428Y-79938571D01*
X184514285Y-79652857D01*
X184657142Y-79510000D01*
X184942857Y-79367142D01*
X185514285Y-79367142D01*
X185800000Y-79510000D01*
X188371428Y-81367142D02*
X188371428Y-79795714D01*
X188228571Y-79510000D01*
X187942857Y-79367142D01*
X187371428Y-79367142D01*
X187085714Y-79510000D01*
X188371428Y-81224285D02*
X188085714Y-81367142D01*
X187371428Y-81367142D01*
X187085714Y-81224285D01*
X186942857Y-80938571D01*
X186942857Y-80652857D01*
X187085714Y-80367142D01*
X187371428Y-80224285D01*
X188085714Y-80224285D01*
X188371428Y-80081428D01*
X189657142Y-81224285D02*
X189942857Y-81367142D01*
X190514285Y-81367142D01*
X190799999Y-81224285D01*
X190942857Y-80938571D01*
X190942857Y-80795714D01*
X190799999Y-80510000D01*
X190514285Y-80367142D01*
X190085714Y-80367142D01*
X189799999Y-80224285D01*
X189657142Y-79938571D01*
X189657142Y-79795714D01*
X189799999Y-79510000D01*
X190085714Y-79367142D01*
X190514285Y-79367142D01*
X190799999Y-79510000D01*
X193371428Y-81224285D02*
X193085714Y-81367142D01*
X192514285Y-81367142D01*
X192228571Y-81224285D01*
X192085714Y-80938571D01*
X192085714Y-79795714D01*
X192228571Y-79510000D01*
X192514285Y-79367142D01*
X193085714Y-79367142D01*
X193371428Y-79510000D01*
X193514285Y-79795714D01*
X193514285Y-80081428D01*
X192085714Y-80367142D01*
D10*
X174434761Y-68984761D02*
X174577619Y-69032380D01*
X174815714Y-69032380D01*
X174910952Y-68984761D01*
X174958571Y-68937142D01*
X175006190Y-68841904D01*
X175006190Y-68746666D01*
X174958571Y-68651428D01*
X174910952Y-68603809D01*
X174815714Y-68556190D01*
X174625238Y-68508571D01*
X174530000Y-68460952D01*
X174482380Y-68413333D01*
X174434761Y-68318095D01*
X174434761Y-68222857D01*
X174482380Y-68127619D01*
X174530000Y-68080000D01*
X174625238Y-68032380D01*
X174863333Y-68032380D01*
X175006190Y-68080000D01*
X175387142Y-68746666D02*
X175863333Y-68746666D01*
X175291904Y-69032380D02*
X175625238Y-68032380D01*
X175958571Y-69032380D01*
X176482380Y-68032380D02*
X176672857Y-68032380D01*
X176768095Y-68080000D01*
X176863333Y-68175238D01*
X176910952Y-68365714D01*
X176910952Y-68699047D01*
X176863333Y-68889523D01*
X176768095Y-68984761D01*
X176672857Y-69032380D01*
X176482380Y-69032380D01*
X176387142Y-68984761D01*
X176291904Y-68889523D01*
X176244285Y-68699047D01*
X176244285Y-68365714D01*
X176291904Y-68175238D01*
X176387142Y-68080000D01*
X176482380Y-68032380D01*
X178006190Y-68032380D02*
X178625238Y-68032380D01*
X178291904Y-68413333D01*
X178434761Y-68413333D01*
X178530000Y-68460952D01*
X178577619Y-68508571D01*
X178625238Y-68603809D01*
X178625238Y-68841904D01*
X178577619Y-68937142D01*
X178530000Y-68984761D01*
X178434761Y-69032380D01*
X178149047Y-69032380D01*
X178053809Y-68984761D01*
X178006190Y-68937142D01*
X110934761Y-55014761D02*
X111077619Y-55062380D01*
X111315714Y-55062380D01*
X111410952Y-55014761D01*
X111458571Y-54967142D01*
X111506190Y-54871904D01*
X111506190Y-54776666D01*
X111458571Y-54681428D01*
X111410952Y-54633809D01*
X111315714Y-54586190D01*
X111125238Y-54538571D01*
X111030000Y-54490952D01*
X110982380Y-54443333D01*
X110934761Y-54348095D01*
X110934761Y-54252857D01*
X110982380Y-54157619D01*
X111030000Y-54110000D01*
X111125238Y-54062380D01*
X111363333Y-54062380D01*
X111506190Y-54110000D01*
X111887142Y-54776666D02*
X112363333Y-54776666D01*
X111791904Y-55062380D02*
X112125238Y-54062380D01*
X112458571Y-55062380D01*
X112982380Y-54062380D02*
X113172857Y-54062380D01*
X113268095Y-54110000D01*
X113363333Y-54205238D01*
X113410952Y-54395714D01*
X113410952Y-54729047D01*
X113363333Y-54919523D01*
X113268095Y-55014761D01*
X113172857Y-55062380D01*
X112982380Y-55062380D01*
X112887142Y-55014761D01*
X112791904Y-54919523D01*
X112744285Y-54729047D01*
X112744285Y-54395714D01*
X112791904Y-54205238D01*
X112887142Y-54110000D01*
X112982380Y-54062380D01*
X115125238Y-55062380D02*
X114553809Y-55062380D01*
X114839523Y-55062380D02*
X114839523Y-54062380D01*
X114744285Y-54205238D01*
X114649047Y-54300476D01*
X114553809Y-54348095D01*
X124000000Y-64936666D02*
X124476190Y-64936666D01*
X123904761Y-65222380D02*
X124238095Y-64222380D01*
X124571428Y-65222380D01*
X124761904Y-64222380D02*
X125095238Y-65222380D01*
X125428571Y-64222380D01*
X126333333Y-65222380D02*
X126000000Y-64746190D01*
X125761904Y-65222380D02*
X125761904Y-64222380D01*
X126142857Y-64222380D01*
X126238095Y-64270000D01*
X126285714Y-64317619D01*
X126333333Y-64412857D01*
X126333333Y-64555714D01*
X126285714Y-64650952D01*
X126238095Y-64698571D01*
X126142857Y-64746190D01*
X125761904Y-64746190D01*
X126761904Y-64841428D02*
X127523809Y-64841428D01*
X128000000Y-65222380D02*
X128000000Y-64222380D01*
X128428571Y-65174761D02*
X128571428Y-65222380D01*
X128809523Y-65222380D01*
X128904761Y-65174761D01*
X128952380Y-65127142D01*
X129000000Y-65031904D01*
X129000000Y-64936666D01*
X128952380Y-64841428D01*
X128904761Y-64793809D01*
X128809523Y-64746190D01*
X128619047Y-64698571D01*
X128523809Y-64650952D01*
X128476190Y-64603333D01*
X128428571Y-64508095D01*
X128428571Y-64412857D01*
X128476190Y-64317619D01*
X128523809Y-64270000D01*
X128619047Y-64222380D01*
X128857142Y-64222380D01*
X129000000Y-64270000D01*
X129428571Y-65222380D02*
X129428571Y-64222380D01*
X129809523Y-64222380D01*
X129904761Y-64270000D01*
X129952380Y-64317619D01*
X130000000Y-64412857D01*
X130000000Y-64555714D01*
X129952380Y-64650952D01*
X129904761Y-64698571D01*
X129809523Y-64746190D01*
X129428571Y-64746190D01*
X135064761Y-89304761D02*
X135207619Y-89352380D01*
X135445714Y-89352380D01*
X135540952Y-89304761D01*
X135588571Y-89257142D01*
X135636190Y-89161904D01*
X135636190Y-89066666D01*
X135588571Y-88971428D01*
X135540952Y-88923809D01*
X135445714Y-88876190D01*
X135255238Y-88828571D01*
X135160000Y-88780952D01*
X135112380Y-88733333D01*
X135064761Y-88638095D01*
X135064761Y-88542857D01*
X135112380Y-88447619D01*
X135160000Y-88400000D01*
X135255238Y-88352380D01*
X135493333Y-88352380D01*
X135636190Y-88400000D01*
X136017142Y-89066666D02*
X136493333Y-89066666D01*
X135921904Y-89352380D02*
X136255238Y-88352380D01*
X136588571Y-89352380D01*
X137112380Y-88352380D02*
X137302857Y-88352380D01*
X137398095Y-88400000D01*
X137493333Y-88495238D01*
X137540952Y-88685714D01*
X137540952Y-89019047D01*
X137493333Y-89209523D01*
X137398095Y-89304761D01*
X137302857Y-89352380D01*
X137112380Y-89352380D01*
X137017142Y-89304761D01*
X136921904Y-89209523D01*
X136874285Y-89019047D01*
X136874285Y-88685714D01*
X136921904Y-88495238D01*
X137017142Y-88400000D01*
X137112380Y-88352380D01*
X138683809Y-88447619D02*
X138731428Y-88400000D01*
X138826666Y-88352380D01*
X139064761Y-88352380D01*
X139160000Y-88400000D01*
X139207619Y-88447619D01*
X139255238Y-88542857D01*
X139255238Y-88638095D01*
X139207619Y-88780952D01*
X138636190Y-89352380D01*
X139255238Y-89352380D01*
D12*
%TO.C,J1*%
X109182072Y-88586534D02*
X109998501Y-88586534D01*
X110161786Y-88640963D01*
X110270643Y-88749820D01*
X110325072Y-88913106D01*
X110325072Y-89021963D01*
X110325072Y-87443534D02*
X110325072Y-88096677D01*
X110325072Y-87770106D02*
X109182072Y-87770106D01*
X109345358Y-87878963D01*
X109454215Y-87987820D01*
X109508643Y-88096677D01*
D10*
%TO.C,J9*%
X229548522Y-92696411D02*
X230262808Y-92696411D01*
X230405665Y-92744030D01*
X230500903Y-92839268D01*
X230548522Y-92982125D01*
X230548522Y-93077363D01*
X230548522Y-92172601D02*
X230548522Y-91982125D01*
X230500903Y-91886887D01*
X230453284Y-91839268D01*
X230310427Y-91744030D01*
X230119951Y-91696411D01*
X229738999Y-91696411D01*
X229643761Y-91744030D01*
X229596142Y-91791649D01*
X229548522Y-91886887D01*
X229548522Y-92077363D01*
X229596142Y-92172601D01*
X229643761Y-92220220D01*
X229738999Y-92267839D01*
X229977094Y-92267839D01*
X230072332Y-92220220D01*
X230119951Y-92172601D01*
X230167570Y-92077363D01*
X230167570Y-91886887D01*
X230119951Y-91791649D01*
X230072332Y-91744030D01*
X229977094Y-91696411D01*
%TO.C,J5*%
X170502178Y-96168607D02*
X171216464Y-96168607D01*
X171359321Y-96216226D01*
X171454559Y-96311464D01*
X171502178Y-96454321D01*
X171502178Y-96549559D01*
X170502178Y-95216226D02*
X170502178Y-95692416D01*
X170978369Y-95740035D01*
X170930750Y-95692416D01*
X170883131Y-95597178D01*
X170883131Y-95359083D01*
X170930750Y-95263845D01*
X170978369Y-95216226D01*
X171073607Y-95168607D01*
X171311702Y-95168607D01*
X171406940Y-95216226D01*
X171454559Y-95263845D01*
X171502178Y-95359083D01*
X171502178Y-95597178D01*
X171454559Y-95692416D01*
X171406940Y-95740035D01*
%TO.C,J7*%
X131437846Y-93107468D02*
X132152132Y-93107468D01*
X132294989Y-93155087D01*
X132390227Y-93250325D01*
X132437846Y-93393182D01*
X132437846Y-93488420D01*
X131437846Y-92726515D02*
X131437846Y-92059849D01*
X132437846Y-92488420D01*
%TO.C,J10*%
X202844838Y-57633029D02*
X203559124Y-57633029D01*
X203701981Y-57680648D01*
X203797219Y-57775886D01*
X203844838Y-57918744D01*
X203844838Y-58013982D01*
X203844838Y-56633029D02*
X203844838Y-57204458D01*
X203844838Y-56918744D02*
X202844838Y-56918744D01*
X202987696Y-57013982D01*
X203082934Y-57109220D01*
X203130553Y-57204458D01*
X202844838Y-56013982D02*
X202844838Y-55918744D01*
X202892458Y-55823506D01*
X202940077Y-55775886D01*
X203035315Y-55728267D01*
X203225791Y-55680648D01*
X203463886Y-55680648D01*
X203654362Y-55728267D01*
X203749600Y-55775886D01*
X203797219Y-55823506D01*
X203844838Y-55918744D01*
X203844838Y-56013982D01*
X203797219Y-56109220D01*
X203749600Y-56156839D01*
X203654362Y-56204458D01*
X203463886Y-56252077D01*
X203225791Y-56252077D01*
X203035315Y-56204458D01*
X202940077Y-56156839D01*
X202892458Y-56109220D01*
X202844838Y-56013982D01*
%TO.C,R2*%
X136993333Y-80082380D02*
X136660000Y-79606190D01*
X136421904Y-80082380D02*
X136421904Y-79082380D01*
X136802857Y-79082380D01*
X136898095Y-79130000D01*
X136945714Y-79177619D01*
X136993333Y-79272857D01*
X136993333Y-79415714D01*
X136945714Y-79510952D01*
X136898095Y-79558571D01*
X136802857Y-79606190D01*
X136421904Y-79606190D01*
X137374285Y-79177619D02*
X137421904Y-79130000D01*
X137517142Y-79082380D01*
X137755238Y-79082380D01*
X137850476Y-79130000D01*
X137898095Y-79177619D01*
X137945714Y-79272857D01*
X137945714Y-79368095D01*
X137898095Y-79510952D01*
X137326666Y-80082380D01*
X137945714Y-80082380D01*
%TO.C,J4*%
X246002640Y-79207663D02*
X246002640Y-79921949D01*
X245955021Y-80064806D01*
X245859783Y-80160044D01*
X245716926Y-80207663D01*
X245621688Y-80207663D01*
X246907402Y-79540997D02*
X246907402Y-80207663D01*
X246669307Y-79160044D02*
X246431212Y-79874330D01*
X247050259Y-79874330D01*
%TO.C,J6*%
X107172380Y-58753333D02*
X107886666Y-58753333D01*
X108029523Y-58800952D01*
X108124761Y-58896190D01*
X108172380Y-59039047D01*
X108172380Y-59134285D01*
X107172380Y-57848571D02*
X107172380Y-58039047D01*
X107220000Y-58134285D01*
X107267619Y-58181904D01*
X107410476Y-58277142D01*
X107600952Y-58324761D01*
X107981904Y-58324761D01*
X108077142Y-58277142D01*
X108124761Y-58229523D01*
X108172380Y-58134285D01*
X108172380Y-57943809D01*
X108124761Y-57848571D01*
X108077142Y-57800952D01*
X107981904Y-57753333D01*
X107743809Y-57753333D01*
X107648571Y-57800952D01*
X107600952Y-57848571D01*
X107553333Y-57943809D01*
X107553333Y-58134285D01*
X107600952Y-58229523D01*
X107648571Y-58277142D01*
X107743809Y-58324761D01*
%TO.C,J8*%
X170687380Y-73973333D02*
X171401666Y-73973333D01*
X171544523Y-74020952D01*
X171639761Y-74116190D01*
X171687380Y-74259047D01*
X171687380Y-74354285D01*
X171115952Y-73354285D02*
X171068333Y-73449523D01*
X171020714Y-73497142D01*
X170925476Y-73544761D01*
X170877857Y-73544761D01*
X170782619Y-73497142D01*
X170735000Y-73449523D01*
X170687380Y-73354285D01*
X170687380Y-73163809D01*
X170735000Y-73068571D01*
X170782619Y-73020952D01*
X170877857Y-72973333D01*
X170925476Y-72973333D01*
X171020714Y-73020952D01*
X171068333Y-73068571D01*
X171115952Y-73163809D01*
X171115952Y-73354285D01*
X171163571Y-73449523D01*
X171211190Y-73497142D01*
X171306428Y-73544761D01*
X171496904Y-73544761D01*
X171592142Y-73497142D01*
X171639761Y-73449523D01*
X171687380Y-73354285D01*
X171687380Y-73163809D01*
X171639761Y-73068571D01*
X171592142Y-73020952D01*
X171496904Y-72973333D01*
X171306428Y-72973333D01*
X171211190Y-73020952D01*
X171163571Y-73068571D01*
X171115952Y-73163809D01*
%TO.C,J3*%
X182231281Y-54111221D02*
X182945567Y-54111221D01*
X183088424Y-54158840D01*
X183183662Y-54254078D01*
X183231281Y-54396935D01*
X183231281Y-54492173D01*
X182231281Y-53730268D02*
X182231281Y-53111221D01*
X182612234Y-53444554D01*
X182612234Y-53301697D01*
X182659853Y-53206459D01*
X182707472Y-53158840D01*
X182802710Y-53111221D01*
X183040805Y-53111221D01*
X183136043Y-53158840D01*
X183183662Y-53206459D01*
X183231281Y-53301697D01*
X183231281Y-53587411D01*
X183183662Y-53682649D01*
X183136043Y-53730268D01*
%TO.C,VR1*%
X125990476Y-89932380D02*
X126323809Y-90932380D01*
X126657142Y-89932380D01*
X127561904Y-90932380D02*
X127228571Y-90456190D01*
X126990476Y-90932380D02*
X126990476Y-89932380D01*
X127371428Y-89932380D01*
X127466666Y-89980000D01*
X127514285Y-90027619D01*
X127561904Y-90122857D01*
X127561904Y-90265714D01*
X127514285Y-90360952D01*
X127466666Y-90408571D01*
X127371428Y-90456190D01*
X126990476Y-90456190D01*
X128514285Y-90932380D02*
X127942857Y-90932380D01*
X128228571Y-90932380D02*
X128228571Y-89932380D01*
X128133333Y-90075238D01*
X128038095Y-90170476D01*
X127942857Y-90218095D01*
%TO.C,SW1*%
X122084281Y-94598344D02*
X122131900Y-94455487D01*
X122131900Y-94217391D01*
X122084281Y-94122153D01*
X122036662Y-94074534D01*
X121941424Y-94026915D01*
X121846186Y-94026915D01*
X121750948Y-94074534D01*
X121703329Y-94122153D01*
X121655710Y-94217391D01*
X121608091Y-94407868D01*
X121560472Y-94503106D01*
X121512853Y-94550725D01*
X121417615Y-94598344D01*
X121322377Y-94598344D01*
X121227139Y-94550725D01*
X121179520Y-94503106D01*
X121131900Y-94407868D01*
X121131900Y-94169772D01*
X121179520Y-94026915D01*
X121131900Y-93693582D02*
X122131900Y-93455487D01*
X121417615Y-93265011D01*
X122131900Y-93074534D01*
X121131900Y-92836439D01*
X122131900Y-91931677D02*
X122131900Y-92503106D01*
X122131900Y-92217391D02*
X121131900Y-92217391D01*
X121274758Y-92312630D01*
X121369996Y-92407868D01*
X121417615Y-92503106D01*
X115828072Y-97512911D02*
X116018548Y-97512911D01*
X116113786Y-97560531D01*
X116209024Y-97655769D01*
X116256643Y-97846245D01*
X116256643Y-98179578D01*
X116209024Y-98370054D01*
X116113786Y-98465292D01*
X116018548Y-98512911D01*
X115828072Y-98512911D01*
X115732834Y-98465292D01*
X115637596Y-98370054D01*
X115589977Y-98179578D01*
X115589977Y-97846245D01*
X115637596Y-97655769D01*
X115732834Y-97560531D01*
X115828072Y-97512911D01*
X116685215Y-98512911D02*
X116685215Y-97512911D01*
X117256643Y-98512911D01*
X117256643Y-97512911D01*
X115517599Y-88780391D02*
X115708075Y-88780391D01*
X115803313Y-88828011D01*
X115898551Y-88923249D01*
X115946170Y-89113725D01*
X115946170Y-89447058D01*
X115898551Y-89637534D01*
X115803313Y-89732772D01*
X115708075Y-89780391D01*
X115517599Y-89780391D01*
X115422360Y-89732772D01*
X115327122Y-89637534D01*
X115279503Y-89447058D01*
X115279503Y-89113725D01*
X115327122Y-88923249D01*
X115422360Y-88828011D01*
X115517599Y-88780391D01*
X116708075Y-89256582D02*
X116374741Y-89256582D01*
X116374741Y-89780391D02*
X116374741Y-88780391D01*
X116850932Y-88780391D01*
X117565218Y-89256582D02*
X117231884Y-89256582D01*
X117231884Y-89780391D02*
X117231884Y-88780391D01*
X117708075Y-88780391D01*
%TO.C,J2*%
X103438968Y-67711689D02*
X103438968Y-68425975D01*
X103391349Y-68568832D01*
X103296111Y-68664070D01*
X103153254Y-68711689D01*
X103058016Y-68711689D01*
X103867540Y-67806928D02*
X103915159Y-67759309D01*
X104010397Y-67711689D01*
X104248492Y-67711689D01*
X104343730Y-67759309D01*
X104391349Y-67806928D01*
X104438968Y-67902166D01*
X104438968Y-67997404D01*
X104391349Y-68140261D01*
X103819921Y-68711689D01*
X104438968Y-68711689D01*
%TO.C,C2*%
X128423333Y-86307142D02*
X128375714Y-86354761D01*
X128232857Y-86402380D01*
X128137619Y-86402380D01*
X127994761Y-86354761D01*
X127899523Y-86259523D01*
X127851904Y-86164285D01*
X127804285Y-85973809D01*
X127804285Y-85830952D01*
X127851904Y-85640476D01*
X127899523Y-85545238D01*
X127994761Y-85450000D01*
X128137619Y-85402380D01*
X128232857Y-85402380D01*
X128375714Y-85450000D01*
X128423333Y-85497619D01*
X128804285Y-85497619D02*
X128851904Y-85450000D01*
X128947142Y-85402380D01*
X129185238Y-85402380D01*
X129280476Y-85450000D01*
X129328095Y-85497619D01*
X129375714Y-85592857D01*
X129375714Y-85688095D01*
X129328095Y-85830952D01*
X128756666Y-86402380D01*
X129375714Y-86402380D01*
%TO.C,U2*%
X126238095Y-75782380D02*
X126238095Y-76591904D01*
X126285714Y-76687142D01*
X126333333Y-76734761D01*
X126428571Y-76782380D01*
X126619047Y-76782380D01*
X126714285Y-76734761D01*
X126761904Y-76687142D01*
X126809523Y-76591904D01*
X126809523Y-75782380D01*
X127238095Y-75877619D02*
X127285714Y-75830000D01*
X127380952Y-75782380D01*
X127619047Y-75782380D01*
X127714285Y-75830000D01*
X127761904Y-75877619D01*
X127809523Y-75972857D01*
X127809523Y-76068095D01*
X127761904Y-76210952D01*
X127190476Y-76782380D01*
X127809523Y-76782380D01*
%TO.C,R1*%
X136993333Y-75002380D02*
X136660000Y-74526190D01*
X136421904Y-75002380D02*
X136421904Y-74002380D01*
X136802857Y-74002380D01*
X136898095Y-74050000D01*
X136945714Y-74097619D01*
X136993333Y-74192857D01*
X136993333Y-74335714D01*
X136945714Y-74430952D01*
X136898095Y-74478571D01*
X136802857Y-74526190D01*
X136421904Y-74526190D01*
X137945714Y-75002380D02*
X137374285Y-75002380D01*
X137660000Y-75002380D02*
X137660000Y-74002380D01*
X137564761Y-74145238D01*
X137469523Y-74240476D01*
X137374285Y-74288095D01*
%TO.C,C1*%
X124293333Y-86307142D02*
X124245714Y-86354761D01*
X124102857Y-86402380D01*
X124007619Y-86402380D01*
X123864761Y-86354761D01*
X123769523Y-86259523D01*
X123721904Y-86164285D01*
X123674285Y-85973809D01*
X123674285Y-85830952D01*
X123721904Y-85640476D01*
X123769523Y-85545238D01*
X123864761Y-85450000D01*
X124007619Y-85402380D01*
X124102857Y-85402380D01*
X124245714Y-85450000D01*
X124293333Y-85497619D01*
X125245714Y-86402380D02*
X124674285Y-86402380D01*
X124960000Y-86402380D02*
X124960000Y-85402380D01*
X124864761Y-85545238D01*
X124769523Y-85640476D01*
X124674285Y-85688095D01*
D13*
%TO.C,J1*%
X99933230Y-84860098D02*
X99933230Y-94004098D01*
X101506230Y-84860098D02*
X99933230Y-84860098D01*
X103690230Y-94004098D02*
X105586230Y-94004098D01*
X99933230Y-94004098D02*
X101506230Y-94004098D01*
X105586230Y-84860098D02*
X103690230Y-84860098D01*
D14*
%TO.C,J9*%
X231536142Y-94963078D02*
X231536142Y-92363078D01*
X231536142Y-92363078D02*
X234136142Y-92363078D01*
X234136142Y-89763078D02*
X239276142Y-89763078D01*
X231536142Y-94963078D02*
X239276142Y-94963078D01*
X231536142Y-89763078D02*
X232866142Y-89763078D01*
X234136142Y-92363078D02*
X234136142Y-89763078D01*
X231536142Y-91093078D02*
X231536142Y-89763078D01*
X239276142Y-94963078D02*
X239276142Y-89763078D01*
%TO.C,J5*%
X180229798Y-98435274D02*
X180229798Y-93235274D01*
X175089798Y-95835274D02*
X175089798Y-93235274D01*
X172489798Y-95835274D02*
X175089798Y-95835274D01*
X172489798Y-93235274D02*
X173819798Y-93235274D01*
X172489798Y-98435274D02*
X172489798Y-95835274D01*
X175089798Y-93235274D02*
X180229798Y-93235274D01*
X172489798Y-98435274D02*
X180229798Y-98435274D01*
X172489798Y-94565274D02*
X172489798Y-93235274D01*
%TO.C,J7*%
X136025466Y-92774135D02*
X136025466Y-90174135D01*
X133425466Y-91504135D02*
X133425466Y-90174135D01*
X133425466Y-90174135D02*
X134755466Y-90174135D01*
X141165466Y-95374135D02*
X141165466Y-90174135D01*
X133425466Y-95374135D02*
X133425466Y-92774135D01*
X133425466Y-92774135D02*
X136025466Y-92774135D01*
X136025466Y-90174135D02*
X141165466Y-90174135D01*
X133425466Y-95374135D02*
X141165466Y-95374135D01*
%TO.C,J10*%
X204832458Y-55553506D02*
X204832458Y-54223506D01*
X207432458Y-56823506D02*
X207432458Y-54223506D01*
X204832458Y-59423506D02*
X212572458Y-59423506D01*
X204832458Y-54223506D02*
X206162458Y-54223506D01*
X204832458Y-56823506D02*
X207432458Y-56823506D01*
X204832458Y-59423506D02*
X204832458Y-56823506D01*
X207432458Y-54223506D02*
X212572458Y-54223506D01*
X212572458Y-59423506D02*
X212572458Y-54223506D01*
%TO.C,R2*%
X136932936Y-80545000D02*
X137387064Y-80545000D01*
X136932936Y-82015000D02*
X137387064Y-82015000D01*
%TO.C,J4*%
X243735974Y-75715283D02*
X243735974Y-70575283D01*
X246335974Y-75715283D02*
X243735974Y-75715283D01*
X248935974Y-78315283D02*
X246335974Y-78315283D01*
X246335974Y-78315283D02*
X246335974Y-75715283D01*
X248935974Y-78315283D02*
X248935974Y-70575283D01*
X245065974Y-78315283D02*
X243735974Y-78315283D01*
X248935974Y-70575283D02*
X243735974Y-70575283D01*
X243735974Y-78315283D02*
X243735974Y-76985283D01*
%TO.C,J6*%
X109160000Y-58420000D02*
X111760000Y-58420000D01*
X109160000Y-55820000D02*
X110490000Y-55820000D01*
X116900000Y-61020000D02*
X116900000Y-55820000D01*
X109160000Y-61020000D02*
X109160000Y-58420000D01*
X109160000Y-61020000D02*
X116900000Y-61020000D01*
X111760000Y-58420000D02*
X111760000Y-55820000D01*
X109160000Y-57150000D02*
X109160000Y-55820000D01*
X111760000Y-55820000D02*
X116900000Y-55820000D01*
%TO.C,J8*%
X172675000Y-76240000D02*
X180415000Y-76240000D01*
X180415000Y-76240000D02*
X180415000Y-71040000D01*
X172675000Y-73640000D02*
X175275000Y-73640000D01*
X175275000Y-73640000D02*
X175275000Y-71040000D01*
X172675000Y-72370000D02*
X172675000Y-71040000D01*
X175275000Y-71040000D02*
X180415000Y-71040000D01*
X172675000Y-76240000D02*
X172675000Y-73640000D01*
X172675000Y-71040000D02*
X174005000Y-71040000D01*
%TO.C,J3*%
X181338901Y-51177888D02*
X173598901Y-51177888D01*
X181338901Y-53777888D02*
X178738901Y-53777888D01*
X178738901Y-53777888D02*
X178738901Y-56377888D01*
X181338901Y-55047888D02*
X181338901Y-56377888D01*
X173598901Y-51177888D02*
X173598901Y-56377888D01*
X181338901Y-56377888D02*
X180008901Y-56377888D01*
X181338901Y-51177888D02*
X181338901Y-53777888D01*
X178738901Y-56377888D02*
X173598901Y-56377888D01*
%TO.C,VR1*%
X125940000Y-96340000D02*
X125940000Y-96110000D01*
X124800000Y-91850000D02*
X125940000Y-91850000D01*
X128660000Y-96340000D02*
X125940000Y-96340000D01*
X125940000Y-91620000D02*
X125940000Y-91850000D01*
X128660000Y-91620000D02*
X128660000Y-92930000D01*
X125940000Y-91620000D02*
X128660000Y-91620000D01*
X128660000Y-95030000D02*
X128660000Y-96340000D01*
%TO.C,J2*%
X101172302Y-69699309D02*
X101172302Y-77439309D01*
X101172302Y-69699309D02*
X103772302Y-69699309D01*
X101172302Y-77439309D02*
X106372302Y-77439309D01*
X106372302Y-69699309D02*
X106372302Y-71029309D01*
X103772302Y-72299309D02*
X106372302Y-72299309D01*
X106372302Y-72299309D02*
X106372302Y-77439309D01*
X103772302Y-69699309D02*
X103772302Y-72299309D01*
X105042302Y-69699309D02*
X106372302Y-69699309D01*
%TO.C,C2*%
X128328748Y-88365000D02*
X128851252Y-88365000D01*
X128328748Y-86895000D02*
X128851252Y-86895000D01*
D10*
%TO.C,U2*%
X124250000Y-82765000D02*
X124250000Y-82465000D01*
X124250000Y-77460000D02*
X122500000Y-77460000D01*
X124250000Y-82765000D02*
X129750000Y-82765000D01*
X129750000Y-82765000D02*
X129750000Y-82465000D01*
X129750000Y-77255000D02*
X129750000Y-77555000D01*
X124250000Y-77255000D02*
X124250000Y-77460000D01*
X124250000Y-77255000D02*
X129750000Y-77255000D01*
D14*
%TO.C,R1*%
X136932936Y-76935000D02*
X137387064Y-76935000D01*
X136932936Y-75465000D02*
X137387064Y-75465000D01*
%TO.C,C1*%
X124198748Y-86895000D02*
X124721252Y-86895000D01*
X124198748Y-88365000D02*
X124721252Y-88365000D01*
%TD*%
M02*
