%TF.GenerationSoftware,KiCad,Pcbnew,(6.0.6-0)*%
%TF.CreationDate,2022-08-20T19:49:00-04:00*%
%TF.ProjectId,SAO_Platform,53414f5f-506c-4617-9466-6f726d2e6b69,rev?*%
%TF.SameCoordinates,Original*%
%TF.FileFunction,Copper,L1,Top*%
%TF.FilePolarity,Positive*%
%FSLAX46Y46*%
G04 Gerber Fmt 4.6, Leading zero omitted, Abs format (unit mm)*
G04 Created by KiCad (PCBNEW (6.0.6-0)) date 2022-08-20 19:49:00*
%MOMM*%
%LPD*%
G01*
G04 APERTURE LIST*
G04 Aperture macros list*
%AMRoundRect*
0 Rectangle with rounded corners*
0 $1 Rounding radius*
0 $2 $3 $4 $5 $6 $7 $8 $9 X,Y pos of 4 corners*
0 Add a 4 corners polygon primitive as box body*
4,1,4,$2,$3,$4,$5,$6,$7,$8,$9,$2,$3,0*
0 Add four circle primitives for the rounded corners*
1,1,$1+$1,$2,$3*
1,1,$1+$1,$4,$5*
1,1,$1+$1,$6,$7*
1,1,$1+$1,$8,$9*
0 Add four rect primitives between the rounded corners*
20,1,$1+$1,$2,$3,$4,$5,0*
20,1,$1+$1,$4,$5,$6,$7,0*
20,1,$1+$1,$6,$7,$8,$9,0*
20,1,$1+$1,$8,$9,$2,$3,0*%
%AMFreePoly0*
4,1,9,3.862500,-0.866500,0.737500,-0.866500,0.737500,-0.450000,-0.737500,-0.450000,-0.737500,0.450000,0.737500,0.450000,0.737500,0.866500,3.862500,0.866500,3.862500,-0.866500,3.862500,-0.866500,$1*%
G04 Aperture macros list end*
%ADD10C,0.300000*%
%TA.AperFunction,NonConductor*%
%ADD11C,0.300000*%
%TD*%
%TA.AperFunction,ComponentPad*%
%ADD12O,2.000000X1.200000*%
%TD*%
%TA.AperFunction,ComponentPad*%
%ADD13O,1.800000X1.200000*%
%TD*%
%TA.AperFunction,SMDPad,CuDef*%
%ADD14R,1.300000X0.300000*%
%TD*%
%TA.AperFunction,ComponentPad*%
%ADD15R,1.700000X1.700000*%
%TD*%
%TA.AperFunction,ComponentPad*%
%ADD16O,1.700000X1.700000*%
%TD*%
%TA.AperFunction,SMDPad,CuDef*%
%ADD17RoundRect,0.250000X-0.350000X-0.450000X0.350000X-0.450000X0.350000X0.450000X-0.350000X0.450000X0*%
%TD*%
%TA.AperFunction,SMDPad,CuDef*%
%ADD18R,1.300000X0.900000*%
%TD*%
%TA.AperFunction,SMDPad,CuDef*%
%ADD19FreePoly0,0.000000*%
%TD*%
%TA.AperFunction,SMDPad,CuDef*%
%ADD20R,2.500000X1.200000*%
%TD*%
%TA.AperFunction,SMDPad,CuDef*%
%ADD21RoundRect,0.250000X-0.250000X-0.475000X0.250000X-0.475000X0.250000X0.475000X-0.250000X0.475000X0*%
%TD*%
%TA.AperFunction,SMDPad,CuDef*%
%ADD22R,1.700000X0.650000*%
%TD*%
%TA.AperFunction,ComponentPad*%
%ADD23O,1.600000X1.600000*%
%TD*%
%TA.AperFunction,ComponentPad*%
%ADD24R,1.600000X1.600000*%
%TD*%
%TA.AperFunction,ViaPad*%
%ADD25C,0.800000*%
%TD*%
%TA.AperFunction,Conductor*%
%ADD26C,0.254000*%
%TD*%
G04 APERTURE END LIST*
D10*
D11*
X242054285Y-97468571D02*
X242411428Y-98468571D01*
X242768571Y-97468571D01*
X243625714Y-96968571D02*
X243768571Y-96968571D01*
X243911428Y-97040000D01*
X243982857Y-97111428D01*
X244054285Y-97254285D01*
X244125714Y-97540000D01*
X244125714Y-97897142D01*
X244054285Y-98182857D01*
X243982857Y-98325714D01*
X243911428Y-98397142D01*
X243768571Y-98468571D01*
X243625714Y-98468571D01*
X243482857Y-98397142D01*
X243411428Y-98325714D01*
X243340000Y-98182857D01*
X243268571Y-97897142D01*
X243268571Y-97540000D01*
X243340000Y-97254285D01*
X243411428Y-97111428D01*
X243482857Y-97040000D01*
X243625714Y-96968571D01*
X245554285Y-98468571D02*
X244697142Y-98468571D01*
X245125714Y-98468571D02*
X245125714Y-96968571D01*
X244982857Y-97182857D01*
X244840000Y-97325714D01*
X244697142Y-97397142D01*
D12*
%TO.P,J1,1*%
%TO.N,N/C*%
X106778230Y-85112098D03*
%TO.P,J1,2*%
X106778230Y-93752098D03*
D13*
%TO.P,J1,3*%
X102598230Y-85112098D03*
%TO.P,J1,4*%
X102598230Y-93752098D03*
D14*
%TO.P,J1,A1,GND*%
%TO.N,GND*%
X107428230Y-86082098D03*
%TO.P,J1,A4,VBUS*%
%TO.N,Net-(J1-PadA4)*%
X107428230Y-86882098D03*
%TO.P,J1,A5,CC1*%
%TO.N,unconnected-(J1-PadA5)*%
X107428230Y-88182098D03*
%TO.P,J1,A6,DP1*%
%TO.N,unconnected-(J1-PadA6)*%
X107428230Y-89182098D03*
%TO.P,J1,A7,DN1*%
%TO.N,unconnected-(J1-PadA7)*%
X107428230Y-89682098D03*
%TO.P,J1,A8,SUB1*%
%TO.N,unconnected-(J1-PadA8)*%
X107428230Y-90682098D03*
%TO.P,J1,A9,VBUS*%
%TO.N,Net-(J1-PadA4)*%
X107428230Y-91982098D03*
%TO.P,J1,A12,GND*%
%TO.N,GND*%
X107428230Y-92782098D03*
%TO.P,J1,B1,GND*%
X107428230Y-92482098D03*
%TO.P,J1,B4,VBUS*%
%TO.N,Net-(J1-PadA4)*%
X107428230Y-91682098D03*
%TO.P,J1,B5,CC2*%
%TO.N,unconnected-(J1-PadB5)*%
X107428230Y-91182098D03*
%TO.P,J1,B6,DP2*%
%TO.N,unconnected-(J1-PadB6)*%
X107428230Y-90182098D03*
%TO.P,J1,B7,DN2*%
%TO.N,unconnected-(J1-PadB7)*%
X107428230Y-88682098D03*
%TO.P,J1,B8,SUB2*%
%TO.N,unconnected-(J1-PadB8)*%
X107428230Y-87682098D03*
%TO.P,J1,B9,VBUS*%
%TO.N,Net-(J1-PadA4)*%
X107428230Y-87182098D03*
%TO.P,J1,B12,GND*%
%TO.N,GND*%
X107428230Y-86382098D03*
%TD*%
D15*
%TO.P,J9,1,Pin_1*%
%TO.N,Net-(C2-Pad1)*%
X232866142Y-91093078D03*
D16*
%TO.P,J9,2,Pin_2*%
%TO.N,GND*%
X232866142Y-93633078D03*
%TO.P,J9,3,Pin_3*%
%TO.N,/SDA_LOCAL*%
X235406142Y-91093078D03*
%TO.P,J9,4,Pin_4*%
%TO.N,/SCL_LOCAL*%
X235406142Y-93633078D03*
%TO.P,J9,5,Pin_5*%
%TO.N,/GPIO_1_LOCAL*%
X237946142Y-91093078D03*
%TO.P,J9,6,Pin_6*%
%TO.N,/GPIO_2_LOCAL*%
X237946142Y-93633078D03*
%TD*%
D15*
%TO.P,J5,1,Pin_1*%
%TO.N,Net-(J1-PadA4)*%
X173819798Y-94565274D03*
D16*
%TO.P,J5,2,Pin_2*%
%TO.N,GND*%
X173819798Y-97105274D03*
%TO.P,J5,3,Pin_3*%
%TO.N,unconnected-(J5-Pad3)*%
X176359798Y-94565274D03*
%TO.P,J5,4,Pin_4*%
%TO.N,unconnected-(J5-Pad4)*%
X176359798Y-97105274D03*
%TO.P,J5,5,Pin_5*%
%TO.N,unconnected-(J5-Pad5)*%
X178899798Y-94565274D03*
%TO.P,J5,6,Pin_6*%
%TO.N,unconnected-(J5-Pad6)*%
X178899798Y-97105274D03*
%TD*%
D15*
%TO.P,J7,1,Pin_1*%
%TO.N,Net-(C2-Pad1)*%
X134755466Y-91504135D03*
D16*
%TO.P,J7,2,Pin_2*%
%TO.N,GND*%
X134755466Y-94044135D03*
%TO.P,J7,3,Pin_3*%
%TO.N,/SDA_LOCAL*%
X137295466Y-91504135D03*
%TO.P,J7,4,Pin_4*%
%TO.N,/SCL_LOCAL*%
X137295466Y-94044135D03*
%TO.P,J7,5,Pin_5*%
%TO.N,/GPIO_1_LOCAL*%
X139835466Y-91504135D03*
%TO.P,J7,6,Pin_6*%
%TO.N,/GPIO_2_LOCAL*%
X139835466Y-94044135D03*
%TD*%
D15*
%TO.P,J10,1,Pin_1*%
%TO.N,Net-(C2-Pad1)*%
X206162458Y-55553506D03*
D16*
%TO.P,J10,2,Pin_2*%
%TO.N,GND*%
X206162458Y-58093506D03*
%TO.P,J10,3,Pin_3*%
%TO.N,/SDA_LOCAL*%
X208702458Y-55553506D03*
%TO.P,J10,4,Pin_4*%
%TO.N,/SCL_LOCAL*%
X208702458Y-58093506D03*
%TO.P,J10,5,Pin_5*%
%TO.N,/GPIO_1_LOCAL*%
X211242458Y-55553506D03*
%TO.P,J10,6,Pin_6*%
%TO.N,/GPIO_2_LOCAL*%
X211242458Y-58093506D03*
%TD*%
D17*
%TO.P,R2,1*%
%TO.N,/SCL_LOCAL*%
X136160000Y-81280000D03*
%TO.P,R2,2*%
%TO.N,Net-(C2-Pad1)*%
X138160000Y-81280000D03*
%TD*%
D15*
%TO.P,J4,1,Pin_1*%
%TO.N,Net-(J1-PadA4)*%
X245065974Y-76985283D03*
D16*
%TO.P,J4,2,Pin_2*%
%TO.N,GND*%
X247605974Y-76985283D03*
%TO.P,J4,3,Pin_3*%
%TO.N,unconnected-(J4-Pad3)*%
X245065974Y-74445283D03*
%TO.P,J4,4,Pin_4*%
%TO.N,unconnected-(J4-Pad4)*%
X247605974Y-74445283D03*
%TO.P,J4,5,Pin_5*%
%TO.N,unconnected-(J4-Pad5)*%
X245065974Y-71905283D03*
%TO.P,J4,6,Pin_6*%
%TO.N,unconnected-(J4-Pad6)*%
X247605974Y-71905283D03*
%TD*%
D15*
%TO.P,J6,1,Pin_1*%
%TO.N,Net-(C2-Pad1)*%
X110490000Y-57150000D03*
D16*
%TO.P,J6,2,Pin_2*%
%TO.N,GND*%
X110490000Y-59690000D03*
%TO.P,J6,3,Pin_3*%
%TO.N,/SDA_LOCAL*%
X113030000Y-57150000D03*
%TO.P,J6,4,Pin_4*%
%TO.N,/SCL_LOCAL*%
X113030000Y-59690000D03*
%TO.P,J6,5,Pin_5*%
%TO.N,/GPIO_1_LOCAL*%
X115570000Y-57150000D03*
%TO.P,J6,6,Pin_6*%
%TO.N,/GPIO_2_LOCAL*%
X115570000Y-59690000D03*
%TD*%
D15*
%TO.P,J8,1,Pin_1*%
%TO.N,Net-(C2-Pad1)*%
X174005000Y-72370000D03*
D16*
%TO.P,J8,2,Pin_2*%
%TO.N,GND*%
X174005000Y-74910000D03*
%TO.P,J8,3,Pin_3*%
%TO.N,/SDA_LOCAL*%
X176545000Y-72370000D03*
%TO.P,J8,4,Pin_4*%
%TO.N,/SCL_LOCAL*%
X176545000Y-74910000D03*
%TO.P,J8,5,Pin_5*%
%TO.N,/GPIO_1_LOCAL*%
X179085000Y-72370000D03*
%TO.P,J8,6,Pin_6*%
%TO.N,/GPIO_2_LOCAL*%
X179085000Y-74910000D03*
%TD*%
D15*
%TO.P,J3,1,Pin_1*%
%TO.N,Net-(J1-PadA4)*%
X180008901Y-55047888D03*
D16*
%TO.P,J3,2,Pin_2*%
%TO.N,GND*%
X180008901Y-52507888D03*
%TO.P,J3,3,Pin_3*%
%TO.N,unconnected-(J3-Pad3)*%
X177468901Y-55047888D03*
%TO.P,J3,4,Pin_4*%
%TO.N,unconnected-(J3-Pad4)*%
X177468901Y-52507888D03*
%TO.P,J3,5,Pin_5*%
%TO.N,unconnected-(J3-Pad5)*%
X174928901Y-55047888D03*
%TO.P,J3,6,Pin_6*%
%TO.N,unconnected-(J3-Pad6)*%
X174928901Y-52507888D03*
%TD*%
D18*
%TO.P,VR1,1,GND*%
%TO.N,GND*%
X125350000Y-92480000D03*
D19*
%TO.P,VR1,2,Vin*%
%TO.N,Net-(C1-Pad1)*%
X125437500Y-93980000D03*
D18*
%TO.P,VR1,3,Vout*%
%TO.N,Net-(C2-Pad1)*%
X125350000Y-95480000D03*
%TD*%
D20*
%TO.P,SW1,1,A*%
%TO.N,Net-(C1-Pad1)*%
X113880000Y-96206971D03*
X119380000Y-96206971D03*
%TO.P,SW1,2,B*%
%TO.N,Net-(J1-PadA4)*%
X119380000Y-93706971D03*
X113880000Y-93706971D03*
%TO.P,SW1,3,C*%
%TO.N,unconnected-(SW1-Pad3)*%
X113880000Y-91206971D03*
X119380000Y-91206971D03*
%TD*%
D15*
%TO.P,J2,1,Pin_1*%
%TO.N,Net-(J1-PadA4)*%
X105042302Y-71029309D03*
D16*
%TO.P,J2,2,Pin_2*%
%TO.N,GND*%
X102502302Y-71029309D03*
%TO.P,J2,3,Pin_3*%
%TO.N,unconnected-(J2-Pad3)*%
X105042302Y-73569309D03*
%TO.P,J2,4,Pin_4*%
%TO.N,unconnected-(J2-Pad4)*%
X102502302Y-73569309D03*
%TO.P,J2,5,Pin_5*%
%TO.N,unconnected-(J2-Pad5)*%
X105042302Y-76109309D03*
%TO.P,J2,6,Pin_6*%
%TO.N,unconnected-(J2-Pad6)*%
X102502302Y-76109309D03*
%TD*%
D21*
%TO.P,C2,1*%
%TO.N,Net-(C2-Pad1)*%
X127640000Y-87630000D03*
%TO.P,C2,2*%
%TO.N,GND*%
X129540000Y-87630000D03*
%TD*%
D22*
%TO.P,U2,1,~{RESET}/PB5*%
%TO.N,Net-(J11-Pad5)*%
X123350000Y-78105000D03*
%TO.P,U2,2,XTAL1/PB3*%
%TO.N,/GPIO_2_LOCAL*%
X123350000Y-79375000D03*
%TO.P,U2,3,XTAL2/PB4*%
%TO.N,unconnected-(U2-Pad3)*%
X123350000Y-80645000D03*
%TO.P,U2,4,GND*%
%TO.N,GND*%
X123350000Y-81915000D03*
%TO.P,U2,5,AREF/PB0*%
%TO.N,/SDA_LOCAL*%
X130650000Y-81915000D03*
%TO.P,U2,6,PB1*%
%TO.N,/GPIO_1_LOCAL*%
X130650000Y-80645000D03*
%TO.P,U2,7,PB2*%
%TO.N,/SCL_LOCAL*%
X130650000Y-79375000D03*
%TO.P,U2,8,VCC*%
%TO.N,Net-(C2-Pad1)*%
X130650000Y-78105000D03*
%TD*%
D17*
%TO.P,R1,1*%
%TO.N,/SDA_LOCAL*%
X136160000Y-76200000D03*
%TO.P,R1,2*%
%TO.N,Net-(C2-Pad1)*%
X138160000Y-76200000D03*
%TD*%
D21*
%TO.P,C1,1*%
%TO.N,Net-(C1-Pad1)*%
X123510000Y-87630000D03*
%TO.P,C1,2*%
%TO.N,GND*%
X125410000Y-87630000D03*
%TD*%
D23*
%TO.P,J11,1,MISO*%
%TO.N,/GPIO_1_LOCAL*%
X125195027Y-67310000D03*
D24*
%TO.P,J11,2,VCC*%
%TO.N,Net-(C2-Pad1)*%
X127735027Y-67310000D03*
D23*
%TO.P,J11,3,SCK*%
%TO.N,/SCL_LOCAL*%
X125195027Y-69850000D03*
%TO.P,J11,4,MOSI*%
%TO.N,/SDA_LOCAL*%
X127735027Y-69850000D03*
%TO.P,J11,5,~{RST}*%
%TO.N,Net-(J11-Pad5)*%
X125195027Y-72390000D03*
%TO.P,J11,6,GND*%
%TO.N,GND*%
X127735027Y-72390000D03*
%TD*%
D25*
%TO.N,Net-(C2-Pad1)*%
X128270000Y-78740000D03*
X127000000Y-81280000D03*
%TO.N,/GPIO_1_LOCAL*%
X129540000Y-74930000D03*
X144780000Y-85090000D03*
X189230000Y-83780000D03*
X200640000Y-72370000D03*
%TO.N,/SCL_LOCAL*%
X132080000Y-76200000D03*
%TO.N,/SDA_LOCAL*%
X144780000Y-78740000D03*
%TO.N,/GPIO_2_LOCAL*%
X153670000Y-93980000D03*
X125730000Y-78740000D03*
%TD*%
D26*
%TO.N,Net-(C1-Pad1)*%
X119190656Y-96206971D02*
X121417627Y-93980000D01*
X125096000Y-93980000D02*
X125437500Y-93980000D01*
X123510000Y-87630000D02*
X123510000Y-92394000D01*
X121417627Y-93980000D02*
X125437500Y-93980000D01*
X113690656Y-96206971D02*
X119190656Y-96206971D01*
X123510000Y-92394000D02*
X125096000Y-93980000D01*
%TO.N,unconnected-(SW1-Pad3)*%
X113690656Y-91206971D02*
X119190656Y-91206971D01*
%TO.N,Net-(C2-Pad1)*%
X175276449Y-73641449D02*
X174005000Y-72370000D01*
X141990000Y-72370000D02*
X138160000Y-76200000D01*
X232866142Y-91093078D02*
X215414513Y-73641449D01*
X129627000Y-94981950D02*
X129627000Y-91353000D01*
X128270000Y-78740000D02*
X128905000Y-78105000D01*
X134350000Y-72390000D02*
X133350000Y-72390000D01*
X125350000Y-95480000D02*
X129128950Y-95480000D01*
X134755466Y-91504135D02*
X129778135Y-91504135D01*
X133350000Y-76470000D02*
X138160000Y-81280000D01*
X111853000Y-58513000D02*
X118938027Y-58513000D01*
X130810000Y-77945000D02*
X130650000Y-78105000D01*
X138160000Y-76200000D02*
X134350000Y-72390000D01*
X129128950Y-95480000D02*
X129627000Y-94981950D01*
X130810000Y-72390000D02*
X130810000Y-77945000D01*
X118938027Y-58513000D02*
X127735027Y-67310000D01*
X129627000Y-91353000D02*
X129627000Y-89617000D01*
X215414513Y-73641449D02*
X175276449Y-73641449D01*
X174005000Y-72370000D02*
X141990000Y-72370000D01*
X130810000Y-70384973D02*
X130810000Y-72390000D01*
X129627000Y-89617000D02*
X127640000Y-87630000D01*
X174005000Y-72370000D02*
X174005000Y-71266000D01*
X133350000Y-72390000D02*
X133350000Y-76470000D01*
X110490000Y-57150000D02*
X111853000Y-58513000D01*
X127640000Y-87630000D02*
X127000000Y-86990000D01*
X127000000Y-86990000D02*
X127000000Y-81280000D01*
X129778135Y-91504135D02*
X129627000Y-91353000D01*
X127735027Y-67310000D02*
X130810000Y-70384973D01*
X189717494Y-55553506D02*
X206162458Y-55553506D01*
X174005000Y-71266000D02*
X189717494Y-55553506D01*
X128905000Y-78105000D02*
X130650000Y-78105000D01*
X133350000Y-72390000D02*
X130810000Y-72390000D01*
%TO.N,/GPIO_1_LOCAL*%
X131754000Y-80645000D02*
X130650000Y-80645000D01*
X126465027Y-68580000D02*
X128270000Y-68580000D01*
X179085000Y-72370000D02*
X200640000Y-72370000D01*
X139835466Y-88726466D02*
X131754000Y-80645000D01*
X139835466Y-91504135D02*
X139835466Y-88726466D01*
X211242458Y-55553506D02*
X237946142Y-82257190D01*
X189230000Y-83780000D02*
X170857052Y-83780000D01*
X156847052Y-97790000D02*
X144780000Y-97790000D01*
X125195027Y-67310000D02*
X126465027Y-68580000D01*
X144780000Y-97790000D02*
X144780000Y-85090000D01*
X170857052Y-83780000D02*
X156847052Y-97790000D01*
X128270000Y-68580000D02*
X129540000Y-69850000D01*
X129540000Y-69850000D02*
X129540000Y-74930000D01*
X237946142Y-82257190D02*
X237946142Y-91093078D01*
%TO.N,/SCL_LOCAL*%
X134255000Y-79375000D02*
X132715000Y-79375000D01*
X132715000Y-79375000D02*
X130650000Y-79375000D01*
X130650000Y-79375000D02*
X131445000Y-79375000D01*
X138472466Y-95221135D02*
X137295466Y-94044135D01*
X136160000Y-81280000D02*
X134255000Y-79375000D01*
X140322996Y-95221135D02*
X138472466Y-95221135D01*
X141012466Y-88942466D02*
X141012466Y-94531665D01*
X131445000Y-79375000D02*
X141012466Y-88942466D01*
X141012466Y-94531665D02*
X140322996Y-95221135D01*
X132715000Y-76835000D02*
X132080000Y-76200000D01*
X132715000Y-79375000D02*
X132715000Y-76835000D01*
%TO.N,/SDA_LOCAL*%
X191998494Y-56916506D02*
X207339458Y-56916506D01*
X208702458Y-55553506D02*
X209879458Y-56730506D01*
X141466466Y-94753534D02*
X139700000Y-96520000D01*
X130175000Y-81915000D02*
X130650000Y-81915000D01*
X138106801Y-96520000D02*
X135932466Y-94345665D01*
X135932466Y-92867135D02*
X137295466Y-91504135D01*
X141466466Y-81506466D02*
X141466466Y-94753534D01*
X209879458Y-56730506D02*
X209879458Y-65566394D01*
X142013534Y-81506466D02*
X141466466Y-81506466D01*
X127735027Y-69850000D02*
X126608027Y-70977000D01*
X144780000Y-78740000D02*
X142013534Y-81506466D01*
X137295466Y-88560466D02*
X130650000Y-81915000D01*
X126608027Y-70977000D02*
X126608027Y-78348027D01*
X139700000Y-96520000D02*
X138106801Y-96520000D01*
X207339458Y-56916506D02*
X208702458Y-55553506D01*
X137295466Y-91504135D02*
X137295466Y-88560466D01*
X176545000Y-72370000D02*
X191998494Y-56916506D01*
X135932466Y-94345665D02*
X135932466Y-92867135D01*
X136160000Y-76200000D02*
X141466466Y-81506466D01*
X209879458Y-65566394D02*
X235406142Y-91093078D01*
X126608027Y-78348027D02*
X130175000Y-81915000D01*
%TO.N,/GPIO_2_LOCAL*%
X236769142Y-92456078D02*
X237946142Y-93633078D01*
X125095000Y-79375000D02*
X123350000Y-79375000D01*
X236769142Y-83620190D02*
X236769142Y-92456078D01*
X122555000Y-79375000D02*
X123350000Y-79375000D01*
X160015000Y-93980000D02*
X179085000Y-74910000D01*
X125730000Y-78740000D02*
X125095000Y-79375000D01*
X115570000Y-72390000D02*
X122555000Y-79375000D01*
X153670000Y-93980000D02*
X160015000Y-93980000D01*
X115570000Y-59690000D02*
X115570000Y-72390000D01*
X211242458Y-58093506D02*
X236769142Y-83620190D01*
%TO.N,Net-(J1-PadA4)*%
X245065974Y-76985283D02*
X245065974Y-88177776D01*
X111665783Y-91682098D02*
X113690656Y-93706971D01*
X105042302Y-71029309D02*
X105042302Y-56247698D01*
X107428230Y-87182098D02*
X108332230Y-87182098D01*
X108332230Y-87182098D02*
X108543576Y-87393444D01*
X110490000Y-76477007D02*
X110490000Y-86360000D01*
X107428230Y-91982098D02*
X107105230Y-91659098D01*
X180008901Y-55047888D02*
X181716789Y-53340000D01*
X105042302Y-56247698D02*
X107419112Y-53870888D01*
X178831901Y-53870888D02*
X180008901Y-55047888D01*
X237315476Y-95928274D02*
X175182798Y-95928274D01*
X109967902Y-86882098D02*
X107428230Y-86882098D01*
X221420691Y-53340000D02*
X245065974Y-76985283D01*
X107428230Y-91682098D02*
X108543576Y-91682098D01*
X181716789Y-53340000D02*
X221420691Y-53340000D01*
X175182798Y-95928274D02*
X173819798Y-94565274D01*
X108543576Y-91682098D02*
X111665783Y-91682098D01*
X107419112Y-53870888D02*
X178831901Y-53870888D01*
X105042302Y-71029309D02*
X110490000Y-76477007D01*
X245065974Y-88177776D02*
X237315476Y-95928274D01*
X110490000Y-86360000D02*
X109967902Y-86882098D01*
X108543576Y-87393444D02*
X108543576Y-91682098D01*
X113690656Y-93706971D02*
X119190656Y-93706971D01*
%TO.N,Net-(J11-Pad5)*%
X125195027Y-76259973D02*
X123350000Y-78105000D01*
X125195027Y-72390000D02*
X125195027Y-76259973D01*
%TD*%
%TA.AperFunction,Conductor*%
%TO.N,GND*%
G36*
X247162148Y-50528502D02*
G01*
X247208641Y-50582158D01*
X247218745Y-50652432D01*
X247189251Y-50717012D01*
X247129525Y-50755396D01*
X247129190Y-50755481D01*
X247129192Y-50755486D01*
X246875410Y-50829457D01*
X246871163Y-50831415D01*
X246871160Y-50831416D01*
X246780950Y-50873004D01*
X246635348Y-50940127D01*
X246631439Y-50942690D01*
X246418195Y-51082499D01*
X246418190Y-51082503D01*
X246414282Y-51085065D01*
X246410790Y-51088182D01*
X246224898Y-51254097D01*
X246217067Y-51261086D01*
X246048036Y-51464324D01*
X245910901Y-51690314D01*
X245909095Y-51694622D01*
X245909094Y-51694623D01*
X245820233Y-51906534D01*
X245808677Y-51934091D01*
X245807526Y-51938623D01*
X245807525Y-51938626D01*
X245787038Y-52019294D01*
X245743608Y-52190301D01*
X245717124Y-52453314D01*
X245718856Y-52489368D01*
X245729807Y-52717352D01*
X245741193Y-52774593D01*
X245770179Y-52920313D01*
X245781378Y-52976616D01*
X245782957Y-52981014D01*
X245782959Y-52981021D01*
X245865159Y-53209965D01*
X245870704Y-53225410D01*
X245872921Y-53229536D01*
X245989727Y-53446923D01*
X245995822Y-53458267D01*
X245998617Y-53462011D01*
X245998619Y-53462013D01*
X246081743Y-53573329D01*
X246153985Y-53670073D01*
X246157292Y-53673351D01*
X246157297Y-53673357D01*
X246256879Y-53772073D01*
X246341718Y-53856174D01*
X246554896Y-54012483D01*
X246559031Y-54014659D01*
X246559035Y-54014661D01*
X246682293Y-54079510D01*
X246788836Y-54135565D01*
X246793255Y-54137108D01*
X246978394Y-54201761D01*
X247038400Y-54222716D01*
X247042993Y-54223588D01*
X247293515Y-54271151D01*
X247293518Y-54271151D01*
X247298104Y-54272022D01*
X247430173Y-54277211D01*
X247557575Y-54282218D01*
X247557581Y-54282218D01*
X247562243Y-54282401D01*
X247825015Y-54253622D01*
X247829526Y-54252434D01*
X247829528Y-54252434D01*
X248076124Y-54187511D01*
X248076126Y-54187510D01*
X248080647Y-54186320D01*
X248086019Y-54184012D01*
X248319229Y-54083817D01*
X248319231Y-54083816D01*
X248323523Y-54081972D01*
X248548307Y-53942871D01*
X248564788Y-53928919D01*
X248746496Y-53775093D01*
X248746498Y-53775091D01*
X248750063Y-53772073D01*
X248924356Y-53573329D01*
X248990092Y-53471132D01*
X249058516Y-53364754D01*
X249067359Y-53351006D01*
X249175930Y-53109988D01*
X249189469Y-53061984D01*
X249244231Y-52867810D01*
X249281972Y-52807676D01*
X249346234Y-52777493D01*
X249416612Y-52786843D01*
X249470762Y-52832759D01*
X249491500Y-52902011D01*
X249491500Y-97114488D01*
X249471498Y-97182609D01*
X249417842Y-97229102D01*
X249347568Y-97239206D01*
X249282988Y-97209712D01*
X249244604Y-97149986D01*
X249242607Y-97142296D01*
X249226694Y-97071969D01*
X249205557Y-96978559D01*
X249203864Y-96974205D01*
X249111442Y-96736542D01*
X249111441Y-96736540D01*
X249109749Y-96732189D01*
X249103051Y-96720469D01*
X249043730Y-96616680D01*
X248978578Y-96502687D01*
X248814925Y-96295094D01*
X248654436Y-96144121D01*
X248625791Y-96117174D01*
X248622385Y-96113970D01*
X248585212Y-96088182D01*
X248409026Y-95965958D01*
X248409021Y-95965955D01*
X248405188Y-95963296D01*
X248400997Y-95961229D01*
X248172294Y-95848445D01*
X248172291Y-95848444D01*
X248168106Y-95846380D01*
X248161056Y-95844123D01*
X247956159Y-95778535D01*
X247916347Y-95765791D01*
X247773825Y-95742580D01*
X247660053Y-95724051D01*
X247660052Y-95724051D01*
X247655441Y-95723300D01*
X247523281Y-95721570D01*
X247395798Y-95719901D01*
X247395795Y-95719901D01*
X247391121Y-95719840D01*
X247129192Y-95755486D01*
X247124702Y-95756795D01*
X247124696Y-95756796D01*
X247031653Y-95783916D01*
X246875410Y-95829457D01*
X246871163Y-95831415D01*
X246871160Y-95831416D01*
X246666230Y-95925890D01*
X246595993Y-95936245D01*
X246531307Y-95906982D01*
X246498500Y-95856135D01*
X246498500Y-95849000D01*
X241181500Y-95849000D01*
X241181500Y-99365500D01*
X241161498Y-99433621D01*
X241107842Y-99480114D01*
X241055500Y-99491500D01*
X102894964Y-99491500D01*
X102826843Y-99471498D01*
X102780350Y-99417842D01*
X102770246Y-99347568D01*
X102799740Y-99282988D01*
X102862884Y-99243652D01*
X103076124Y-99187511D01*
X103076126Y-99187510D01*
X103080647Y-99186320D01*
X103195191Y-99137108D01*
X103319229Y-99083817D01*
X103319231Y-99083816D01*
X103323523Y-99081972D01*
X103548307Y-98942871D01*
X103564788Y-98928919D01*
X103746496Y-98775093D01*
X103746498Y-98775091D01*
X103750063Y-98772073D01*
X103924356Y-98573329D01*
X103998367Y-98458267D01*
X104038633Y-98395666D01*
X104067359Y-98351006D01*
X104175930Y-98109988D01*
X104247683Y-97855570D01*
X104265267Y-97717352D01*
X104280645Y-97596471D01*
X104280645Y-97596465D01*
X104281043Y-97593340D01*
X104283487Y-97500000D01*
X104275180Y-97388213D01*
X104264243Y-97241036D01*
X104264242Y-97241032D01*
X104263897Y-97236384D01*
X104205557Y-96978559D01*
X104203864Y-96974205D01*
X104111442Y-96736542D01*
X104111441Y-96736540D01*
X104109749Y-96732189D01*
X104103051Y-96720469D01*
X104043730Y-96616680D01*
X103978578Y-96502687D01*
X103814925Y-96295094D01*
X103654436Y-96144121D01*
X103625791Y-96117174D01*
X103622385Y-96113970D01*
X103585212Y-96088182D01*
X103409026Y-95965958D01*
X103409021Y-95965955D01*
X103405188Y-95963296D01*
X103400997Y-95961229D01*
X103172294Y-95848445D01*
X103172291Y-95848444D01*
X103168106Y-95846380D01*
X103161056Y-95844123D01*
X102956159Y-95778535D01*
X102916347Y-95765791D01*
X102773825Y-95742580D01*
X102660053Y-95724051D01*
X102660052Y-95724051D01*
X102655441Y-95723300D01*
X102523281Y-95721570D01*
X102395798Y-95719901D01*
X102395795Y-95719901D01*
X102391121Y-95719840D01*
X102129192Y-95755486D01*
X102124702Y-95756795D01*
X102124696Y-95756796D01*
X102031653Y-95783916D01*
X101875410Y-95829457D01*
X101871163Y-95831415D01*
X101871160Y-95831416D01*
X101819417Y-95855270D01*
X101635348Y-95940127D01*
X101617846Y-95951602D01*
X101418195Y-96082499D01*
X101418190Y-96082503D01*
X101414282Y-96085065D01*
X101217067Y-96261086D01*
X101110592Y-96389108D01*
X101062868Y-96446491D01*
X101048036Y-96464324D01*
X100910901Y-96690314D01*
X100909095Y-96694622D01*
X100909094Y-96694623D01*
X100812518Y-96924932D01*
X100808677Y-96934091D01*
X100807526Y-96938623D01*
X100807525Y-96938626D01*
X100756623Y-97139054D01*
X100720468Y-97200155D01*
X100657019Y-97232010D01*
X100586420Y-97224505D01*
X100531087Y-97180023D01*
X100508500Y-97108039D01*
X100508500Y-93697702D01*
X101186017Y-93697702D01*
X101195797Y-93908997D01*
X101197201Y-93914822D01*
X101197201Y-93914823D01*
X101236209Y-94076680D01*
X101245355Y-94114632D01*
X101247837Y-94120090D01*
X101247838Y-94120094D01*
X101291283Y-94215644D01*
X101332904Y-94307185D01*
X101455284Y-94479709D01*
X101494180Y-94516944D01*
X101581003Y-94600058D01*
X101608080Y-94625979D01*
X101785778Y-94740718D01*
X101827633Y-94757586D01*
X101976398Y-94817540D01*
X101976401Y-94817541D01*
X101981967Y-94819784D01*
X102189567Y-94860326D01*
X102195129Y-94860598D01*
X102951076Y-94860598D01*
X103108796Y-94845550D01*
X103311764Y-94786006D01*
X103340671Y-94771118D01*
X103494479Y-94691902D01*
X103494482Y-94691900D01*
X103499810Y-94689156D01*
X103666150Y-94558494D01*
X103670082Y-94553963D01*
X103670085Y-94553960D01*
X103800851Y-94403265D01*
X103804782Y-94398735D01*
X103807782Y-94393549D01*
X103807785Y-94393545D01*
X103907697Y-94220840D01*
X103910703Y-94215644D01*
X103980091Y-94015827D01*
X103994736Y-93914823D01*
X104009582Y-93812434D01*
X104009582Y-93812431D01*
X104010443Y-93806494D01*
X104000663Y-93595199D01*
X103960819Y-93429872D01*
X103952511Y-93395397D01*
X103952510Y-93395395D01*
X103951105Y-93389564D01*
X103947121Y-93380800D01*
X103872532Y-93216752D01*
X103863556Y-93197011D01*
X103756766Y-93046465D01*
X103744642Y-93029373D01*
X103744641Y-93029372D01*
X103741176Y-93024487D01*
X103588380Y-92878217D01*
X103410682Y-92763478D01*
X103315826Y-92725250D01*
X103220062Y-92686656D01*
X103220059Y-92686655D01*
X103214493Y-92684412D01*
X103006893Y-92643870D01*
X103001331Y-92643598D01*
X102245384Y-92643598D01*
X102087664Y-92658646D01*
X101884696Y-92718190D01*
X101879369Y-92720934D01*
X101879368Y-92720934D01*
X101701981Y-92812294D01*
X101701978Y-92812296D01*
X101696650Y-92815040D01*
X101530310Y-92945702D01*
X101526378Y-92950233D01*
X101526375Y-92950236D01*
X101435084Y-93055440D01*
X101391678Y-93105461D01*
X101388678Y-93110647D01*
X101388675Y-93110651D01*
X101308595Y-93249075D01*
X101285757Y-93288552D01*
X101216369Y-93488369D01*
X101215508Y-93494304D01*
X101215508Y-93494306D01*
X101198048Y-93614729D01*
X101186017Y-93697702D01*
X100508500Y-93697702D01*
X100508500Y-85057702D01*
X101186017Y-85057702D01*
X101195797Y-85268997D01*
X101197201Y-85274822D01*
X101197201Y-85274823D01*
X101242204Y-85461556D01*
X101245355Y-85474632D01*
X101247837Y-85480090D01*
X101247838Y-85480094D01*
X101293645Y-85580840D01*
X101332904Y-85667185D01*
X101455284Y-85839709D01*
X101608080Y-85985979D01*
X101785778Y-86100718D01*
X101845876Y-86124938D01*
X101976398Y-86177540D01*
X101976401Y-86177541D01*
X101981967Y-86179784D01*
X102189567Y-86220326D01*
X102195129Y-86220598D01*
X102951076Y-86220598D01*
X103108796Y-86205550D01*
X103311764Y-86146006D01*
X103395341Y-86102961D01*
X103494479Y-86051902D01*
X103494482Y-86051900D01*
X103499810Y-86049156D01*
X103666150Y-85918494D01*
X103670082Y-85913963D01*
X103670085Y-85913960D01*
X103800851Y-85763265D01*
X103804782Y-85758735D01*
X103807782Y-85753549D01*
X103807785Y-85753545D01*
X103907697Y-85580840D01*
X103910703Y-85575644D01*
X103980091Y-85375827D01*
X103982949Y-85356115D01*
X104009582Y-85172434D01*
X104009582Y-85172431D01*
X104010443Y-85166494D01*
X104000663Y-84955199D01*
X103951105Y-84749564D01*
X103939814Y-84724729D01*
X103869970Y-84571118D01*
X103863556Y-84557011D01*
X103741176Y-84384487D01*
X103588380Y-84238217D01*
X103410682Y-84123478D01*
X103350584Y-84099258D01*
X103220062Y-84046656D01*
X103220059Y-84046655D01*
X103214493Y-84044412D01*
X103006893Y-84003870D01*
X103001331Y-84003598D01*
X102245384Y-84003598D01*
X102087664Y-84018646D01*
X101884696Y-84078190D01*
X101879369Y-84080934D01*
X101879368Y-84080934D01*
X101701981Y-84172294D01*
X101701978Y-84172296D01*
X101696650Y-84175040D01*
X101530310Y-84305702D01*
X101526378Y-84310233D01*
X101526375Y-84310236D01*
X101435032Y-84415500D01*
X101391678Y-84465461D01*
X101388678Y-84470647D01*
X101388675Y-84470651D01*
X101343842Y-84548148D01*
X101285757Y-84648552D01*
X101216369Y-84848369D01*
X101215508Y-84854304D01*
X101215508Y-84854306D01*
X101209783Y-84893794D01*
X101186017Y-85057702D01*
X100508500Y-85057702D01*
X100508500Y-76076004D01*
X101139553Y-76076004D01*
X101139850Y-76081157D01*
X101139850Y-76081160D01*
X101151969Y-76291343D01*
X101152412Y-76299024D01*
X101153549Y-76304070D01*
X101153550Y-76304076D01*
X101169940Y-76376802D01*
X101201524Y-76516948D01*
X101250060Y-76636479D01*
X101283256Y-76718230D01*
X101285568Y-76723925D01*
X101325545Y-76789162D01*
X101399593Y-76909997D01*
X101402289Y-76914397D01*
X101548552Y-77083247D01*
X101720428Y-77225941D01*
X101913302Y-77338647D01*
X101918127Y-77340489D01*
X101918128Y-77340490D01*
X101926974Y-77343868D01*
X102121994Y-77418339D01*
X102127062Y-77419370D01*
X102127065Y-77419371D01*
X102171946Y-77428502D01*
X102340899Y-77462876D01*
X102346074Y-77463066D01*
X102346076Y-77463066D01*
X102558975Y-77470873D01*
X102558979Y-77470873D01*
X102564139Y-77471062D01*
X102569259Y-77470406D01*
X102569261Y-77470406D01*
X102780590Y-77443334D01*
X102780591Y-77443334D01*
X102785718Y-77442677D01*
X102827076Y-77430269D01*
X102994731Y-77379970D01*
X102994736Y-77379968D01*
X102999686Y-77378483D01*
X103200296Y-77280205D01*
X103382162Y-77150482D01*
X103387162Y-77145500D01*
X103536737Y-76996446D01*
X103540398Y-76992798D01*
X103553945Y-76973946D01*
X103670755Y-76811386D01*
X103672078Y-76812337D01*
X103718947Y-76769166D01*
X103788882Y-76756934D01*
X103854328Y-76784453D01*
X103882177Y-76816303D01*
X103942289Y-76914397D01*
X104088552Y-77083247D01*
X104260428Y-77225941D01*
X104453302Y-77338647D01*
X104458127Y-77340489D01*
X104458128Y-77340490D01*
X104466974Y-77343868D01*
X104661994Y-77418339D01*
X104667062Y-77419370D01*
X104667065Y-77419371D01*
X104711946Y-77428502D01*
X104880899Y-77462876D01*
X104886074Y-77463066D01*
X104886076Y-77463066D01*
X105098975Y-77470873D01*
X105098979Y-77470873D01*
X105104139Y-77471062D01*
X105109259Y-77470406D01*
X105109261Y-77470406D01*
X105320590Y-77443334D01*
X105320591Y-77443334D01*
X105325718Y-77442677D01*
X105367076Y-77430269D01*
X105534731Y-77379970D01*
X105534736Y-77379968D01*
X105539686Y-77378483D01*
X105740296Y-77280205D01*
X105922162Y-77150482D01*
X105927162Y-77145500D01*
X106076737Y-76996446D01*
X106080398Y-76992798D01*
X106093945Y-76973946D01*
X106207737Y-76815586D01*
X106210755Y-76811386D01*
X106216725Y-76799308D01*
X106307438Y-76615762D01*
X106307439Y-76615760D01*
X106309732Y-76611120D01*
X106362627Y-76437024D01*
X106373167Y-76402332D01*
X106373167Y-76402330D01*
X106374672Y-76397378D01*
X106403831Y-76175899D01*
X106404014Y-76168419D01*
X106405376Y-76112674D01*
X106405376Y-76112670D01*
X106405458Y-76109309D01*
X106387154Y-75886670D01*
X106332733Y-75670011D01*
X106243656Y-75465149D01*
X106163260Y-75340875D01*
X106125124Y-75281926D01*
X106125122Y-75281923D01*
X106122316Y-75277586D01*
X105971972Y-75112360D01*
X105967921Y-75109161D01*
X105967917Y-75109157D01*
X105800716Y-74977109D01*
X105800712Y-74977107D01*
X105796661Y-74973907D01*
X105755355Y-74951105D01*
X105705386Y-74900673D01*
X105690614Y-74831230D01*
X105715730Y-74764825D01*
X105743082Y-74738218D01*
X105807145Y-74692522D01*
X105922162Y-74610482D01*
X106080398Y-74452798D01*
X106113419Y-74406845D01*
X106207737Y-74275586D01*
X106210755Y-74271386D01*
X106214190Y-74264437D01*
X106307438Y-74075762D01*
X106307439Y-74075760D01*
X106309732Y-74071120D01*
X106374672Y-73857378D01*
X106403831Y-73635899D01*
X106404910Y-73591723D01*
X106426569Y-73524112D01*
X106481344Y-73478943D01*
X106551844Y-73470559D01*
X106619967Y-73505706D01*
X109817595Y-76703334D01*
X109851621Y-76765646D01*
X109854500Y-76792429D01*
X109854500Y-86044577D01*
X109834498Y-86112698D01*
X109817595Y-86133673D01*
X109741573Y-86209694D01*
X109679260Y-86243719D01*
X109652478Y-86246598D01*
X108642166Y-86246598D01*
X108612387Y-86237854D01*
X108611789Y-86240605D01*
X108572682Y-86232098D01*
X108206394Y-86232098D01*
X108188583Y-86230010D01*
X108188546Y-86230353D01*
X108129761Y-86223967D01*
X108126364Y-86223598D01*
X107922115Y-86223598D01*
X107853994Y-86203596D01*
X107807501Y-86149940D01*
X107797397Y-86079666D01*
X107826891Y-86015086D01*
X107844279Y-85998515D01*
X107894569Y-85959012D01*
X107960494Y-85932662D01*
X107972401Y-85932098D01*
X108568114Y-85932098D01*
X108583353Y-85927623D01*
X108584558Y-85926233D01*
X108586229Y-85918550D01*
X108586229Y-85887429D01*
X108585859Y-85880608D01*
X108580335Y-85829746D01*
X108576709Y-85814494D01*
X108531554Y-85694044D01*
X108523016Y-85678449D01*
X108446515Y-85576374D01*
X108433954Y-85563813D01*
X108331876Y-85487310D01*
X108327136Y-85484715D01*
X108276990Y-85434457D01*
X108261976Y-85365066D01*
X108262949Y-85356115D01*
X108289582Y-85172434D01*
X108289582Y-85172431D01*
X108290443Y-85166494D01*
X108280663Y-84955199D01*
X108231105Y-84749564D01*
X108219814Y-84724729D01*
X108149970Y-84571118D01*
X108143556Y-84557011D01*
X108021176Y-84384487D01*
X107868380Y-84238217D01*
X107690682Y-84123478D01*
X107630584Y-84099258D01*
X107500062Y-84046656D01*
X107500059Y-84046655D01*
X107494493Y-84044412D01*
X107286893Y-84003870D01*
X107281331Y-84003598D01*
X106325384Y-84003598D01*
X106167664Y-84018646D01*
X105964696Y-84078190D01*
X105959369Y-84080934D01*
X105959368Y-84080934D01*
X105781981Y-84172294D01*
X105781978Y-84172296D01*
X105776650Y-84175040D01*
X105610310Y-84305702D01*
X105606378Y-84310233D01*
X105606375Y-84310236D01*
X105515032Y-84415500D01*
X105471678Y-84465461D01*
X105468678Y-84470647D01*
X105468675Y-84470651D01*
X105423842Y-84548148D01*
X105365757Y-84648552D01*
X105296369Y-84848369D01*
X105295508Y-84854304D01*
X105295508Y-84854306D01*
X105289783Y-84893794D01*
X105266017Y-85057702D01*
X105275797Y-85268997D01*
X105277201Y-85274822D01*
X105277201Y-85274823D01*
X105322204Y-85461556D01*
X105325355Y-85474632D01*
X105327837Y-85480090D01*
X105327838Y-85480094D01*
X105373645Y-85580840D01*
X105412904Y-85667185D01*
X105535284Y-85839709D01*
X105539617Y-85843857D01*
X105539618Y-85843858D01*
X105550562Y-85854334D01*
X105585939Y-85915888D01*
X105582422Y-85986798D01*
X105567645Y-86016175D01*
X105510190Y-86100718D01*
X105485750Y-86136680D01*
X105483218Y-86143009D01*
X105483217Y-86143012D01*
X105419015Y-86303528D01*
X105416479Y-86309869D01*
X105400357Y-86407257D01*
X105387755Y-86483379D01*
X105386014Y-86493893D01*
X105386371Y-86500709D01*
X105386371Y-86500713D01*
X105389524Y-86560866D01*
X105395777Y-86680165D01*
X105445310Y-86859996D01*
X105532305Y-87024996D01*
X105536710Y-87030209D01*
X105536713Y-87030213D01*
X105648294Y-87162251D01*
X105648298Y-87162255D01*
X105652701Y-87167465D01*
X105658125Y-87171612D01*
X105658126Y-87171613D01*
X105795461Y-87276614D01*
X105795465Y-87276617D01*
X105800882Y-87280758D01*
X105969934Y-87359588D01*
X106151970Y-87400278D01*
X106157139Y-87400567D01*
X106161051Y-87401110D01*
X106225775Y-87430287D01*
X106264451Y-87489824D01*
X106269730Y-87525914D01*
X106269730Y-87880232D01*
X106270099Y-87883627D01*
X106270099Y-87883631D01*
X106273886Y-87918491D01*
X106273886Y-87945704D01*
X106269730Y-87983964D01*
X106269730Y-88380232D01*
X106270099Y-88383627D01*
X106270099Y-88383631D01*
X106273886Y-88418491D01*
X106273886Y-88445705D01*
X106271994Y-88463126D01*
X106269730Y-88483964D01*
X106269730Y-88880232D01*
X106270099Y-88883627D01*
X106270099Y-88883631D01*
X106273886Y-88918491D01*
X106273886Y-88945704D01*
X106269730Y-88983964D01*
X106269730Y-89380232D01*
X106270099Y-89383627D01*
X106270099Y-89383631D01*
X106273886Y-89418491D01*
X106273886Y-89445705D01*
X106271729Y-89465566D01*
X106269730Y-89483964D01*
X106269730Y-89880232D01*
X106270099Y-89883627D01*
X106270099Y-89883631D01*
X106273886Y-89918491D01*
X106273886Y-89945704D01*
X106269730Y-89983964D01*
X106269730Y-90380232D01*
X106270099Y-90383627D01*
X106270099Y-90383631D01*
X106273886Y-90418491D01*
X106273886Y-90445704D01*
X106269730Y-90483964D01*
X106269730Y-90880232D01*
X106270099Y-90883627D01*
X106270099Y-90883631D01*
X106273886Y-90918491D01*
X106273886Y-90945704D01*
X106269730Y-90983964D01*
X106269730Y-91343147D01*
X106249728Y-91411268D01*
X106196072Y-91457761D01*
X106157338Y-91468410D01*
X106111201Y-91473422D01*
X106062793Y-91478681D01*
X105886007Y-91538176D01*
X105726121Y-91634245D01*
X105590594Y-91762406D01*
X105586759Y-91768049D01*
X105525288Y-91858502D01*
X105485750Y-91916680D01*
X105483218Y-91923009D01*
X105483217Y-91923012D01*
X105424299Y-92070318D01*
X105416479Y-92089869D01*
X105406233Y-92151760D01*
X105388714Y-92257586D01*
X105386014Y-92273893D01*
X105386371Y-92280709D01*
X105386371Y-92280713D01*
X105392832Y-92403985D01*
X105395777Y-92460165D01*
X105445310Y-92639996D01*
X105532305Y-92804996D01*
X105558301Y-92835757D01*
X105561386Y-92839408D01*
X105590079Y-92904349D01*
X105579107Y-92974492D01*
X105560317Y-93003313D01*
X105471678Y-93105461D01*
X105468678Y-93110647D01*
X105468675Y-93110651D01*
X105388595Y-93249075D01*
X105365757Y-93288552D01*
X105296369Y-93488369D01*
X105295508Y-93494304D01*
X105295508Y-93494306D01*
X105278048Y-93614729D01*
X105266017Y-93697702D01*
X105275797Y-93908997D01*
X105277201Y-93914822D01*
X105277201Y-93914823D01*
X105316209Y-94076680D01*
X105325355Y-94114632D01*
X105327837Y-94120090D01*
X105327838Y-94120094D01*
X105371283Y-94215644D01*
X105412904Y-94307185D01*
X105535284Y-94479709D01*
X105574180Y-94516944D01*
X105661003Y-94600058D01*
X105688080Y-94625979D01*
X105865778Y-94740718D01*
X105907633Y-94757586D01*
X106056398Y-94817540D01*
X106056401Y-94817541D01*
X106061967Y-94819784D01*
X106269567Y-94860326D01*
X106275129Y-94860598D01*
X107231076Y-94860598D01*
X107388796Y-94845550D01*
X107591764Y-94786006D01*
X107620671Y-94771118D01*
X107774479Y-94691902D01*
X107774482Y-94691900D01*
X107779810Y-94689156D01*
X107946150Y-94558494D01*
X107950082Y-94553963D01*
X107950085Y-94553960D01*
X108080851Y-94403265D01*
X108084782Y-94398735D01*
X108087782Y-94393549D01*
X108087785Y-94393545D01*
X108187697Y-94220840D01*
X108190703Y-94215644D01*
X108260091Y-94015827D01*
X108274736Y-93914823D01*
X108289582Y-93812434D01*
X108289582Y-93812431D01*
X108290443Y-93806494D01*
X108280663Y-93595199D01*
X108275107Y-93572144D01*
X108262743Y-93520840D01*
X108266228Y-93449929D01*
X108307498Y-93392160D01*
X108324726Y-93380800D01*
X108331879Y-93376884D01*
X108433954Y-93300383D01*
X108446515Y-93287822D01*
X108523016Y-93185747D01*
X108531554Y-93170152D01*
X108576708Y-93049704D01*
X108580335Y-93034449D01*
X108585861Y-92983584D01*
X108586230Y-92976770D01*
X108586230Y-92950213D01*
X108581755Y-92934974D01*
X108580365Y-92933769D01*
X108572682Y-92932098D01*
X107975253Y-92932098D01*
X107907132Y-92912096D01*
X107888122Y-92897116D01*
X107888110Y-92897104D01*
X107868380Y-92878217D01*
X107863345Y-92874966D01*
X107863339Y-92874961D01*
X107859447Y-92872448D01*
X107813070Y-92818692D01*
X107803119Y-92748396D01*
X107832752Y-92683879D01*
X107892561Y-92645625D01*
X107927797Y-92640598D01*
X108126364Y-92640598D01*
X108131906Y-92639996D01*
X108180695Y-92634696D01*
X108180696Y-92634696D01*
X108188546Y-92633843D01*
X108195935Y-92631073D01*
X108195939Y-92631072D01*
X108316527Y-92585865D01*
X108324935Y-92582713D01*
X108441491Y-92495359D01*
X108528845Y-92378803D01*
X108529134Y-92379019D01*
X108575295Y-92332959D01*
X108601246Y-92322375D01*
X108601299Y-92322360D01*
X108635612Y-92317598D01*
X111350360Y-92317598D01*
X111418481Y-92337600D01*
X111439456Y-92354503D01*
X112084596Y-92999644D01*
X112118621Y-93061956D01*
X112121500Y-93088739D01*
X112121500Y-94355105D01*
X112128255Y-94417287D01*
X112179385Y-94553676D01*
X112266739Y-94670232D01*
X112383295Y-94757586D01*
X112519684Y-94808716D01*
X112581866Y-94815471D01*
X115178134Y-94815471D01*
X115240316Y-94808716D01*
X115376705Y-94757586D01*
X115493261Y-94670232D01*
X115580615Y-94553676D01*
X115583768Y-94545266D01*
X115629138Y-94424242D01*
X115671779Y-94367477D01*
X115738341Y-94342777D01*
X115747120Y-94342471D01*
X117512880Y-94342471D01*
X117581001Y-94362473D01*
X117627494Y-94416129D01*
X117630862Y-94424242D01*
X117676232Y-94545266D01*
X117679385Y-94553676D01*
X117766739Y-94670232D01*
X117883295Y-94757586D01*
X118019684Y-94808716D01*
X118081866Y-94815471D01*
X119379233Y-94815471D01*
X119447354Y-94835473D01*
X119493847Y-94889129D01*
X119503951Y-94959403D01*
X119474457Y-95023983D01*
X119468328Y-95030566D01*
X119437328Y-95061566D01*
X119375016Y-95095592D01*
X119348233Y-95098471D01*
X118081866Y-95098471D01*
X118019684Y-95105226D01*
X117883295Y-95156356D01*
X117766739Y-95243710D01*
X117679385Y-95360266D01*
X117676233Y-95368674D01*
X117676232Y-95368676D01*
X117630862Y-95489700D01*
X117588221Y-95546465D01*
X117521659Y-95571165D01*
X117512880Y-95571471D01*
X115747120Y-95571471D01*
X115678999Y-95551469D01*
X115632506Y-95497813D01*
X115629138Y-95489700D01*
X115583768Y-95368676D01*
X115583767Y-95368674D01*
X115580615Y-95360266D01*
X115493261Y-95243710D01*
X115376705Y-95156356D01*
X115240316Y-95105226D01*
X115178134Y-95098471D01*
X112581866Y-95098471D01*
X112519684Y-95105226D01*
X112383295Y-95156356D01*
X112266739Y-95243710D01*
X112179385Y-95360266D01*
X112128255Y-95496655D01*
X112121500Y-95558837D01*
X112121500Y-96855105D01*
X112128255Y-96917287D01*
X112179385Y-97053676D01*
X112266739Y-97170232D01*
X112383295Y-97257586D01*
X112519684Y-97308716D01*
X112581866Y-97315471D01*
X115178134Y-97315471D01*
X115240316Y-97308716D01*
X115376705Y-97257586D01*
X115493261Y-97170232D01*
X115580615Y-97053676D01*
X115584979Y-97042036D01*
X115629138Y-96924242D01*
X115671779Y-96867477D01*
X115738341Y-96842777D01*
X115747120Y-96842471D01*
X117512880Y-96842471D01*
X117581001Y-96862473D01*
X117627494Y-96916129D01*
X117630862Y-96924242D01*
X117675021Y-97042036D01*
X117679385Y-97053676D01*
X117766739Y-97170232D01*
X117883295Y-97257586D01*
X118019684Y-97308716D01*
X118081866Y-97315471D01*
X120678134Y-97315471D01*
X120740316Y-97308716D01*
X120876705Y-97257586D01*
X120993261Y-97170232D01*
X121080615Y-97053676D01*
X121131745Y-96917287D01*
X121138500Y-96855105D01*
X121138500Y-95558837D01*
X121131745Y-95496655D01*
X121080615Y-95360266D01*
X121075234Y-95353087D01*
X121073896Y-95350642D01*
X121058727Y-95281285D01*
X121083464Y-95214737D01*
X121095321Y-95201039D01*
X121643955Y-94652405D01*
X121706267Y-94618379D01*
X121733050Y-94615500D01*
X124130490Y-94615500D01*
X124198611Y-94635502D01*
X124245104Y-94689158D01*
X124255208Y-94759432D01*
X124248472Y-94785729D01*
X124201029Y-94912282D01*
X124201027Y-94912288D01*
X124198255Y-94919684D01*
X124191500Y-94981866D01*
X124191500Y-95978134D01*
X124198255Y-96040316D01*
X124249385Y-96176705D01*
X124336739Y-96293261D01*
X124453295Y-96380615D01*
X124589684Y-96431745D01*
X124651866Y-96438500D01*
X126048134Y-96438500D01*
X126110316Y-96431745D01*
X126246705Y-96380615D01*
X126363261Y-96293261D01*
X126450615Y-96176705D01*
X126450899Y-96176918D01*
X126497080Y-96130843D01*
X126557338Y-96115500D01*
X129049930Y-96115500D01*
X129061164Y-96116030D01*
X129068669Y-96117708D01*
X129136962Y-96115562D01*
X129140919Y-96115500D01*
X129168933Y-96115500D01*
X129172858Y-96115004D01*
X129172859Y-96115004D01*
X129172954Y-96114992D01*
X129184799Y-96114059D01*
X129214620Y-96113122D01*
X129221232Y-96112914D01*
X129221233Y-96112914D01*
X129229155Y-96112665D01*
X129248699Y-96106987D01*
X129268062Y-96102977D01*
X129280390Y-96101420D01*
X129280392Y-96101420D01*
X129288249Y-96100427D01*
X129295613Y-96097511D01*
X129295618Y-96097510D01*
X129329506Y-96084093D01*
X129340735Y-96080248D01*
X129357415Y-96075402D01*
X129383343Y-96067869D01*
X129390170Y-96063831D01*
X129390173Y-96063830D01*
X129400856Y-96057512D01*
X129418614Y-96048812D01*
X129430165Y-96044239D01*
X129430171Y-96044235D01*
X129437538Y-96041319D01*
X129449732Y-96032460D01*
X129473438Y-96015236D01*
X129483360Y-96008719D01*
X129514718Y-95990174D01*
X129514722Y-95990171D01*
X129521548Y-95986134D01*
X129535932Y-95971750D01*
X129550966Y-95958909D01*
X129561023Y-95951602D01*
X129567437Y-95946942D01*
X129595722Y-95912752D01*
X129603710Y-95903973D01*
X130020486Y-95487196D01*
X130028808Y-95479624D01*
X130035303Y-95475503D01*
X130082087Y-95425683D01*
X130084841Y-95422842D01*
X130104639Y-95403044D01*
X130107068Y-95399913D01*
X130107072Y-95399908D01*
X130107139Y-95399822D01*
X130114847Y-95390797D01*
X130139791Y-95364235D01*
X130139794Y-95364231D01*
X130145217Y-95358456D01*
X130149036Y-95351510D01*
X130149039Y-95351505D01*
X130155022Y-95340622D01*
X130165878Y-95324094D01*
X130173492Y-95314279D01*
X130173494Y-95314276D01*
X130178349Y-95308017D01*
X130181495Y-95300747D01*
X130181498Y-95300742D01*
X130195969Y-95267300D01*
X130201192Y-95256639D01*
X130218749Y-95224703D01*
X130218751Y-95224698D01*
X130222569Y-95217753D01*
X130224539Y-95210079D01*
X130224542Y-95210072D01*
X130227632Y-95198037D01*
X130234036Y-95179332D01*
X130238967Y-95167937D01*
X130242117Y-95160658D01*
X130249060Y-95116823D01*
X130251467Y-95105201D01*
X130252058Y-95102900D01*
X130262500Y-95062232D01*
X130262500Y-95041885D01*
X130264051Y-95022174D01*
X130265995Y-95009900D01*
X130267235Y-95002071D01*
X130263964Y-94967471D01*
X130263059Y-94957894D01*
X130262500Y-94946036D01*
X130262500Y-94312101D01*
X133423723Y-94312101D01*
X133454031Y-94446581D01*
X133457111Y-94456410D01*
X133537236Y-94653738D01*
X133541879Y-94662929D01*
X133653160Y-94844523D01*
X133659243Y-94852834D01*
X133798679Y-95013802D01*
X133806046Y-95021018D01*
X133969900Y-95157051D01*
X133978347Y-95162966D01*
X134162222Y-95270414D01*
X134171508Y-95274864D01*
X134370467Y-95350838D01*
X134380365Y-95353714D01*
X134483716Y-95374741D01*
X134497765Y-95373545D01*
X134501466Y-95363200D01*
X134501466Y-94316250D01*
X134496991Y-94301011D01*
X134495601Y-94299806D01*
X134487918Y-94298135D01*
X133438691Y-94298135D01*
X133425160Y-94302108D01*
X133423723Y-94312101D01*
X130262500Y-94312101D01*
X130262500Y-92265635D01*
X130282502Y-92197514D01*
X130336158Y-92151021D01*
X130388500Y-92139635D01*
X133270966Y-92139635D01*
X133339087Y-92159637D01*
X133385580Y-92213293D01*
X133396966Y-92265635D01*
X133396966Y-92402269D01*
X133403721Y-92464451D01*
X133454851Y-92600840D01*
X133542205Y-92717396D01*
X133658761Y-92804750D01*
X133667170Y-92807902D01*
X133667171Y-92807903D01*
X133776426Y-92848861D01*
X133833191Y-92891502D01*
X133857891Y-92958064D01*
X133842684Y-93027413D01*
X133823291Y-93053894D01*
X133700056Y-93182852D01*
X133693570Y-93190862D01*
X133573564Y-93366784D01*
X133568466Y-93375758D01*
X133478804Y-93568918D01*
X133475241Y-93578605D01*
X133419855Y-93778318D01*
X133421378Y-93786742D01*
X133433758Y-93790135D01*
X134883466Y-93790135D01*
X134951587Y-93810137D01*
X134998080Y-93863793D01*
X135009466Y-93916135D01*
X135009466Y-95362652D01*
X135013530Y-95376494D01*
X135026944Y-95378528D01*
X135033650Y-95377669D01*
X135043728Y-95375527D01*
X135247721Y-95314326D01*
X135257308Y-95310568D01*
X135448561Y-95216874D01*
X135457411Y-95211599D01*
X135628706Y-95089416D01*
X135695779Y-95066142D01*
X135764788Y-95082826D01*
X135790968Y-95102900D01*
X137601551Y-96913483D01*
X137609127Y-96921809D01*
X137613248Y-96928303D01*
X137619023Y-96933726D01*
X137663066Y-96975085D01*
X137665908Y-96977840D01*
X137685707Y-96997639D01*
X137688832Y-97000063D01*
X137688841Y-97000071D01*
X137688927Y-97000137D01*
X137697952Y-97007845D01*
X137730295Y-97038217D01*
X137737239Y-97042035D01*
X137737241Y-97042036D01*
X137748130Y-97048022D01*
X137764648Y-97058873D01*
X137780734Y-97071350D01*
X137821467Y-97088976D01*
X137832115Y-97094193D01*
X137843743Y-97100585D01*
X137870998Y-97115569D01*
X137878673Y-97117540D01*
X137878679Y-97117542D01*
X137890712Y-97120631D01*
X137909414Y-97127034D01*
X137928093Y-97135117D01*
X137961619Y-97140427D01*
X137971928Y-97142060D01*
X137983541Y-97144465D01*
X138026519Y-97155500D01*
X138046866Y-97155500D01*
X138066578Y-97157051D01*
X138086680Y-97160235D01*
X138094572Y-97159489D01*
X138130857Y-97156059D01*
X138142715Y-97155500D01*
X139620980Y-97155500D01*
X139632214Y-97156030D01*
X139639719Y-97157708D01*
X139708012Y-97155562D01*
X139711969Y-97155500D01*
X139739983Y-97155500D01*
X139743908Y-97155004D01*
X139743909Y-97155004D01*
X139744004Y-97154992D01*
X139755849Y-97154059D01*
X139785670Y-97153122D01*
X139792282Y-97152914D01*
X139792283Y-97152914D01*
X139800205Y-97152665D01*
X139819749Y-97146987D01*
X139839112Y-97142977D01*
X139851440Y-97141420D01*
X139851442Y-97141420D01*
X139859299Y-97140427D01*
X139866663Y-97137511D01*
X139866668Y-97137510D01*
X139900556Y-97124093D01*
X139911785Y-97120248D01*
X139931610Y-97114488D01*
X139954393Y-97107869D01*
X139961220Y-97103831D01*
X139961223Y-97103830D01*
X139971906Y-97097512D01*
X139989664Y-97088812D01*
X140001215Y-97084239D01*
X140001221Y-97084235D01*
X140008588Y-97081319D01*
X140017977Y-97074498D01*
X140044488Y-97055236D01*
X140054410Y-97048719D01*
X140085768Y-97030174D01*
X140085772Y-97030171D01*
X140092598Y-97026134D01*
X140106982Y-97011750D01*
X140122016Y-96998909D01*
X140132073Y-96991602D01*
X140138487Y-96986942D01*
X140166778Y-96952744D01*
X140174767Y-96943965D01*
X141859943Y-95258789D01*
X141868269Y-95251212D01*
X141874769Y-95247087D01*
X141921567Y-95197252D01*
X141924321Y-95194411D01*
X141944104Y-95174628D01*
X141946595Y-95171417D01*
X141954304Y-95162390D01*
X141954913Y-95161742D01*
X141984683Y-95130040D01*
X141994488Y-95112205D01*
X142005342Y-95095681D01*
X142012957Y-95085864D01*
X142012958Y-95085863D01*
X142017815Y-95079601D01*
X142035435Y-95038884D01*
X142040658Y-95028223D01*
X142058215Y-94996287D01*
X142058217Y-94996282D01*
X142062035Y-94989337D01*
X142064005Y-94981663D01*
X142064008Y-94981656D01*
X142067098Y-94969621D01*
X142073502Y-94950916D01*
X142078433Y-94939521D01*
X142081583Y-94932242D01*
X142088526Y-94888407D01*
X142090933Y-94876785D01*
X142101966Y-94833816D01*
X142101966Y-94813469D01*
X142103517Y-94793758D01*
X142105461Y-94781484D01*
X142106701Y-94773655D01*
X142104645Y-94751909D01*
X142102525Y-94729478D01*
X142101966Y-94717620D01*
X142101966Y-82240581D01*
X142121968Y-82172460D01*
X142181584Y-82123429D01*
X142214091Y-82110559D01*
X142225319Y-82106714D01*
X142241999Y-82101868D01*
X142267927Y-82094335D01*
X142274754Y-82090297D01*
X142274757Y-82090296D01*
X142285440Y-82083978D01*
X142303198Y-82075278D01*
X142314749Y-82070705D01*
X142314755Y-82070701D01*
X142322122Y-82067785D01*
X142342833Y-82052738D01*
X142352394Y-82045791D01*
X142358025Y-82041700D01*
X142367944Y-82035185D01*
X142399302Y-82016640D01*
X142399306Y-82016637D01*
X142406132Y-82012600D01*
X142420516Y-81998216D01*
X142435550Y-81985375D01*
X142445607Y-81978068D01*
X142452021Y-81973408D01*
X142480312Y-81939210D01*
X142488301Y-81930431D01*
X144733328Y-79685405D01*
X144795640Y-79651379D01*
X144822423Y-79648500D01*
X144875487Y-79648500D01*
X144881939Y-79647128D01*
X144881944Y-79647128D01*
X144968887Y-79628647D01*
X145062288Y-79608794D01*
X145068319Y-79606109D01*
X145230722Y-79533803D01*
X145230724Y-79533802D01*
X145236752Y-79531118D01*
X145391253Y-79418866D01*
X145519040Y-79276944D01*
X145614527Y-79111556D01*
X145673542Y-78929928D01*
X145674736Y-78918574D01*
X145692814Y-78746565D01*
X145693504Y-78740000D01*
X145685710Y-78665842D01*
X145674232Y-78556635D01*
X145674232Y-78556633D01*
X145673542Y-78550072D01*
X145614527Y-78368444D01*
X145596882Y-78337881D01*
X145553801Y-78263264D01*
X145519040Y-78203056D01*
X145510349Y-78193403D01*
X145395675Y-78066045D01*
X145395674Y-78066044D01*
X145391253Y-78061134D01*
X145292157Y-77989136D01*
X145242094Y-77952763D01*
X145242093Y-77952762D01*
X145236752Y-77948882D01*
X145230724Y-77946198D01*
X145230722Y-77946197D01*
X145068319Y-77873891D01*
X145068318Y-77873891D01*
X145062288Y-77871206D01*
X144968888Y-77851353D01*
X144881944Y-77832872D01*
X144881939Y-77832872D01*
X144875487Y-77831500D01*
X144684513Y-77831500D01*
X144678061Y-77832872D01*
X144678056Y-77832872D01*
X144591112Y-77851353D01*
X144497712Y-77871206D01*
X144491682Y-77873891D01*
X144491681Y-77873891D01*
X144329278Y-77946197D01*
X144329276Y-77946198D01*
X144323248Y-77948882D01*
X144317907Y-77952762D01*
X144317906Y-77952763D01*
X144267843Y-77989136D01*
X144168747Y-78061134D01*
X144164326Y-78066044D01*
X144164325Y-78066045D01*
X144049652Y-78193403D01*
X144040960Y-78203056D01*
X144006199Y-78263264D01*
X143963119Y-78337881D01*
X143945473Y-78368444D01*
X143886458Y-78550072D01*
X143885768Y-78556633D01*
X143885768Y-78556635D01*
X143874533Y-78663528D01*
X143873149Y-78676705D01*
X143869425Y-78712133D01*
X143842412Y-78777790D01*
X143833210Y-78788058D01*
X141829095Y-80792172D01*
X141766783Y-80826198D01*
X141695967Y-80821133D01*
X141650905Y-80792172D01*
X138481786Y-77623053D01*
X138447760Y-77560741D01*
X138452825Y-77489926D01*
X138495372Y-77433090D01*
X138560506Y-77409519D01*
X138560400Y-77408500D01*
X138563561Y-77408172D01*
X138659308Y-77398238D01*
X138659312Y-77398237D01*
X138666166Y-77397526D01*
X138672702Y-77395345D01*
X138672704Y-77395345D01*
X138804806Y-77351272D01*
X138833946Y-77341550D01*
X138984348Y-77248478D01*
X139109305Y-77123303D01*
X139190659Y-76991323D01*
X139198275Y-76978968D01*
X139198276Y-76978966D01*
X139202115Y-76972738D01*
X139233251Y-76878866D01*
X139255632Y-76811389D01*
X139255633Y-76811386D01*
X139257797Y-76804861D01*
X139268500Y-76700400D01*
X139268500Y-76042422D01*
X139288502Y-75974301D01*
X139305405Y-75953327D01*
X140080766Y-75177966D01*
X172673257Y-75177966D01*
X172703565Y-75312446D01*
X172706645Y-75322275D01*
X172786770Y-75519603D01*
X172791413Y-75528794D01*
X172902694Y-75710388D01*
X172908777Y-75718699D01*
X173048213Y-75879667D01*
X173055580Y-75886883D01*
X173219434Y-76022916D01*
X173227881Y-76028831D01*
X173411756Y-76136279D01*
X173421042Y-76140729D01*
X173620001Y-76216703D01*
X173629899Y-76219579D01*
X173733250Y-76240606D01*
X173747299Y-76239410D01*
X173751000Y-76229065D01*
X173751000Y-75182115D01*
X173746525Y-75166876D01*
X173745135Y-75165671D01*
X173737452Y-75164000D01*
X172688225Y-75164000D01*
X172674694Y-75167973D01*
X172673257Y-75177966D01*
X140080766Y-75177966D01*
X142216328Y-73042405D01*
X142278640Y-73008379D01*
X142305423Y-73005500D01*
X172520500Y-73005500D01*
X172588621Y-73025502D01*
X172635114Y-73079158D01*
X172646500Y-73131500D01*
X172646500Y-73268134D01*
X172653255Y-73330316D01*
X172704385Y-73466705D01*
X172791739Y-73583261D01*
X172908295Y-73670615D01*
X172916704Y-73673767D01*
X172916705Y-73673768D01*
X173025960Y-73714726D01*
X173082725Y-73757367D01*
X173107425Y-73823929D01*
X173092218Y-73893278D01*
X173072825Y-73919759D01*
X172949590Y-74048717D01*
X172943104Y-74056727D01*
X172823098Y-74232649D01*
X172818000Y-74241623D01*
X172728338Y-74434783D01*
X172724775Y-74444470D01*
X172669389Y-74644183D01*
X172670912Y-74652607D01*
X172683292Y-74656000D01*
X174133000Y-74656000D01*
X174201121Y-74676002D01*
X174247614Y-74729658D01*
X174259000Y-74782000D01*
X174259000Y-76228517D01*
X174263064Y-76242359D01*
X174276478Y-76244393D01*
X174283184Y-76243534D01*
X174293262Y-76241392D01*
X174497255Y-76180191D01*
X174506842Y-76176433D01*
X174698095Y-76082739D01*
X174706945Y-76077464D01*
X174880328Y-75953792D01*
X174888200Y-75947139D01*
X175039052Y-75796812D01*
X175045730Y-75788965D01*
X175173022Y-75611819D01*
X175174279Y-75612722D01*
X175221373Y-75569362D01*
X175291311Y-75557145D01*
X175356751Y-75584678D01*
X175384579Y-75616511D01*
X175444987Y-75715088D01*
X175591250Y-75883938D01*
X175763126Y-76026632D01*
X175956000Y-76139338D01*
X175960825Y-76141180D01*
X175960826Y-76141181D01*
X175995907Y-76154577D01*
X176164692Y-76219030D01*
X176169760Y-76220061D01*
X176169763Y-76220062D01*
X176264862Y-76239410D01*
X176383597Y-76263567D01*
X176388772Y-76263757D01*
X176388774Y-76263757D01*
X176453643Y-76266136D01*
X176527921Y-76268859D01*
X176595262Y-76291343D01*
X176639758Y-76346667D01*
X176647280Y-76417264D01*
X176612398Y-76483869D01*
X159788672Y-93307595D01*
X159726360Y-93341621D01*
X159699577Y-93344500D01*
X154376399Y-93344500D01*
X154308278Y-93324498D01*
X154291092Y-93309891D01*
X154290580Y-93310460D01*
X154285668Y-93306037D01*
X154281253Y-93301134D01*
X154198260Y-93240836D01*
X154132094Y-93192763D01*
X154132093Y-93192762D01*
X154126752Y-93188882D01*
X154120724Y-93186198D01*
X154120722Y-93186197D01*
X153958319Y-93113891D01*
X153958318Y-93113891D01*
X153952288Y-93111206D01*
X153846590Y-93088739D01*
X153771944Y-93072872D01*
X153771939Y-93072872D01*
X153765487Y-93071500D01*
X153574513Y-93071500D01*
X153568061Y-93072872D01*
X153568056Y-93072872D01*
X153493410Y-93088739D01*
X153387712Y-93111206D01*
X153381682Y-93113891D01*
X153381681Y-93113891D01*
X153219278Y-93186197D01*
X153219276Y-93186198D01*
X153213248Y-93188882D01*
X153207907Y-93192762D01*
X153207906Y-93192763D01*
X153179324Y-93213529D01*
X153058747Y-93301134D01*
X153054326Y-93306044D01*
X153054325Y-93306045D01*
X152989854Y-93377648D01*
X152930960Y-93443056D01*
X152901371Y-93494306D01*
X152846487Y-93589368D01*
X152835473Y-93608444D01*
X152776458Y-93790072D01*
X152775768Y-93796633D01*
X152775768Y-93796635D01*
X152764588Y-93903007D01*
X152756496Y-93980000D01*
X152757186Y-93986565D01*
X152771839Y-94125976D01*
X152776458Y-94169928D01*
X152835473Y-94351556D01*
X152930960Y-94516944D01*
X152935378Y-94521851D01*
X152935379Y-94521852D01*
X152974476Y-94565274D01*
X153058747Y-94658866D01*
X153139615Y-94717620D01*
X153205878Y-94765763D01*
X153213248Y-94771118D01*
X153219276Y-94773802D01*
X153219278Y-94773803D01*
X153381681Y-94846109D01*
X153387712Y-94848794D01*
X153460469Y-94864259D01*
X153568056Y-94887128D01*
X153568061Y-94887128D01*
X153574513Y-94888500D01*
X153765487Y-94888500D01*
X153771939Y-94887128D01*
X153771944Y-94887128D01*
X153879531Y-94864259D01*
X153952288Y-94848794D01*
X153958319Y-94846109D01*
X154120722Y-94773803D01*
X154120724Y-94773802D01*
X154126752Y-94771118D01*
X154134123Y-94765763D01*
X154275661Y-94662929D01*
X154281253Y-94658866D01*
X154285668Y-94653963D01*
X154290580Y-94649540D01*
X154292221Y-94651362D01*
X154343210Y-94619950D01*
X154376399Y-94615500D01*
X158818629Y-94615500D01*
X158886750Y-94635502D01*
X158933243Y-94689158D01*
X158943347Y-94759432D01*
X158913853Y-94824012D01*
X158907724Y-94830595D01*
X156620724Y-97117595D01*
X156558412Y-97151621D01*
X156531629Y-97154500D01*
X145541500Y-97154500D01*
X145473379Y-97134498D01*
X145426886Y-97080842D01*
X145415500Y-97028500D01*
X145415500Y-85790303D01*
X145435502Y-85722182D01*
X145447864Y-85705993D01*
X145514621Y-85631852D01*
X145514622Y-85631851D01*
X145519040Y-85626944D01*
X145614527Y-85461556D01*
X145673542Y-85279928D01*
X145675321Y-85263007D01*
X145692814Y-85096565D01*
X145693504Y-85090000D01*
X145679336Y-84955199D01*
X145674232Y-84906635D01*
X145674232Y-84906633D01*
X145673542Y-84900072D01*
X145614527Y-84718444D01*
X145519040Y-84553056D01*
X145436091Y-84460931D01*
X145395675Y-84416045D01*
X145395674Y-84416044D01*
X145391253Y-84411134D01*
X145253742Y-84311226D01*
X145242094Y-84302763D01*
X145242093Y-84302762D01*
X145236752Y-84298882D01*
X145230724Y-84296198D01*
X145230722Y-84296197D01*
X145068319Y-84223891D01*
X145068318Y-84223891D01*
X145062288Y-84221206D01*
X144968888Y-84201353D01*
X144881944Y-84182872D01*
X144881939Y-84182872D01*
X144875487Y-84181500D01*
X144684513Y-84181500D01*
X144678061Y-84182872D01*
X144678056Y-84182872D01*
X144591112Y-84201353D01*
X144497712Y-84221206D01*
X144491682Y-84223891D01*
X144491681Y-84223891D01*
X144329278Y-84296197D01*
X144329276Y-84296198D01*
X144323248Y-84298882D01*
X144317907Y-84302762D01*
X144317906Y-84302763D01*
X144306258Y-84311226D01*
X144168747Y-84411134D01*
X144164326Y-84416044D01*
X144164325Y-84416045D01*
X144123910Y-84460931D01*
X144040960Y-84553056D01*
X143945473Y-84718444D01*
X143886458Y-84900072D01*
X143885768Y-84906633D01*
X143885768Y-84906635D01*
X143880664Y-84955199D01*
X143866496Y-85090000D01*
X143867186Y-85096565D01*
X143884680Y-85263007D01*
X143886458Y-85279928D01*
X143945473Y-85461556D01*
X144040960Y-85626944D01*
X144045378Y-85631851D01*
X144045379Y-85631852D01*
X144112136Y-85705993D01*
X144142854Y-85770000D01*
X144144500Y-85790303D01*
X144144500Y-97718017D01*
X144142268Y-97741626D01*
X144142198Y-97741991D01*
X144142198Y-97741996D01*
X144140713Y-97749779D01*
X144142641Y-97780418D01*
X144144251Y-97806013D01*
X144144500Y-97813925D01*
X144144500Y-97829983D01*
X144144997Y-97833917D01*
X144144997Y-97833918D01*
X144146513Y-97845923D01*
X144147257Y-97853799D01*
X144150297Y-97902116D01*
X144150795Y-97910027D01*
X144153244Y-97917565D01*
X144153245Y-97917569D01*
X144153359Y-97917920D01*
X144158531Y-97941056D01*
X144158579Y-97941435D01*
X144158580Y-97941440D01*
X144159573Y-97949299D01*
X144162489Y-97956664D01*
X144162490Y-97956668D01*
X144180320Y-98001700D01*
X144183001Y-98009148D01*
X144200412Y-98062733D01*
X144204655Y-98069420D01*
X144204657Y-98069423D01*
X144204860Y-98069742D01*
X144215626Y-98090872D01*
X144218681Y-98098588D01*
X144226964Y-98109988D01*
X144251803Y-98144177D01*
X144256251Y-98150723D01*
X144282195Y-98191604D01*
X144282198Y-98191607D01*
X144286447Y-98198303D01*
X144292494Y-98203981D01*
X144308182Y-98221776D01*
X144313058Y-98228487D01*
X144340071Y-98250834D01*
X144356474Y-98264404D01*
X144362408Y-98269636D01*
X144375309Y-98281750D01*
X144403494Y-98308217D01*
X144410438Y-98312035D01*
X144410440Y-98312036D01*
X144410768Y-98312216D01*
X144430379Y-98325544D01*
X144430662Y-98325778D01*
X144430666Y-98325781D01*
X144436776Y-98330835D01*
X144470406Y-98346660D01*
X144487764Y-98354828D01*
X144494796Y-98358410D01*
X144544197Y-98385569D01*
X144551871Y-98387539D01*
X144551873Y-98387540D01*
X144552076Y-98387592D01*
X144552235Y-98387633D01*
X144574548Y-98395666D01*
X144574884Y-98395824D01*
X144574887Y-98395825D01*
X144582059Y-98399200D01*
X144589844Y-98400685D01*
X144589847Y-98400686D01*
X144637412Y-98409759D01*
X144645137Y-98411486D01*
X144666563Y-98416987D01*
X144699718Y-98425500D01*
X144708017Y-98425500D01*
X144731626Y-98427732D01*
X144731991Y-98427802D01*
X144731996Y-98427802D01*
X144739779Y-98429287D01*
X144796014Y-98425749D01*
X144803925Y-98425500D01*
X156768032Y-98425500D01*
X156779266Y-98426030D01*
X156786771Y-98427708D01*
X156855064Y-98425562D01*
X156859021Y-98425500D01*
X156887035Y-98425500D01*
X156890960Y-98425004D01*
X156890961Y-98425004D01*
X156891056Y-98424992D01*
X156902901Y-98424059D01*
X156932722Y-98423122D01*
X156939334Y-98422914D01*
X156939335Y-98422914D01*
X156947257Y-98422665D01*
X156966801Y-98416987D01*
X156986164Y-98412977D01*
X156998492Y-98411420D01*
X156998494Y-98411420D01*
X157006351Y-98410427D01*
X157013715Y-98407511D01*
X157013720Y-98407510D01*
X157047608Y-98394093D01*
X157058837Y-98390248D01*
X157075517Y-98385402D01*
X157101445Y-98377869D01*
X157108272Y-98373831D01*
X157108275Y-98373830D01*
X157118958Y-98367512D01*
X157136716Y-98358812D01*
X157148267Y-98354239D01*
X157148273Y-98354235D01*
X157155640Y-98351319D01*
X157191543Y-98325234D01*
X157201462Y-98318719D01*
X157232820Y-98300174D01*
X157232824Y-98300171D01*
X157239650Y-98296134D01*
X157254034Y-98281750D01*
X157269068Y-98268909D01*
X157279125Y-98261602D01*
X157285539Y-98256942D01*
X157313830Y-98222744D01*
X157321819Y-98213965D01*
X158162544Y-97373240D01*
X172488055Y-97373240D01*
X172518363Y-97507720D01*
X172521443Y-97517549D01*
X172601568Y-97714877D01*
X172606211Y-97724068D01*
X172717492Y-97905662D01*
X172723575Y-97913973D01*
X172863011Y-98074941D01*
X172870378Y-98082157D01*
X173034232Y-98218190D01*
X173042679Y-98224105D01*
X173226554Y-98331553D01*
X173235840Y-98336003D01*
X173434799Y-98411977D01*
X173444697Y-98414853D01*
X173548048Y-98435880D01*
X173562097Y-98434684D01*
X173565798Y-98424339D01*
X173565798Y-97377389D01*
X173561323Y-97362150D01*
X173559933Y-97360945D01*
X173552250Y-97359274D01*
X172503023Y-97359274D01*
X172489492Y-97363247D01*
X172488055Y-97373240D01*
X158162544Y-97373240D01*
X171083380Y-84452405D01*
X171145692Y-84418379D01*
X171172475Y-84415500D01*
X188523601Y-84415500D01*
X188591722Y-84435502D01*
X188608908Y-84450109D01*
X188609420Y-84449540D01*
X188614332Y-84453963D01*
X188618747Y-84458866D01*
X188627824Y-84465461D01*
X188761340Y-84562466D01*
X188773248Y-84571118D01*
X188779276Y-84573802D01*
X188779278Y-84573803D01*
X188935498Y-84643356D01*
X188947712Y-84648794D01*
X189041113Y-84668647D01*
X189128056Y-84687128D01*
X189128061Y-84687128D01*
X189134513Y-84688500D01*
X189325487Y-84688500D01*
X189331939Y-84687128D01*
X189331944Y-84687128D01*
X189418888Y-84668647D01*
X189512288Y-84648794D01*
X189524502Y-84643356D01*
X189680722Y-84573803D01*
X189680724Y-84573802D01*
X189686752Y-84571118D01*
X189698661Y-84562466D01*
X189825032Y-84470651D01*
X189841253Y-84458866D01*
X189969040Y-84316944D01*
X190048830Y-84178744D01*
X190061223Y-84157279D01*
X190061224Y-84157278D01*
X190064527Y-84151556D01*
X190123542Y-83969928D01*
X190143504Y-83780000D01*
X190123542Y-83590072D01*
X190064527Y-83408444D01*
X189969040Y-83243056D01*
X189841253Y-83101134D01*
X189739063Y-83026888D01*
X189692094Y-82992763D01*
X189692093Y-82992762D01*
X189686752Y-82988882D01*
X189680724Y-82986198D01*
X189680722Y-82986197D01*
X189518319Y-82913891D01*
X189518318Y-82913891D01*
X189512288Y-82911206D01*
X189418887Y-82891353D01*
X189331944Y-82872872D01*
X189331939Y-82872872D01*
X189325487Y-82871500D01*
X189134513Y-82871500D01*
X189128061Y-82872872D01*
X189128056Y-82872872D01*
X189041113Y-82891353D01*
X188947712Y-82911206D01*
X188941682Y-82913891D01*
X188941681Y-82913891D01*
X188779278Y-82986197D01*
X188779276Y-82986198D01*
X188773248Y-82988882D01*
X188767907Y-82992762D01*
X188767906Y-82992763D01*
X188660440Y-83070842D01*
X188618747Y-83101134D01*
X188614332Y-83106037D01*
X188609420Y-83110460D01*
X188607779Y-83108638D01*
X188556790Y-83140050D01*
X188523601Y-83144500D01*
X172053423Y-83144500D01*
X171985302Y-83124498D01*
X171938809Y-83070842D01*
X171928705Y-83000568D01*
X171958199Y-82935988D01*
X171964328Y-82929405D01*
X178631900Y-76261833D01*
X178694212Y-76227807D01*
X178746112Y-76227457D01*
X178923597Y-76263567D01*
X178928772Y-76263757D01*
X178928774Y-76263757D01*
X179141673Y-76271564D01*
X179141677Y-76271564D01*
X179146837Y-76271753D01*
X179151957Y-76271097D01*
X179151959Y-76271097D01*
X179363288Y-76244025D01*
X179363289Y-76244025D01*
X179368416Y-76243368D01*
X179373366Y-76241883D01*
X179577429Y-76180661D01*
X179577434Y-76180659D01*
X179582384Y-76179174D01*
X179782994Y-76080896D01*
X179964860Y-75951173D01*
X180123096Y-75793489D01*
X180253453Y-75612077D01*
X180256923Y-75605057D01*
X180350136Y-75416453D01*
X180350137Y-75416451D01*
X180352430Y-75411811D01*
X180400294Y-75254273D01*
X180415865Y-75203023D01*
X180415865Y-75203021D01*
X180417370Y-75198069D01*
X180446529Y-74976590D01*
X180446611Y-74973240D01*
X180448074Y-74913365D01*
X180448074Y-74913361D01*
X180448156Y-74910000D01*
X180429852Y-74687361D01*
X180375431Y-74470702D01*
X180367817Y-74453190D01*
X180358996Y-74382747D01*
X180389661Y-74318715D01*
X180450077Y-74281426D01*
X180483366Y-74276949D01*
X215099091Y-74276949D01*
X215167212Y-74296951D01*
X215188186Y-74313854D01*
X231470737Y-90596405D01*
X231504763Y-90658717D01*
X231507642Y-90685500D01*
X231507642Y-91991212D01*
X231514397Y-92053394D01*
X231565527Y-92189783D01*
X231652881Y-92306339D01*
X231769437Y-92393693D01*
X231777846Y-92396845D01*
X231777847Y-92396846D01*
X231887102Y-92437804D01*
X231943867Y-92480445D01*
X231968567Y-92547007D01*
X231953360Y-92616356D01*
X231933967Y-92642837D01*
X231810732Y-92771795D01*
X231804246Y-92779805D01*
X231684240Y-92955727D01*
X231679142Y-92964701D01*
X231589480Y-93157861D01*
X231585917Y-93167548D01*
X231530531Y-93367261D01*
X231532054Y-93375685D01*
X231544434Y-93379078D01*
X232994142Y-93379078D01*
X233062263Y-93399080D01*
X233108756Y-93452736D01*
X233120142Y-93505078D01*
X233120142Y-94951595D01*
X233124206Y-94965437D01*
X233137620Y-94967471D01*
X233144326Y-94966612D01*
X233154404Y-94964470D01*
X233358397Y-94903269D01*
X233367984Y-94899511D01*
X233559237Y-94805817D01*
X233568087Y-94800542D01*
X233741470Y-94676870D01*
X233749342Y-94670217D01*
X233900194Y-94519890D01*
X233906872Y-94512043D01*
X234034164Y-94334897D01*
X234035421Y-94335800D01*
X234082515Y-94292440D01*
X234152453Y-94280223D01*
X234217893Y-94307756D01*
X234245721Y-94339589D01*
X234257311Y-94358502D01*
X234306129Y-94438166D01*
X234452392Y-94607016D01*
X234624268Y-94749710D01*
X234817142Y-94862416D01*
X234821967Y-94864258D01*
X234821968Y-94864259D01*
X234857766Y-94877929D01*
X235025834Y-94942108D01*
X235030902Y-94943139D01*
X235030905Y-94943140D01*
X235126004Y-94962488D01*
X235244739Y-94986645D01*
X235249914Y-94986835D01*
X235249916Y-94986835D01*
X235462815Y-94994642D01*
X235462819Y-94994642D01*
X235467979Y-94994831D01*
X235473099Y-94994175D01*
X235473101Y-94994175D01*
X235684430Y-94967103D01*
X235684431Y-94967103D01*
X235689558Y-94966446D01*
X235694508Y-94964961D01*
X235898571Y-94903739D01*
X235898576Y-94903737D01*
X235903526Y-94902252D01*
X236104136Y-94803974D01*
X236286002Y-94674251D01*
X236307925Y-94652405D01*
X236408940Y-94551742D01*
X236444238Y-94516567D01*
X236531176Y-94395580D01*
X236574595Y-94335155D01*
X236575918Y-94336106D01*
X236622787Y-94292935D01*
X236692722Y-94280703D01*
X236758168Y-94308222D01*
X236786017Y-94340072D01*
X236793135Y-94351688D01*
X236846129Y-94438166D01*
X236992392Y-94607016D01*
X237164268Y-94749710D01*
X237218643Y-94781484D01*
X237295319Y-94826290D01*
X237344043Y-94877929D01*
X237357114Y-94947712D01*
X237330383Y-95013484D01*
X237320844Y-95024173D01*
X237089148Y-95255869D01*
X237026836Y-95289895D01*
X237000053Y-95292774D01*
X180258507Y-95292774D01*
X180190386Y-95272772D01*
X180143893Y-95219116D01*
X180133789Y-95148842D01*
X180145550Y-95110947D01*
X180167228Y-95067085D01*
X180204006Y-94946036D01*
X180230663Y-94858297D01*
X180230663Y-94858295D01*
X180232168Y-94853343D01*
X180261327Y-94631864D01*
X180261618Y-94619950D01*
X180262872Y-94568639D01*
X180262872Y-94568635D01*
X180262954Y-94565274D01*
X180244650Y-94342635D01*
X180190229Y-94125976D01*
X180101152Y-93921114D01*
X180088168Y-93901044D01*
X231534399Y-93901044D01*
X231564707Y-94035524D01*
X231567787Y-94045353D01*
X231647912Y-94242681D01*
X231652555Y-94251872D01*
X231763836Y-94433466D01*
X231769919Y-94441777D01*
X231909355Y-94602745D01*
X231916722Y-94609961D01*
X232080576Y-94745994D01*
X232089023Y-94751909D01*
X232272898Y-94859357D01*
X232282184Y-94863807D01*
X232481143Y-94939781D01*
X232491041Y-94942657D01*
X232594392Y-94963684D01*
X232608441Y-94962488D01*
X232612142Y-94952143D01*
X232612142Y-93905193D01*
X232607667Y-93889954D01*
X232606277Y-93888749D01*
X232598594Y-93887078D01*
X231549367Y-93887078D01*
X231535836Y-93891051D01*
X231534399Y-93901044D01*
X180088168Y-93901044D01*
X179979812Y-93733551D01*
X179829468Y-93568325D01*
X179825417Y-93565126D01*
X179825413Y-93565122D01*
X179658212Y-93433074D01*
X179658208Y-93433072D01*
X179654157Y-93429872D01*
X179458587Y-93321912D01*
X179453718Y-93320188D01*
X179453714Y-93320186D01*
X179252885Y-93249069D01*
X179252881Y-93249068D01*
X179248010Y-93247343D01*
X179242917Y-93246436D01*
X179242914Y-93246435D01*
X179033171Y-93209074D01*
X179033165Y-93209073D01*
X179028082Y-93208168D01*
X178954250Y-93207266D01*
X178809879Y-93205502D01*
X178809877Y-93205502D01*
X178804709Y-93205439D01*
X178583889Y-93239229D01*
X178371554Y-93308631D01*
X178299882Y-93345941D01*
X178211097Y-93392160D01*
X178173405Y-93411781D01*
X178169272Y-93414884D01*
X178169269Y-93414886D01*
X177998898Y-93542804D01*
X177994763Y-93545909D01*
X177976403Y-93565122D01*
X177855383Y-93691762D01*
X177840427Y-93707412D01*
X177732999Y-93864895D01*
X177678091Y-93909895D01*
X177607566Y-93918066D01*
X177543819Y-93886812D01*
X177523122Y-93862328D01*
X177442620Y-93737891D01*
X177442618Y-93737888D01*
X177439812Y-93733551D01*
X177289468Y-93568325D01*
X177285417Y-93565126D01*
X177285413Y-93565122D01*
X177118212Y-93433074D01*
X177118208Y-93433072D01*
X177114157Y-93429872D01*
X176918587Y-93321912D01*
X176913718Y-93320188D01*
X176913714Y-93320186D01*
X176712885Y-93249069D01*
X176712881Y-93249068D01*
X176708010Y-93247343D01*
X176702917Y-93246436D01*
X176702914Y-93246435D01*
X176493171Y-93209074D01*
X176493165Y-93209073D01*
X176488082Y-93208168D01*
X176414250Y-93207266D01*
X176269879Y-93205502D01*
X176269877Y-93205502D01*
X176264709Y-93205439D01*
X176043889Y-93239229D01*
X175831554Y-93308631D01*
X175759882Y-93345941D01*
X175671097Y-93392160D01*
X175633405Y-93411781D01*
X175629272Y-93414884D01*
X175629269Y-93414886D01*
X175458898Y-93542804D01*
X175454763Y-93545909D01*
X175398335Y-93604958D01*
X175374081Y-93630338D01*
X175312557Y-93665768D01*
X175241644Y-93662311D01*
X175183858Y-93621065D01*
X175165005Y-93587517D01*
X175123565Y-93476977D01*
X175120413Y-93468569D01*
X175033059Y-93352013D01*
X174916503Y-93264659D01*
X174780114Y-93213529D01*
X174717932Y-93206774D01*
X172921664Y-93206774D01*
X172859482Y-93213529D01*
X172723093Y-93264659D01*
X172606537Y-93352013D01*
X172519183Y-93468569D01*
X172468053Y-93604958D01*
X172461298Y-93667140D01*
X172461298Y-95463408D01*
X172468053Y-95525590D01*
X172519183Y-95661979D01*
X172606537Y-95778535D01*
X172723093Y-95865889D01*
X172731502Y-95869041D01*
X172731503Y-95869042D01*
X172840758Y-95910000D01*
X172897523Y-95952641D01*
X172922223Y-96019203D01*
X172907016Y-96088552D01*
X172887623Y-96115033D01*
X172764388Y-96243991D01*
X172757902Y-96252001D01*
X172637896Y-96427923D01*
X172632798Y-96436897D01*
X172543136Y-96630057D01*
X172539573Y-96639744D01*
X172484187Y-96839457D01*
X172485710Y-96847881D01*
X172498090Y-96851274D01*
X173947798Y-96851274D01*
X174015919Y-96871276D01*
X174062412Y-96924932D01*
X174073798Y-96977274D01*
X174073798Y-98423791D01*
X174077862Y-98437633D01*
X174091276Y-98439667D01*
X174097982Y-98438808D01*
X174108060Y-98436666D01*
X174312053Y-98375465D01*
X174321640Y-98371707D01*
X174512893Y-98278013D01*
X174521743Y-98272738D01*
X174695126Y-98149066D01*
X174702998Y-98142413D01*
X174853850Y-97992086D01*
X174860528Y-97984239D01*
X174987820Y-97807093D01*
X174989077Y-97807996D01*
X175036171Y-97764636D01*
X175106109Y-97752419D01*
X175171549Y-97779952D01*
X175199377Y-97811785D01*
X175208100Y-97826019D01*
X175259785Y-97910362D01*
X175406048Y-98079212D01*
X175577924Y-98221906D01*
X175770798Y-98334612D01*
X175979490Y-98414304D01*
X175984558Y-98415335D01*
X175984561Y-98415336D01*
X176053133Y-98429287D01*
X176198395Y-98458841D01*
X176203570Y-98459031D01*
X176203572Y-98459031D01*
X176416471Y-98466838D01*
X176416475Y-98466838D01*
X176421635Y-98467027D01*
X176426755Y-98466371D01*
X176426757Y-98466371D01*
X176638086Y-98439299D01*
X176638087Y-98439299D01*
X176643214Y-98438642D01*
X176648164Y-98437157D01*
X176852227Y-98375935D01*
X176852232Y-98375933D01*
X176857182Y-98374448D01*
X177057792Y-98276170D01*
X177239658Y-98146447D01*
X177280771Y-98105478D01*
X177331230Y-98055194D01*
X177397894Y-97988763D01*
X177406623Y-97976616D01*
X177528251Y-97807351D01*
X177529574Y-97808302D01*
X177576443Y-97765131D01*
X177646378Y-97752899D01*
X177711824Y-97780418D01*
X177739673Y-97812268D01*
X177748100Y-97826019D01*
X177799785Y-97910362D01*
X177946048Y-98079212D01*
X178117924Y-98221906D01*
X178310798Y-98334612D01*
X178519490Y-98414304D01*
X178524558Y-98415335D01*
X178524561Y-98415336D01*
X178593133Y-98429287D01*
X178738395Y-98458841D01*
X178743570Y-98459031D01*
X178743572Y-98459031D01*
X178956471Y-98466838D01*
X178956475Y-98466838D01*
X178961635Y-98467027D01*
X178966755Y-98466371D01*
X178966757Y-98466371D01*
X179178086Y-98439299D01*
X179178087Y-98439299D01*
X179183214Y-98438642D01*
X179188164Y-98437157D01*
X179392227Y-98375935D01*
X179392232Y-98375933D01*
X179397182Y-98374448D01*
X179597792Y-98276170D01*
X179779658Y-98146447D01*
X179820771Y-98105478D01*
X179871230Y-98055194D01*
X179937894Y-97988763D01*
X179946623Y-97976616D01*
X180065233Y-97811551D01*
X180068251Y-97807351D01*
X180081793Y-97779952D01*
X180164934Y-97611727D01*
X180164935Y-97611725D01*
X180167228Y-97607085D01*
X180232168Y-97393343D01*
X180261327Y-97171864D01*
X180261542Y-97163052D01*
X180262872Y-97108639D01*
X180262872Y-97108635D01*
X180262954Y-97105274D01*
X180244650Y-96882635D01*
X180238589Y-96858502D01*
X180203917Y-96720469D01*
X180206721Y-96649528D01*
X180247434Y-96591365D01*
X180313129Y-96564446D01*
X180326121Y-96563774D01*
X237236456Y-96563774D01*
X237247690Y-96564304D01*
X237255195Y-96565982D01*
X237323488Y-96563836D01*
X237327445Y-96563774D01*
X237355459Y-96563774D01*
X237359384Y-96563278D01*
X237359385Y-96563278D01*
X237359480Y-96563266D01*
X237371325Y-96562333D01*
X237401146Y-96561396D01*
X237407758Y-96561188D01*
X237407759Y-96561188D01*
X237415681Y-96560939D01*
X237435225Y-96555261D01*
X237454588Y-96551251D01*
X237466916Y-96549694D01*
X237466918Y-96549694D01*
X237474775Y-96548701D01*
X237482139Y-96545785D01*
X237482144Y-96545784D01*
X237516032Y-96532367D01*
X237527261Y-96528522D01*
X237543941Y-96523676D01*
X237569869Y-96516143D01*
X237576696Y-96512105D01*
X237576699Y-96512104D01*
X237587382Y-96505786D01*
X237605140Y-96497086D01*
X237616691Y-96492513D01*
X237616697Y-96492509D01*
X237624064Y-96489593D01*
X237659967Y-96463508D01*
X237669886Y-96456993D01*
X237701244Y-96438448D01*
X237701248Y-96438445D01*
X237708074Y-96434408D01*
X237722458Y-96420024D01*
X237737492Y-96407183D01*
X237747549Y-96399876D01*
X237753963Y-96395216D01*
X237782254Y-96361018D01*
X237790243Y-96352239D01*
X245459451Y-88683031D01*
X245467777Y-88675454D01*
X245474277Y-88671329D01*
X245521075Y-88621494D01*
X245523829Y-88618653D01*
X245543612Y-88598870D01*
X245546103Y-88595659D01*
X245553812Y-88586632D01*
X245560652Y-88579348D01*
X245584191Y-88554282D01*
X245593996Y-88536447D01*
X245604850Y-88519923D01*
X245612465Y-88510106D01*
X245612466Y-88510105D01*
X245617323Y-88503843D01*
X245634943Y-88463126D01*
X245640166Y-88452465D01*
X245657723Y-88420529D01*
X245657725Y-88420524D01*
X245661543Y-88413579D01*
X245663513Y-88405905D01*
X245663516Y-88405898D01*
X245666606Y-88393863D01*
X245673010Y-88375158D01*
X245677941Y-88363763D01*
X245681091Y-88356484D01*
X245688034Y-88312649D01*
X245690441Y-88301027D01*
X245695835Y-88280020D01*
X245701474Y-88258058D01*
X245701474Y-88237711D01*
X245703025Y-88218000D01*
X245704969Y-88205726D01*
X245706209Y-88197897D01*
X245702033Y-88153720D01*
X245701474Y-88141862D01*
X245701474Y-78469783D01*
X245721476Y-78401662D01*
X245775132Y-78355169D01*
X245827474Y-78343783D01*
X245964108Y-78343783D01*
X246026290Y-78337028D01*
X246162679Y-78285898D01*
X246279235Y-78198544D01*
X246366589Y-78081988D01*
X246375062Y-78059387D01*
X246410772Y-77964131D01*
X246453414Y-77907367D01*
X246519975Y-77882667D01*
X246589324Y-77897875D01*
X246623991Y-77925863D01*
X246649192Y-77954956D01*
X246656554Y-77962166D01*
X246820408Y-78098199D01*
X246828855Y-78104114D01*
X247012730Y-78211562D01*
X247022016Y-78216012D01*
X247220975Y-78291986D01*
X247230873Y-78294862D01*
X247334224Y-78315889D01*
X247348273Y-78314693D01*
X247351974Y-78304348D01*
X247351974Y-78303800D01*
X247859974Y-78303800D01*
X247864038Y-78317642D01*
X247877452Y-78319676D01*
X247884158Y-78318817D01*
X247894236Y-78316675D01*
X248098229Y-78255474D01*
X248107816Y-78251716D01*
X248299069Y-78158022D01*
X248307919Y-78152747D01*
X248481302Y-78029075D01*
X248489174Y-78022422D01*
X248640026Y-77872095D01*
X248646704Y-77864248D01*
X248770977Y-77691303D01*
X248776287Y-77682466D01*
X248870644Y-77491550D01*
X248874443Y-77481955D01*
X248936351Y-77278193D01*
X248938529Y-77268120D01*
X248939960Y-77257245D01*
X248937749Y-77243061D01*
X248924591Y-77239283D01*
X247878089Y-77239283D01*
X247862850Y-77243758D01*
X247861645Y-77245148D01*
X247859974Y-77252831D01*
X247859974Y-78303800D01*
X247351974Y-78303800D01*
X247351974Y-76857283D01*
X247371976Y-76789162D01*
X247425632Y-76742669D01*
X247477974Y-76731283D01*
X248924318Y-76731283D01*
X248937849Y-76727310D01*
X248939154Y-76718230D01*
X248897188Y-76551158D01*
X248893868Y-76541407D01*
X248808946Y-76346097D01*
X248804079Y-76337022D01*
X248688400Y-76158209D01*
X248682110Y-76150040D01*
X248538780Y-75992523D01*
X248531247Y-75985498D01*
X248364113Y-75853505D01*
X248355530Y-75847803D01*
X248318576Y-75827403D01*
X248268605Y-75776970D01*
X248253833Y-75707528D01*
X248278949Y-75641122D01*
X248306301Y-75614515D01*
X248369603Y-75569362D01*
X248485834Y-75486456D01*
X248644070Y-75328772D01*
X248655802Y-75312446D01*
X248771409Y-75151560D01*
X248774427Y-75147360D01*
X248791229Y-75113365D01*
X248871110Y-74951736D01*
X248871111Y-74951734D01*
X248873404Y-74947094D01*
X248938344Y-74733352D01*
X248967503Y-74511873D01*
X248968239Y-74481769D01*
X248969048Y-74448648D01*
X248969048Y-74448644D01*
X248969130Y-74445283D01*
X248950826Y-74222644D01*
X248896405Y-74005985D01*
X248807328Y-73801123D01*
X248710813Y-73651933D01*
X248688796Y-73617900D01*
X248688794Y-73617897D01*
X248685988Y-73613560D01*
X248535644Y-73448334D01*
X248531593Y-73445135D01*
X248531589Y-73445131D01*
X248364388Y-73313083D01*
X248364384Y-73313081D01*
X248360333Y-73309881D01*
X248319027Y-73287079D01*
X248269058Y-73236647D01*
X248254286Y-73167204D01*
X248279402Y-73100799D01*
X248306754Y-73074192D01*
X248359055Y-73036886D01*
X248485834Y-72946456D01*
X248644070Y-72788772D01*
X248648507Y-72782598D01*
X248771409Y-72611560D01*
X248774427Y-72607360D01*
X248777183Y-72601785D01*
X248871110Y-72411736D01*
X248871111Y-72411734D01*
X248873404Y-72407094D01*
X248938344Y-72193352D01*
X248967503Y-71971873D01*
X248967585Y-71968523D01*
X248969048Y-71908648D01*
X248969048Y-71908644D01*
X248969130Y-71905283D01*
X248950826Y-71682644D01*
X248896405Y-71465985D01*
X248807328Y-71261123D01*
X248730614Y-71142541D01*
X248688796Y-71077900D01*
X248688794Y-71077897D01*
X248685988Y-71073560D01*
X248535644Y-70908334D01*
X248531593Y-70905135D01*
X248531589Y-70905131D01*
X248364388Y-70773083D01*
X248364384Y-70773081D01*
X248360333Y-70769881D01*
X248348760Y-70763492D01*
X248264827Y-70717159D01*
X248164763Y-70661921D01*
X248159894Y-70660197D01*
X248159890Y-70660195D01*
X247959061Y-70589078D01*
X247959057Y-70589077D01*
X247954186Y-70587352D01*
X247949093Y-70586445D01*
X247949090Y-70586444D01*
X247739347Y-70549083D01*
X247739341Y-70549082D01*
X247734258Y-70548177D01*
X247660426Y-70547275D01*
X247516055Y-70545511D01*
X247516053Y-70545511D01*
X247510885Y-70545448D01*
X247290065Y-70579238D01*
X247077730Y-70648640D01*
X246879581Y-70751790D01*
X246875448Y-70754893D01*
X246875445Y-70754895D01*
X246727302Y-70866124D01*
X246700939Y-70885918D01*
X246546603Y-71047421D01*
X246439175Y-71204904D01*
X246384267Y-71249904D01*
X246313742Y-71258075D01*
X246249995Y-71226821D01*
X246229298Y-71202337D01*
X246148796Y-71077900D01*
X246148794Y-71077897D01*
X246145988Y-71073560D01*
X245995644Y-70908334D01*
X245991593Y-70905135D01*
X245991589Y-70905131D01*
X245824388Y-70773083D01*
X245824384Y-70773081D01*
X245820333Y-70769881D01*
X245808760Y-70763492D01*
X245724827Y-70717159D01*
X245624763Y-70661921D01*
X245619894Y-70660197D01*
X245619890Y-70660195D01*
X245419061Y-70589078D01*
X245419057Y-70589077D01*
X245414186Y-70587352D01*
X245409093Y-70586445D01*
X245409090Y-70586444D01*
X245199347Y-70549083D01*
X245199341Y-70549082D01*
X245194258Y-70548177D01*
X245120426Y-70547275D01*
X244976055Y-70545511D01*
X244976053Y-70545511D01*
X244970885Y-70545448D01*
X244750065Y-70579238D01*
X244537730Y-70648640D01*
X244339581Y-70751790D01*
X244335448Y-70754893D01*
X244335445Y-70754895D01*
X244187302Y-70866124D01*
X244160939Y-70885918D01*
X244006603Y-71047421D01*
X244003694Y-71051686D01*
X244003688Y-71051694D01*
X243959994Y-71115747D01*
X243880717Y-71231963D01*
X243857629Y-71281703D01*
X243811524Y-71381028D01*
X243786662Y-71434588D01*
X243726963Y-71649853D01*
X243703225Y-71871978D01*
X243703522Y-71877131D01*
X243703522Y-71877134D01*
X243711018Y-72007135D01*
X243716084Y-72094998D01*
X243717221Y-72100044D01*
X243717222Y-72100050D01*
X243737093Y-72188222D01*
X243765196Y-72312922D01*
X243826647Y-72464259D01*
X243837183Y-72490205D01*
X243849240Y-72519899D01*
X243892539Y-72590556D01*
X243963265Y-72705971D01*
X243965961Y-72710371D01*
X244112224Y-72879221D01*
X244188820Y-72942812D01*
X244264196Y-73005390D01*
X244284100Y-73021915D01*
X244331649Y-73049700D01*
X244357419Y-73064759D01*
X244406143Y-73116397D01*
X244419214Y-73186180D01*
X244392483Y-73251952D01*
X244352029Y-73285310D01*
X244339581Y-73291790D01*
X244335448Y-73294893D01*
X244335445Y-73294895D01*
X244165074Y-73422813D01*
X244160939Y-73425918D01*
X244157367Y-73429656D01*
X244067103Y-73524112D01*
X244006603Y-73587421D01*
X244003694Y-73591686D01*
X244003688Y-73591694D01*
X243949250Y-73671498D01*
X243880717Y-73771963D01*
X243786662Y-73974588D01*
X243726963Y-74189853D01*
X243703225Y-74411978D01*
X243703522Y-74417136D01*
X243703396Y-74422307D01*
X243701024Y-74422249D01*
X243687210Y-74481769D01*
X243636316Y-74531270D01*
X243566740Y-74545398D01*
X243500570Y-74519668D01*
X243488375Y-74508951D01*
X221925941Y-52946517D01*
X221918365Y-52938191D01*
X221914244Y-52931697D01*
X221864425Y-52884914D01*
X221861584Y-52882160D01*
X221841785Y-52862361D01*
X221838660Y-52859937D01*
X221838651Y-52859929D01*
X221838565Y-52859863D01*
X221829540Y-52852155D01*
X221802976Y-52827210D01*
X221797197Y-52821783D01*
X221779360Y-52811977D01*
X221762844Y-52801127D01*
X221746758Y-52788650D01*
X221706025Y-52771024D01*
X221695377Y-52765807D01*
X221680270Y-52757502D01*
X221656494Y-52744431D01*
X221648819Y-52742460D01*
X221648813Y-52742458D01*
X221636780Y-52739369D01*
X221618078Y-52732966D01*
X221599399Y-52724883D01*
X221559598Y-52718579D01*
X221555564Y-52717940D01*
X221543951Y-52715535D01*
X221500973Y-52704500D01*
X221480626Y-52704500D01*
X221460915Y-52702949D01*
X221448641Y-52701005D01*
X221440812Y-52699765D01*
X221432920Y-52700511D01*
X221396635Y-52703941D01*
X221384777Y-52704500D01*
X181795809Y-52704500D01*
X181784580Y-52703971D01*
X181777070Y-52702292D01*
X181769144Y-52702541D01*
X181769143Y-52702541D01*
X181708791Y-52704438D01*
X181704833Y-52704500D01*
X181676806Y-52704500D01*
X181672760Y-52705011D01*
X181660932Y-52705942D01*
X181616584Y-52707336D01*
X181608966Y-52709549D01*
X181608967Y-52709549D01*
X181597043Y-52713013D01*
X181577683Y-52717022D01*
X181565355Y-52718579D01*
X181565352Y-52718580D01*
X181557490Y-52719573D01*
X181550124Y-52722490D01*
X181550118Y-52722491D01*
X181516228Y-52735909D01*
X181505001Y-52739753D01*
X181462396Y-52752131D01*
X181453937Y-52757134D01*
X181452485Y-52757502D01*
X181448296Y-52759315D01*
X181448004Y-52758639D01*
X181385120Y-52774593D01*
X181355021Y-52769786D01*
X181327518Y-52761888D01*
X179880901Y-52761888D01*
X179812780Y-52741886D01*
X179766287Y-52688230D01*
X179754901Y-52635888D01*
X179754901Y-52235773D01*
X180262901Y-52235773D01*
X180267376Y-52251012D01*
X180268766Y-52252217D01*
X180276449Y-52253888D01*
X181327245Y-52253888D01*
X181340776Y-52249915D01*
X181342081Y-52240835D01*
X181300115Y-52073763D01*
X181296795Y-52064012D01*
X181211873Y-51868702D01*
X181207006Y-51859627D01*
X181091327Y-51680814D01*
X181085037Y-51672645D01*
X180941707Y-51515128D01*
X180934174Y-51508103D01*
X180767040Y-51376110D01*
X180758453Y-51370405D01*
X180572018Y-51267487D01*
X180562606Y-51263257D01*
X180361860Y-51192168D01*
X180351889Y-51189534D01*
X180280738Y-51176860D01*
X180267441Y-51178320D01*
X180262901Y-51192877D01*
X180262901Y-52235773D01*
X179754901Y-52235773D01*
X179754901Y-51190990D01*
X179750983Y-51177646D01*
X179736707Y-51175659D01*
X179698225Y-51181548D01*
X179688189Y-51183939D01*
X179485769Y-51250100D01*
X179476260Y-51254097D01*
X179287364Y-51352430D01*
X179278639Y-51357924D01*
X179108334Y-51485793D01*
X179100627Y-51492636D01*
X178953491Y-51646605D01*
X178947010Y-51654610D01*
X178842399Y-51807962D01*
X178787488Y-51852964D01*
X178716963Y-51861135D01*
X178653216Y-51829881D01*
X178632519Y-51805397D01*
X178551723Y-51680505D01*
X178551721Y-51680502D01*
X178548915Y-51676165D01*
X178398571Y-51510939D01*
X178394520Y-51507740D01*
X178394516Y-51507736D01*
X178227315Y-51375688D01*
X178227311Y-51375686D01*
X178223260Y-51372486D01*
X178186929Y-51352430D01*
X178171037Y-51343657D01*
X178027690Y-51264526D01*
X178022821Y-51262802D01*
X178022817Y-51262800D01*
X177821988Y-51191683D01*
X177821984Y-51191682D01*
X177817113Y-51189957D01*
X177812020Y-51189050D01*
X177812017Y-51189049D01*
X177602274Y-51151688D01*
X177602268Y-51151687D01*
X177597185Y-51150782D01*
X177523353Y-51149880D01*
X177378982Y-51148116D01*
X177378980Y-51148116D01*
X177373812Y-51148053D01*
X177152992Y-51181843D01*
X176940657Y-51251245D01*
X176742508Y-51354395D01*
X176738375Y-51357498D01*
X176738372Y-51357500D01*
X176568001Y-51485418D01*
X176563866Y-51488523D01*
X176409530Y-51650026D01*
X176302102Y-51807509D01*
X176247194Y-51852509D01*
X176176669Y-51860680D01*
X176112922Y-51829426D01*
X176092225Y-51804942D01*
X176011723Y-51680505D01*
X176011721Y-51680502D01*
X176008915Y-51676165D01*
X175858571Y-51510939D01*
X175854520Y-51507740D01*
X175854516Y-51507736D01*
X175687315Y-51375688D01*
X175687311Y-51375686D01*
X175683260Y-51372486D01*
X175646929Y-51352430D01*
X175631037Y-51343657D01*
X175487690Y-51264526D01*
X175482821Y-51262802D01*
X175482817Y-51262800D01*
X175281988Y-51191683D01*
X175281984Y-51191682D01*
X175277113Y-51189957D01*
X175272020Y-51189050D01*
X175272017Y-51189049D01*
X175062274Y-51151688D01*
X175062268Y-51151687D01*
X175057185Y-51150782D01*
X174983353Y-51149880D01*
X174838982Y-51148116D01*
X174838980Y-51148116D01*
X174833812Y-51148053D01*
X174612992Y-51181843D01*
X174400657Y-51251245D01*
X174202508Y-51354395D01*
X174198375Y-51357498D01*
X174198372Y-51357500D01*
X174028001Y-51485418D01*
X174023866Y-51488523D01*
X173869530Y-51650026D01*
X173743644Y-51834568D01*
X173727800Y-51868702D01*
X173674691Y-51983116D01*
X173649589Y-52037193D01*
X173589890Y-52252458D01*
X173566152Y-52474583D01*
X173566449Y-52479736D01*
X173566449Y-52479739D01*
X173568072Y-52507888D01*
X173579011Y-52697603D01*
X173580148Y-52702649D01*
X173580149Y-52702655D01*
X173594772Y-52767539D01*
X173628123Y-52915527D01*
X173630065Y-52920309D01*
X173630066Y-52920313D01*
X173687593Y-53061984D01*
X173694689Y-53132625D01*
X173662467Y-53195888D01*
X173601158Y-53231689D01*
X173570850Y-53235388D01*
X107498144Y-53235388D01*
X107486905Y-53234858D01*
X107479393Y-53233179D01*
X107471468Y-53233428D01*
X107471467Y-53233428D01*
X107411082Y-53235326D01*
X107407124Y-53235388D01*
X107379129Y-53235388D01*
X107375195Y-53235885D01*
X107375193Y-53235885D01*
X107375106Y-53235896D01*
X107363272Y-53236828D01*
X107318907Y-53238223D01*
X107311294Y-53240435D01*
X107311293Y-53240435D01*
X107299364Y-53243901D01*
X107280000Y-53247911D01*
X107267672Y-53249468D01*
X107267670Y-53249468D01*
X107259813Y-53250461D01*
X107252449Y-53253377D01*
X107252444Y-53253378D01*
X107218556Y-53266795D01*
X107207327Y-53270640D01*
X107191223Y-53275319D01*
X107164719Y-53283019D01*
X107157892Y-53287057D01*
X107157889Y-53287058D01*
X107147206Y-53293376D01*
X107129448Y-53302076D01*
X107117897Y-53306649D01*
X107117891Y-53306653D01*
X107110524Y-53309569D01*
X107104113Y-53314227D01*
X107104111Y-53314228D01*
X107074624Y-53335652D01*
X107064702Y-53342169D01*
X107033344Y-53360714D01*
X107033340Y-53360717D01*
X107026514Y-53364754D01*
X107012130Y-53379138D01*
X106997096Y-53391979D01*
X106980625Y-53403946D01*
X106975572Y-53410054D01*
X106952335Y-53438143D01*
X106944345Y-53446923D01*
X104648819Y-55742448D01*
X104640493Y-55750024D01*
X104633999Y-55754145D01*
X104628576Y-55759920D01*
X104587217Y-55803963D01*
X104584462Y-55806805D01*
X104564663Y-55826604D01*
X104562239Y-55829729D01*
X104562231Y-55829738D01*
X104562165Y-55829824D01*
X104554457Y-55838849D01*
X104524085Y-55871192D01*
X104520267Y-55878136D01*
X104520266Y-55878138D01*
X104514280Y-55889027D01*
X104503429Y-55905545D01*
X104490952Y-55921631D01*
X104473326Y-55962364D01*
X104468109Y-55973012D01*
X104446733Y-56011895D01*
X104444762Y-56019570D01*
X104444760Y-56019576D01*
X104441671Y-56031609D01*
X104435268Y-56050311D01*
X104427185Y-56068990D01*
X104425946Y-56076815D01*
X104420242Y-56112825D01*
X104417837Y-56124438D01*
X104406802Y-56167416D01*
X104406802Y-56187763D01*
X104405251Y-56207474D01*
X104402067Y-56227577D01*
X104402813Y-56235469D01*
X104406243Y-56271754D01*
X104406802Y-56283612D01*
X104406802Y-69544809D01*
X104386800Y-69612930D01*
X104333144Y-69659423D01*
X104280802Y-69670809D01*
X104144168Y-69670809D01*
X104081986Y-69677564D01*
X103945597Y-69728694D01*
X103829041Y-69816048D01*
X103741687Y-69932604D01*
X103738535Y-69941012D01*
X103738534Y-69941014D01*
X103697024Y-70051742D01*
X103654383Y-70108507D01*
X103587821Y-70133207D01*
X103518472Y-70118000D01*
X103485848Y-70092313D01*
X103435101Y-70036543D01*
X103427575Y-70029524D01*
X103260441Y-69897531D01*
X103251854Y-69891826D01*
X103065419Y-69788908D01*
X103056007Y-69784678D01*
X102855261Y-69713589D01*
X102845290Y-69710955D01*
X102774139Y-69698281D01*
X102760842Y-69699741D01*
X102756302Y-69714298D01*
X102756302Y-71157309D01*
X102736300Y-71225430D01*
X102682644Y-71271923D01*
X102630302Y-71283309D01*
X101185527Y-71283309D01*
X101171996Y-71287282D01*
X101170559Y-71297275D01*
X101200867Y-71431755D01*
X101203947Y-71441584D01*
X101284072Y-71638912D01*
X101288715Y-71648103D01*
X101399996Y-71829697D01*
X101406079Y-71838008D01*
X101545515Y-71998976D01*
X101552882Y-72006192D01*
X101716736Y-72142225D01*
X101725183Y-72148140D01*
X101794271Y-72188512D01*
X101842995Y-72240151D01*
X101856066Y-72309934D01*
X101829335Y-72375705D01*
X101788886Y-72409061D01*
X101775909Y-72415816D01*
X101771776Y-72418919D01*
X101771773Y-72418921D01*
X101608593Y-72541440D01*
X101597267Y-72549944D01*
X101587726Y-72559928D01*
X101473304Y-72679664D01*
X101442931Y-72711447D01*
X101440022Y-72715712D01*
X101440016Y-72715720D01*
X101390183Y-72788772D01*
X101317045Y-72895989D01*
X101275906Y-72984616D01*
X101226943Y-73090099D01*
X101222990Y-73098614D01*
X101163291Y-73313879D01*
X101139553Y-73536004D01*
X101139850Y-73541157D01*
X101139850Y-73541160D01*
X101150652Y-73728500D01*
X101152412Y-73759024D01*
X101153549Y-73764070D01*
X101153550Y-73764076D01*
X101162970Y-73805873D01*
X101201524Y-73976948D01*
X101239763Y-74071120D01*
X101281639Y-74174248D01*
X101285568Y-74183925D01*
X101322716Y-74244545D01*
X101399593Y-74369997D01*
X101402289Y-74374397D01*
X101548552Y-74543247D01*
X101720428Y-74685941D01*
X101790897Y-74727120D01*
X101793747Y-74728785D01*
X101842471Y-74780423D01*
X101855542Y-74850206D01*
X101828811Y-74915978D01*
X101788357Y-74949336D01*
X101783747Y-74951736D01*
X101775909Y-74955816D01*
X101771776Y-74958919D01*
X101771773Y-74958921D01*
X101713766Y-75002474D01*
X101597267Y-75089944D01*
X101442931Y-75251447D01*
X101440022Y-75255712D01*
X101440016Y-75255720D01*
X101381927Y-75340875D01*
X101317045Y-75435989D01*
X101278233Y-75519603D01*
X101228482Y-75626783D01*
X101222990Y-75638614D01*
X101163291Y-75853879D01*
X101139553Y-76076004D01*
X100508500Y-76076004D01*
X100508500Y-70763492D01*
X101166691Y-70763492D01*
X101168214Y-70771916D01*
X101180594Y-70775309D01*
X102230187Y-70775309D01*
X102245426Y-70770834D01*
X102246631Y-70769444D01*
X102248302Y-70761761D01*
X102248302Y-69712411D01*
X102244384Y-69699067D01*
X102230108Y-69697080D01*
X102191626Y-69702969D01*
X102181590Y-69705360D01*
X101979170Y-69771521D01*
X101969661Y-69775518D01*
X101780765Y-69873851D01*
X101772040Y-69879345D01*
X101601735Y-70007214D01*
X101594028Y-70014057D01*
X101446892Y-70168026D01*
X101440406Y-70176036D01*
X101320400Y-70351958D01*
X101315302Y-70360932D01*
X101225640Y-70554092D01*
X101222077Y-70563779D01*
X101166691Y-70763492D01*
X100508500Y-70763492D01*
X100508500Y-52884065D01*
X100528502Y-52815944D01*
X100582158Y-52769451D01*
X100652432Y-52759347D01*
X100717012Y-52788841D01*
X100755396Y-52848567D01*
X100758079Y-52859482D01*
X100758195Y-52860068D01*
X100770179Y-52920313D01*
X100781378Y-52976616D01*
X100782957Y-52981014D01*
X100782959Y-52981021D01*
X100865159Y-53209965D01*
X100870704Y-53225410D01*
X100872921Y-53229536D01*
X100989727Y-53446923D01*
X100995822Y-53458267D01*
X100998617Y-53462011D01*
X100998619Y-53462013D01*
X101081743Y-53573329D01*
X101153985Y-53670073D01*
X101157292Y-53673351D01*
X101157297Y-53673357D01*
X101256879Y-53772073D01*
X101341718Y-53856174D01*
X101554896Y-54012483D01*
X101559031Y-54014659D01*
X101559035Y-54014661D01*
X101682293Y-54079510D01*
X101788836Y-54135565D01*
X101793255Y-54137108D01*
X101978394Y-54201761D01*
X102038400Y-54222716D01*
X102042993Y-54223588D01*
X102293515Y-54271151D01*
X102293518Y-54271151D01*
X102298104Y-54272022D01*
X102430173Y-54277211D01*
X102557575Y-54282218D01*
X102557581Y-54282218D01*
X102562243Y-54282401D01*
X102825015Y-54253622D01*
X102829526Y-54252434D01*
X102829528Y-54252434D01*
X103076124Y-54187511D01*
X103076126Y-54187510D01*
X103080647Y-54186320D01*
X103086019Y-54184012D01*
X103319229Y-54083817D01*
X103319231Y-54083816D01*
X103323523Y-54081972D01*
X103548307Y-53942871D01*
X103564788Y-53928919D01*
X103746496Y-53775093D01*
X103746498Y-53775091D01*
X103750063Y-53772073D01*
X103924356Y-53573329D01*
X103990092Y-53471132D01*
X104058516Y-53364754D01*
X104067359Y-53351006D01*
X104175930Y-53109988D01*
X104247683Y-52855570D01*
X104262073Y-52742458D01*
X104280645Y-52596471D01*
X104280645Y-52596465D01*
X104281043Y-52593340D01*
X104283487Y-52500000D01*
X104270181Y-52320939D01*
X104264243Y-52241036D01*
X104264242Y-52241032D01*
X104263897Y-52236384D01*
X104205557Y-51978559D01*
X104190028Y-51938626D01*
X104111442Y-51736542D01*
X104111441Y-51736540D01*
X104109749Y-51732189D01*
X104083535Y-51686323D01*
X104060653Y-51646289D01*
X103978578Y-51502687D01*
X103814925Y-51295094D01*
X103622385Y-51113970D01*
X103585212Y-51088182D01*
X103409026Y-50965958D01*
X103409021Y-50965955D01*
X103405188Y-50963296D01*
X103400997Y-50961229D01*
X103172294Y-50848445D01*
X103172291Y-50848444D01*
X103168106Y-50846380D01*
X103111150Y-50828148D01*
X102920792Y-50767214D01*
X102920794Y-50767214D01*
X102916347Y-50765791D01*
X102873801Y-50758862D01*
X102809781Y-50728170D01*
X102772517Y-50667739D01*
X102773841Y-50596754D01*
X102813331Y-50537754D01*
X102878450Y-50509470D01*
X102894054Y-50508500D01*
X247094027Y-50508500D01*
X247162148Y-50528502D01*
G37*
%TD.AperFunction*%
%TA.AperFunction,Conductor*%
G36*
X205178762Y-53995502D02*
G01*
X205225255Y-54049158D01*
X205235359Y-54119432D01*
X205205865Y-54184012D01*
X205154871Y-54219482D01*
X205138693Y-54225547D01*
X205065753Y-54252891D01*
X204949197Y-54340245D01*
X204861843Y-54456801D01*
X204810713Y-54593190D01*
X204803958Y-54655372D01*
X204803958Y-54792006D01*
X204783956Y-54860127D01*
X204730300Y-54906620D01*
X204677958Y-54918006D01*
X189796514Y-54918006D01*
X189785280Y-54917476D01*
X189777775Y-54915798D01*
X189710065Y-54917926D01*
X189709482Y-54917944D01*
X189705525Y-54918006D01*
X189677511Y-54918006D01*
X189673586Y-54918502D01*
X189673585Y-54918502D01*
X189673490Y-54918514D01*
X189661645Y-54919447D01*
X189631824Y-54920384D01*
X189625212Y-54920592D01*
X189625211Y-54920592D01*
X189617289Y-54920841D01*
X189597746Y-54926519D01*
X189578382Y-54930529D01*
X189566054Y-54932086D01*
X189566052Y-54932086D01*
X189558195Y-54933079D01*
X189550831Y-54935995D01*
X189550826Y-54935996D01*
X189516938Y-54949413D01*
X189505709Y-54953258D01*
X189489029Y-54958104D01*
X189463101Y-54965637D01*
X189456274Y-54969675D01*
X189456271Y-54969676D01*
X189445588Y-54975994D01*
X189427830Y-54984694D01*
X189416279Y-54989267D01*
X189416273Y-54989271D01*
X189408906Y-54992187D01*
X189378081Y-55014583D01*
X189373006Y-55018270D01*
X189363084Y-55024787D01*
X189331726Y-55043332D01*
X189331722Y-55043335D01*
X189324896Y-55047372D01*
X189310512Y-55061756D01*
X189295478Y-55074597D01*
X189279007Y-55086564D01*
X189273954Y-55092672D01*
X189250717Y-55120761D01*
X189242727Y-55129541D01*
X173611517Y-70760750D01*
X173603191Y-70768326D01*
X173596697Y-70772447D01*
X173591274Y-70778222D01*
X173549915Y-70822265D01*
X173547160Y-70825107D01*
X173527361Y-70844906D01*
X173524937Y-70848031D01*
X173524929Y-70848040D01*
X173524863Y-70848126D01*
X173517155Y-70857151D01*
X173486783Y-70889494D01*
X173482965Y-70896438D01*
X173482964Y-70896440D01*
X173476978Y-70907329D01*
X173466127Y-70923847D01*
X173453650Y-70939933D01*
X173450500Y-70947213D01*
X173449065Y-70949639D01*
X173397172Y-70998091D01*
X173340611Y-71011500D01*
X173106866Y-71011500D01*
X173044684Y-71018255D01*
X172908295Y-71069385D01*
X172791739Y-71156739D01*
X172704385Y-71273295D01*
X172653255Y-71409684D01*
X172646500Y-71471866D01*
X172646500Y-71608500D01*
X172626498Y-71676621D01*
X172572842Y-71723114D01*
X172520500Y-71734500D01*
X142069032Y-71734500D01*
X142057793Y-71733970D01*
X142050281Y-71732291D01*
X142042356Y-71732540D01*
X142042355Y-71732540D01*
X141981970Y-71734438D01*
X141978012Y-71734500D01*
X141950017Y-71734500D01*
X141946083Y-71734997D01*
X141946081Y-71734997D01*
X141945994Y-71735008D01*
X141934160Y-71735940D01*
X141889795Y-71737335D01*
X141882182Y-71739547D01*
X141882181Y-71739547D01*
X141870252Y-71743013D01*
X141850888Y-71747023D01*
X141838560Y-71748580D01*
X141838558Y-71748580D01*
X141830701Y-71749573D01*
X141823337Y-71752489D01*
X141823332Y-71752490D01*
X141789444Y-71765907D01*
X141778215Y-71769752D01*
X141761535Y-71774598D01*
X141735607Y-71782131D01*
X141728780Y-71786169D01*
X141728777Y-71786170D01*
X141718094Y-71792488D01*
X141700336Y-71801188D01*
X141688785Y-71805761D01*
X141688779Y-71805765D01*
X141681412Y-71808681D01*
X141675001Y-71813339D01*
X141674999Y-71813340D01*
X141645512Y-71834764D01*
X141635590Y-71841281D01*
X141604232Y-71859826D01*
X141604228Y-71859829D01*
X141597402Y-71863866D01*
X141583018Y-71878250D01*
X141567984Y-71891091D01*
X141551513Y-71903058D01*
X141530716Y-71928198D01*
X141523223Y-71937255D01*
X141515233Y-71946035D01*
X138506672Y-74954595D01*
X138444360Y-74988621D01*
X138417577Y-74991500D01*
X137902423Y-74991500D01*
X137834302Y-74971498D01*
X137813328Y-74954595D01*
X134855250Y-71996517D01*
X134847674Y-71988191D01*
X134843553Y-71981697D01*
X134793734Y-71934914D01*
X134790893Y-71932160D01*
X134771094Y-71912361D01*
X134767969Y-71909937D01*
X134767960Y-71909929D01*
X134767874Y-71909863D01*
X134758849Y-71902155D01*
X134740863Y-71885265D01*
X134726506Y-71871783D01*
X134708669Y-71861977D01*
X134692153Y-71851127D01*
X134676067Y-71838650D01*
X134635334Y-71821024D01*
X134624686Y-71815807D01*
X134598094Y-71801188D01*
X134585803Y-71794431D01*
X134578128Y-71792460D01*
X134578122Y-71792458D01*
X134566089Y-71789369D01*
X134547387Y-71782966D01*
X134528708Y-71774883D01*
X134494872Y-71769524D01*
X134484873Y-71767940D01*
X134473260Y-71765535D01*
X134430282Y-71754500D01*
X134409935Y-71754500D01*
X134390224Y-71752949D01*
X134377950Y-71751005D01*
X134370121Y-71749765D01*
X134362229Y-71750511D01*
X134325944Y-71753941D01*
X134314086Y-71754500D01*
X133421983Y-71754500D01*
X133398374Y-71752268D01*
X133398009Y-71752198D01*
X133398004Y-71752198D01*
X133390221Y-71750713D01*
X133333987Y-71754251D01*
X133326075Y-71754500D01*
X131571500Y-71754500D01*
X131503379Y-71734498D01*
X131456886Y-71680842D01*
X131445500Y-71628500D01*
X131445500Y-70464005D01*
X131446030Y-70452766D01*
X131447709Y-70445254D01*
X131445562Y-70376942D01*
X131445500Y-70372985D01*
X131445500Y-70344990D01*
X131444992Y-70340967D01*
X131444059Y-70329125D01*
X131443277Y-70304225D01*
X131442665Y-70284769D01*
X131436988Y-70265230D01*
X131432979Y-70245869D01*
X131431422Y-70233541D01*
X131431419Y-70233531D01*
X131430427Y-70225674D01*
X131424054Y-70209577D01*
X131414094Y-70184419D01*
X131410249Y-70173192D01*
X131408145Y-70165950D01*
X131397869Y-70130580D01*
X131387510Y-70113064D01*
X131378813Y-70095314D01*
X131371319Y-70076385D01*
X131345238Y-70040487D01*
X131338722Y-70030567D01*
X131320173Y-69999202D01*
X131320171Y-69999199D01*
X131316135Y-69992375D01*
X131301747Y-69977987D01*
X131288906Y-69962953D01*
X131281602Y-69952900D01*
X131276942Y-69946486D01*
X131270328Y-69941014D01*
X131242751Y-69918201D01*
X131233971Y-69910211D01*
X129080432Y-67756672D01*
X129046406Y-67694360D01*
X129043527Y-67667577D01*
X129043527Y-66461866D01*
X129036772Y-66399684D01*
X128985642Y-66263295D01*
X128898288Y-66146739D01*
X128781732Y-66059385D01*
X128645343Y-66008255D01*
X128583161Y-66001500D01*
X127377450Y-66001500D01*
X127309329Y-65981498D01*
X127288355Y-65964595D01*
X119443277Y-58119517D01*
X119435701Y-58111191D01*
X119431580Y-58104697D01*
X119381761Y-58057914D01*
X119378920Y-58055160D01*
X119359121Y-58035361D01*
X119355996Y-58032937D01*
X119355987Y-58032929D01*
X119355901Y-58032863D01*
X119346876Y-58025155D01*
X119320312Y-58000210D01*
X119314533Y-57994783D01*
X119296696Y-57984977D01*
X119280180Y-57974127D01*
X119264094Y-57961650D01*
X119223361Y-57944024D01*
X119212713Y-57938807D01*
X119201085Y-57932415D01*
X119173830Y-57917431D01*
X119166155Y-57915460D01*
X119166149Y-57915458D01*
X119154116Y-57912369D01*
X119135414Y-57905966D01*
X119116735Y-57897883D01*
X119082899Y-57892524D01*
X119072900Y-57890940D01*
X119061287Y-57888535D01*
X119018309Y-57877500D01*
X118997962Y-57877500D01*
X118978251Y-57875949D01*
X118965977Y-57874005D01*
X118958148Y-57872765D01*
X118950256Y-57873511D01*
X118913971Y-57876941D01*
X118902113Y-57877500D01*
X116928709Y-57877500D01*
X116860588Y-57857498D01*
X116814095Y-57803842D01*
X116803991Y-57733568D01*
X116815752Y-57695673D01*
X116835136Y-57656452D01*
X116837430Y-57651811D01*
X116902370Y-57438069D01*
X116931529Y-57216590D01*
X116933156Y-57150000D01*
X116914852Y-56927361D01*
X116860431Y-56710702D01*
X116771354Y-56505840D01*
X116703824Y-56401455D01*
X116652822Y-56322617D01*
X116652820Y-56322614D01*
X116650014Y-56318277D01*
X116499670Y-56153051D01*
X116495619Y-56149852D01*
X116495615Y-56149848D01*
X116328414Y-56017800D01*
X116328410Y-56017798D01*
X116324359Y-56014598D01*
X116312777Y-56008204D01*
X116239602Y-55967810D01*
X116128789Y-55906638D01*
X116123920Y-55904914D01*
X116123916Y-55904912D01*
X115923087Y-55833795D01*
X115923083Y-55833794D01*
X115918212Y-55832069D01*
X115913119Y-55831162D01*
X115913116Y-55831161D01*
X115703373Y-55793800D01*
X115703367Y-55793799D01*
X115698284Y-55792894D01*
X115624452Y-55791992D01*
X115480081Y-55790228D01*
X115480079Y-55790228D01*
X115474911Y-55790165D01*
X115254091Y-55823955D01*
X115041756Y-55893357D01*
X114843607Y-55996507D01*
X114839474Y-55999610D01*
X114839471Y-55999612D01*
X114669100Y-56127530D01*
X114664965Y-56130635D01*
X114646605Y-56149848D01*
X114518777Y-56283612D01*
X114510629Y-56292138D01*
X114403201Y-56449621D01*
X114348293Y-56494621D01*
X114277768Y-56502792D01*
X114214021Y-56471538D01*
X114193324Y-56447054D01*
X114112822Y-56322617D01*
X114112820Y-56322614D01*
X114110014Y-56318277D01*
X113959670Y-56153051D01*
X113955619Y-56149852D01*
X113955615Y-56149848D01*
X113788414Y-56017800D01*
X113788410Y-56017798D01*
X113784359Y-56014598D01*
X113772777Y-56008204D01*
X113699602Y-55967810D01*
X113588789Y-55906638D01*
X113583920Y-55904914D01*
X113583916Y-55904912D01*
X113383087Y-55833795D01*
X113383083Y-55833794D01*
X113378212Y-55832069D01*
X113373119Y-55831162D01*
X113373116Y-55831161D01*
X113163373Y-55793800D01*
X113163367Y-55793799D01*
X113158284Y-55792894D01*
X113084452Y-55791992D01*
X112940081Y-55790228D01*
X112940079Y-55790228D01*
X112934911Y-55790165D01*
X112714091Y-55823955D01*
X112501756Y-55893357D01*
X112303607Y-55996507D01*
X112299474Y-55999610D01*
X112299471Y-55999612D01*
X112129100Y-56127530D01*
X112124965Y-56130635D01*
X112060894Y-56197682D01*
X112044283Y-56215064D01*
X111982759Y-56250494D01*
X111911846Y-56247037D01*
X111854060Y-56205791D01*
X111835207Y-56172243D01*
X111793767Y-56061703D01*
X111790615Y-56053295D01*
X111703261Y-55936739D01*
X111586705Y-55849385D01*
X111450316Y-55798255D01*
X111388134Y-55791500D01*
X109591866Y-55791500D01*
X109529684Y-55798255D01*
X109393295Y-55849385D01*
X109276739Y-55936739D01*
X109189385Y-56053295D01*
X109138255Y-56189684D01*
X109131500Y-56251866D01*
X109131500Y-58048134D01*
X109138255Y-58110316D01*
X109189385Y-58246705D01*
X109276739Y-58363261D01*
X109393295Y-58450615D01*
X109401704Y-58453767D01*
X109401705Y-58453768D01*
X109510960Y-58494726D01*
X109567725Y-58537367D01*
X109592425Y-58603929D01*
X109577218Y-58673278D01*
X109557825Y-58699759D01*
X109434590Y-58828717D01*
X109428104Y-58836727D01*
X109308098Y-59012649D01*
X109303000Y-59021623D01*
X109213338Y-59214783D01*
X109209775Y-59224470D01*
X109154389Y-59424183D01*
X109155912Y-59432607D01*
X109168292Y-59436000D01*
X110618000Y-59436000D01*
X110686121Y-59456002D01*
X110732614Y-59509658D01*
X110744000Y-59562000D01*
X110744000Y-61008517D01*
X110748064Y-61022359D01*
X110761478Y-61024393D01*
X110768184Y-61023534D01*
X110778262Y-61021392D01*
X110982255Y-60960191D01*
X110991842Y-60956433D01*
X111183095Y-60862739D01*
X111191945Y-60857464D01*
X111365328Y-60733792D01*
X111373200Y-60727139D01*
X111524052Y-60576812D01*
X111530730Y-60568965D01*
X111658022Y-60391819D01*
X111659279Y-60392722D01*
X111706373Y-60349362D01*
X111776311Y-60337145D01*
X111841751Y-60364678D01*
X111869579Y-60396511D01*
X111929987Y-60495088D01*
X112076250Y-60663938D01*
X112248126Y-60806632D01*
X112441000Y-60919338D01*
X112649692Y-60999030D01*
X112654760Y-61000061D01*
X112654763Y-61000062D01*
X112749862Y-61019410D01*
X112868597Y-61043567D01*
X112873772Y-61043757D01*
X112873774Y-61043757D01*
X113086673Y-61051564D01*
X113086677Y-61051564D01*
X113091837Y-61051753D01*
X113096957Y-61051097D01*
X113096959Y-61051097D01*
X113308288Y-61024025D01*
X113308289Y-61024025D01*
X113313416Y-61023368D01*
X113318366Y-61021883D01*
X113522429Y-60960661D01*
X113522434Y-60960659D01*
X113527384Y-60959174D01*
X113727994Y-60860896D01*
X113909860Y-60731173D01*
X114068096Y-60573489D01*
X114198453Y-60392077D01*
X114199776Y-60393028D01*
X114246645Y-60349857D01*
X114316580Y-60337625D01*
X114382026Y-60365144D01*
X114409875Y-60396994D01*
X114469987Y-60495088D01*
X114616250Y-60663938D01*
X114788126Y-60806632D01*
X114872072Y-60855686D01*
X114920794Y-60907324D01*
X114934500Y-60964473D01*
X114934500Y-72310980D01*
X114933970Y-72322214D01*
X114932292Y-72329719D01*
X114933558Y-72370000D01*
X114934438Y-72398012D01*
X114934500Y-72401969D01*
X114934500Y-72429983D01*
X114934996Y-72433907D01*
X114935008Y-72434004D01*
X114935941Y-72445849D01*
X114937335Y-72490205D01*
X114939547Y-72497817D01*
X114943013Y-72509748D01*
X114947023Y-72529112D01*
X114949573Y-72549299D01*
X114952489Y-72556663D01*
X114952490Y-72556668D01*
X114965907Y-72590556D01*
X114969752Y-72601785D01*
X114972896Y-72612607D01*
X114982131Y-72644393D01*
X114986169Y-72651220D01*
X114986170Y-72651223D01*
X114992488Y-72661906D01*
X115001188Y-72679664D01*
X115005761Y-72691215D01*
X115005765Y-72691221D01*
X115008681Y-72698588D01*
X115013339Y-72704999D01*
X115013340Y-72705001D01*
X115034764Y-72734488D01*
X115041281Y-72744410D01*
X115059826Y-72775768D01*
X115059829Y-72775772D01*
X115063866Y-72782598D01*
X115078250Y-72796982D01*
X115091091Y-72812016D01*
X115103058Y-72828487D01*
X115109166Y-72833540D01*
X115137255Y-72856777D01*
X115146035Y-72864767D01*
X121955505Y-79674238D01*
X121989531Y-79736550D01*
X121991673Y-79749726D01*
X121997401Y-79802460D01*
X121997402Y-79802464D01*
X121998255Y-79810316D01*
X122001029Y-79817715D01*
X122043745Y-79931660D01*
X122049385Y-79946705D01*
X122052727Y-79951164D01*
X122067530Y-80018848D01*
X122052933Y-80068561D01*
X122049385Y-80073295D01*
X122046236Y-80081696D01*
X122046234Y-80081699D01*
X122026035Y-80135581D01*
X121998255Y-80209684D01*
X121991500Y-80271866D01*
X121991500Y-81018134D01*
X121998255Y-81080316D01*
X122049385Y-81216705D01*
X122052971Y-81221490D01*
X122067818Y-81289374D01*
X122052649Y-81341035D01*
X122046677Y-81351942D01*
X122001522Y-81472394D01*
X121997895Y-81487649D01*
X121992369Y-81538514D01*
X121992000Y-81545328D01*
X121992000Y-81642885D01*
X121996475Y-81658124D01*
X121997865Y-81659329D01*
X122005548Y-81661000D01*
X124689884Y-81661000D01*
X124705123Y-81656525D01*
X124706328Y-81655135D01*
X124707999Y-81647452D01*
X124707999Y-81545331D01*
X124707629Y-81538510D01*
X124702105Y-81487648D01*
X124698479Y-81472396D01*
X124653323Y-81351942D01*
X124647351Y-81341035D01*
X124632182Y-81271678D01*
X124646847Y-81221732D01*
X124650615Y-81216705D01*
X124701745Y-81080316D01*
X124708500Y-81018134D01*
X124708500Y-80271866D01*
X124701745Y-80209684D01*
X124698971Y-80202285D01*
X124698970Y-80202279D01*
X124690891Y-80180728D01*
X124685708Y-80109921D01*
X124719630Y-80047552D01*
X124781886Y-80013424D01*
X124808873Y-80010500D01*
X125015980Y-80010500D01*
X125027214Y-80011030D01*
X125034719Y-80012708D01*
X125103012Y-80010562D01*
X125106969Y-80010500D01*
X125134983Y-80010500D01*
X125138908Y-80010004D01*
X125138909Y-80010004D01*
X125139004Y-80009992D01*
X125150849Y-80009059D01*
X125180670Y-80008122D01*
X125187282Y-80007914D01*
X125187283Y-80007914D01*
X125195205Y-80007665D01*
X125214749Y-80001987D01*
X125234112Y-79997977D01*
X125246440Y-79996420D01*
X125246442Y-79996420D01*
X125254299Y-79995427D01*
X125261663Y-79992511D01*
X125261668Y-79992510D01*
X125295556Y-79979093D01*
X125306785Y-79975248D01*
X125323465Y-79970402D01*
X125349393Y-79962869D01*
X125356220Y-79958831D01*
X125356223Y-79958830D01*
X125366906Y-79952512D01*
X125384664Y-79943812D01*
X125396215Y-79939239D01*
X125396221Y-79939235D01*
X125403588Y-79936319D01*
X125413727Y-79928953D01*
X125439488Y-79910236D01*
X125449410Y-79903719D01*
X125480768Y-79885174D01*
X125480772Y-79885171D01*
X125487598Y-79881134D01*
X125501982Y-79866750D01*
X125517016Y-79853909D01*
X125527073Y-79846602D01*
X125533487Y-79841942D01*
X125561778Y-79807744D01*
X125569767Y-79798965D01*
X125683327Y-79685405D01*
X125745639Y-79651379D01*
X125772422Y-79648500D01*
X125825487Y-79648500D01*
X125831939Y-79647128D01*
X125831944Y-79647128D01*
X125918887Y-79628647D01*
X126012288Y-79608794D01*
X126018319Y-79606109D01*
X126180722Y-79533803D01*
X126180724Y-79533802D01*
X126186752Y-79531118D01*
X126341253Y-79418866D01*
X126460350Y-79286596D01*
X126520795Y-79249357D01*
X126591779Y-79250709D01*
X126643080Y-79281812D01*
X127763298Y-80402030D01*
X127791012Y-80452784D01*
X127816068Y-80459625D01*
X127839073Y-80477806D01*
X129254595Y-81893328D01*
X129288621Y-81955640D01*
X129291500Y-81982423D01*
X129291500Y-82288134D01*
X129298255Y-82350316D01*
X129349385Y-82486705D01*
X129436739Y-82603261D01*
X129553295Y-82690615D01*
X129689684Y-82741745D01*
X129751866Y-82748500D01*
X130532578Y-82748500D01*
X130600699Y-82768502D01*
X130621673Y-82785405D01*
X136623061Y-88786794D01*
X136657087Y-88849106D01*
X136659966Y-88875889D01*
X136659966Y-90226868D01*
X136639964Y-90294989D01*
X136592146Y-90338631D01*
X136569073Y-90350642D01*
X136564940Y-90353745D01*
X136564937Y-90353747D01*
X136394566Y-90481665D01*
X136390431Y-90484770D01*
X136316386Y-90562254D01*
X136309749Y-90569199D01*
X136248225Y-90604629D01*
X136177312Y-90601172D01*
X136119526Y-90559926D01*
X136100673Y-90526378D01*
X136059233Y-90415838D01*
X136056081Y-90407430D01*
X135968727Y-90290874D01*
X135852171Y-90203520D01*
X135715782Y-90152390D01*
X135653600Y-90145635D01*
X133857332Y-90145635D01*
X133795150Y-90152390D01*
X133658761Y-90203520D01*
X133542205Y-90290874D01*
X133454851Y-90407430D01*
X133403721Y-90543819D01*
X133396966Y-90606001D01*
X133396966Y-90742635D01*
X133376964Y-90810756D01*
X133323308Y-90857249D01*
X133270966Y-90868635D01*
X130388500Y-90868635D01*
X130320379Y-90848633D01*
X130273886Y-90794977D01*
X130262500Y-90742635D01*
X130262500Y-89696020D01*
X130263029Y-89684791D01*
X130264708Y-89677281D01*
X130262562Y-89609001D01*
X130262500Y-89605044D01*
X130262500Y-89577017D01*
X130261989Y-89572971D01*
X130261057Y-89561136D01*
X130259913Y-89524722D01*
X130259664Y-89516795D01*
X130253987Y-89497254D01*
X130249978Y-89477894D01*
X130248421Y-89465566D01*
X130248420Y-89465563D01*
X130247427Y-89457701D01*
X130244510Y-89450335D01*
X130244509Y-89450329D01*
X130231091Y-89416439D01*
X130227246Y-89405210D01*
X130218996Y-89376814D01*
X130214869Y-89362607D01*
X130210836Y-89355788D01*
X130210834Y-89355783D01*
X130204510Y-89345091D01*
X130195813Y-89327341D01*
X130188319Y-89308412D01*
X130162240Y-89272517D01*
X130155722Y-89262595D01*
X130137170Y-89231224D01*
X130137166Y-89231219D01*
X130133134Y-89224401D01*
X130118747Y-89210014D01*
X130105906Y-89194980D01*
X130098602Y-89184927D01*
X130093942Y-89178513D01*
X130059750Y-89150227D01*
X130050971Y-89142238D01*
X129951237Y-89042504D01*
X129917211Y-88980192D01*
X129922276Y-88909377D01*
X129964823Y-88852541D01*
X130000457Y-88833885D01*
X130106782Y-88798413D01*
X130119962Y-88792239D01*
X130257807Y-88706937D01*
X130269208Y-88697901D01*
X130383739Y-88583171D01*
X130392751Y-88571760D01*
X130477816Y-88433757D01*
X130483963Y-88420576D01*
X130535138Y-88266290D01*
X130538005Y-88252914D01*
X130547672Y-88158562D01*
X130548000Y-88152146D01*
X130548000Y-87902115D01*
X130543525Y-87886876D01*
X130542135Y-87885671D01*
X130534452Y-87884000D01*
X129412000Y-87884000D01*
X129343879Y-87863998D01*
X129297386Y-87810342D01*
X129286000Y-87758000D01*
X129286000Y-87357885D01*
X129794000Y-87357885D01*
X129798475Y-87373124D01*
X129799865Y-87374329D01*
X129807548Y-87376000D01*
X130529884Y-87376000D01*
X130545123Y-87371525D01*
X130546328Y-87370135D01*
X130547999Y-87362452D01*
X130547999Y-87107905D01*
X130547662Y-87101386D01*
X130537743Y-87005794D01*
X130534851Y-86992400D01*
X130483412Y-86838216D01*
X130477239Y-86825038D01*
X130391937Y-86687193D01*
X130382901Y-86675792D01*
X130268171Y-86561261D01*
X130256760Y-86552249D01*
X130118757Y-86467184D01*
X130105576Y-86461037D01*
X129951290Y-86409862D01*
X129937914Y-86406995D01*
X129843562Y-86397328D01*
X129837145Y-86397000D01*
X129812115Y-86397000D01*
X129796876Y-86401475D01*
X129795671Y-86402865D01*
X129794000Y-86410548D01*
X129794000Y-87357885D01*
X129286000Y-87357885D01*
X129286000Y-86415116D01*
X129281525Y-86399877D01*
X129280135Y-86398672D01*
X129272452Y-86397001D01*
X129242905Y-86397001D01*
X129236386Y-86397338D01*
X129140794Y-86407257D01*
X129127400Y-86410149D01*
X128973216Y-86461588D01*
X128960038Y-86467761D01*
X128822193Y-86553063D01*
X128810792Y-86562099D01*
X128696262Y-86676828D01*
X128689206Y-86685762D01*
X128631288Y-86726823D01*
X128560365Y-86730053D01*
X128498954Y-86694426D01*
X128492154Y-86686593D01*
X128488478Y-86680652D01*
X128363303Y-86555695D01*
X128357072Y-86551854D01*
X128218968Y-86466725D01*
X128218966Y-86466724D01*
X128212738Y-86462885D01*
X128083247Y-86419935D01*
X128051389Y-86409368D01*
X128051387Y-86409368D01*
X128044861Y-86407203D01*
X128038025Y-86406503D01*
X128038022Y-86406502D01*
X127994969Y-86402091D01*
X127940400Y-86396500D01*
X127761500Y-86396500D01*
X127693379Y-86376498D01*
X127646886Y-86322842D01*
X127635500Y-86270500D01*
X127635500Y-81980303D01*
X127655502Y-81912182D01*
X127667864Y-81895993D01*
X127672010Y-81891389D01*
X127709089Y-81850208D01*
X127734621Y-81821852D01*
X127734622Y-81821851D01*
X127739040Y-81816944D01*
X127797314Y-81716010D01*
X127831223Y-81657279D01*
X127831224Y-81657278D01*
X127834527Y-81651556D01*
X127893542Y-81469928D01*
X127913504Y-81280000D01*
X127893542Y-81090072D01*
X127834527Y-80908444D01*
X127739040Y-80743056D01*
X127656340Y-80651209D01*
X127634776Y-80606272D01*
X127613818Y-80601713D01*
X127600142Y-80593061D01*
X127462094Y-80492763D01*
X127462093Y-80492762D01*
X127456752Y-80488882D01*
X127450724Y-80486198D01*
X127450722Y-80486197D01*
X127288319Y-80413891D01*
X127288318Y-80413891D01*
X127282288Y-80411206D01*
X127188888Y-80391353D01*
X127101944Y-80372872D01*
X127101939Y-80372872D01*
X127095487Y-80371500D01*
X126904513Y-80371500D01*
X126898061Y-80372872D01*
X126898056Y-80372872D01*
X126811112Y-80391353D01*
X126717712Y-80411206D01*
X126711682Y-80413891D01*
X126711681Y-80413891D01*
X126549278Y-80486197D01*
X126549276Y-80486198D01*
X126543248Y-80488882D01*
X126388747Y-80601134D01*
X126384326Y-80606044D01*
X126384325Y-80606045D01*
X126329175Y-80667296D01*
X126260960Y-80743056D01*
X126165473Y-80908444D01*
X126106458Y-81090072D01*
X126086496Y-81280000D01*
X126106458Y-81469928D01*
X126165473Y-81651556D01*
X126168776Y-81657278D01*
X126168777Y-81657279D01*
X126202686Y-81716010D01*
X126260960Y-81816944D01*
X126265378Y-81821851D01*
X126265379Y-81821852D01*
X126290911Y-81850208D01*
X126327991Y-81891389D01*
X126332136Y-81895993D01*
X126362854Y-81960000D01*
X126364500Y-81980303D01*
X126364500Y-86483379D01*
X126344498Y-86551500D01*
X126290842Y-86597993D01*
X126220568Y-86608097D01*
X126155988Y-86578603D01*
X126149483Y-86572553D01*
X126138172Y-86561262D01*
X126126760Y-86552249D01*
X125988757Y-86467184D01*
X125975576Y-86461037D01*
X125821290Y-86409862D01*
X125807914Y-86406995D01*
X125713562Y-86397328D01*
X125707145Y-86397000D01*
X125682115Y-86397000D01*
X125666876Y-86401475D01*
X125665671Y-86402865D01*
X125664000Y-86410548D01*
X125664000Y-88844884D01*
X125668475Y-88860123D01*
X125669865Y-88861328D01*
X125677548Y-88862999D01*
X125707095Y-88862999D01*
X125713614Y-88862662D01*
X125809206Y-88852743D01*
X125822600Y-88849851D01*
X125976784Y-88798412D01*
X125989962Y-88792239D01*
X126127807Y-88706937D01*
X126139208Y-88697901D01*
X126253739Y-88583171D01*
X126262751Y-88571760D01*
X126347816Y-88433757D01*
X126353963Y-88420576D01*
X126405068Y-88266501D01*
X126445499Y-88208142D01*
X126511063Y-88180905D01*
X126580945Y-88193439D01*
X126632957Y-88241764D01*
X126644183Y-88266289D01*
X126698450Y-88428946D01*
X126791522Y-88579348D01*
X126916697Y-88704305D01*
X126922927Y-88708145D01*
X126922928Y-88708146D01*
X127060288Y-88792816D01*
X127067262Y-88797115D01*
X127147005Y-88823564D01*
X127228611Y-88850632D01*
X127228613Y-88850632D01*
X127235139Y-88852797D01*
X127241975Y-88853497D01*
X127241978Y-88853498D01*
X127285031Y-88857909D01*
X127339600Y-88863500D01*
X127922578Y-88863500D01*
X127990699Y-88883502D01*
X128011673Y-88900405D01*
X128954595Y-89843327D01*
X128988621Y-89905639D01*
X128991500Y-89932422D01*
X128991500Y-91273980D01*
X128990970Y-91285214D01*
X128989292Y-91292719D01*
X128989541Y-91300638D01*
X128991438Y-91361012D01*
X128991500Y-91364969D01*
X128991500Y-92473771D01*
X128971498Y-92541892D01*
X128917842Y-92588385D01*
X128865500Y-92599771D01*
X126175000Y-92599771D01*
X126143014Y-92602059D01*
X126108627Y-92604518D01*
X126108626Y-92604518D01*
X126101889Y-92605000D01*
X126059448Y-92617462D01*
X125970235Y-92643657D01*
X125970233Y-92643658D01*
X125961589Y-92646196D01*
X125954011Y-92651066D01*
X125954009Y-92651067D01*
X125856087Y-92713998D01*
X125787966Y-92734000D01*
X125222000Y-92734000D01*
X125153879Y-92713998D01*
X125107386Y-92660342D01*
X125096000Y-92608000D01*
X125096000Y-92207885D01*
X125604000Y-92207885D01*
X125608475Y-92223124D01*
X125609865Y-92224329D01*
X125617548Y-92226000D01*
X126489884Y-92226000D01*
X126505123Y-92221525D01*
X126506328Y-92220135D01*
X126507999Y-92212452D01*
X126507999Y-91985331D01*
X126507629Y-91978510D01*
X126502105Y-91927648D01*
X126498479Y-91912396D01*
X126453324Y-91791946D01*
X126444786Y-91776351D01*
X126368285Y-91674276D01*
X126355724Y-91661715D01*
X126253649Y-91585214D01*
X126238054Y-91576676D01*
X126117606Y-91531522D01*
X126102351Y-91527895D01*
X126051486Y-91522369D01*
X126044672Y-91522000D01*
X125622115Y-91522000D01*
X125606876Y-91526475D01*
X125605671Y-91527865D01*
X125604000Y-91535548D01*
X125604000Y-92207885D01*
X125096000Y-92207885D01*
X125096000Y-91540116D01*
X125091525Y-91524877D01*
X125090135Y-91523672D01*
X125082452Y-91522001D01*
X124655331Y-91522001D01*
X124648510Y-91522371D01*
X124597648Y-91527895D01*
X124582396Y-91531521D01*
X124461946Y-91576676D01*
X124446352Y-91585214D01*
X124347065Y-91659625D01*
X124280559Y-91684473D01*
X124211176Y-91669420D01*
X124160946Y-91619246D01*
X124145500Y-91558799D01*
X124145500Y-88828661D01*
X124165502Y-88760540D01*
X124205196Y-88721518D01*
X124234348Y-88703478D01*
X124359305Y-88578303D01*
X124362102Y-88573765D01*
X124419353Y-88533176D01*
X124490276Y-88529946D01*
X124551687Y-88565572D01*
X124559062Y-88574068D01*
X124567098Y-88584207D01*
X124681829Y-88698739D01*
X124693240Y-88707751D01*
X124831243Y-88792816D01*
X124844424Y-88798963D01*
X124998710Y-88850138D01*
X125012086Y-88853005D01*
X125106438Y-88862672D01*
X125112854Y-88863000D01*
X125137885Y-88863000D01*
X125153124Y-88858525D01*
X125154329Y-88857135D01*
X125156000Y-88849452D01*
X125156000Y-86415116D01*
X125151525Y-86399877D01*
X125150135Y-86398672D01*
X125142452Y-86397001D01*
X125112905Y-86397001D01*
X125106386Y-86397338D01*
X125010794Y-86407257D01*
X124997400Y-86410149D01*
X124843216Y-86461588D01*
X124830038Y-86467761D01*
X124692193Y-86553063D01*
X124680792Y-86562099D01*
X124566262Y-86676828D01*
X124559206Y-86685762D01*
X124501288Y-86726823D01*
X124430365Y-86730053D01*
X124368954Y-86694426D01*
X124362154Y-86686593D01*
X124358478Y-86680652D01*
X124233303Y-86555695D01*
X124227072Y-86551854D01*
X124088968Y-86466725D01*
X124088966Y-86466724D01*
X124082738Y-86462885D01*
X123953247Y-86419935D01*
X123921389Y-86409368D01*
X123921387Y-86409368D01*
X123914861Y-86407203D01*
X123908025Y-86406503D01*
X123908022Y-86406502D01*
X123864969Y-86402091D01*
X123810400Y-86396500D01*
X123209600Y-86396500D01*
X123206354Y-86396837D01*
X123206350Y-86396837D01*
X123110692Y-86406762D01*
X123110688Y-86406763D01*
X123103834Y-86407474D01*
X123097298Y-86409655D01*
X123097296Y-86409655D01*
X123005497Y-86440282D01*
X122936054Y-86463450D01*
X122785652Y-86556522D01*
X122660695Y-86681697D01*
X122656855Y-86687927D01*
X122656854Y-86687928D01*
X122597697Y-86783899D01*
X122567885Y-86832262D01*
X122565581Y-86839209D01*
X122538837Y-86919841D01*
X122512203Y-87000139D01*
X122501500Y-87104600D01*
X122501500Y-88155400D01*
X122501837Y-88158646D01*
X122501837Y-88158650D01*
X122511618Y-88252914D01*
X122512474Y-88261166D01*
X122568450Y-88428946D01*
X122661522Y-88579348D01*
X122786697Y-88704305D01*
X122792928Y-88708146D01*
X122792931Y-88708148D01*
X122814617Y-88721516D01*
X122862110Y-88774289D01*
X122874500Y-88828775D01*
X122874500Y-92314980D01*
X122873970Y-92326214D01*
X122872292Y-92333719D01*
X122873986Y-92387624D01*
X122874438Y-92402012D01*
X122874500Y-92405969D01*
X122874500Y-92433983D01*
X122874996Y-92437908D01*
X122874996Y-92437909D01*
X122875008Y-92438004D01*
X122875941Y-92449849D01*
X122877335Y-92494205D01*
X122879547Y-92501817D01*
X122883013Y-92513748D01*
X122887023Y-92533112D01*
X122888564Y-92545308D01*
X122889573Y-92553299D01*
X122892489Y-92560663D01*
X122892490Y-92560668D01*
X122905907Y-92594556D01*
X122909752Y-92605785D01*
X122913145Y-92617462D01*
X122922131Y-92648393D01*
X122926169Y-92655220D01*
X122926170Y-92655223D01*
X122932488Y-92665906D01*
X122941188Y-92683664D01*
X122945761Y-92695215D01*
X122945765Y-92695221D01*
X122948681Y-92702588D01*
X122953339Y-92708999D01*
X122953340Y-92709001D01*
X122974764Y-92738488D01*
X122981281Y-92748410D01*
X122999826Y-92779768D01*
X122999829Y-92779772D01*
X123003866Y-92786598D01*
X123018250Y-92800982D01*
X123031091Y-92816016D01*
X123043058Y-92832487D01*
X123049166Y-92837540D01*
X123077255Y-92860777D01*
X123086035Y-92868767D01*
X123346673Y-93129405D01*
X123380699Y-93191717D01*
X123375634Y-93262532D01*
X123333087Y-93319368D01*
X123266567Y-93344179D01*
X123257578Y-93344500D01*
X121496659Y-93344500D01*
X121485420Y-93343970D01*
X121477908Y-93342291D01*
X121469983Y-93342540D01*
X121469982Y-93342540D01*
X121409597Y-93344438D01*
X121405639Y-93344500D01*
X121377644Y-93344500D01*
X121373710Y-93344997D01*
X121373708Y-93344997D01*
X121373621Y-93345008D01*
X121361787Y-93345940D01*
X121317422Y-93347335D01*
X121309807Y-93349547D01*
X121309803Y-93349548D01*
X121299652Y-93352497D01*
X121228656Y-93352294D01*
X121169040Y-93313740D01*
X121139732Y-93249075D01*
X121138500Y-93231500D01*
X121138500Y-93058837D01*
X121131745Y-92996655D01*
X121080615Y-92860266D01*
X120993261Y-92743710D01*
X120876705Y-92656356D01*
X120740316Y-92605226D01*
X120678134Y-92598471D01*
X118081866Y-92598471D01*
X118019684Y-92605226D01*
X117883295Y-92656356D01*
X117766739Y-92743710D01*
X117679385Y-92860266D01*
X117676233Y-92868674D01*
X117676232Y-92868676D01*
X117630862Y-92989700D01*
X117588221Y-93046465D01*
X117521659Y-93071165D01*
X117512880Y-93071471D01*
X115747120Y-93071471D01*
X115678999Y-93051469D01*
X115632506Y-92997813D01*
X115629138Y-92989700D01*
X115583768Y-92868676D01*
X115583767Y-92868674D01*
X115580615Y-92860266D01*
X115493261Y-92743710D01*
X115376705Y-92656356D01*
X115240316Y-92605226D01*
X115178134Y-92598471D01*
X113533078Y-92598471D01*
X113464957Y-92578469D01*
X113443983Y-92561566D01*
X113412983Y-92530566D01*
X113378957Y-92468254D01*
X113384022Y-92397439D01*
X113426569Y-92340603D01*
X113493089Y-92315792D01*
X113502078Y-92315471D01*
X115178134Y-92315471D01*
X115240316Y-92308716D01*
X115376705Y-92257586D01*
X115493261Y-92170232D01*
X115580615Y-92053676D01*
X115594853Y-92015696D01*
X115629138Y-91924242D01*
X115671779Y-91867477D01*
X115738341Y-91842777D01*
X115747120Y-91842471D01*
X117512880Y-91842471D01*
X117581001Y-91862473D01*
X117627494Y-91916129D01*
X117630862Y-91924242D01*
X117665147Y-92015696D01*
X117679385Y-92053676D01*
X117766739Y-92170232D01*
X117883295Y-92257586D01*
X118019684Y-92308716D01*
X118081866Y-92315471D01*
X120678134Y-92315471D01*
X120740316Y-92308716D01*
X120876705Y-92257586D01*
X120993261Y-92170232D01*
X121080615Y-92053676D01*
X121131745Y-91917287D01*
X121138500Y-91855105D01*
X121138500Y-90558837D01*
X121131745Y-90496655D01*
X121080615Y-90360266D01*
X120993261Y-90243710D01*
X120876705Y-90156356D01*
X120740316Y-90105226D01*
X120678134Y-90098471D01*
X118081866Y-90098471D01*
X118019684Y-90105226D01*
X117883295Y-90156356D01*
X117766739Y-90243710D01*
X117679385Y-90360266D01*
X117676233Y-90368674D01*
X117676232Y-90368676D01*
X117630862Y-90489700D01*
X117588221Y-90546465D01*
X117521659Y-90571165D01*
X117512880Y-90571471D01*
X115747120Y-90571471D01*
X115678999Y-90551469D01*
X115632506Y-90497813D01*
X115629138Y-90489700D01*
X115583768Y-90368676D01*
X115583767Y-90368674D01*
X115580615Y-90360266D01*
X115493261Y-90243710D01*
X115376705Y-90156356D01*
X115240316Y-90105226D01*
X115178134Y-90098471D01*
X112581866Y-90098471D01*
X112519684Y-90105226D01*
X112383295Y-90156356D01*
X112266739Y-90243710D01*
X112179385Y-90360266D01*
X112128255Y-90496655D01*
X112121500Y-90558837D01*
X112121500Y-90994373D01*
X112101498Y-91062494D01*
X112047842Y-91108987D01*
X111977568Y-91119091D01*
X111934799Y-91104788D01*
X111919619Y-91096443D01*
X111901586Y-91086529D01*
X111893911Y-91084558D01*
X111893905Y-91084556D01*
X111881872Y-91081467D01*
X111863170Y-91075064D01*
X111844491Y-91066981D01*
X111810655Y-91061622D01*
X111800656Y-91060038D01*
X111789043Y-91057633D01*
X111746065Y-91046598D01*
X111725718Y-91046598D01*
X111706007Y-91045047D01*
X111693733Y-91043103D01*
X111685904Y-91041863D01*
X111678012Y-91042609D01*
X111641727Y-91046039D01*
X111629869Y-91046598D01*
X109305076Y-91046598D01*
X109236955Y-91026596D01*
X109190462Y-90972940D01*
X109179076Y-90920598D01*
X109179076Y-87643598D01*
X109199078Y-87575477D01*
X109252734Y-87528984D01*
X109305076Y-87517598D01*
X109888882Y-87517598D01*
X109900116Y-87518128D01*
X109907621Y-87519806D01*
X109975914Y-87517660D01*
X109979871Y-87517598D01*
X110007885Y-87517598D01*
X110011810Y-87517102D01*
X110011811Y-87517102D01*
X110011906Y-87517090D01*
X110023751Y-87516157D01*
X110053572Y-87515220D01*
X110060184Y-87515012D01*
X110060185Y-87515012D01*
X110068107Y-87514763D01*
X110087651Y-87509085D01*
X110107014Y-87505075D01*
X110119342Y-87503518D01*
X110119344Y-87503518D01*
X110127201Y-87502525D01*
X110134565Y-87499609D01*
X110134570Y-87499608D01*
X110168458Y-87486191D01*
X110179687Y-87482346D01*
X110196367Y-87477500D01*
X110222295Y-87469967D01*
X110229122Y-87465929D01*
X110229125Y-87465928D01*
X110239808Y-87459610D01*
X110257566Y-87450910D01*
X110269117Y-87446337D01*
X110269123Y-87446333D01*
X110276490Y-87443417D01*
X110292070Y-87432098D01*
X110312390Y-87417334D01*
X110322312Y-87410817D01*
X110353670Y-87392272D01*
X110353674Y-87392269D01*
X110360500Y-87388232D01*
X110374884Y-87373848D01*
X110389918Y-87361007D01*
X110399975Y-87353700D01*
X110406389Y-87349040D01*
X110434674Y-87314850D01*
X110442662Y-87306071D01*
X110883486Y-86865246D01*
X110891808Y-86857674D01*
X110898303Y-86853553D01*
X110945087Y-86803733D01*
X110947841Y-86800892D01*
X110967639Y-86781094D01*
X110970068Y-86777963D01*
X110970072Y-86777958D01*
X110970139Y-86777872D01*
X110977847Y-86768847D01*
X111002791Y-86742285D01*
X111002794Y-86742281D01*
X111008217Y-86736506D01*
X111012036Y-86729560D01*
X111012039Y-86729555D01*
X111018022Y-86718672D01*
X111028878Y-86702144D01*
X111036492Y-86692329D01*
X111036494Y-86692326D01*
X111041349Y-86686067D01*
X111044495Y-86678797D01*
X111044498Y-86678792D01*
X111058969Y-86645350D01*
X111064192Y-86634689D01*
X111081749Y-86602753D01*
X111081751Y-86602748D01*
X111085569Y-86595803D01*
X111087539Y-86588129D01*
X111087542Y-86588122D01*
X111090632Y-86576087D01*
X111097036Y-86557382D01*
X111101967Y-86545987D01*
X111105117Y-86538708D01*
X111112060Y-86494873D01*
X111114467Y-86483251D01*
X111125500Y-86440282D01*
X111125500Y-86419935D01*
X111127051Y-86400224D01*
X111128995Y-86387950D01*
X111130235Y-86380121D01*
X111126059Y-86335944D01*
X111125500Y-86324086D01*
X111125500Y-82284669D01*
X121992001Y-82284669D01*
X121992371Y-82291490D01*
X121997895Y-82342352D01*
X122001521Y-82357604D01*
X122046676Y-82478054D01*
X122055214Y-82493649D01*
X122131715Y-82595724D01*
X122144276Y-82608285D01*
X122246351Y-82684786D01*
X122261946Y-82693324D01*
X122382394Y-82738478D01*
X122397649Y-82742105D01*
X122448514Y-82747631D01*
X122455328Y-82748000D01*
X123077885Y-82748000D01*
X123093124Y-82743525D01*
X123094329Y-82742135D01*
X123096000Y-82734452D01*
X123096000Y-82729884D01*
X123604000Y-82729884D01*
X123608475Y-82745123D01*
X123609865Y-82746328D01*
X123617548Y-82747999D01*
X124244669Y-82747999D01*
X124251490Y-82747629D01*
X124302352Y-82742105D01*
X124317604Y-82738479D01*
X124438054Y-82693324D01*
X124453649Y-82684786D01*
X124555724Y-82608285D01*
X124568285Y-82595724D01*
X124644786Y-82493649D01*
X124653324Y-82478054D01*
X124698478Y-82357606D01*
X124702105Y-82342351D01*
X124707631Y-82291486D01*
X124708000Y-82284672D01*
X124708000Y-82187115D01*
X124703525Y-82171876D01*
X124702135Y-82170671D01*
X124694452Y-82169000D01*
X123622115Y-82169000D01*
X123606876Y-82173475D01*
X123605671Y-82174865D01*
X123604000Y-82182548D01*
X123604000Y-82729884D01*
X123096000Y-82729884D01*
X123096000Y-82187115D01*
X123091525Y-82171876D01*
X123090135Y-82170671D01*
X123082452Y-82169000D01*
X122010116Y-82169000D01*
X121994877Y-82173475D01*
X121993672Y-82174865D01*
X121992001Y-82182548D01*
X121992001Y-82284669D01*
X111125500Y-82284669D01*
X111125500Y-76556027D01*
X111126029Y-76544798D01*
X111127708Y-76537288D01*
X111125562Y-76469008D01*
X111125500Y-76465051D01*
X111125500Y-76437024D01*
X111124989Y-76432978D01*
X111124057Y-76421143D01*
X111123311Y-76397378D01*
X111122664Y-76376802D01*
X111116987Y-76357260D01*
X111112978Y-76337901D01*
X111112819Y-76336640D01*
X111110427Y-76317708D01*
X111107511Y-76310344D01*
X111107510Y-76310339D01*
X111094088Y-76276442D01*
X111090249Y-76265231D01*
X111077868Y-76222614D01*
X111067511Y-76205100D01*
X111058815Y-76187350D01*
X111054239Y-76175792D01*
X111054236Y-76175787D01*
X111051319Y-76168419D01*
X111025233Y-76132514D01*
X111018716Y-76122592D01*
X111000172Y-76091235D01*
X111000170Y-76091232D01*
X110996134Y-76084408D01*
X110981747Y-76070021D01*
X110968906Y-76054987D01*
X110961602Y-76044934D01*
X110956942Y-76038520D01*
X110922750Y-76010234D01*
X110913971Y-76002245D01*
X106437707Y-71525981D01*
X106403681Y-71463669D01*
X106400802Y-71436886D01*
X106400802Y-70131175D01*
X106394047Y-70068993D01*
X106342917Y-69932604D01*
X106255563Y-69816048D01*
X106139007Y-69728694D01*
X106002618Y-69677564D01*
X105940436Y-69670809D01*
X105803802Y-69670809D01*
X105735681Y-69650807D01*
X105689188Y-69597151D01*
X105677802Y-69544809D01*
X105677802Y-59957966D01*
X109158257Y-59957966D01*
X109188565Y-60092446D01*
X109191645Y-60102275D01*
X109271770Y-60299603D01*
X109276413Y-60308794D01*
X109387694Y-60490388D01*
X109393777Y-60498699D01*
X109533213Y-60659667D01*
X109540580Y-60666883D01*
X109704434Y-60802916D01*
X109712881Y-60808831D01*
X109896756Y-60916279D01*
X109906042Y-60920729D01*
X110105001Y-60996703D01*
X110114899Y-60999579D01*
X110218250Y-61020606D01*
X110232299Y-61019410D01*
X110236000Y-61009065D01*
X110236000Y-59962115D01*
X110231525Y-59946876D01*
X110230135Y-59945671D01*
X110222452Y-59944000D01*
X109173225Y-59944000D01*
X109159694Y-59947973D01*
X109158257Y-59957966D01*
X105677802Y-59957966D01*
X105677802Y-56563120D01*
X105697804Y-56494999D01*
X105714707Y-56474025D01*
X107645440Y-54543293D01*
X107707752Y-54509267D01*
X107734535Y-54506388D01*
X173503527Y-54506388D01*
X173571648Y-54526390D01*
X173618141Y-54580046D01*
X173628245Y-54650320D01*
X173624946Y-54666052D01*
X173589890Y-54792458D01*
X173566152Y-55014583D01*
X173566449Y-55019736D01*
X173566449Y-55019739D01*
X173572274Y-55120761D01*
X173579011Y-55237603D01*
X173580148Y-55242649D01*
X173580149Y-55242655D01*
X173598898Y-55325848D01*
X173628123Y-55455527D01*
X173712167Y-55662504D01*
X173768776Y-55754882D01*
X173826192Y-55848576D01*
X173828888Y-55852976D01*
X173975151Y-56021826D01*
X174098759Y-56124447D01*
X174137813Y-56156870D01*
X174147027Y-56164520D01*
X174339901Y-56277226D01*
X174344726Y-56279068D01*
X174344727Y-56279069D01*
X174379339Y-56292286D01*
X174548593Y-56356918D01*
X174553661Y-56357949D01*
X174553664Y-56357950D01*
X174660918Y-56379771D01*
X174767498Y-56401455D01*
X174772673Y-56401645D01*
X174772675Y-56401645D01*
X174985574Y-56409452D01*
X174985578Y-56409452D01*
X174990738Y-56409641D01*
X174995858Y-56408985D01*
X174995860Y-56408985D01*
X175207189Y-56381913D01*
X175207190Y-56381913D01*
X175212317Y-56381256D01*
X175217267Y-56379771D01*
X175421330Y-56318549D01*
X175421335Y-56318547D01*
X175426285Y-56317062D01*
X175626895Y-56218784D01*
X175808761Y-56089061D01*
X175966997Y-55931377D01*
X175997429Y-55889027D01*
X176097354Y-55749965D01*
X176098677Y-55750916D01*
X176145546Y-55707745D01*
X176215481Y-55695513D01*
X176280927Y-55723032D01*
X176308776Y-55754882D01*
X176368888Y-55852976D01*
X176515151Y-56021826D01*
X176638759Y-56124447D01*
X176677813Y-56156870D01*
X176687027Y-56164520D01*
X176879901Y-56277226D01*
X176884726Y-56279068D01*
X176884727Y-56279069D01*
X176919339Y-56292286D01*
X177088593Y-56356918D01*
X177093661Y-56357949D01*
X177093664Y-56357950D01*
X177200918Y-56379771D01*
X177307498Y-56401455D01*
X177312673Y-56401645D01*
X177312675Y-56401645D01*
X177525574Y-56409452D01*
X177525578Y-56409452D01*
X177530738Y-56409641D01*
X177535858Y-56408985D01*
X177535860Y-56408985D01*
X177747189Y-56381913D01*
X177747190Y-56381913D01*
X177752317Y-56381256D01*
X177757267Y-56379771D01*
X177961330Y-56318549D01*
X177961335Y-56318547D01*
X177966285Y-56317062D01*
X178166895Y-56218784D01*
X178348761Y-56089061D01*
X178456992Y-55981207D01*
X178519363Y-55947292D01*
X178590169Y-55952480D01*
X178646931Y-55995126D01*
X178663913Y-56026229D01*
X178700734Y-56124447D01*
X178708286Y-56144593D01*
X178795640Y-56261149D01*
X178912196Y-56348503D01*
X179048585Y-56399633D01*
X179110767Y-56406388D01*
X180907035Y-56406388D01*
X180969217Y-56399633D01*
X181105606Y-56348503D01*
X181222162Y-56261149D01*
X181309516Y-56144593D01*
X181360646Y-56008204D01*
X181367401Y-55946022D01*
X181367401Y-54640310D01*
X181387403Y-54572189D01*
X181404306Y-54551215D01*
X181943116Y-54012405D01*
X182005428Y-53978379D01*
X182032211Y-53975500D01*
X205110641Y-53975500D01*
X205178762Y-53995502D01*
G37*
%TD.AperFunction*%
%TA.AperFunction,Conductor*%
G36*
X204805724Y-57572008D02*
G01*
X204852217Y-57625664D01*
X204862321Y-57695938D01*
X204859020Y-57711679D01*
X204826847Y-57827690D01*
X204828370Y-57836113D01*
X204840750Y-57839506D01*
X206290458Y-57839506D01*
X206358579Y-57859508D01*
X206405072Y-57913164D01*
X206416458Y-57965506D01*
X206416458Y-59412023D01*
X206420522Y-59425865D01*
X206433936Y-59427899D01*
X206440642Y-59427040D01*
X206450720Y-59424898D01*
X206654713Y-59363697D01*
X206664300Y-59359939D01*
X206855553Y-59266245D01*
X206864403Y-59260970D01*
X207037786Y-59137298D01*
X207045658Y-59130645D01*
X207196510Y-58980318D01*
X207203188Y-58972471D01*
X207330480Y-58795325D01*
X207331737Y-58796228D01*
X207378831Y-58752868D01*
X207448769Y-58740651D01*
X207514209Y-58768184D01*
X207542037Y-58800017D01*
X207602445Y-58898594D01*
X207748708Y-59067444D01*
X207920584Y-59210138D01*
X208113458Y-59322844D01*
X208118283Y-59324686D01*
X208118284Y-59324687D01*
X208145907Y-59335235D01*
X208322150Y-59402536D01*
X208327218Y-59403567D01*
X208327221Y-59403568D01*
X208422320Y-59422916D01*
X208541055Y-59447073D01*
X208546230Y-59447263D01*
X208546232Y-59447263D01*
X208759131Y-59455070D01*
X208759135Y-59455070D01*
X208764295Y-59455259D01*
X208769415Y-59454603D01*
X208769417Y-59454603D01*
X208980746Y-59427531D01*
X208980747Y-59427531D01*
X208985874Y-59426874D01*
X208990825Y-59425389D01*
X208990828Y-59425388D01*
X209081751Y-59398110D01*
X209152746Y-59397694D01*
X209212697Y-59435726D01*
X209242568Y-59500133D01*
X209243958Y-59518796D01*
X209243958Y-65487374D01*
X209243428Y-65498608D01*
X209241750Y-65506113D01*
X209241999Y-65514032D01*
X209243896Y-65574406D01*
X209243958Y-65578363D01*
X209243958Y-65606377D01*
X209244454Y-65610302D01*
X209244454Y-65610303D01*
X209244466Y-65610398D01*
X209245399Y-65622243D01*
X209246793Y-65666599D01*
X209249005Y-65674211D01*
X209252471Y-65686142D01*
X209256481Y-65705506D01*
X209259031Y-65725693D01*
X209261947Y-65733057D01*
X209261948Y-65733062D01*
X209275365Y-65766950D01*
X209279210Y-65778179D01*
X209284056Y-65794859D01*
X209291589Y-65820787D01*
X209295627Y-65827614D01*
X209295628Y-65827617D01*
X209301946Y-65838300D01*
X209310646Y-65856058D01*
X209315219Y-65867609D01*
X209315223Y-65867615D01*
X209318139Y-65874982D01*
X209322797Y-65881393D01*
X209322798Y-65881395D01*
X209344222Y-65910882D01*
X209350739Y-65920804D01*
X209369284Y-65952162D01*
X209369287Y-65952166D01*
X209373324Y-65958992D01*
X209387708Y-65973376D01*
X209400549Y-65988410D01*
X209412516Y-66004881D01*
X209418624Y-66009934D01*
X209446713Y-66033171D01*
X209455493Y-66041161D01*
X232933814Y-89519483D01*
X232967840Y-89581795D01*
X232962775Y-89652610D01*
X232920228Y-89709446D01*
X232853708Y-89734257D01*
X232844719Y-89734578D01*
X232458565Y-89734578D01*
X232390444Y-89714576D01*
X232369470Y-89697673D01*
X215919763Y-73247966D01*
X215912187Y-73239640D01*
X215908066Y-73233146D01*
X215858247Y-73186363D01*
X215855406Y-73183609D01*
X215835607Y-73163810D01*
X215832482Y-73161386D01*
X215832473Y-73161378D01*
X215832387Y-73161312D01*
X215823362Y-73153604D01*
X215801632Y-73133198D01*
X215791019Y-73123232D01*
X215773182Y-73113426D01*
X215756666Y-73102576D01*
X215740580Y-73090099D01*
X215699847Y-73072473D01*
X215689199Y-73067256D01*
X215677571Y-73060864D01*
X215650316Y-73045880D01*
X215642641Y-73043909D01*
X215642635Y-73043907D01*
X215630602Y-73040818D01*
X215611900Y-73034415D01*
X215593221Y-73026332D01*
X215559385Y-73020973D01*
X215549386Y-73019389D01*
X215537773Y-73016984D01*
X215494795Y-73005949D01*
X215474448Y-73005949D01*
X215454737Y-73004398D01*
X215442463Y-73002454D01*
X215434634Y-73001214D01*
X215426742Y-73001960D01*
X215390457Y-73005390D01*
X215378599Y-73005949D01*
X201540118Y-73005949D01*
X201471997Y-72985947D01*
X201425504Y-72932291D01*
X201415400Y-72862017D01*
X201430999Y-72816949D01*
X201471223Y-72747279D01*
X201471224Y-72747278D01*
X201474527Y-72741556D01*
X201533542Y-72559928D01*
X201534592Y-72549944D01*
X201552814Y-72376565D01*
X201553504Y-72370000D01*
X201542153Y-72262000D01*
X201534232Y-72186635D01*
X201534232Y-72186633D01*
X201533542Y-72180072D01*
X201474527Y-71998444D01*
X201469436Y-71989625D01*
X201416765Y-71898398D01*
X201379040Y-71833056D01*
X201354464Y-71805761D01*
X201255675Y-71696045D01*
X201255674Y-71696044D01*
X201251253Y-71691134D01*
X201096752Y-71578882D01*
X201090724Y-71576198D01*
X201090722Y-71576197D01*
X200928319Y-71503891D01*
X200928318Y-71503891D01*
X200922288Y-71501206D01*
X200800331Y-71475283D01*
X200741944Y-71462872D01*
X200741939Y-71462872D01*
X200735487Y-71461500D01*
X200544513Y-71461500D01*
X200538061Y-71462872D01*
X200538056Y-71462872D01*
X200479669Y-71475283D01*
X200357712Y-71501206D01*
X200351682Y-71503891D01*
X200351681Y-71503891D01*
X200189278Y-71576197D01*
X200189276Y-71576198D01*
X200183248Y-71578882D01*
X200028747Y-71691134D01*
X200024332Y-71696037D01*
X200019420Y-71700460D01*
X200017779Y-71698638D01*
X199966790Y-71730050D01*
X199933601Y-71734500D01*
X180360511Y-71734500D01*
X180292390Y-71714498D01*
X180254719Y-71676940D01*
X180167822Y-71542617D01*
X180167820Y-71542614D01*
X180165014Y-71538277D01*
X180014670Y-71373051D01*
X180010619Y-71369852D01*
X180010615Y-71369848D01*
X179843414Y-71237800D01*
X179843410Y-71237798D01*
X179839359Y-71234598D01*
X179826835Y-71227684D01*
X179756684Y-71188959D01*
X179643789Y-71126638D01*
X179638920Y-71124914D01*
X179638916Y-71124912D01*
X179438087Y-71053795D01*
X179438083Y-71053794D01*
X179433212Y-71052069D01*
X179428119Y-71051162D01*
X179428116Y-71051161D01*
X179218373Y-71013800D01*
X179218367Y-71013799D01*
X179213284Y-71012894D01*
X179104804Y-71011569D01*
X179036934Y-70990736D01*
X178991100Y-70936517D01*
X178981855Y-70866124D01*
X179012134Y-70801909D01*
X179017249Y-70796483D01*
X191452261Y-58361472D01*
X204830715Y-58361472D01*
X204861023Y-58495952D01*
X204864103Y-58505781D01*
X204944228Y-58703109D01*
X204948871Y-58712300D01*
X205060152Y-58893894D01*
X205066235Y-58902205D01*
X205205671Y-59063173D01*
X205213038Y-59070389D01*
X205376892Y-59206422D01*
X205385339Y-59212337D01*
X205569214Y-59319785D01*
X205578500Y-59324235D01*
X205777459Y-59400209D01*
X205787357Y-59403085D01*
X205890708Y-59424112D01*
X205904757Y-59422916D01*
X205908458Y-59412571D01*
X205908458Y-58365621D01*
X205903983Y-58350382D01*
X205902593Y-58349177D01*
X205894910Y-58347506D01*
X204845683Y-58347506D01*
X204832152Y-58351479D01*
X204830715Y-58361472D01*
X191452261Y-58361472D01*
X192224822Y-57588911D01*
X192287134Y-57554885D01*
X192313917Y-57552006D01*
X204737603Y-57552006D01*
X204805724Y-57572008D01*
G37*
%TD.AperFunction*%
%TA.AperFunction,Conductor*%
G36*
X127931148Y-72156002D02*
G01*
X127977641Y-72209658D01*
X127989027Y-72262000D01*
X127989027Y-73657967D01*
X127993000Y-73671498D01*
X128001549Y-73672727D01*
X128178788Y-73625236D01*
X128189080Y-73621490D01*
X128386538Y-73529414D01*
X128396034Y-73523931D01*
X128574494Y-73398972D01*
X128582902Y-73391916D01*
X128689405Y-73285413D01*
X128751717Y-73251387D01*
X128822532Y-73256452D01*
X128879368Y-73298999D01*
X128904179Y-73365519D01*
X128904500Y-73374508D01*
X128904500Y-74229697D01*
X128884498Y-74297818D01*
X128872136Y-74314007D01*
X128817761Y-74374397D01*
X128800960Y-74393056D01*
X128756131Y-74470702D01*
X128712341Y-74546549D01*
X128705473Y-74558444D01*
X128646458Y-74740072D01*
X128645768Y-74746633D01*
X128645768Y-74746635D01*
X128629578Y-74900673D01*
X128626496Y-74930000D01*
X128627186Y-74936565D01*
X128645663Y-75112360D01*
X128646458Y-75119928D01*
X128705473Y-75301556D01*
X128708776Y-75307278D01*
X128708777Y-75307279D01*
X128717435Y-75322275D01*
X128800960Y-75466944D01*
X128805378Y-75471851D01*
X128805379Y-75471852D01*
X128821228Y-75489454D01*
X128928747Y-75608866D01*
X129083248Y-75721118D01*
X129089276Y-75723802D01*
X129089278Y-75723803D01*
X129251681Y-75796109D01*
X129257712Y-75798794D01*
X129351112Y-75818647D01*
X129438056Y-75837128D01*
X129438061Y-75837128D01*
X129444513Y-75838500D01*
X129635487Y-75838500D01*
X129641939Y-75837128D01*
X129641944Y-75837128D01*
X129728888Y-75818647D01*
X129822288Y-75798794D01*
X129834204Y-75793489D01*
X129996752Y-75721118D01*
X129997944Y-75723796D01*
X130054514Y-75710081D01*
X130121602Y-75733311D01*
X130165481Y-75789125D01*
X130174500Y-75835937D01*
X130174500Y-77145500D01*
X130154498Y-77213621D01*
X130100842Y-77260114D01*
X130048500Y-77271500D01*
X129751866Y-77271500D01*
X129689684Y-77278255D01*
X129553295Y-77329385D01*
X129436739Y-77416739D01*
X129431358Y-77423919D01*
X129425008Y-77430269D01*
X129422869Y-77428130D01*
X129378145Y-77461577D01*
X129334170Y-77469500D01*
X128984032Y-77469500D01*
X128972793Y-77468970D01*
X128965281Y-77467291D01*
X128957356Y-77467540D01*
X128957355Y-77467540D01*
X128896970Y-77469438D01*
X128893012Y-77469500D01*
X128865017Y-77469500D01*
X128861083Y-77469997D01*
X128861081Y-77469997D01*
X128860994Y-77470008D01*
X128849160Y-77470940D01*
X128804795Y-77472335D01*
X128797182Y-77474547D01*
X128797181Y-77474547D01*
X128785252Y-77478013D01*
X128765888Y-77482023D01*
X128753560Y-77483580D01*
X128753558Y-77483580D01*
X128745701Y-77484573D01*
X128738337Y-77487489D01*
X128738332Y-77487490D01*
X128704444Y-77500907D01*
X128693215Y-77504752D01*
X128679241Y-77508812D01*
X128650607Y-77517131D01*
X128643781Y-77521168D01*
X128633091Y-77527490D01*
X128615341Y-77536187D01*
X128596412Y-77543681D01*
X128589998Y-77548341D01*
X128560514Y-77569762D01*
X128550594Y-77576278D01*
X128519229Y-77594827D01*
X128519226Y-77594829D01*
X128512402Y-77598865D01*
X128498014Y-77613253D01*
X128482980Y-77626094D01*
X128466513Y-77638058D01*
X128461460Y-77644166D01*
X128438228Y-77672249D01*
X128430238Y-77681029D01*
X128316672Y-77794595D01*
X128254360Y-77828621D01*
X128227577Y-77831500D01*
X128174513Y-77831500D01*
X128168061Y-77832872D01*
X128168056Y-77832872D01*
X128081112Y-77851353D01*
X127987712Y-77871206D01*
X127981682Y-77873891D01*
X127981681Y-77873891D01*
X127819278Y-77946197D01*
X127819276Y-77946198D01*
X127813248Y-77948882D01*
X127807907Y-77952762D01*
X127807906Y-77952763D01*
X127757843Y-77989136D01*
X127658747Y-78061134D01*
X127654326Y-78066044D01*
X127654325Y-78066045D01*
X127639970Y-78081988D01*
X127576259Y-78152747D01*
X127539652Y-78193403D01*
X127479206Y-78230643D01*
X127408223Y-78229291D01*
X127356921Y-78198188D01*
X127280432Y-78121699D01*
X127246406Y-78059387D01*
X127243527Y-78032604D01*
X127243527Y-73776651D01*
X127263529Y-73708530D01*
X127317185Y-73662037D01*
X127387459Y-73651933D01*
X127402138Y-73654944D01*
X127463530Y-73671394D01*
X127477626Y-73671058D01*
X127481027Y-73663116D01*
X127481027Y-72262000D01*
X127501029Y-72193879D01*
X127554685Y-72147386D01*
X127607027Y-72136000D01*
X127863027Y-72136000D01*
X127931148Y-72156002D01*
G37*
%TD.AperFunction*%
%TD*%
M02*
