%TF.GenerationSoftware,KiCad,Pcbnew,(6.0.6-0)*%
%TF.CreationDate,2022-08-20T19:49:00-04:00*%
%TF.ProjectId,SAO_Platform,53414f5f-506c-4617-9466-6f726d2e6b69,rev?*%
%TF.SameCoordinates,Original*%
%TF.FileFunction,Copper,L2,Bot*%
%TF.FilePolarity,Positive*%
%FSLAX46Y46*%
G04 Gerber Fmt 4.6, Leading zero omitted, Abs format (unit mm)*
G04 Created by KiCad (PCBNEW (6.0.6-0)) date 2022-08-20 19:49:00*
%MOMM*%
%LPD*%
G01*
G04 APERTURE LIST*
%TA.AperFunction,ComponentPad*%
%ADD10O,2.000000X1.200000*%
%TD*%
%TA.AperFunction,ComponentPad*%
%ADD11O,1.800000X1.200000*%
%TD*%
%TA.AperFunction,ComponentPad*%
%ADD12R,1.700000X1.700000*%
%TD*%
%TA.AperFunction,ComponentPad*%
%ADD13O,1.700000X1.700000*%
%TD*%
%TA.AperFunction,ComponentPad*%
%ADD14O,1.600000X1.600000*%
%TD*%
%TA.AperFunction,ComponentPad*%
%ADD15R,1.600000X1.600000*%
%TD*%
%TA.AperFunction,ViaPad*%
%ADD16C,0.800000*%
%TD*%
%TA.AperFunction,Conductor*%
%ADD17C,0.254000*%
%TD*%
G04 APERTURE END LIST*
D10*
%TO.P,J1,1*%
%TO.N,N/C*%
X106778230Y-85112098D03*
%TO.P,J1,2*%
X106778230Y-93752098D03*
D11*
%TO.P,J1,3*%
X102598230Y-85112098D03*
%TO.P,J1,4*%
X102598230Y-93752098D03*
%TD*%
D12*
%TO.P,J9,1,Pin_1*%
%TO.N,Net-(C2-Pad1)*%
X232866142Y-91093078D03*
D13*
%TO.P,J9,2,Pin_2*%
%TO.N,GND*%
X232866142Y-93633078D03*
%TO.P,J9,3,Pin_3*%
%TO.N,/SDA_LOCAL*%
X235406142Y-91093078D03*
%TO.P,J9,4,Pin_4*%
%TO.N,/SCL_LOCAL*%
X235406142Y-93633078D03*
%TO.P,J9,5,Pin_5*%
%TO.N,/GPIO_1_LOCAL*%
X237946142Y-91093078D03*
%TO.P,J9,6,Pin_6*%
%TO.N,/GPIO_2_LOCAL*%
X237946142Y-93633078D03*
%TD*%
D12*
%TO.P,J5,1,Pin_1*%
%TO.N,Net-(J1-PadA4)*%
X173819798Y-94565274D03*
D13*
%TO.P,J5,2,Pin_2*%
%TO.N,GND*%
X173819798Y-97105274D03*
%TO.P,J5,3,Pin_3*%
%TO.N,unconnected-(J5-Pad3)*%
X176359798Y-94565274D03*
%TO.P,J5,4,Pin_4*%
%TO.N,unconnected-(J5-Pad4)*%
X176359798Y-97105274D03*
%TO.P,J5,5,Pin_5*%
%TO.N,unconnected-(J5-Pad5)*%
X178899798Y-94565274D03*
%TO.P,J5,6,Pin_6*%
%TO.N,unconnected-(J5-Pad6)*%
X178899798Y-97105274D03*
%TD*%
D12*
%TO.P,J7,1,Pin_1*%
%TO.N,Net-(C2-Pad1)*%
X134755466Y-91504135D03*
D13*
%TO.P,J7,2,Pin_2*%
%TO.N,GND*%
X134755466Y-94044135D03*
%TO.P,J7,3,Pin_3*%
%TO.N,/SDA_LOCAL*%
X137295466Y-91504135D03*
%TO.P,J7,4,Pin_4*%
%TO.N,/SCL_LOCAL*%
X137295466Y-94044135D03*
%TO.P,J7,5,Pin_5*%
%TO.N,/GPIO_1_LOCAL*%
X139835466Y-91504135D03*
%TO.P,J7,6,Pin_6*%
%TO.N,/GPIO_2_LOCAL*%
X139835466Y-94044135D03*
%TD*%
D12*
%TO.P,J10,1,Pin_1*%
%TO.N,Net-(C2-Pad1)*%
X206162458Y-55553506D03*
D13*
%TO.P,J10,2,Pin_2*%
%TO.N,GND*%
X206162458Y-58093506D03*
%TO.P,J10,3,Pin_3*%
%TO.N,/SDA_LOCAL*%
X208702458Y-55553506D03*
%TO.P,J10,4,Pin_4*%
%TO.N,/SCL_LOCAL*%
X208702458Y-58093506D03*
%TO.P,J10,5,Pin_5*%
%TO.N,/GPIO_1_LOCAL*%
X211242458Y-55553506D03*
%TO.P,J10,6,Pin_6*%
%TO.N,/GPIO_2_LOCAL*%
X211242458Y-58093506D03*
%TD*%
D12*
%TO.P,J4,1,Pin_1*%
%TO.N,Net-(J1-PadA4)*%
X245065974Y-76985283D03*
D13*
%TO.P,J4,2,Pin_2*%
%TO.N,GND*%
X247605974Y-76985283D03*
%TO.P,J4,3,Pin_3*%
%TO.N,unconnected-(J4-Pad3)*%
X245065974Y-74445283D03*
%TO.P,J4,4,Pin_4*%
%TO.N,unconnected-(J4-Pad4)*%
X247605974Y-74445283D03*
%TO.P,J4,5,Pin_5*%
%TO.N,unconnected-(J4-Pad5)*%
X245065974Y-71905283D03*
%TO.P,J4,6,Pin_6*%
%TO.N,unconnected-(J4-Pad6)*%
X247605974Y-71905283D03*
%TD*%
D12*
%TO.P,J6,1,Pin_1*%
%TO.N,Net-(C2-Pad1)*%
X110490000Y-57150000D03*
D13*
%TO.P,J6,2,Pin_2*%
%TO.N,GND*%
X110490000Y-59690000D03*
%TO.P,J6,3,Pin_3*%
%TO.N,/SDA_LOCAL*%
X113030000Y-57150000D03*
%TO.P,J6,4,Pin_4*%
%TO.N,/SCL_LOCAL*%
X113030000Y-59690000D03*
%TO.P,J6,5,Pin_5*%
%TO.N,/GPIO_1_LOCAL*%
X115570000Y-57150000D03*
%TO.P,J6,6,Pin_6*%
%TO.N,/GPIO_2_LOCAL*%
X115570000Y-59690000D03*
%TD*%
D12*
%TO.P,J8,1,Pin_1*%
%TO.N,Net-(C2-Pad1)*%
X174005000Y-72370000D03*
D13*
%TO.P,J8,2,Pin_2*%
%TO.N,GND*%
X174005000Y-74910000D03*
%TO.P,J8,3,Pin_3*%
%TO.N,/SDA_LOCAL*%
X176545000Y-72370000D03*
%TO.P,J8,4,Pin_4*%
%TO.N,/SCL_LOCAL*%
X176545000Y-74910000D03*
%TO.P,J8,5,Pin_5*%
%TO.N,/GPIO_1_LOCAL*%
X179085000Y-72370000D03*
%TO.P,J8,6,Pin_6*%
%TO.N,/GPIO_2_LOCAL*%
X179085000Y-74910000D03*
%TD*%
D12*
%TO.P,J3,1,Pin_1*%
%TO.N,Net-(J1-PadA4)*%
X180008901Y-55047888D03*
D13*
%TO.P,J3,2,Pin_2*%
%TO.N,GND*%
X180008901Y-52507888D03*
%TO.P,J3,3,Pin_3*%
%TO.N,unconnected-(J3-Pad3)*%
X177468901Y-55047888D03*
%TO.P,J3,4,Pin_4*%
%TO.N,unconnected-(J3-Pad4)*%
X177468901Y-52507888D03*
%TO.P,J3,5,Pin_5*%
%TO.N,unconnected-(J3-Pad5)*%
X174928901Y-55047888D03*
%TO.P,J3,6,Pin_6*%
%TO.N,unconnected-(J3-Pad6)*%
X174928901Y-52507888D03*
%TD*%
D12*
%TO.P,J2,1,Pin_1*%
%TO.N,Net-(J1-PadA4)*%
X105042302Y-71029309D03*
D13*
%TO.P,J2,2,Pin_2*%
%TO.N,GND*%
X102502302Y-71029309D03*
%TO.P,J2,3,Pin_3*%
%TO.N,unconnected-(J2-Pad3)*%
X105042302Y-73569309D03*
%TO.P,J2,4,Pin_4*%
%TO.N,unconnected-(J2-Pad4)*%
X102502302Y-73569309D03*
%TO.P,J2,5,Pin_5*%
%TO.N,unconnected-(J2-Pad5)*%
X105042302Y-76109309D03*
%TO.P,J2,6,Pin_6*%
%TO.N,unconnected-(J2-Pad6)*%
X102502302Y-76109309D03*
%TD*%
D14*
%TO.P,J11,1,MISO*%
%TO.N,/GPIO_1_LOCAL*%
X125195027Y-67310000D03*
D15*
%TO.P,J11,2,VCC*%
%TO.N,Net-(C2-Pad1)*%
X127735027Y-67310000D03*
D14*
%TO.P,J11,3,SCK*%
%TO.N,/SCL_LOCAL*%
X125195027Y-69850000D03*
%TO.P,J11,4,MOSI*%
%TO.N,/SDA_LOCAL*%
X127735027Y-69850000D03*
%TO.P,J11,5,~{RST}*%
%TO.N,Net-(J11-Pad5)*%
X125195027Y-72390000D03*
%TO.P,J11,6,GND*%
%TO.N,GND*%
X127735027Y-72390000D03*
%TD*%
D16*
%TO.N,Net-(C2-Pad1)*%
X128270000Y-78740000D03*
X127000000Y-81280000D03*
%TO.N,/GPIO_1_LOCAL*%
X129540000Y-74930000D03*
X144780000Y-85090000D03*
X189230000Y-83780000D03*
X200640000Y-72370000D03*
%TO.N,/SCL_LOCAL*%
X132080000Y-76200000D03*
%TO.N,/SDA_LOCAL*%
X144780000Y-78740000D03*
%TO.N,/GPIO_2_LOCAL*%
X153670000Y-93980000D03*
X125730000Y-78740000D03*
%TD*%
D17*
%TO.N,Net-(C2-Pad1)*%
X128270000Y-80010000D02*
X128270000Y-78740000D01*
X127000000Y-81280000D02*
X128270000Y-80010000D01*
%TO.N,/GPIO_1_LOCAL*%
X179085000Y-72370000D02*
X196090494Y-72370000D01*
X139700000Y-85090000D02*
X139835466Y-85225466D01*
X129540000Y-74930000D02*
X139700000Y-85090000D01*
X125195027Y-66775027D02*
X125195027Y-67310000D01*
X144780000Y-85090000D02*
X139700000Y-85090000D01*
X115570000Y-57150000D02*
X125195027Y-66775027D01*
X210065458Y-56730506D02*
X211242458Y-55553506D01*
X139835466Y-85225466D02*
X139835466Y-91504135D01*
X210065458Y-58395036D02*
X210065458Y-56730506D01*
X200640000Y-72370000D02*
X189230000Y-83780000D01*
X196090494Y-72370000D02*
X210065458Y-58395036D01*
%TO.N,/SCL_LOCAL*%
X176545000Y-74910000D02*
X198155000Y-96520000D01*
X156205000Y-95250000D02*
X137160000Y-95250000D01*
X233680000Y-96520000D02*
X233680000Y-95359220D01*
X137160000Y-94179601D02*
X137295466Y-94044135D01*
X123190000Y-69850000D02*
X113030000Y-59690000D01*
X177722000Y-71198000D02*
X189649494Y-59270506D01*
X125195027Y-69850000D02*
X123190000Y-69850000D01*
X137160000Y-95250000D02*
X137160000Y-94179601D01*
X177722000Y-73733000D02*
X177722000Y-71198000D01*
X189649494Y-59270506D02*
X207525458Y-59270506D01*
X176545000Y-74910000D02*
X177722000Y-73733000D01*
X128860707Y-71120000D02*
X126465027Y-71120000D01*
X126465027Y-71120000D02*
X125195027Y-69850000D01*
X198155000Y-96520000D02*
X233680000Y-96520000D01*
X132080000Y-74339293D02*
X128860707Y-71120000D01*
X207525458Y-59270506D02*
X208702458Y-58093506D01*
X176545000Y-74910000D02*
X156205000Y-95250000D01*
X132080000Y-76200000D02*
X132080000Y-74339293D01*
X233680000Y-95359220D02*
X235406142Y-93633078D01*
%TO.N,/SDA_LOCAL*%
X175368000Y-73547000D02*
X149973000Y-73547000D01*
X113030000Y-57150000D02*
X114300000Y-58420000D01*
X114300000Y-58420000D02*
X114300000Y-60317948D01*
X149973000Y-73547000D02*
X144780000Y-78740000D01*
X126465027Y-68580000D02*
X127735027Y-69850000D01*
X176545000Y-72370000D02*
X175368000Y-73547000D01*
X122562052Y-68580000D02*
X126465027Y-68580000D01*
X114300000Y-60317948D02*
X122562052Y-68580000D01*
%TO.N,/GPIO_2_LOCAL*%
X125730000Y-78740000D02*
X125730000Y-84832669D01*
X179085000Y-74910000D02*
X194425964Y-74910000D01*
X138472466Y-92681135D02*
X139835466Y-94044135D01*
X125730000Y-84832669D02*
X133578466Y-92681135D01*
X153605865Y-94044135D02*
X153670000Y-93980000D01*
X194425964Y-74910000D02*
X211242458Y-58093506D01*
X133578466Y-92681135D02*
X138472466Y-92681135D01*
X139835466Y-94044135D02*
X153605865Y-94044135D01*
%TD*%
%TA.AperFunction,Conductor*%
%TO.N,GND*%
G36*
X247162148Y-50528502D02*
G01*
X247208641Y-50582158D01*
X247218745Y-50652432D01*
X247189251Y-50717012D01*
X247129525Y-50755396D01*
X247129190Y-50755481D01*
X247129192Y-50755486D01*
X246875410Y-50829457D01*
X246871163Y-50831415D01*
X246871160Y-50831416D01*
X246780950Y-50873004D01*
X246635348Y-50940127D01*
X246631439Y-50942690D01*
X246418195Y-51082499D01*
X246418190Y-51082503D01*
X246414282Y-51085065D01*
X246410790Y-51088182D01*
X246224898Y-51254097D01*
X246217067Y-51261086D01*
X246048036Y-51464324D01*
X245910901Y-51690314D01*
X245909095Y-51694622D01*
X245909094Y-51694623D01*
X245820233Y-51906534D01*
X245808677Y-51934091D01*
X245807526Y-51938623D01*
X245807525Y-51938626D01*
X245787038Y-52019294D01*
X245743608Y-52190301D01*
X245717124Y-52453314D01*
X245718856Y-52489368D01*
X245729807Y-52717352D01*
X245730720Y-52721941D01*
X245770179Y-52920313D01*
X245781378Y-52976616D01*
X245782957Y-52981014D01*
X245782959Y-52981021D01*
X245832038Y-53117717D01*
X245870704Y-53225410D01*
X245872921Y-53229536D01*
X245940301Y-53354936D01*
X245995822Y-53458267D01*
X245998617Y-53462011D01*
X245998619Y-53462013D01*
X246081743Y-53573329D01*
X246153985Y-53670073D01*
X246157292Y-53673351D01*
X246157297Y-53673357D01*
X246327225Y-53841807D01*
X246341718Y-53856174D01*
X246345485Y-53858936D01*
X246345486Y-53858937D01*
X246482761Y-53959591D01*
X246554896Y-54012483D01*
X246559031Y-54014659D01*
X246559035Y-54014661D01*
X246635247Y-54054758D01*
X246788836Y-54135565D01*
X246928891Y-54184474D01*
X247032069Y-54220505D01*
X247038400Y-54222716D01*
X247042993Y-54223588D01*
X247293515Y-54271151D01*
X247293518Y-54271151D01*
X247298104Y-54272022D01*
X247430173Y-54277211D01*
X247557575Y-54282218D01*
X247557581Y-54282218D01*
X247562243Y-54282401D01*
X247825015Y-54253622D01*
X247829526Y-54252434D01*
X247829528Y-54252434D01*
X248076124Y-54187511D01*
X248076126Y-54187510D01*
X248080647Y-54186320D01*
X248084944Y-54184474D01*
X248319229Y-54083817D01*
X248319231Y-54083816D01*
X248323523Y-54081972D01*
X248548307Y-53942871D01*
X248584199Y-53912486D01*
X248746496Y-53775093D01*
X248746498Y-53775091D01*
X248750063Y-53772073D01*
X248924356Y-53573329D01*
X248938038Y-53552059D01*
X249064831Y-53354936D01*
X249067359Y-53351006D01*
X249175930Y-53109988D01*
X249244231Y-52867810D01*
X249281972Y-52807676D01*
X249346234Y-52777493D01*
X249416612Y-52786843D01*
X249470762Y-52832759D01*
X249491500Y-52902011D01*
X249491500Y-97114488D01*
X249471498Y-97182609D01*
X249417842Y-97229102D01*
X249347568Y-97239206D01*
X249282988Y-97209712D01*
X249244604Y-97149986D01*
X249242607Y-97142296D01*
X249237705Y-97120632D01*
X249205557Y-96978559D01*
X249203864Y-96974205D01*
X249111442Y-96736542D01*
X249111441Y-96736540D01*
X249109749Y-96732189D01*
X249105899Y-96725452D01*
X249034358Y-96600282D01*
X248978578Y-96502687D01*
X248814925Y-96295094D01*
X248622385Y-96113970D01*
X248581935Y-96085909D01*
X248409026Y-95965958D01*
X248409021Y-95965955D01*
X248405188Y-95963296D01*
X248400997Y-95961229D01*
X248172294Y-95848445D01*
X248172291Y-95848444D01*
X248168106Y-95846380D01*
X248153649Y-95841752D01*
X247949452Y-95776388D01*
X247916347Y-95765791D01*
X247689882Y-95728909D01*
X247660053Y-95724051D01*
X247660052Y-95724051D01*
X247655441Y-95723300D01*
X247523281Y-95721570D01*
X247395798Y-95719901D01*
X247395795Y-95719901D01*
X247391121Y-95719840D01*
X247129192Y-95755486D01*
X247124702Y-95756795D01*
X247124696Y-95756796D01*
X247031653Y-95783916D01*
X246875410Y-95829457D01*
X246871163Y-95831415D01*
X246871160Y-95831416D01*
X246799400Y-95864498D01*
X246635348Y-95940127D01*
X246624757Y-95947071D01*
X246418195Y-96082499D01*
X246418190Y-96082503D01*
X246414282Y-96085065D01*
X246217067Y-96261086D01*
X246048036Y-96464324D01*
X245910901Y-96690314D01*
X245909095Y-96694622D01*
X245909094Y-96694623D01*
X245812518Y-96924932D01*
X245808677Y-96934091D01*
X245807526Y-96938623D01*
X245807525Y-96938626D01*
X245785082Y-97026996D01*
X245743608Y-97190301D01*
X245717124Y-97453314D01*
X245718856Y-97489368D01*
X245729807Y-97717352D01*
X245730720Y-97721941D01*
X245755811Y-97848080D01*
X245781378Y-97976616D01*
X245782957Y-97981014D01*
X245782959Y-97981021D01*
X245840905Y-98142413D01*
X245870704Y-98225410D01*
X245872921Y-98229536D01*
X245971209Y-98412459D01*
X245995822Y-98458267D01*
X245998617Y-98462011D01*
X245998619Y-98462013D01*
X246081743Y-98573329D01*
X246153985Y-98670073D01*
X246157292Y-98673351D01*
X246157297Y-98673357D01*
X246256879Y-98772073D01*
X246341718Y-98856174D01*
X246554896Y-99012483D01*
X246559031Y-99014659D01*
X246559035Y-99014661D01*
X246682293Y-99079510D01*
X246788836Y-99135565D01*
X247038400Y-99222716D01*
X247042993Y-99223588D01*
X247138450Y-99241711D01*
X247201644Y-99274068D01*
X247237313Y-99335454D01*
X247234132Y-99406380D01*
X247193111Y-99464326D01*
X247127273Y-99490896D01*
X247114948Y-99491500D01*
X102894964Y-99491500D01*
X102826843Y-99471498D01*
X102780350Y-99417842D01*
X102770246Y-99347568D01*
X102799740Y-99282988D01*
X102862884Y-99243652D01*
X103076124Y-99187511D01*
X103076126Y-99187510D01*
X103080647Y-99186320D01*
X103195191Y-99137108D01*
X103319229Y-99083817D01*
X103319231Y-99083816D01*
X103323523Y-99081972D01*
X103548307Y-98942871D01*
X103564788Y-98928919D01*
X103746496Y-98775093D01*
X103746498Y-98775091D01*
X103750063Y-98772073D01*
X103924356Y-98573329D01*
X103998367Y-98458267D01*
X104064831Y-98354936D01*
X104067359Y-98351006D01*
X104175930Y-98109988D01*
X104247683Y-97855570D01*
X104265267Y-97717352D01*
X104280645Y-97596471D01*
X104280645Y-97596465D01*
X104281043Y-97593340D01*
X104283487Y-97500000D01*
X104275180Y-97388213D01*
X104274067Y-97373240D01*
X172488055Y-97373240D01*
X172518363Y-97507720D01*
X172521443Y-97517549D01*
X172601568Y-97714877D01*
X172606211Y-97724068D01*
X172717492Y-97905662D01*
X172723575Y-97913973D01*
X172863011Y-98074941D01*
X172870378Y-98082157D01*
X173034232Y-98218190D01*
X173042679Y-98224105D01*
X173226554Y-98331553D01*
X173235840Y-98336003D01*
X173434799Y-98411977D01*
X173444697Y-98414853D01*
X173548048Y-98435880D01*
X173562097Y-98434684D01*
X173565798Y-98424339D01*
X173565798Y-97377389D01*
X173561323Y-97362150D01*
X173559933Y-97360945D01*
X173552250Y-97359274D01*
X172503023Y-97359274D01*
X172489492Y-97363247D01*
X172488055Y-97373240D01*
X104274067Y-97373240D01*
X104264243Y-97241036D01*
X104264242Y-97241032D01*
X104263897Y-97236384D01*
X104205557Y-96978559D01*
X104203864Y-96974205D01*
X104111442Y-96736542D01*
X104111441Y-96736540D01*
X104109749Y-96732189D01*
X104105899Y-96725452D01*
X104034358Y-96600282D01*
X103978578Y-96502687D01*
X103814925Y-96295094D01*
X103622385Y-96113970D01*
X103581935Y-96085909D01*
X103409026Y-95965958D01*
X103409021Y-95965955D01*
X103405188Y-95963296D01*
X103400997Y-95961229D01*
X103172294Y-95848445D01*
X103172291Y-95848444D01*
X103168106Y-95846380D01*
X103153649Y-95841752D01*
X102949452Y-95776388D01*
X102916347Y-95765791D01*
X102689882Y-95728909D01*
X102660053Y-95724051D01*
X102660052Y-95724051D01*
X102655441Y-95723300D01*
X102523281Y-95721570D01*
X102395798Y-95719901D01*
X102395795Y-95719901D01*
X102391121Y-95719840D01*
X102129192Y-95755486D01*
X102124702Y-95756795D01*
X102124696Y-95756796D01*
X102031653Y-95783916D01*
X101875410Y-95829457D01*
X101871163Y-95831415D01*
X101871160Y-95831416D01*
X101799400Y-95864498D01*
X101635348Y-95940127D01*
X101624757Y-95947071D01*
X101418195Y-96082499D01*
X101418190Y-96082503D01*
X101414282Y-96085065D01*
X101217067Y-96261086D01*
X101048036Y-96464324D01*
X100910901Y-96690314D01*
X100909095Y-96694622D01*
X100909094Y-96694623D01*
X100812518Y-96924932D01*
X100808677Y-96934091D01*
X100807526Y-96938623D01*
X100807525Y-96938626D01*
X100756623Y-97139054D01*
X100720468Y-97200155D01*
X100657019Y-97232010D01*
X100586420Y-97224505D01*
X100531087Y-97180023D01*
X100508500Y-97108039D01*
X100508500Y-93697702D01*
X101186017Y-93697702D01*
X101195797Y-93908997D01*
X101197201Y-93914822D01*
X101197201Y-93914823D01*
X101236209Y-94076680D01*
X101245355Y-94114632D01*
X101247837Y-94120090D01*
X101247838Y-94120094D01*
X101291283Y-94215644D01*
X101332904Y-94307185D01*
X101455284Y-94479709D01*
X101608080Y-94625979D01*
X101785778Y-94740718D01*
X101845876Y-94764938D01*
X101976398Y-94817540D01*
X101976401Y-94817541D01*
X101981967Y-94819784D01*
X102189567Y-94860326D01*
X102195129Y-94860598D01*
X102951076Y-94860598D01*
X103108796Y-94845550D01*
X103311764Y-94786006D01*
X103317092Y-94783262D01*
X103494479Y-94691902D01*
X103494482Y-94691900D01*
X103499810Y-94689156D01*
X103666150Y-94558494D01*
X103670082Y-94553963D01*
X103670085Y-94553960D01*
X103800851Y-94403265D01*
X103804782Y-94398735D01*
X103807782Y-94393549D01*
X103807785Y-94393545D01*
X103907697Y-94220840D01*
X103910703Y-94215644D01*
X103980091Y-94015827D01*
X103994736Y-93914823D01*
X104009582Y-93812434D01*
X104009582Y-93812431D01*
X104010443Y-93806494D01*
X104005407Y-93697702D01*
X105266017Y-93697702D01*
X105275797Y-93908997D01*
X105277201Y-93914822D01*
X105277201Y-93914823D01*
X105316209Y-94076680D01*
X105325355Y-94114632D01*
X105327837Y-94120090D01*
X105327838Y-94120094D01*
X105371283Y-94215644D01*
X105412904Y-94307185D01*
X105535284Y-94479709D01*
X105688080Y-94625979D01*
X105865778Y-94740718D01*
X105925876Y-94764938D01*
X106056398Y-94817540D01*
X106056401Y-94817541D01*
X106061967Y-94819784D01*
X106269567Y-94860326D01*
X106275129Y-94860598D01*
X107231076Y-94860598D01*
X107388796Y-94845550D01*
X107591764Y-94786006D01*
X107597092Y-94783262D01*
X107774479Y-94691902D01*
X107774482Y-94691900D01*
X107779810Y-94689156D01*
X107946150Y-94558494D01*
X107950082Y-94553963D01*
X107950085Y-94553960D01*
X108080851Y-94403265D01*
X108084782Y-94398735D01*
X108087782Y-94393549D01*
X108087785Y-94393545D01*
X108134901Y-94312101D01*
X133423723Y-94312101D01*
X133454031Y-94446581D01*
X133457111Y-94456410D01*
X133537236Y-94653738D01*
X133541879Y-94662929D01*
X133653160Y-94844523D01*
X133659243Y-94852834D01*
X133798679Y-95013802D01*
X133806046Y-95021018D01*
X133969900Y-95157051D01*
X133978347Y-95162966D01*
X134162222Y-95270414D01*
X134171508Y-95274864D01*
X134370467Y-95350838D01*
X134380365Y-95353714D01*
X134483716Y-95374741D01*
X134497765Y-95373545D01*
X134501466Y-95363200D01*
X134501466Y-94316250D01*
X134496991Y-94301011D01*
X134495601Y-94299806D01*
X134487918Y-94298135D01*
X133438691Y-94298135D01*
X133425160Y-94302108D01*
X133423723Y-94312101D01*
X108134901Y-94312101D01*
X108187697Y-94220840D01*
X108190703Y-94215644D01*
X108260091Y-94015827D01*
X108274736Y-93914823D01*
X108289582Y-93812434D01*
X108289582Y-93812431D01*
X108290443Y-93806494D01*
X108280663Y-93595199D01*
X108240819Y-93429872D01*
X108232511Y-93395397D01*
X108232510Y-93395395D01*
X108231105Y-93389564D01*
X108226338Y-93379078D01*
X108170071Y-93255327D01*
X108143556Y-93197011D01*
X108037278Y-93047186D01*
X108024642Y-93029373D01*
X108024641Y-93029372D01*
X108021176Y-93024487D01*
X107868380Y-92878217D01*
X107690682Y-92763478D01*
X107630584Y-92739258D01*
X107500062Y-92686656D01*
X107500059Y-92686655D01*
X107494493Y-92684412D01*
X107286893Y-92643870D01*
X107281331Y-92643598D01*
X107213776Y-92643598D01*
X107145655Y-92623596D01*
X107099162Y-92569940D01*
X107089468Y-92497019D01*
X107094481Y-92466742D01*
X107107232Y-92389716D01*
X107109331Y-92377040D01*
X107109331Y-92377037D01*
X107110446Y-92370303D01*
X107110023Y-92362222D01*
X107101040Y-92190844D01*
X107100683Y-92184031D01*
X107057073Y-92025703D01*
X107052963Y-92010782D01*
X107051150Y-92004200D01*
X106964155Y-91839200D01*
X106959750Y-91833987D01*
X106959747Y-91833983D01*
X106848166Y-91701945D01*
X106848162Y-91701941D01*
X106843759Y-91696731D01*
X106838334Y-91692583D01*
X106700999Y-91587582D01*
X106700995Y-91587579D01*
X106695578Y-91583438D01*
X106526526Y-91504608D01*
X106344490Y-91463918D01*
X106338767Y-91463598D01*
X106201634Y-91463598D01*
X106062793Y-91478681D01*
X105886007Y-91538176D01*
X105726121Y-91634245D01*
X105590594Y-91762406D01*
X105586759Y-91768049D01*
X105541951Y-91833983D01*
X105485750Y-91916680D01*
X105483218Y-91923009D01*
X105483217Y-91923012D01*
X105424299Y-92070318D01*
X105416479Y-92089869D01*
X105401979Y-92177454D01*
X105389547Y-92252554D01*
X105386014Y-92273893D01*
X105386371Y-92280709D01*
X105386371Y-92280713D01*
X105392166Y-92391272D01*
X105395777Y-92460165D01*
X105445310Y-92639996D01*
X105532305Y-92804996D01*
X105558083Y-92835499D01*
X105561386Y-92839408D01*
X105590079Y-92904349D01*
X105579107Y-92974492D01*
X105560317Y-93003313D01*
X105471678Y-93105461D01*
X105468678Y-93110647D01*
X105468675Y-93110651D01*
X105388000Y-93250104D01*
X105365757Y-93288552D01*
X105296369Y-93488369D01*
X105295508Y-93494304D01*
X105295508Y-93494306D01*
X105278048Y-93614729D01*
X105266017Y-93697702D01*
X104005407Y-93697702D01*
X104000663Y-93595199D01*
X103960819Y-93429872D01*
X103952511Y-93395397D01*
X103952510Y-93395395D01*
X103951105Y-93389564D01*
X103946338Y-93379078D01*
X103890071Y-93255327D01*
X103863556Y-93197011D01*
X103757278Y-93047186D01*
X103744642Y-93029373D01*
X103744641Y-93029372D01*
X103741176Y-93024487D01*
X103588380Y-92878217D01*
X103410682Y-92763478D01*
X103350584Y-92739258D01*
X103220062Y-92686656D01*
X103220059Y-92686655D01*
X103214493Y-92684412D01*
X103006893Y-92643870D01*
X103001331Y-92643598D01*
X102245384Y-92643598D01*
X102087664Y-92658646D01*
X101884696Y-92718190D01*
X101879369Y-92720934D01*
X101879368Y-92720934D01*
X101701981Y-92812294D01*
X101701978Y-92812296D01*
X101696650Y-92815040D01*
X101530310Y-92945702D01*
X101526378Y-92950233D01*
X101526375Y-92950236D01*
X101421148Y-93071500D01*
X101391678Y-93105461D01*
X101388678Y-93110647D01*
X101388675Y-93110651D01*
X101308000Y-93250104D01*
X101285757Y-93288552D01*
X101216369Y-93488369D01*
X101215508Y-93494304D01*
X101215508Y-93494306D01*
X101198048Y-93614729D01*
X101186017Y-93697702D01*
X100508500Y-93697702D01*
X100508500Y-85057702D01*
X101186017Y-85057702D01*
X101195797Y-85268997D01*
X101197201Y-85274822D01*
X101197201Y-85274823D01*
X101242204Y-85461556D01*
X101245355Y-85474632D01*
X101247837Y-85480090D01*
X101247838Y-85480094D01*
X101291283Y-85575644D01*
X101332904Y-85667185D01*
X101455284Y-85839709D01*
X101608080Y-85985979D01*
X101785778Y-86100718D01*
X101791344Y-86102961D01*
X101976398Y-86177540D01*
X101976401Y-86177541D01*
X101981967Y-86179784D01*
X102189567Y-86220326D01*
X102195129Y-86220598D01*
X102951076Y-86220598D01*
X103108796Y-86205550D01*
X103311764Y-86146006D01*
X103395341Y-86102961D01*
X103494479Y-86051902D01*
X103494482Y-86051900D01*
X103499810Y-86049156D01*
X103666150Y-85918494D01*
X103670082Y-85913963D01*
X103670085Y-85913960D01*
X103800851Y-85763265D01*
X103804782Y-85758735D01*
X103807782Y-85753549D01*
X103807785Y-85753545D01*
X103907697Y-85580840D01*
X103910703Y-85575644D01*
X103980091Y-85375827D01*
X103991166Y-85299446D01*
X104009582Y-85172434D01*
X104009582Y-85172431D01*
X104010443Y-85166494D01*
X104005407Y-85057702D01*
X105266017Y-85057702D01*
X105275797Y-85268997D01*
X105277201Y-85274822D01*
X105277201Y-85274823D01*
X105322204Y-85461556D01*
X105325355Y-85474632D01*
X105327837Y-85480090D01*
X105327838Y-85480094D01*
X105371283Y-85575644D01*
X105412904Y-85667185D01*
X105535284Y-85839709D01*
X105539617Y-85843857D01*
X105539618Y-85843858D01*
X105550562Y-85854334D01*
X105585939Y-85915888D01*
X105582422Y-85986798D01*
X105567645Y-86016175D01*
X105510190Y-86100718D01*
X105485750Y-86136680D01*
X105483218Y-86143009D01*
X105483217Y-86143012D01*
X105458879Y-86203861D01*
X105416479Y-86309869D01*
X105386014Y-86493893D01*
X105386371Y-86500709D01*
X105386371Y-86500713D01*
X105391067Y-86590303D01*
X105395777Y-86680165D01*
X105445310Y-86859996D01*
X105532305Y-87024996D01*
X105536710Y-87030209D01*
X105536713Y-87030213D01*
X105648294Y-87162251D01*
X105648298Y-87162255D01*
X105652701Y-87167465D01*
X105658125Y-87171612D01*
X105658126Y-87171613D01*
X105795461Y-87276614D01*
X105795465Y-87276617D01*
X105800882Y-87280758D01*
X105969934Y-87359588D01*
X106151970Y-87400278D01*
X106157693Y-87400598D01*
X106294826Y-87400598D01*
X106433667Y-87385515D01*
X106610453Y-87326020D01*
X106770339Y-87229951D01*
X106905866Y-87101790D01*
X106909701Y-87096147D01*
X107006876Y-86953158D01*
X107006877Y-86953156D01*
X107010710Y-86947516D01*
X107043301Y-86866035D01*
X107077445Y-86780668D01*
X107077446Y-86780666D01*
X107079981Y-86774327D01*
X107110446Y-86590303D01*
X107105751Y-86500713D01*
X107101040Y-86410844D01*
X107100683Y-86404031D01*
X107094080Y-86380057D01*
X107095274Y-86309070D01*
X107134658Y-86249999D01*
X107199726Y-86221596D01*
X107215556Y-86220598D01*
X107231076Y-86220598D01*
X107388796Y-86205550D01*
X107591764Y-86146006D01*
X107675341Y-86102961D01*
X107774479Y-86051902D01*
X107774482Y-86051900D01*
X107779810Y-86049156D01*
X107946150Y-85918494D01*
X107950082Y-85913963D01*
X107950085Y-85913960D01*
X108080851Y-85763265D01*
X108084782Y-85758735D01*
X108087782Y-85753549D01*
X108087785Y-85753545D01*
X108187697Y-85580840D01*
X108190703Y-85575644D01*
X108260091Y-85375827D01*
X108271166Y-85299446D01*
X108289582Y-85172434D01*
X108289582Y-85172431D01*
X108290443Y-85166494D01*
X108280663Y-84955199D01*
X108231105Y-84749564D01*
X108219814Y-84724729D01*
X108149205Y-84569436D01*
X108143556Y-84557011D01*
X108040078Y-84411134D01*
X108024642Y-84389373D01*
X108024641Y-84389372D01*
X108021176Y-84384487D01*
X107868380Y-84238217D01*
X107690682Y-84123478D01*
X107630584Y-84099258D01*
X107500062Y-84046656D01*
X107500059Y-84046655D01*
X107494493Y-84044412D01*
X107286893Y-84003870D01*
X107281331Y-84003598D01*
X106325384Y-84003598D01*
X106167664Y-84018646D01*
X105964696Y-84078190D01*
X105959369Y-84080934D01*
X105959368Y-84080934D01*
X105781981Y-84172294D01*
X105781978Y-84172296D01*
X105776650Y-84175040D01*
X105610310Y-84305702D01*
X105606378Y-84310233D01*
X105606375Y-84310236D01*
X105514559Y-84416045D01*
X105471678Y-84465461D01*
X105468678Y-84470647D01*
X105468675Y-84470651D01*
X105426225Y-84544029D01*
X105365757Y-84648552D01*
X105296369Y-84848369D01*
X105295508Y-84854304D01*
X105295508Y-84854306D01*
X105268766Y-85038746D01*
X105266017Y-85057702D01*
X104005407Y-85057702D01*
X104000663Y-84955199D01*
X103951105Y-84749564D01*
X103939814Y-84724729D01*
X103869205Y-84569436D01*
X103863556Y-84557011D01*
X103760078Y-84411134D01*
X103744642Y-84389373D01*
X103744641Y-84389372D01*
X103741176Y-84384487D01*
X103588380Y-84238217D01*
X103410682Y-84123478D01*
X103350584Y-84099258D01*
X103220062Y-84046656D01*
X103220059Y-84046655D01*
X103214493Y-84044412D01*
X103006893Y-84003870D01*
X103001331Y-84003598D01*
X102245384Y-84003598D01*
X102087664Y-84018646D01*
X101884696Y-84078190D01*
X101879369Y-84080934D01*
X101879368Y-84080934D01*
X101701981Y-84172294D01*
X101701978Y-84172296D01*
X101696650Y-84175040D01*
X101530310Y-84305702D01*
X101526378Y-84310233D01*
X101526375Y-84310236D01*
X101434559Y-84416045D01*
X101391678Y-84465461D01*
X101388678Y-84470647D01*
X101388675Y-84470651D01*
X101346225Y-84544029D01*
X101285757Y-84648552D01*
X101216369Y-84848369D01*
X101215508Y-84854304D01*
X101215508Y-84854306D01*
X101188766Y-85038746D01*
X101186017Y-85057702D01*
X100508500Y-85057702D01*
X100508500Y-76076004D01*
X101139553Y-76076004D01*
X101139850Y-76081157D01*
X101139850Y-76081160D01*
X101150768Y-76270511D01*
X101152412Y-76299024D01*
X101153549Y-76304070D01*
X101153550Y-76304076D01*
X101171419Y-76383365D01*
X101201524Y-76516948D01*
X101239763Y-76611120D01*
X101283256Y-76718230D01*
X101285568Y-76723925D01*
X101325545Y-76789162D01*
X101399593Y-76909997D01*
X101402289Y-76914397D01*
X101548552Y-77083247D01*
X101720428Y-77225941D01*
X101913302Y-77338647D01*
X102121994Y-77418339D01*
X102127062Y-77419370D01*
X102127065Y-77419371D01*
X102234319Y-77441192D01*
X102340899Y-77462876D01*
X102346074Y-77463066D01*
X102346076Y-77463066D01*
X102558975Y-77470873D01*
X102558979Y-77470873D01*
X102564139Y-77471062D01*
X102569259Y-77470406D01*
X102569261Y-77470406D01*
X102780590Y-77443334D01*
X102780591Y-77443334D01*
X102785718Y-77442677D01*
X102790668Y-77441192D01*
X102994731Y-77379970D01*
X102994736Y-77379968D01*
X102999686Y-77378483D01*
X103200296Y-77280205D01*
X103382162Y-77150482D01*
X103540398Y-76992798D01*
X103599896Y-76909998D01*
X103670755Y-76811386D01*
X103672078Y-76812337D01*
X103718947Y-76769166D01*
X103788882Y-76756934D01*
X103854328Y-76784453D01*
X103882177Y-76816303D01*
X103942289Y-76914397D01*
X104088552Y-77083247D01*
X104260428Y-77225941D01*
X104453302Y-77338647D01*
X104661994Y-77418339D01*
X104667062Y-77419370D01*
X104667065Y-77419371D01*
X104774319Y-77441192D01*
X104880899Y-77462876D01*
X104886074Y-77463066D01*
X104886076Y-77463066D01*
X105098975Y-77470873D01*
X105098979Y-77470873D01*
X105104139Y-77471062D01*
X105109259Y-77470406D01*
X105109261Y-77470406D01*
X105320590Y-77443334D01*
X105320591Y-77443334D01*
X105325718Y-77442677D01*
X105330668Y-77441192D01*
X105534731Y-77379970D01*
X105534736Y-77379968D01*
X105539686Y-77378483D01*
X105740296Y-77280205D01*
X105922162Y-77150482D01*
X106080398Y-76992798D01*
X106139896Y-76909998D01*
X106207737Y-76815586D01*
X106210755Y-76811386D01*
X106231622Y-76769166D01*
X106307438Y-76615762D01*
X106307439Y-76615760D01*
X106309732Y-76611120D01*
X106374672Y-76397378D01*
X106403831Y-76175899D01*
X106405458Y-76109309D01*
X106387154Y-75886670D01*
X106332733Y-75670011D01*
X106243656Y-75465149D01*
X106144868Y-75312446D01*
X106125124Y-75281926D01*
X106125122Y-75281923D01*
X106122316Y-75277586D01*
X105971972Y-75112360D01*
X105967921Y-75109161D01*
X105967917Y-75109157D01*
X105800716Y-74977109D01*
X105800712Y-74977107D01*
X105796661Y-74973907D01*
X105755355Y-74951105D01*
X105705386Y-74900673D01*
X105690614Y-74831230D01*
X105715730Y-74764825D01*
X105743082Y-74738218D01*
X105786905Y-74706959D01*
X105922162Y-74610482D01*
X106080398Y-74452798D01*
X106093340Y-74434788D01*
X106207737Y-74275586D01*
X106210755Y-74271386D01*
X106227456Y-74237595D01*
X106307438Y-74075762D01*
X106307439Y-74075760D01*
X106309732Y-74071120D01*
X106370073Y-73872516D01*
X106373167Y-73862332D01*
X106373167Y-73862330D01*
X106374672Y-73857378D01*
X106403831Y-73635899D01*
X106404911Y-73591686D01*
X106405376Y-73572674D01*
X106405376Y-73572670D01*
X106405458Y-73569309D01*
X106387154Y-73346670D01*
X106332733Y-73130011D01*
X106243656Y-72925149D01*
X106184646Y-72833933D01*
X106125124Y-72741926D01*
X106125122Y-72741923D01*
X106122316Y-72737586D01*
X106118834Y-72733759D01*
X105975100Y-72575797D01*
X105944048Y-72511951D01*
X105952443Y-72441452D01*
X105997619Y-72386684D01*
X106024063Y-72373015D01*
X106130599Y-72333076D01*
X106139007Y-72329924D01*
X106255563Y-72242570D01*
X106342917Y-72126014D01*
X106394047Y-71989625D01*
X106400802Y-71927443D01*
X106400802Y-70131175D01*
X106394047Y-70068993D01*
X106342917Y-69932604D01*
X106255563Y-69816048D01*
X106139007Y-69728694D01*
X106002618Y-69677564D01*
X105940436Y-69670809D01*
X104144168Y-69670809D01*
X104081986Y-69677564D01*
X103945597Y-69728694D01*
X103829041Y-69816048D01*
X103741687Y-69932604D01*
X103738535Y-69941012D01*
X103738534Y-69941014D01*
X103697024Y-70051742D01*
X103654383Y-70108507D01*
X103587821Y-70133207D01*
X103518472Y-70118000D01*
X103485848Y-70092313D01*
X103435101Y-70036543D01*
X103427575Y-70029524D01*
X103260441Y-69897531D01*
X103251854Y-69891826D01*
X103065419Y-69788908D01*
X103056007Y-69784678D01*
X102855261Y-69713589D01*
X102845290Y-69710955D01*
X102774139Y-69698281D01*
X102760842Y-69699741D01*
X102756302Y-69714298D01*
X102756302Y-71157309D01*
X102736300Y-71225430D01*
X102682644Y-71271923D01*
X102630302Y-71283309D01*
X101185527Y-71283309D01*
X101171996Y-71287282D01*
X101170559Y-71297275D01*
X101200867Y-71431755D01*
X101203947Y-71441584D01*
X101284072Y-71638912D01*
X101288715Y-71648103D01*
X101399996Y-71829697D01*
X101406079Y-71838008D01*
X101545515Y-71998976D01*
X101552882Y-72006192D01*
X101716736Y-72142225D01*
X101725183Y-72148140D01*
X101794271Y-72188512D01*
X101842995Y-72240151D01*
X101856066Y-72309934D01*
X101829335Y-72375705D01*
X101788886Y-72409061D01*
X101775909Y-72415816D01*
X101771776Y-72418919D01*
X101771773Y-72418921D01*
X101601402Y-72546839D01*
X101597267Y-72549944D01*
X101442931Y-72711447D01*
X101317045Y-72895989D01*
X101278890Y-72978188D01*
X101239863Y-73062265D01*
X101222990Y-73098614D01*
X101163291Y-73313879D01*
X101139553Y-73536004D01*
X101139850Y-73541157D01*
X101139850Y-73541160D01*
X101149210Y-73703498D01*
X101152412Y-73759024D01*
X101153549Y-73764070D01*
X101153550Y-73764076D01*
X101162970Y-73805873D01*
X101201524Y-73976948D01*
X101248451Y-74092515D01*
X101280980Y-74172625D01*
X101285568Y-74183925D01*
X101324228Y-74247013D01*
X101399593Y-74369997D01*
X101402289Y-74374397D01*
X101548552Y-74543247D01*
X101720428Y-74685941D01*
X101790897Y-74727120D01*
X101793747Y-74728785D01*
X101842471Y-74780423D01*
X101855542Y-74850206D01*
X101828811Y-74915978D01*
X101788357Y-74949336D01*
X101783747Y-74951736D01*
X101775909Y-74955816D01*
X101771776Y-74958919D01*
X101771773Y-74958921D01*
X101601402Y-75086839D01*
X101597267Y-75089944D01*
X101442931Y-75251447D01*
X101317045Y-75435989D01*
X101278233Y-75519603D01*
X101228482Y-75626783D01*
X101222990Y-75638614D01*
X101163291Y-75853879D01*
X101139553Y-76076004D01*
X100508500Y-76076004D01*
X100508500Y-70763492D01*
X101166691Y-70763492D01*
X101168214Y-70771916D01*
X101180594Y-70775309D01*
X102230187Y-70775309D01*
X102245426Y-70770834D01*
X102246631Y-70769444D01*
X102248302Y-70761761D01*
X102248302Y-69712411D01*
X102244384Y-69699067D01*
X102230108Y-69697080D01*
X102191626Y-69702969D01*
X102181590Y-69705360D01*
X101979170Y-69771521D01*
X101969661Y-69775518D01*
X101780765Y-69873851D01*
X101772040Y-69879345D01*
X101601735Y-70007214D01*
X101594028Y-70014057D01*
X101446892Y-70168026D01*
X101440406Y-70176036D01*
X101320400Y-70351958D01*
X101315302Y-70360932D01*
X101225640Y-70554092D01*
X101222077Y-70563779D01*
X101166691Y-70763492D01*
X100508500Y-70763492D01*
X100508500Y-59957966D01*
X109158257Y-59957966D01*
X109188565Y-60092446D01*
X109191645Y-60102275D01*
X109271770Y-60299603D01*
X109276413Y-60308794D01*
X109387694Y-60490388D01*
X109393777Y-60498699D01*
X109533213Y-60659667D01*
X109540580Y-60666883D01*
X109704434Y-60802916D01*
X109712881Y-60808831D01*
X109896756Y-60916279D01*
X109906042Y-60920729D01*
X110105001Y-60996703D01*
X110114899Y-60999579D01*
X110218250Y-61020606D01*
X110232299Y-61019410D01*
X110236000Y-61009065D01*
X110236000Y-59962115D01*
X110231525Y-59946876D01*
X110230135Y-59945671D01*
X110222452Y-59944000D01*
X109173225Y-59944000D01*
X109159694Y-59947973D01*
X109158257Y-59957966D01*
X100508500Y-59957966D01*
X100508500Y-58048134D01*
X109131500Y-58048134D01*
X109138255Y-58110316D01*
X109189385Y-58246705D01*
X109276739Y-58363261D01*
X109393295Y-58450615D01*
X109401704Y-58453767D01*
X109401705Y-58453768D01*
X109510960Y-58494726D01*
X109567725Y-58537367D01*
X109592425Y-58603929D01*
X109577218Y-58673278D01*
X109557825Y-58699759D01*
X109434590Y-58828717D01*
X109428104Y-58836727D01*
X109308098Y-59012649D01*
X109303000Y-59021623D01*
X109213338Y-59214783D01*
X109209775Y-59224470D01*
X109154389Y-59424183D01*
X109155912Y-59432607D01*
X109168292Y-59436000D01*
X110618000Y-59436000D01*
X110686121Y-59456002D01*
X110732614Y-59509658D01*
X110744000Y-59562000D01*
X110744000Y-61008517D01*
X110748064Y-61022359D01*
X110761478Y-61024393D01*
X110768184Y-61023534D01*
X110778262Y-61021392D01*
X110982255Y-60960191D01*
X110991842Y-60956433D01*
X111183095Y-60862739D01*
X111191945Y-60857464D01*
X111365328Y-60733792D01*
X111373200Y-60727139D01*
X111524052Y-60576812D01*
X111530730Y-60568965D01*
X111658022Y-60391819D01*
X111659279Y-60392722D01*
X111706373Y-60349362D01*
X111776311Y-60337145D01*
X111841751Y-60364678D01*
X111869579Y-60396511D01*
X111929987Y-60495088D01*
X112076250Y-60663938D01*
X112248126Y-60806632D01*
X112441000Y-60919338D01*
X112649692Y-60999030D01*
X112654760Y-61000061D01*
X112654763Y-61000062D01*
X112749862Y-61019410D01*
X112868597Y-61043567D01*
X112873772Y-61043757D01*
X112873774Y-61043757D01*
X113086673Y-61051564D01*
X113086677Y-61051564D01*
X113091837Y-61051753D01*
X113096957Y-61051097D01*
X113096959Y-61051097D01*
X113170414Y-61041687D01*
X113313416Y-61023368D01*
X113318370Y-61021882D01*
X113318378Y-61021880D01*
X113357652Y-61010097D01*
X113428647Y-61009679D01*
X113482955Y-61041687D01*
X122684750Y-70243483D01*
X122692326Y-70251809D01*
X122696447Y-70258303D01*
X122702222Y-70263726D01*
X122746265Y-70305085D01*
X122749107Y-70307840D01*
X122768906Y-70327639D01*
X122772031Y-70330063D01*
X122772040Y-70330071D01*
X122772126Y-70330137D01*
X122781151Y-70337845D01*
X122813494Y-70368217D01*
X122820438Y-70372035D01*
X122820440Y-70372036D01*
X122831329Y-70378022D01*
X122847847Y-70388873D01*
X122863933Y-70401350D01*
X122904666Y-70418976D01*
X122915314Y-70424193D01*
X122954197Y-70445569D01*
X122961872Y-70447540D01*
X122961878Y-70447542D01*
X122973911Y-70450631D01*
X122992613Y-70457034D01*
X123011292Y-70465117D01*
X123045128Y-70470476D01*
X123055127Y-70472060D01*
X123066740Y-70474465D01*
X123109718Y-70485500D01*
X123130065Y-70485500D01*
X123149777Y-70487051D01*
X123169879Y-70490235D01*
X123177771Y-70489489D01*
X123214056Y-70486059D01*
X123225914Y-70485500D01*
X123977034Y-70485500D01*
X124045155Y-70505502D01*
X124080246Y-70539228D01*
X124109387Y-70580845D01*
X124167907Y-70664420D01*
X124188829Y-70694300D01*
X124350727Y-70856198D01*
X124355235Y-70859355D01*
X124355238Y-70859357D01*
X124383590Y-70879209D01*
X124538278Y-70987523D01*
X124543260Y-70989846D01*
X124543265Y-70989849D01*
X124577484Y-71005805D01*
X124630769Y-71052722D01*
X124650230Y-71120999D01*
X124629688Y-71188959D01*
X124577484Y-71234195D01*
X124543265Y-71250151D01*
X124543260Y-71250154D01*
X124538278Y-71252477D01*
X124474300Y-71297275D01*
X124355238Y-71380643D01*
X124355235Y-71380645D01*
X124350727Y-71383802D01*
X124188829Y-71545700D01*
X124185672Y-71550208D01*
X124185670Y-71550211D01*
X124162877Y-71582763D01*
X124057504Y-71733251D01*
X124055181Y-71738233D01*
X124055178Y-71738238D01*
X123968545Y-71924026D01*
X123960743Y-71940757D01*
X123959321Y-71946065D01*
X123959320Y-71946067D01*
X123905174Y-72148140D01*
X123901484Y-72161913D01*
X123881529Y-72390000D01*
X123901484Y-72618087D01*
X123902908Y-72623400D01*
X123902908Y-72623402D01*
X123946343Y-72785500D01*
X123960743Y-72839243D01*
X123963066Y-72844224D01*
X123963066Y-72844225D01*
X124055178Y-73041762D01*
X124055181Y-73041767D01*
X124057504Y-73046749D01*
X124129404Y-73149432D01*
X124179233Y-73220595D01*
X124188829Y-73234300D01*
X124350727Y-73396198D01*
X124355235Y-73399355D01*
X124355238Y-73399357D01*
X124366909Y-73407529D01*
X124538278Y-73527523D01*
X124543260Y-73529846D01*
X124543265Y-73529849D01*
X124714594Y-73609740D01*
X124745784Y-73624284D01*
X124751092Y-73625706D01*
X124751094Y-73625707D01*
X124961625Y-73682119D01*
X124961627Y-73682119D01*
X124966940Y-73683543D01*
X125195027Y-73703498D01*
X125423114Y-73683543D01*
X125428427Y-73682119D01*
X125428429Y-73682119D01*
X125638960Y-73625707D01*
X125638962Y-73625706D01*
X125644270Y-73624284D01*
X125675460Y-73609740D01*
X125846789Y-73529849D01*
X125846794Y-73529846D01*
X125851776Y-73527523D01*
X126023145Y-73407529D01*
X126034816Y-73399357D01*
X126034819Y-73399355D01*
X126039327Y-73396198D01*
X126201225Y-73234300D01*
X126210822Y-73220595D01*
X126260650Y-73149432D01*
X126332550Y-73046749D01*
X126334873Y-73041767D01*
X126334876Y-73041762D01*
X126351108Y-73006951D01*
X126398025Y-72953666D01*
X126466302Y-72934205D01*
X126534262Y-72954747D01*
X126579498Y-73006951D01*
X126595613Y-73041511D01*
X126601096Y-73051007D01*
X126726055Y-73229467D01*
X126733111Y-73237875D01*
X126887152Y-73391916D01*
X126895560Y-73398972D01*
X127074020Y-73523931D01*
X127083516Y-73529414D01*
X127280974Y-73621490D01*
X127291266Y-73625236D01*
X127463530Y-73671394D01*
X127477626Y-73671058D01*
X127481027Y-73663116D01*
X127481027Y-72262000D01*
X127501029Y-72193879D01*
X127554685Y-72147386D01*
X127607027Y-72136000D01*
X127863027Y-72136000D01*
X127931148Y-72156002D01*
X127977641Y-72209658D01*
X127989027Y-72262000D01*
X127989027Y-73657967D01*
X127993000Y-73671498D01*
X128001549Y-73672727D01*
X128178788Y-73625236D01*
X128189080Y-73621490D01*
X128386538Y-73529414D01*
X128396034Y-73523931D01*
X128574494Y-73398972D01*
X128582902Y-73391916D01*
X128736943Y-73237875D01*
X128743999Y-73229467D01*
X128868958Y-73051007D01*
X128874441Y-73041511D01*
X128966517Y-72844053D01*
X128970263Y-72833761D01*
X129026652Y-72623312D01*
X129028555Y-72612520D01*
X129039272Y-72490026D01*
X129065135Y-72423908D01*
X129122639Y-72382269D01*
X129193526Y-72378328D01*
X129253887Y-72411913D01*
X131407595Y-74565621D01*
X131441621Y-74627933D01*
X131444500Y-74654716D01*
X131444500Y-75499697D01*
X131424498Y-75567818D01*
X131412143Y-75583999D01*
X131349650Y-75653405D01*
X131289207Y-75690643D01*
X131218223Y-75689291D01*
X131166921Y-75658188D01*
X130486790Y-74978057D01*
X130452764Y-74915745D01*
X130450575Y-74902132D01*
X130434232Y-74746635D01*
X130434232Y-74746633D01*
X130433542Y-74740072D01*
X130374527Y-74558444D01*
X130367660Y-74546549D01*
X130292941Y-74417134D01*
X130279040Y-74393056D01*
X130262240Y-74374397D01*
X130155675Y-74256045D01*
X130155674Y-74256044D01*
X130151253Y-74251134D01*
X129996752Y-74138882D01*
X129990724Y-74136198D01*
X129990722Y-74136197D01*
X129828319Y-74063891D01*
X129828318Y-74063891D01*
X129822288Y-74061206D01*
X129713480Y-74038078D01*
X129641944Y-74022872D01*
X129641939Y-74022872D01*
X129635487Y-74021500D01*
X129444513Y-74021500D01*
X129438061Y-74022872D01*
X129438056Y-74022872D01*
X129366520Y-74038078D01*
X129257712Y-74061206D01*
X129251682Y-74063891D01*
X129251681Y-74063891D01*
X129089278Y-74136197D01*
X129089276Y-74136198D01*
X129083248Y-74138882D01*
X128928747Y-74251134D01*
X128924326Y-74256044D01*
X128924325Y-74256045D01*
X128817761Y-74374397D01*
X128800960Y-74393056D01*
X128787059Y-74417134D01*
X128712341Y-74546549D01*
X128705473Y-74558444D01*
X128646458Y-74740072D01*
X128645768Y-74746633D01*
X128645768Y-74746635D01*
X128629578Y-74900673D01*
X128626496Y-74930000D01*
X128627186Y-74936565D01*
X128645663Y-75112360D01*
X128646458Y-75119928D01*
X128705473Y-75301556D01*
X128708776Y-75307278D01*
X128708777Y-75307279D01*
X128742686Y-75366010D01*
X128800960Y-75466944D01*
X128805378Y-75471851D01*
X128805379Y-75471852D01*
X128870394Y-75544058D01*
X128928747Y-75608866D01*
X129083248Y-75721118D01*
X129089276Y-75723802D01*
X129089278Y-75723803D01*
X129251681Y-75796109D01*
X129257712Y-75798794D01*
X129351112Y-75818647D01*
X129438056Y-75837128D01*
X129438061Y-75837128D01*
X129444513Y-75838500D01*
X129497578Y-75838500D01*
X129565699Y-75858502D01*
X129586673Y-75875405D01*
X139163061Y-85451794D01*
X139197087Y-85514106D01*
X139199966Y-85540889D01*
X139199966Y-90226868D01*
X139179964Y-90294989D01*
X139132146Y-90338631D01*
X139109073Y-90350642D01*
X139104940Y-90353745D01*
X139104937Y-90353747D01*
X138983972Y-90444570D01*
X138930431Y-90484770D01*
X138926859Y-90488508D01*
X138816030Y-90604484D01*
X138776095Y-90646273D01*
X138668667Y-90803756D01*
X138613759Y-90848756D01*
X138543234Y-90856927D01*
X138479487Y-90825673D01*
X138458790Y-90801189D01*
X138378288Y-90676752D01*
X138378286Y-90676749D01*
X138375480Y-90672412D01*
X138225136Y-90507186D01*
X138221085Y-90503987D01*
X138221081Y-90503983D01*
X138053880Y-90371935D01*
X138053876Y-90371933D01*
X138049825Y-90368733D01*
X138045297Y-90366233D01*
X137995295Y-90338631D01*
X137854255Y-90260773D01*
X137849386Y-90259049D01*
X137849382Y-90259047D01*
X137648553Y-90187930D01*
X137648549Y-90187929D01*
X137643678Y-90186204D01*
X137638585Y-90185297D01*
X137638582Y-90185296D01*
X137428839Y-90147935D01*
X137428833Y-90147934D01*
X137423750Y-90147029D01*
X137349918Y-90146127D01*
X137205547Y-90144363D01*
X137205545Y-90144363D01*
X137200377Y-90144300D01*
X136979557Y-90178090D01*
X136767222Y-90247492D01*
X136569073Y-90350642D01*
X136564940Y-90353745D01*
X136564937Y-90353747D01*
X136443972Y-90444570D01*
X136390431Y-90484770D01*
X136334003Y-90543819D01*
X136309749Y-90569199D01*
X136248225Y-90604629D01*
X136177312Y-90601172D01*
X136119526Y-90559926D01*
X136100673Y-90526378D01*
X136059233Y-90415838D01*
X136056081Y-90407430D01*
X135968727Y-90290874D01*
X135852171Y-90203520D01*
X135715782Y-90152390D01*
X135653600Y-90145635D01*
X133857332Y-90145635D01*
X133795150Y-90152390D01*
X133658761Y-90203520D01*
X133542205Y-90290874D01*
X133454851Y-90407430D01*
X133403721Y-90543819D01*
X133396966Y-90606001D01*
X133396966Y-91296713D01*
X133376964Y-91364834D01*
X133323308Y-91411327D01*
X133253034Y-91421431D01*
X133188454Y-91391937D01*
X133181871Y-91385808D01*
X126402405Y-84606341D01*
X126368379Y-84544029D01*
X126365500Y-84517246D01*
X126365500Y-82185937D01*
X126385502Y-82117816D01*
X126439158Y-82071323D01*
X126509432Y-82061219D01*
X126542552Y-82072680D01*
X126543248Y-82071118D01*
X126717712Y-82148794D01*
X126811112Y-82168647D01*
X126898056Y-82187128D01*
X126898061Y-82187128D01*
X126904513Y-82188500D01*
X127095487Y-82188500D01*
X127101939Y-82187128D01*
X127101944Y-82187128D01*
X127188888Y-82168647D01*
X127282288Y-82148794D01*
X127288319Y-82146109D01*
X127450722Y-82073803D01*
X127450724Y-82073802D01*
X127456752Y-82071118D01*
X127611253Y-81958866D01*
X127739040Y-81816944D01*
X127834527Y-81651556D01*
X127893542Y-81469928D01*
X127910575Y-81307867D01*
X127937588Y-81242210D01*
X127946790Y-81231942D01*
X128663477Y-80515255D01*
X128671803Y-80507678D01*
X128678303Y-80503553D01*
X128725101Y-80453718D01*
X128727855Y-80450877D01*
X128747638Y-80431094D01*
X128750129Y-80427883D01*
X128757838Y-80418856D01*
X128788217Y-80386506D01*
X128794349Y-80375352D01*
X128798022Y-80368671D01*
X128808876Y-80352147D01*
X128816491Y-80342330D01*
X128816492Y-80342329D01*
X128821349Y-80336067D01*
X128838969Y-80295350D01*
X128844192Y-80284689D01*
X128861749Y-80252753D01*
X128861751Y-80252748D01*
X128865569Y-80245803D01*
X128867539Y-80238129D01*
X128867542Y-80238122D01*
X128870632Y-80226087D01*
X128877036Y-80207382D01*
X128881967Y-80195987D01*
X128885117Y-80188708D01*
X128892060Y-80144873D01*
X128894467Y-80133251D01*
X128905500Y-80090282D01*
X128905500Y-80069935D01*
X128907051Y-80050224D01*
X128908995Y-80037950D01*
X128910235Y-80030121D01*
X128906059Y-79985944D01*
X128905500Y-79974086D01*
X128905500Y-79440303D01*
X128925502Y-79372182D01*
X128937864Y-79355993D01*
X129004621Y-79281852D01*
X129004622Y-79281851D01*
X129009040Y-79276944D01*
X129104527Y-79111556D01*
X129163542Y-78929928D01*
X129183504Y-78740000D01*
X129163542Y-78550072D01*
X129104527Y-78368444D01*
X129086882Y-78337881D01*
X129053759Y-78280512D01*
X129009040Y-78203056D01*
X128998513Y-78191364D01*
X128885675Y-78066045D01*
X128885674Y-78066044D01*
X128881253Y-78061134D01*
X128782157Y-77989136D01*
X128732094Y-77952763D01*
X128732093Y-77952762D01*
X128726752Y-77948882D01*
X128720724Y-77946198D01*
X128720722Y-77946197D01*
X128558319Y-77873891D01*
X128558318Y-77873891D01*
X128552288Y-77871206D01*
X128458888Y-77851353D01*
X128371944Y-77832872D01*
X128371939Y-77832872D01*
X128365487Y-77831500D01*
X128174513Y-77831500D01*
X128168061Y-77832872D01*
X128168056Y-77832872D01*
X128081112Y-77851353D01*
X127987712Y-77871206D01*
X127981682Y-77873891D01*
X127981681Y-77873891D01*
X127819278Y-77946197D01*
X127819276Y-77946198D01*
X127813248Y-77948882D01*
X127807907Y-77952762D01*
X127807906Y-77952763D01*
X127757843Y-77989136D01*
X127658747Y-78061134D01*
X127654326Y-78066044D01*
X127654325Y-78066045D01*
X127541488Y-78191364D01*
X127530960Y-78203056D01*
X127486241Y-78280512D01*
X127453119Y-78337881D01*
X127435473Y-78368444D01*
X127376458Y-78550072D01*
X127356496Y-78740000D01*
X127376458Y-78929928D01*
X127435473Y-79111556D01*
X127530960Y-79276944D01*
X127535378Y-79281851D01*
X127535379Y-79281852D01*
X127602136Y-79355993D01*
X127632854Y-79420000D01*
X127634500Y-79440303D01*
X127634500Y-79694577D01*
X127614498Y-79762698D01*
X127597595Y-79783672D01*
X127046672Y-80334595D01*
X126984360Y-80368621D01*
X126957577Y-80371500D01*
X126904513Y-80371500D01*
X126898061Y-80372872D01*
X126898056Y-80372872D01*
X126811112Y-80391353D01*
X126717712Y-80411206D01*
X126711682Y-80413891D01*
X126711681Y-80413891D01*
X126666729Y-80433905D01*
X126543248Y-80488882D01*
X126542056Y-80486204D01*
X126485486Y-80499919D01*
X126418398Y-80476689D01*
X126374519Y-80420875D01*
X126365500Y-80374063D01*
X126365500Y-79440303D01*
X126385502Y-79372182D01*
X126397864Y-79355993D01*
X126464621Y-79281852D01*
X126464622Y-79281851D01*
X126469040Y-79276944D01*
X126564527Y-79111556D01*
X126623542Y-78929928D01*
X126643504Y-78740000D01*
X126623542Y-78550072D01*
X126564527Y-78368444D01*
X126546882Y-78337881D01*
X126513759Y-78280512D01*
X126469040Y-78203056D01*
X126458513Y-78191364D01*
X126345675Y-78066045D01*
X126345674Y-78066044D01*
X126341253Y-78061134D01*
X126242157Y-77989136D01*
X126192094Y-77952763D01*
X126192093Y-77952762D01*
X126186752Y-77948882D01*
X126180724Y-77946198D01*
X126180722Y-77946197D01*
X126018319Y-77873891D01*
X126018318Y-77873891D01*
X126012288Y-77871206D01*
X125918888Y-77851353D01*
X125831944Y-77832872D01*
X125831939Y-77832872D01*
X125825487Y-77831500D01*
X125634513Y-77831500D01*
X125628061Y-77832872D01*
X125628056Y-77832872D01*
X125541112Y-77851353D01*
X125447712Y-77871206D01*
X125441682Y-77873891D01*
X125441681Y-77873891D01*
X125279278Y-77946197D01*
X125279276Y-77946198D01*
X125273248Y-77948882D01*
X125267907Y-77952762D01*
X125267906Y-77952763D01*
X125217843Y-77989136D01*
X125118747Y-78061134D01*
X125114326Y-78066044D01*
X125114325Y-78066045D01*
X125001488Y-78191364D01*
X124990960Y-78203056D01*
X124946241Y-78280512D01*
X124913119Y-78337881D01*
X124895473Y-78368444D01*
X124836458Y-78550072D01*
X124816496Y-78740000D01*
X124836458Y-78929928D01*
X124895473Y-79111556D01*
X124990960Y-79276944D01*
X124995378Y-79281851D01*
X124995379Y-79281852D01*
X125062136Y-79355993D01*
X125092854Y-79420000D01*
X125094500Y-79440303D01*
X125094500Y-84753649D01*
X125093970Y-84764883D01*
X125092292Y-84772388D01*
X125092541Y-84780307D01*
X125094438Y-84840681D01*
X125094500Y-84844638D01*
X125094500Y-84872652D01*
X125094996Y-84876577D01*
X125094996Y-84876578D01*
X125095008Y-84876673D01*
X125095941Y-84888518D01*
X125097335Y-84932874D01*
X125099547Y-84940486D01*
X125103013Y-84952417D01*
X125107023Y-84971781D01*
X125109573Y-84991968D01*
X125112489Y-84999332D01*
X125112490Y-84999337D01*
X125125907Y-85033225D01*
X125129752Y-85044454D01*
X125142131Y-85087062D01*
X125146169Y-85093889D01*
X125146170Y-85093892D01*
X125152488Y-85104575D01*
X125161188Y-85122333D01*
X125165761Y-85133884D01*
X125165765Y-85133890D01*
X125168681Y-85141257D01*
X125173339Y-85147668D01*
X125173340Y-85147670D01*
X125194764Y-85177157D01*
X125201281Y-85187079D01*
X125219826Y-85218437D01*
X125219829Y-85218441D01*
X125223866Y-85225267D01*
X125238250Y-85239651D01*
X125251091Y-85254685D01*
X125263058Y-85271156D01*
X125269166Y-85276209D01*
X125297255Y-85299446D01*
X125306035Y-85307436D01*
X133073216Y-93074618D01*
X133080792Y-93082944D01*
X133084913Y-93089438D01*
X133090688Y-93094861D01*
X133134731Y-93136220D01*
X133137573Y-93138975D01*
X133157372Y-93158774D01*
X133160503Y-93161203D01*
X133160508Y-93161207D01*
X133160594Y-93161274D01*
X133169619Y-93168982D01*
X133196181Y-93193926D01*
X133196185Y-93193929D01*
X133201960Y-93199352D01*
X133208906Y-93203171D01*
X133208911Y-93203174D01*
X133219794Y-93209157D01*
X133236322Y-93220013D01*
X133246137Y-93227627D01*
X133246140Y-93227629D01*
X133252399Y-93232484D01*
X133259669Y-93235630D01*
X133259674Y-93235633D01*
X133293116Y-93250104D01*
X133303777Y-93255327D01*
X133335713Y-93272884D01*
X133335718Y-93272886D01*
X133342663Y-93276704D01*
X133350337Y-93278674D01*
X133350344Y-93278677D01*
X133362379Y-93281767D01*
X133381084Y-93288171D01*
X133392479Y-93293102D01*
X133399758Y-93296252D01*
X133426440Y-93300478D01*
X133490593Y-93330890D01*
X133528120Y-93391159D01*
X133527106Y-93462148D01*
X133521017Y-93477977D01*
X133478805Y-93568917D01*
X133475241Y-93578605D01*
X133419855Y-93778318D01*
X133421378Y-93786742D01*
X133433758Y-93790135D01*
X134883466Y-93790135D01*
X134951587Y-93810137D01*
X134998080Y-93863793D01*
X135009466Y-93916135D01*
X135009466Y-95362652D01*
X135013530Y-95376494D01*
X135026944Y-95378528D01*
X135033650Y-95377669D01*
X135043728Y-95375527D01*
X135247721Y-95314326D01*
X135257308Y-95310568D01*
X135448561Y-95216874D01*
X135457411Y-95211599D01*
X135630794Y-95087927D01*
X135638666Y-95081274D01*
X135789518Y-94930947D01*
X135796196Y-94923100D01*
X135923488Y-94745954D01*
X135924745Y-94746857D01*
X135971839Y-94703497D01*
X136041777Y-94691280D01*
X136107217Y-94718813D01*
X136135045Y-94750646D01*
X136195453Y-94849223D01*
X136341716Y-95018073D01*
X136345691Y-95021373D01*
X136345694Y-95021376D01*
X136476001Y-95129559D01*
X136515636Y-95188462D01*
X136521267Y-95218590D01*
X136524251Y-95266012D01*
X136524500Y-95273925D01*
X136524500Y-95289983D01*
X136524997Y-95293917D01*
X136524997Y-95293918D01*
X136526513Y-95305923D01*
X136527257Y-95313799D01*
X136530297Y-95362116D01*
X136530795Y-95370027D01*
X136533244Y-95377565D01*
X136533245Y-95377569D01*
X136533359Y-95377920D01*
X136538531Y-95401056D01*
X136538579Y-95401435D01*
X136538580Y-95401440D01*
X136539573Y-95409299D01*
X136542489Y-95416664D01*
X136542490Y-95416668D01*
X136560320Y-95461700D01*
X136563002Y-95469150D01*
X136575102Y-95506389D01*
X136580412Y-95522733D01*
X136584655Y-95529420D01*
X136584657Y-95529423D01*
X136584860Y-95529742D01*
X136595626Y-95550872D01*
X136598681Y-95558588D01*
X136603341Y-95565002D01*
X136631803Y-95604177D01*
X136636251Y-95610723D01*
X136662195Y-95651604D01*
X136662198Y-95651607D01*
X136666447Y-95658303D01*
X136672494Y-95663981D01*
X136688182Y-95681776D01*
X136693058Y-95688487D01*
X136736047Y-95724051D01*
X136736474Y-95724404D01*
X136742408Y-95729636D01*
X136755309Y-95741750D01*
X136783494Y-95768217D01*
X136790438Y-95772035D01*
X136790440Y-95772036D01*
X136790768Y-95772216D01*
X136810379Y-95785544D01*
X136810662Y-95785778D01*
X136810666Y-95785781D01*
X136816776Y-95790835D01*
X136824803Y-95794612D01*
X136867764Y-95814828D01*
X136874796Y-95818410D01*
X136924197Y-95845569D01*
X136931871Y-95847539D01*
X136931873Y-95847540D01*
X136932076Y-95847592D01*
X136932235Y-95847633D01*
X136954548Y-95855666D01*
X136954884Y-95855824D01*
X136954887Y-95855825D01*
X136962059Y-95859200D01*
X136969844Y-95860685D01*
X136969847Y-95860686D01*
X137017412Y-95869759D01*
X137025137Y-95871486D01*
X137035786Y-95874220D01*
X137079718Y-95885500D01*
X137088017Y-95885500D01*
X137111626Y-95887732D01*
X137111991Y-95887802D01*
X137111996Y-95887802D01*
X137119779Y-95889287D01*
X137176014Y-95885749D01*
X137183925Y-95885500D01*
X156125980Y-95885500D01*
X156137214Y-95886030D01*
X156144719Y-95887708D01*
X156213012Y-95885562D01*
X156216969Y-95885500D01*
X156244983Y-95885500D01*
X156248908Y-95885004D01*
X156248909Y-95885004D01*
X156249004Y-95884992D01*
X156260849Y-95884059D01*
X156290670Y-95883122D01*
X156297282Y-95882914D01*
X156297283Y-95882914D01*
X156305205Y-95882665D01*
X156324749Y-95876987D01*
X156344112Y-95872977D01*
X156356440Y-95871420D01*
X156356442Y-95871420D01*
X156364299Y-95870427D01*
X156371663Y-95867511D01*
X156371668Y-95867510D01*
X156405556Y-95854093D01*
X156416785Y-95850248D01*
X156434996Y-95844957D01*
X156459393Y-95837869D01*
X156466220Y-95833831D01*
X156466223Y-95833830D01*
X156476906Y-95827512D01*
X156494664Y-95818812D01*
X156506215Y-95814239D01*
X156506221Y-95814235D01*
X156513588Y-95811319D01*
X156549491Y-95785234D01*
X156559410Y-95778719D01*
X156590768Y-95760174D01*
X156590772Y-95760171D01*
X156597598Y-95756134D01*
X156611982Y-95741750D01*
X156627016Y-95728909D01*
X156637073Y-95721602D01*
X156643487Y-95716942D01*
X156671778Y-95682744D01*
X156679767Y-95673965D01*
X156890324Y-95463408D01*
X172461298Y-95463408D01*
X172468053Y-95525590D01*
X172519183Y-95661979D01*
X172606537Y-95778535D01*
X172723093Y-95865889D01*
X172731502Y-95869041D01*
X172731503Y-95869042D01*
X172840758Y-95910000D01*
X172897523Y-95952641D01*
X172922223Y-96019203D01*
X172907016Y-96088552D01*
X172887623Y-96115033D01*
X172764388Y-96243991D01*
X172757902Y-96252001D01*
X172637896Y-96427923D01*
X172632798Y-96436897D01*
X172543136Y-96630057D01*
X172539573Y-96639744D01*
X172484187Y-96839457D01*
X172485710Y-96847881D01*
X172498090Y-96851274D01*
X173947798Y-96851274D01*
X174015919Y-96871276D01*
X174062412Y-96924932D01*
X174073798Y-96977274D01*
X174073798Y-98423791D01*
X174077862Y-98437633D01*
X174091276Y-98439667D01*
X174097982Y-98438808D01*
X174108060Y-98436666D01*
X174312053Y-98375465D01*
X174321640Y-98371707D01*
X174512893Y-98278013D01*
X174521743Y-98272738D01*
X174695126Y-98149066D01*
X174702998Y-98142413D01*
X174853850Y-97992086D01*
X174860528Y-97984239D01*
X174987820Y-97807093D01*
X174989077Y-97807996D01*
X175036171Y-97764636D01*
X175106109Y-97752419D01*
X175171549Y-97779952D01*
X175199377Y-97811785D01*
X175212230Y-97832759D01*
X175259785Y-97910362D01*
X175406048Y-98079212D01*
X175577924Y-98221906D01*
X175770798Y-98334612D01*
X175979490Y-98414304D01*
X175984558Y-98415335D01*
X175984561Y-98415336D01*
X176079660Y-98434684D01*
X176198395Y-98458841D01*
X176203570Y-98459031D01*
X176203572Y-98459031D01*
X176416471Y-98466838D01*
X176416475Y-98466838D01*
X176421635Y-98467027D01*
X176426755Y-98466371D01*
X176426757Y-98466371D01*
X176638086Y-98439299D01*
X176638087Y-98439299D01*
X176643214Y-98438642D01*
X176648164Y-98437157D01*
X176852227Y-98375935D01*
X176852232Y-98375933D01*
X176857182Y-98374448D01*
X177057792Y-98276170D01*
X177239658Y-98146447D01*
X177280771Y-98105478D01*
X177394233Y-97992411D01*
X177397894Y-97988763D01*
X177406623Y-97976616D01*
X177528251Y-97807351D01*
X177529574Y-97808302D01*
X177576443Y-97765131D01*
X177646378Y-97752899D01*
X177711824Y-97780418D01*
X177739673Y-97812268D01*
X177752230Y-97832759D01*
X177799785Y-97910362D01*
X177946048Y-98079212D01*
X178117924Y-98221906D01*
X178310798Y-98334612D01*
X178519490Y-98414304D01*
X178524558Y-98415335D01*
X178524561Y-98415336D01*
X178619660Y-98434684D01*
X178738395Y-98458841D01*
X178743570Y-98459031D01*
X178743572Y-98459031D01*
X178956471Y-98466838D01*
X178956475Y-98466838D01*
X178961635Y-98467027D01*
X178966755Y-98466371D01*
X178966757Y-98466371D01*
X179178086Y-98439299D01*
X179178087Y-98439299D01*
X179183214Y-98438642D01*
X179188164Y-98437157D01*
X179392227Y-98375935D01*
X179392232Y-98375933D01*
X179397182Y-98374448D01*
X179597792Y-98276170D01*
X179779658Y-98146447D01*
X179820771Y-98105478D01*
X179934233Y-97992411D01*
X179937894Y-97988763D01*
X179946623Y-97976616D01*
X180065233Y-97811551D01*
X180068251Y-97807351D01*
X180081793Y-97779952D01*
X180164934Y-97611727D01*
X180164935Y-97611725D01*
X180167228Y-97607085D01*
X180232168Y-97393343D01*
X180261327Y-97171864D01*
X180261409Y-97168514D01*
X180262872Y-97108639D01*
X180262872Y-97108635D01*
X180262954Y-97105274D01*
X180244650Y-96882635D01*
X180190229Y-96665976D01*
X180101152Y-96461114D01*
X179979812Y-96273551D01*
X179829468Y-96108325D01*
X179825417Y-96105126D01*
X179825413Y-96105122D01*
X179658212Y-95973074D01*
X179658208Y-95973072D01*
X179654157Y-95969872D01*
X179612851Y-95947070D01*
X179562882Y-95896638D01*
X179548110Y-95827195D01*
X179573226Y-95760790D01*
X179600578Y-95734183D01*
X179664641Y-95688487D01*
X179779658Y-95606447D01*
X179937894Y-95448763D01*
X179960957Y-95416668D01*
X180065233Y-95271551D01*
X180068251Y-95267351D01*
X180089118Y-95225131D01*
X180164934Y-95071727D01*
X180164935Y-95071725D01*
X180167228Y-95067085D01*
X180204005Y-94946039D01*
X180230663Y-94858297D01*
X180230663Y-94858295D01*
X180232168Y-94853343D01*
X180261327Y-94631864D01*
X180261822Y-94611621D01*
X180262872Y-94568639D01*
X180262872Y-94568635D01*
X180262954Y-94565274D01*
X180244650Y-94342635D01*
X180190229Y-94125976D01*
X180101152Y-93921114D01*
X179979812Y-93733551D01*
X179829468Y-93568325D01*
X179825417Y-93565126D01*
X179825413Y-93565122D01*
X179658212Y-93433074D01*
X179658208Y-93433072D01*
X179654157Y-93429872D01*
X179458587Y-93321912D01*
X179453718Y-93320188D01*
X179453714Y-93320186D01*
X179252885Y-93249069D01*
X179252881Y-93249068D01*
X179248010Y-93247343D01*
X179242917Y-93246436D01*
X179242914Y-93246435D01*
X179033171Y-93209074D01*
X179033165Y-93209073D01*
X179028082Y-93208168D01*
X178954250Y-93207266D01*
X178809879Y-93205502D01*
X178809877Y-93205502D01*
X178804709Y-93205439D01*
X178583889Y-93239229D01*
X178371554Y-93308631D01*
X178173405Y-93411781D01*
X178169272Y-93414884D01*
X178169269Y-93414886D01*
X177998898Y-93542804D01*
X177994763Y-93545909D01*
X177991191Y-93549647D01*
X177844657Y-93702986D01*
X177840427Y-93707412D01*
X177732999Y-93864895D01*
X177678091Y-93909895D01*
X177607566Y-93918066D01*
X177543819Y-93886812D01*
X177523122Y-93862328D01*
X177442620Y-93737891D01*
X177442618Y-93737888D01*
X177439812Y-93733551D01*
X177289468Y-93568325D01*
X177285417Y-93565126D01*
X177285413Y-93565122D01*
X177118212Y-93433074D01*
X177118208Y-93433072D01*
X177114157Y-93429872D01*
X176918587Y-93321912D01*
X176913718Y-93320188D01*
X176913714Y-93320186D01*
X176712885Y-93249069D01*
X176712881Y-93249068D01*
X176708010Y-93247343D01*
X176702917Y-93246436D01*
X176702914Y-93246435D01*
X176493171Y-93209074D01*
X176493165Y-93209073D01*
X176488082Y-93208168D01*
X176414250Y-93207266D01*
X176269879Y-93205502D01*
X176269877Y-93205502D01*
X176264709Y-93205439D01*
X176043889Y-93239229D01*
X175831554Y-93308631D01*
X175633405Y-93411781D01*
X175629272Y-93414884D01*
X175629269Y-93414886D01*
X175458898Y-93542804D01*
X175454763Y-93545909D01*
X175374668Y-93629724D01*
X175374081Y-93630338D01*
X175312557Y-93665768D01*
X175241644Y-93662311D01*
X175183858Y-93621065D01*
X175165005Y-93587517D01*
X175123565Y-93476977D01*
X175120413Y-93468569D01*
X175033059Y-93352013D01*
X174916503Y-93264659D01*
X174780114Y-93213529D01*
X174717932Y-93206774D01*
X172921664Y-93206774D01*
X172859482Y-93213529D01*
X172723093Y-93264659D01*
X172606537Y-93352013D01*
X172519183Y-93468569D01*
X172468053Y-93604958D01*
X172461298Y-93667140D01*
X172461298Y-95463408D01*
X156890324Y-95463408D01*
X176091900Y-76261833D01*
X176154212Y-76227807D01*
X176206112Y-76227457D01*
X176383597Y-76263567D01*
X176388772Y-76263757D01*
X176388774Y-76263757D01*
X176601673Y-76271564D01*
X176601677Y-76271564D01*
X176606837Y-76271753D01*
X176611957Y-76271097D01*
X176611959Y-76271097D01*
X176681153Y-76262233D01*
X176828416Y-76243368D01*
X176833370Y-76241882D01*
X176833378Y-76241880D01*
X176872652Y-76230097D01*
X176943647Y-76229679D01*
X176997955Y-76261687D01*
X187326570Y-86590303D01*
X197649750Y-96913483D01*
X197657326Y-96921809D01*
X197661447Y-96928303D01*
X197667222Y-96933726D01*
X197711265Y-96975085D01*
X197714107Y-96977840D01*
X197733906Y-96997639D01*
X197737037Y-97000068D01*
X197737042Y-97000072D01*
X197737128Y-97000139D01*
X197746153Y-97007847D01*
X197772715Y-97032791D01*
X197772719Y-97032794D01*
X197778494Y-97038217D01*
X197785440Y-97042036D01*
X197785445Y-97042039D01*
X197796328Y-97048022D01*
X197812856Y-97058878D01*
X197822671Y-97066492D01*
X197822674Y-97066494D01*
X197828933Y-97071349D01*
X197836203Y-97074495D01*
X197836208Y-97074498D01*
X197869650Y-97088969D01*
X197880311Y-97094192D01*
X197912247Y-97111749D01*
X197912252Y-97111751D01*
X197919197Y-97115569D01*
X197926871Y-97117539D01*
X197926878Y-97117542D01*
X197938913Y-97120632D01*
X197957618Y-97127036D01*
X197969013Y-97131967D01*
X197976292Y-97135117D01*
X197991401Y-97137510D01*
X198020127Y-97142060D01*
X198031740Y-97144465D01*
X198074718Y-97155500D01*
X198095065Y-97155500D01*
X198114776Y-97157051D01*
X198127050Y-97158995D01*
X198134879Y-97160235D01*
X198142771Y-97159489D01*
X198179056Y-97156059D01*
X198190914Y-97155500D01*
X233608017Y-97155500D01*
X233631626Y-97157732D01*
X233631991Y-97157802D01*
X233631996Y-97157802D01*
X233639779Y-97159287D01*
X233696014Y-97155749D01*
X233703925Y-97155500D01*
X233719983Y-97155500D01*
X233723917Y-97155003D01*
X233723918Y-97155003D01*
X233735923Y-97153487D01*
X233743799Y-97152743D01*
X233792116Y-97149703D01*
X233792118Y-97149703D01*
X233800027Y-97149205D01*
X233807565Y-97146756D01*
X233807569Y-97146755D01*
X233807920Y-97146641D01*
X233831056Y-97141469D01*
X233831435Y-97141421D01*
X233831440Y-97141420D01*
X233839299Y-97140427D01*
X233846664Y-97137511D01*
X233846668Y-97137510D01*
X233891700Y-97119680D01*
X233899150Y-97116998D01*
X233945194Y-97102038D01*
X233945197Y-97102037D01*
X233952733Y-97099588D01*
X233959420Y-97095345D01*
X233959423Y-97095343D01*
X233959742Y-97095140D01*
X233980872Y-97084374D01*
X233988588Y-97081319D01*
X234034179Y-97048196D01*
X234040723Y-97043749D01*
X234081604Y-97017805D01*
X234081607Y-97017802D01*
X234088303Y-97013553D01*
X234093983Y-97007504D01*
X234111776Y-96991818D01*
X234112073Y-96991602D01*
X234118487Y-96986942D01*
X234154406Y-96943523D01*
X234159636Y-96937592D01*
X234192791Y-96902284D01*
X234198217Y-96896506D01*
X234202216Y-96889232D01*
X234215544Y-96869621D01*
X234215778Y-96869338D01*
X234215781Y-96869334D01*
X234220835Y-96863224D01*
X234244828Y-96812236D01*
X234248410Y-96805204D01*
X234275569Y-96755803D01*
X234277633Y-96747765D01*
X234285666Y-96725452D01*
X234285824Y-96725116D01*
X234285825Y-96725113D01*
X234289200Y-96717941D01*
X234295232Y-96686323D01*
X234299759Y-96662588D01*
X234301486Y-96654863D01*
X234307855Y-96630057D01*
X234315500Y-96600282D01*
X234315500Y-96591983D01*
X234317732Y-96568374D01*
X234317802Y-96568009D01*
X234317802Y-96568004D01*
X234319287Y-96560221D01*
X234315749Y-96503986D01*
X234315500Y-96496075D01*
X234315500Y-95674642D01*
X234335502Y-95606521D01*
X234352405Y-95585547D01*
X234953041Y-94984911D01*
X235015353Y-94950885D01*
X235067254Y-94950535D01*
X235244739Y-94986645D01*
X235249914Y-94986835D01*
X235249916Y-94986835D01*
X235462815Y-94994642D01*
X235462819Y-94994642D01*
X235467979Y-94994831D01*
X235473099Y-94994175D01*
X235473101Y-94994175D01*
X235684430Y-94967103D01*
X235684431Y-94967103D01*
X235689558Y-94966446D01*
X235702751Y-94962488D01*
X235898571Y-94903739D01*
X235898576Y-94903737D01*
X235903526Y-94902252D01*
X236104136Y-94803974D01*
X236286002Y-94674251D01*
X236328538Y-94631864D01*
X236419878Y-94540842D01*
X236444238Y-94516567D01*
X236477292Y-94470568D01*
X236574595Y-94335155D01*
X236575918Y-94336106D01*
X236622787Y-94292935D01*
X236692722Y-94280703D01*
X236758168Y-94308222D01*
X236786017Y-94340072D01*
X236796562Y-94357279D01*
X236846129Y-94438166D01*
X236992392Y-94607016D01*
X237164268Y-94749710D01*
X237357142Y-94862416D01*
X237565834Y-94942108D01*
X237570902Y-94943139D01*
X237570905Y-94943140D01*
X237666004Y-94962488D01*
X237784739Y-94986645D01*
X237789914Y-94986835D01*
X237789916Y-94986835D01*
X238002815Y-94994642D01*
X238002819Y-94994642D01*
X238007979Y-94994831D01*
X238013099Y-94994175D01*
X238013101Y-94994175D01*
X238224430Y-94967103D01*
X238224431Y-94967103D01*
X238229558Y-94966446D01*
X238242751Y-94962488D01*
X238438571Y-94903739D01*
X238438576Y-94903737D01*
X238443526Y-94902252D01*
X238644136Y-94803974D01*
X238826002Y-94674251D01*
X238868538Y-94631864D01*
X238959878Y-94540842D01*
X238984238Y-94516567D01*
X239017292Y-94470568D01*
X239111577Y-94339355D01*
X239114595Y-94335155D01*
X239123939Y-94316250D01*
X239211278Y-94139531D01*
X239211279Y-94139529D01*
X239213572Y-94134889D01*
X239278512Y-93921147D01*
X239307671Y-93699668D01*
X239309298Y-93633078D01*
X239290994Y-93410439D01*
X239236573Y-93193780D01*
X239147496Y-92988918D01*
X239048245Y-92835499D01*
X239028964Y-92805695D01*
X239028962Y-92805692D01*
X239026156Y-92801355D01*
X238875812Y-92636129D01*
X238871761Y-92632930D01*
X238871757Y-92632926D01*
X238704556Y-92500878D01*
X238704552Y-92500876D01*
X238700501Y-92497676D01*
X238659195Y-92474874D01*
X238609226Y-92424442D01*
X238594454Y-92354999D01*
X238619570Y-92288594D01*
X238646922Y-92261987D01*
X238690745Y-92230728D01*
X238826002Y-92134251D01*
X238984238Y-91976567D01*
X239114595Y-91795155D01*
X239130781Y-91762406D01*
X239211278Y-91599531D01*
X239211279Y-91599529D01*
X239213572Y-91594889D01*
X239278512Y-91381147D01*
X239307671Y-91159668D01*
X239309298Y-91093078D01*
X239290994Y-90870439D01*
X239236573Y-90653780D01*
X239147496Y-90448918D01*
X239045253Y-90290874D01*
X239028964Y-90265695D01*
X239028962Y-90265692D01*
X239026156Y-90261355D01*
X238875812Y-90096129D01*
X238871761Y-90092930D01*
X238871757Y-90092926D01*
X238704556Y-89960878D01*
X238704552Y-89960876D01*
X238700501Y-89957676D01*
X238504931Y-89849716D01*
X238500062Y-89847992D01*
X238500058Y-89847990D01*
X238299229Y-89776873D01*
X238299225Y-89776872D01*
X238294354Y-89775147D01*
X238289261Y-89774240D01*
X238289258Y-89774239D01*
X238079515Y-89736878D01*
X238079509Y-89736877D01*
X238074426Y-89735972D01*
X238000594Y-89735070D01*
X237856223Y-89733306D01*
X237856221Y-89733306D01*
X237851053Y-89733243D01*
X237630233Y-89767033D01*
X237417898Y-89836435D01*
X237219749Y-89939585D01*
X237215616Y-89942688D01*
X237215613Y-89942690D01*
X237045242Y-90070608D01*
X237041107Y-90073713D01*
X237037535Y-90077451D01*
X236894749Y-90226868D01*
X236886771Y-90235216D01*
X236779343Y-90392699D01*
X236724435Y-90437699D01*
X236653910Y-90445870D01*
X236590163Y-90414616D01*
X236569466Y-90390132D01*
X236488964Y-90265695D01*
X236488962Y-90265692D01*
X236486156Y-90261355D01*
X236335812Y-90096129D01*
X236331761Y-90092930D01*
X236331757Y-90092926D01*
X236164556Y-89960878D01*
X236164552Y-89960876D01*
X236160501Y-89957676D01*
X235964931Y-89849716D01*
X235960062Y-89847992D01*
X235960058Y-89847990D01*
X235759229Y-89776873D01*
X235759225Y-89776872D01*
X235754354Y-89775147D01*
X235749261Y-89774240D01*
X235749258Y-89774239D01*
X235539515Y-89736878D01*
X235539509Y-89736877D01*
X235534426Y-89735972D01*
X235460594Y-89735070D01*
X235316223Y-89733306D01*
X235316221Y-89733306D01*
X235311053Y-89733243D01*
X235090233Y-89767033D01*
X234877898Y-89836435D01*
X234679749Y-89939585D01*
X234675616Y-89942688D01*
X234675613Y-89942690D01*
X234505242Y-90070608D01*
X234501107Y-90073713D01*
X234425922Y-90152390D01*
X234420425Y-90158142D01*
X234358901Y-90193572D01*
X234287988Y-90190115D01*
X234230202Y-90148869D01*
X234211349Y-90115321D01*
X234169909Y-90004781D01*
X234166757Y-89996373D01*
X234079403Y-89879817D01*
X233962847Y-89792463D01*
X233826458Y-89741333D01*
X233764276Y-89734578D01*
X231968008Y-89734578D01*
X231905826Y-89741333D01*
X231769437Y-89792463D01*
X231652881Y-89879817D01*
X231565527Y-89996373D01*
X231514397Y-90132762D01*
X231507642Y-90194944D01*
X231507642Y-91991212D01*
X231514397Y-92053394D01*
X231565527Y-92189783D01*
X231652881Y-92306339D01*
X231769437Y-92393693D01*
X231777846Y-92396845D01*
X231777847Y-92396846D01*
X231887102Y-92437804D01*
X231943867Y-92480445D01*
X231968567Y-92547007D01*
X231953360Y-92616356D01*
X231933967Y-92642837D01*
X231810732Y-92771795D01*
X231804246Y-92779805D01*
X231684240Y-92955727D01*
X231679142Y-92964701D01*
X231589480Y-93157861D01*
X231585917Y-93167548D01*
X231530531Y-93367261D01*
X231532054Y-93375685D01*
X231544434Y-93379078D01*
X232994142Y-93379078D01*
X233062263Y-93399080D01*
X233108756Y-93452736D01*
X233120142Y-93505078D01*
X233120142Y-94951595D01*
X233125011Y-94968177D01*
X233125011Y-95039173D01*
X233119756Y-95053705D01*
X233111023Y-95073886D01*
X233105807Y-95084534D01*
X233084431Y-95123417D01*
X233082460Y-95131092D01*
X233082458Y-95131098D01*
X233079369Y-95143131D01*
X233072966Y-95161833D01*
X233064883Y-95180512D01*
X233063644Y-95188337D01*
X233057940Y-95224347D01*
X233055535Y-95235960D01*
X233044500Y-95278938D01*
X233044500Y-95299285D01*
X233042949Y-95318996D01*
X233039765Y-95339099D01*
X233040511Y-95346991D01*
X233043941Y-95383276D01*
X233044500Y-95395134D01*
X233044500Y-95758500D01*
X233024498Y-95826621D01*
X232970842Y-95873114D01*
X232918500Y-95884500D01*
X198470422Y-95884500D01*
X198402301Y-95864498D01*
X198381327Y-95847595D01*
X196434776Y-93901044D01*
X231534399Y-93901044D01*
X231564707Y-94035524D01*
X231567787Y-94045353D01*
X231647912Y-94242681D01*
X231652555Y-94251872D01*
X231763836Y-94433466D01*
X231769919Y-94441777D01*
X231909355Y-94602745D01*
X231916722Y-94609961D01*
X232080576Y-94745994D01*
X232089023Y-94751909D01*
X232272898Y-94859357D01*
X232282184Y-94863807D01*
X232481143Y-94939781D01*
X232491041Y-94942657D01*
X232594392Y-94963684D01*
X232608441Y-94962488D01*
X232612142Y-94952143D01*
X232612142Y-93905193D01*
X232607667Y-93889954D01*
X232606277Y-93888749D01*
X232598594Y-93887078D01*
X231549367Y-93887078D01*
X231535836Y-93891051D01*
X231534399Y-93901044D01*
X196434776Y-93901044D01*
X186313733Y-83780000D01*
X188316496Y-83780000D01*
X188336458Y-83969928D01*
X188395473Y-84151556D01*
X188398776Y-84157278D01*
X188398777Y-84157279D01*
X188411170Y-84178744D01*
X188490960Y-84316944D01*
X188495378Y-84321851D01*
X188495379Y-84321852D01*
X188584166Y-84420460D01*
X188618747Y-84458866D01*
X188634968Y-84470651D01*
X188761340Y-84562466D01*
X188773248Y-84571118D01*
X188779276Y-84573802D01*
X188779278Y-84573803D01*
X188935498Y-84643356D01*
X188947712Y-84648794D01*
X189041113Y-84668647D01*
X189128056Y-84687128D01*
X189128061Y-84687128D01*
X189134513Y-84688500D01*
X189325487Y-84688500D01*
X189331939Y-84687128D01*
X189331944Y-84687128D01*
X189418888Y-84668647D01*
X189512288Y-84648794D01*
X189524502Y-84643356D01*
X189680722Y-84573803D01*
X189680724Y-84573802D01*
X189686752Y-84571118D01*
X189698661Y-84562466D01*
X189825032Y-84470651D01*
X189841253Y-84458866D01*
X189875834Y-84420460D01*
X189964621Y-84321852D01*
X189964622Y-84321851D01*
X189969040Y-84316944D01*
X190048830Y-84178744D01*
X190061223Y-84157279D01*
X190061224Y-84157278D01*
X190064527Y-84151556D01*
X190123542Y-83969928D01*
X190140575Y-83807867D01*
X190167588Y-83742210D01*
X190176790Y-83731942D01*
X199496755Y-74411978D01*
X243703225Y-74411978D01*
X243703522Y-74417131D01*
X243703522Y-74417134D01*
X243710794Y-74543247D01*
X243716084Y-74634998D01*
X243717221Y-74640044D01*
X243717222Y-74640050D01*
X243728153Y-74688551D01*
X243765196Y-74852922D01*
X243849240Y-75059899D01*
X243889873Y-75126206D01*
X243963265Y-75245971D01*
X243965961Y-75250371D01*
X244112224Y-75419221D01*
X244116204Y-75422525D01*
X244120955Y-75426470D01*
X244160590Y-75485373D01*
X244162087Y-75556354D01*
X244124971Y-75616876D01*
X244084699Y-75641395D01*
X244052668Y-75653403D01*
X243969269Y-75684668D01*
X243852713Y-75772022D01*
X243765359Y-75888578D01*
X243714229Y-76024967D01*
X243707474Y-76087149D01*
X243707474Y-77883417D01*
X243714229Y-77945599D01*
X243765359Y-78081988D01*
X243852713Y-78198544D01*
X243969269Y-78285898D01*
X244105658Y-78337028D01*
X244167840Y-78343783D01*
X245964108Y-78343783D01*
X246026290Y-78337028D01*
X246162679Y-78285898D01*
X246279235Y-78198544D01*
X246366589Y-78081988D01*
X246374407Y-78061134D01*
X246410772Y-77964131D01*
X246453414Y-77907367D01*
X246519975Y-77882667D01*
X246589324Y-77897875D01*
X246623991Y-77925863D01*
X246649192Y-77954956D01*
X246656554Y-77962166D01*
X246820408Y-78098199D01*
X246828855Y-78104114D01*
X247012730Y-78211562D01*
X247022016Y-78216012D01*
X247220975Y-78291986D01*
X247230873Y-78294862D01*
X247334224Y-78315889D01*
X247348273Y-78314693D01*
X247351974Y-78304348D01*
X247351974Y-78303800D01*
X247859974Y-78303800D01*
X247864038Y-78317642D01*
X247877452Y-78319676D01*
X247884158Y-78318817D01*
X247894236Y-78316675D01*
X248098229Y-78255474D01*
X248107816Y-78251716D01*
X248299069Y-78158022D01*
X248307919Y-78152747D01*
X248481302Y-78029075D01*
X248489174Y-78022422D01*
X248640026Y-77872095D01*
X248646704Y-77864248D01*
X248770977Y-77691303D01*
X248776287Y-77682466D01*
X248870644Y-77491550D01*
X248874443Y-77481955D01*
X248936351Y-77278193D01*
X248938529Y-77268120D01*
X248939960Y-77257245D01*
X248937749Y-77243061D01*
X248924591Y-77239283D01*
X247878089Y-77239283D01*
X247862850Y-77243758D01*
X247861645Y-77245148D01*
X247859974Y-77252831D01*
X247859974Y-78303800D01*
X247351974Y-78303800D01*
X247351974Y-76857283D01*
X247371976Y-76789162D01*
X247425632Y-76742669D01*
X247477974Y-76731283D01*
X248924318Y-76731283D01*
X248937849Y-76727310D01*
X248939154Y-76718230D01*
X248897188Y-76551158D01*
X248893868Y-76541407D01*
X248808946Y-76346097D01*
X248804079Y-76337022D01*
X248688400Y-76158209D01*
X248682110Y-76150040D01*
X248538780Y-75992523D01*
X248531247Y-75985498D01*
X248364113Y-75853505D01*
X248355530Y-75847803D01*
X248318576Y-75827403D01*
X248268605Y-75776970D01*
X248253833Y-75707528D01*
X248278949Y-75641122D01*
X248306301Y-75614515D01*
X248371768Y-75567818D01*
X248485834Y-75486456D01*
X248644070Y-75328772D01*
X248655350Y-75313075D01*
X248771409Y-75151560D01*
X248774427Y-75147360D01*
X248791229Y-75113365D01*
X248871110Y-74951736D01*
X248871111Y-74951734D01*
X248873404Y-74947094D01*
X248938344Y-74733352D01*
X248967503Y-74511873D01*
X248968857Y-74456446D01*
X248969048Y-74448648D01*
X248969048Y-74448644D01*
X248969130Y-74445283D01*
X248950826Y-74222644D01*
X248896405Y-74005985D01*
X248807328Y-73801123D01*
X248744172Y-73703498D01*
X248688796Y-73617900D01*
X248688794Y-73617897D01*
X248685988Y-73613560D01*
X248535644Y-73448334D01*
X248531593Y-73445135D01*
X248531589Y-73445131D01*
X248364388Y-73313083D01*
X248364384Y-73313081D01*
X248360333Y-73309881D01*
X248319027Y-73287079D01*
X248269058Y-73236647D01*
X248254286Y-73167204D01*
X248279402Y-73100799D01*
X248306754Y-73074192D01*
X248375015Y-73025502D01*
X248485834Y-72946456D01*
X248502860Y-72929490D01*
X248598751Y-72833933D01*
X248644070Y-72788772D01*
X248703568Y-72705972D01*
X248771409Y-72611560D01*
X248774427Y-72607360D01*
X248790027Y-72575797D01*
X248871110Y-72411736D01*
X248871111Y-72411734D01*
X248873404Y-72407094D01*
X248938344Y-72193352D01*
X248967503Y-71971873D01*
X248967585Y-71968523D01*
X248969048Y-71908648D01*
X248969048Y-71908644D01*
X248969130Y-71905283D01*
X248950826Y-71682644D01*
X248896405Y-71465985D01*
X248807328Y-71261123D01*
X248736318Y-71151358D01*
X248688796Y-71077900D01*
X248688794Y-71077897D01*
X248685988Y-71073560D01*
X248535644Y-70908334D01*
X248531593Y-70905135D01*
X248531589Y-70905131D01*
X248364388Y-70773083D01*
X248364384Y-70773081D01*
X248360333Y-70769881D01*
X248348760Y-70763492D01*
X248252260Y-70710222D01*
X248164763Y-70661921D01*
X248159894Y-70660197D01*
X248159890Y-70660195D01*
X247959061Y-70589078D01*
X247959057Y-70589077D01*
X247954186Y-70587352D01*
X247949093Y-70586445D01*
X247949090Y-70586444D01*
X247739347Y-70549083D01*
X247739341Y-70549082D01*
X247734258Y-70548177D01*
X247660426Y-70547275D01*
X247516055Y-70545511D01*
X247516053Y-70545511D01*
X247510885Y-70545448D01*
X247290065Y-70579238D01*
X247077730Y-70648640D01*
X246879581Y-70751790D01*
X246875448Y-70754893D01*
X246875445Y-70754895D01*
X246705074Y-70882813D01*
X246700939Y-70885918D01*
X246697367Y-70889656D01*
X246550897Y-71042928D01*
X246546603Y-71047421D01*
X246439175Y-71204904D01*
X246384267Y-71249904D01*
X246313742Y-71258075D01*
X246249995Y-71226821D01*
X246229298Y-71202337D01*
X246148796Y-71077900D01*
X246148794Y-71077897D01*
X246145988Y-71073560D01*
X245995644Y-70908334D01*
X245991593Y-70905135D01*
X245991589Y-70905131D01*
X245824388Y-70773083D01*
X245824384Y-70773081D01*
X245820333Y-70769881D01*
X245808760Y-70763492D01*
X245712260Y-70710222D01*
X245624763Y-70661921D01*
X245619894Y-70660197D01*
X245619890Y-70660195D01*
X245419061Y-70589078D01*
X245419057Y-70589077D01*
X245414186Y-70587352D01*
X245409093Y-70586445D01*
X245409090Y-70586444D01*
X245199347Y-70549083D01*
X245199341Y-70549082D01*
X245194258Y-70548177D01*
X245120426Y-70547275D01*
X244976055Y-70545511D01*
X244976053Y-70545511D01*
X244970885Y-70545448D01*
X244750065Y-70579238D01*
X244537730Y-70648640D01*
X244339581Y-70751790D01*
X244335448Y-70754893D01*
X244335445Y-70754895D01*
X244165074Y-70882813D01*
X244160939Y-70885918D01*
X244157367Y-70889656D01*
X244010897Y-71042928D01*
X244006603Y-71047421D01*
X244003694Y-71051686D01*
X244003688Y-71051694D01*
X243959994Y-71115747D01*
X243880717Y-71231963D01*
X243857629Y-71281703D01*
X243825632Y-71350635D01*
X243786662Y-71434588D01*
X243726963Y-71649853D01*
X243703225Y-71871978D01*
X243703522Y-71877131D01*
X243703522Y-71877134D01*
X243711018Y-72007135D01*
X243716084Y-72094998D01*
X243717221Y-72100044D01*
X243717222Y-72100050D01*
X243737093Y-72188222D01*
X243765196Y-72312922D01*
X243813309Y-72431410D01*
X243846013Y-72511951D01*
X243849240Y-72519899D01*
X243899993Y-72602721D01*
X243963265Y-72705971D01*
X243965961Y-72710371D01*
X244112224Y-72879221D01*
X244284100Y-73021915D01*
X244330221Y-73048866D01*
X244357419Y-73064759D01*
X244406143Y-73116397D01*
X244419214Y-73186180D01*
X244392483Y-73251952D01*
X244352029Y-73285310D01*
X244339581Y-73291790D01*
X244335448Y-73294893D01*
X244335445Y-73294895D01*
X244165074Y-73422813D01*
X244160939Y-73425918D01*
X244157367Y-73429656D01*
X244020696Y-73572674D01*
X244006603Y-73587421D01*
X244003694Y-73591686D01*
X244003688Y-73591694D01*
X243949250Y-73671498D01*
X243880717Y-73771963D01*
X243786662Y-73974588D01*
X243726963Y-74189853D01*
X243703225Y-74411978D01*
X199496755Y-74411978D01*
X200593328Y-73315405D01*
X200655640Y-73281379D01*
X200682423Y-73278500D01*
X200735487Y-73278500D01*
X200741939Y-73277128D01*
X200741944Y-73277128D01*
X200835991Y-73257137D01*
X200922288Y-73238794D01*
X201005107Y-73201921D01*
X201090722Y-73163803D01*
X201090724Y-73163802D01*
X201096752Y-73161118D01*
X201112837Y-73149432D01*
X201175910Y-73103606D01*
X201251253Y-73048866D01*
X201255675Y-73043955D01*
X201374621Y-72911852D01*
X201374622Y-72911851D01*
X201379040Y-72906944D01*
X201474527Y-72741556D01*
X201533542Y-72559928D01*
X201534592Y-72549944D01*
X201552814Y-72376565D01*
X201553504Y-72370000D01*
X201542153Y-72262000D01*
X201534232Y-72186635D01*
X201534232Y-72186633D01*
X201533542Y-72180072D01*
X201474527Y-71998444D01*
X201469436Y-71989625D01*
X201404488Y-71877134D01*
X201379040Y-71833056D01*
X201282503Y-71725840D01*
X201255675Y-71696045D01*
X201255674Y-71696044D01*
X201251253Y-71691134D01*
X201096752Y-71578882D01*
X201090724Y-71576198D01*
X201090722Y-71576197D01*
X200928319Y-71503891D01*
X200928318Y-71503891D01*
X200922288Y-71501206D01*
X200800331Y-71475283D01*
X200741944Y-71462872D01*
X200741939Y-71462872D01*
X200735487Y-71461500D01*
X200544513Y-71461500D01*
X200538061Y-71462872D01*
X200538056Y-71462872D01*
X200479669Y-71475283D01*
X200357712Y-71501206D01*
X200351682Y-71503891D01*
X200351681Y-71503891D01*
X200189278Y-71576197D01*
X200189276Y-71576198D01*
X200183248Y-71578882D01*
X200028747Y-71691134D01*
X200024326Y-71696044D01*
X200024325Y-71696045D01*
X199997498Y-71725840D01*
X199900960Y-71833056D01*
X199875512Y-71877134D01*
X199810565Y-71989625D01*
X199805473Y-71998444D01*
X199746458Y-72180072D01*
X199745768Y-72186633D01*
X199745768Y-72186635D01*
X199729425Y-72342133D01*
X199702412Y-72407790D01*
X199693210Y-72418058D01*
X189276672Y-82834595D01*
X189214360Y-82868621D01*
X189187577Y-82871500D01*
X189134513Y-82871500D01*
X189128061Y-82872872D01*
X189128056Y-82872872D01*
X189041113Y-82891353D01*
X188947712Y-82911206D01*
X188941682Y-82913891D01*
X188941681Y-82913891D01*
X188779278Y-82986197D01*
X188779276Y-82986198D01*
X188773248Y-82988882D01*
X188618747Y-83101134D01*
X188490960Y-83243056D01*
X188395473Y-83408444D01*
X188336458Y-83590072D01*
X188316496Y-83780000D01*
X186313733Y-83780000D01*
X179019254Y-76485521D01*
X178985228Y-76423209D01*
X178990293Y-76352394D01*
X179032840Y-76295558D01*
X179099360Y-76270747D01*
X179112966Y-76270511D01*
X179141673Y-76271564D01*
X179141677Y-76271564D01*
X179146837Y-76271753D01*
X179151957Y-76271097D01*
X179151959Y-76271097D01*
X179363288Y-76244025D01*
X179363289Y-76244025D01*
X179368416Y-76243368D01*
X179408614Y-76231308D01*
X179577429Y-76180661D01*
X179577434Y-76180659D01*
X179582384Y-76179174D01*
X179782994Y-76080896D01*
X179964860Y-75951173D01*
X180123096Y-75793489D01*
X180197970Y-75689291D01*
X180250438Y-75616273D01*
X180250439Y-75616272D01*
X180253453Y-75612077D01*
X180255742Y-75607445D01*
X180256247Y-75606605D01*
X180308477Y-75558516D01*
X180364250Y-75545500D01*
X194346944Y-75545500D01*
X194358178Y-75546030D01*
X194365683Y-75547708D01*
X194433976Y-75545562D01*
X194437933Y-75545500D01*
X194465947Y-75545500D01*
X194469872Y-75545004D01*
X194469873Y-75545004D01*
X194469968Y-75544992D01*
X194481813Y-75544059D01*
X194511634Y-75543122D01*
X194518246Y-75542914D01*
X194518247Y-75542914D01*
X194526169Y-75542665D01*
X194545713Y-75536987D01*
X194565076Y-75532977D01*
X194577404Y-75531420D01*
X194577406Y-75531420D01*
X194585263Y-75530427D01*
X194592627Y-75527511D01*
X194592632Y-75527510D01*
X194626520Y-75514093D01*
X194637749Y-75510248D01*
X194654429Y-75505402D01*
X194680357Y-75497869D01*
X194687184Y-75493831D01*
X194687187Y-75493830D01*
X194697870Y-75487512D01*
X194715628Y-75478812D01*
X194727179Y-75474239D01*
X194727185Y-75474235D01*
X194734552Y-75471319D01*
X194743045Y-75465149D01*
X194770452Y-75445236D01*
X194780374Y-75438719D01*
X194811732Y-75420174D01*
X194811736Y-75420171D01*
X194818562Y-75416134D01*
X194832946Y-75401750D01*
X194847980Y-75388909D01*
X194858037Y-75381602D01*
X194864451Y-75376942D01*
X194892742Y-75342744D01*
X194900731Y-75333965D01*
X210789358Y-59445339D01*
X210851670Y-59411313D01*
X210903570Y-59410963D01*
X211081055Y-59447073D01*
X211086230Y-59447263D01*
X211086232Y-59447263D01*
X211299131Y-59455070D01*
X211299135Y-59455070D01*
X211304295Y-59455259D01*
X211309415Y-59454603D01*
X211309417Y-59454603D01*
X211520746Y-59427531D01*
X211520747Y-59427531D01*
X211525874Y-59426874D01*
X211530824Y-59425389D01*
X211734887Y-59364167D01*
X211734892Y-59364165D01*
X211739842Y-59362680D01*
X211940452Y-59264402D01*
X212122318Y-59134679D01*
X212280554Y-58976995D01*
X212377317Y-58842335D01*
X212407893Y-58799783D01*
X212410911Y-58795583D01*
X212415761Y-58785771D01*
X212507594Y-58599959D01*
X212507595Y-58599957D01*
X212509888Y-58595317D01*
X212574828Y-58381575D01*
X212603987Y-58160096D01*
X212604069Y-58156746D01*
X212605532Y-58096871D01*
X212605532Y-58096867D01*
X212605614Y-58093506D01*
X212587310Y-57870867D01*
X212532889Y-57654208D01*
X212443812Y-57449346D01*
X212322472Y-57261783D01*
X212172128Y-57096557D01*
X212168077Y-57093358D01*
X212168073Y-57093354D01*
X212000872Y-56961306D01*
X212000868Y-56961304D01*
X211996817Y-56958104D01*
X211955511Y-56935302D01*
X211905542Y-56884870D01*
X211890770Y-56815427D01*
X211915886Y-56749022D01*
X211943238Y-56722415D01*
X211987061Y-56691156D01*
X212122318Y-56594679D01*
X212280554Y-56436995D01*
X212302813Y-56406019D01*
X212407893Y-56259783D01*
X212410911Y-56255583D01*
X212439598Y-56197540D01*
X212507594Y-56059959D01*
X212507595Y-56059957D01*
X212509888Y-56055317D01*
X212574828Y-55841575D01*
X212603987Y-55620096D01*
X212605614Y-55553506D01*
X212587310Y-55330867D01*
X212532889Y-55114208D01*
X212443812Y-54909346D01*
X212322472Y-54721783D01*
X212172128Y-54556557D01*
X212168077Y-54553358D01*
X212168073Y-54553354D01*
X212000872Y-54421306D01*
X212000868Y-54421304D01*
X211996817Y-54418104D01*
X211801247Y-54310144D01*
X211796378Y-54308420D01*
X211796374Y-54308418D01*
X211595545Y-54237301D01*
X211595541Y-54237300D01*
X211590670Y-54235575D01*
X211585577Y-54234668D01*
X211585574Y-54234667D01*
X211375831Y-54197306D01*
X211375825Y-54197305D01*
X211370742Y-54196400D01*
X211296910Y-54195498D01*
X211152539Y-54193734D01*
X211152537Y-54193734D01*
X211147369Y-54193671D01*
X210926549Y-54227461D01*
X210714214Y-54296863D01*
X210516065Y-54400013D01*
X210511932Y-54403116D01*
X210511929Y-54403118D01*
X210341558Y-54531036D01*
X210337423Y-54534141D01*
X210333851Y-54537879D01*
X210226187Y-54650543D01*
X210183087Y-54695644D01*
X210075659Y-54853127D01*
X210020751Y-54898127D01*
X209950226Y-54906298D01*
X209886479Y-54875044D01*
X209865782Y-54850560D01*
X209785280Y-54726123D01*
X209785278Y-54726120D01*
X209782472Y-54721783D01*
X209632128Y-54556557D01*
X209628077Y-54553358D01*
X209628073Y-54553354D01*
X209460872Y-54421306D01*
X209460868Y-54421304D01*
X209456817Y-54418104D01*
X209261247Y-54310144D01*
X209256378Y-54308420D01*
X209256374Y-54308418D01*
X209055545Y-54237301D01*
X209055541Y-54237300D01*
X209050670Y-54235575D01*
X209045577Y-54234668D01*
X209045574Y-54234667D01*
X208835831Y-54197306D01*
X208835825Y-54197305D01*
X208830742Y-54196400D01*
X208756910Y-54195498D01*
X208612539Y-54193734D01*
X208612537Y-54193734D01*
X208607369Y-54193671D01*
X208386549Y-54227461D01*
X208174214Y-54296863D01*
X207976065Y-54400013D01*
X207971932Y-54403116D01*
X207971929Y-54403118D01*
X207801558Y-54531036D01*
X207797423Y-54534141D01*
X207740995Y-54593190D01*
X207716741Y-54618570D01*
X207655217Y-54654000D01*
X207584304Y-54650543D01*
X207526518Y-54609297D01*
X207507665Y-54575749D01*
X207466225Y-54465209D01*
X207463073Y-54456801D01*
X207375719Y-54340245D01*
X207259163Y-54252891D01*
X207122774Y-54201761D01*
X207060592Y-54195006D01*
X205264324Y-54195006D01*
X205202142Y-54201761D01*
X205065753Y-54252891D01*
X204949197Y-54340245D01*
X204861843Y-54456801D01*
X204810713Y-54593190D01*
X204803958Y-54655372D01*
X204803958Y-56451640D01*
X204810713Y-56513822D01*
X204861843Y-56650211D01*
X204949197Y-56766767D01*
X205065753Y-56854121D01*
X205074162Y-56857273D01*
X205074163Y-56857274D01*
X205183418Y-56898232D01*
X205240183Y-56940873D01*
X205264883Y-57007435D01*
X205249676Y-57076784D01*
X205230283Y-57103265D01*
X205107048Y-57232223D01*
X205100562Y-57240233D01*
X204980556Y-57416155D01*
X204975458Y-57425129D01*
X204885796Y-57618289D01*
X204882233Y-57627976D01*
X204826847Y-57827689D01*
X204828370Y-57836113D01*
X204840750Y-57839506D01*
X206290458Y-57839506D01*
X206358579Y-57859508D01*
X206405072Y-57913164D01*
X206416458Y-57965506D01*
X206416458Y-58221506D01*
X206396456Y-58289627D01*
X206342800Y-58336120D01*
X206290458Y-58347506D01*
X204845683Y-58347506D01*
X204832152Y-58351479D01*
X204830716Y-58361471D01*
X204857722Y-58481304D01*
X204853186Y-58552156D01*
X204811065Y-58609308D01*
X204744732Y-58634614D01*
X204734805Y-58635006D01*
X189728526Y-58635006D01*
X189717287Y-58634476D01*
X189709775Y-58632797D01*
X189701850Y-58633046D01*
X189701849Y-58633046D01*
X189641464Y-58634944D01*
X189637506Y-58635006D01*
X189609511Y-58635006D01*
X189605577Y-58635503D01*
X189605575Y-58635503D01*
X189605488Y-58635514D01*
X189593654Y-58636446D01*
X189549289Y-58637841D01*
X189541676Y-58640053D01*
X189541675Y-58640053D01*
X189529746Y-58643519D01*
X189510382Y-58647529D01*
X189498054Y-58649086D01*
X189498052Y-58649086D01*
X189490195Y-58650079D01*
X189482831Y-58652995D01*
X189482826Y-58652996D01*
X189448938Y-58666413D01*
X189437709Y-58670258D01*
X189427315Y-58673278D01*
X189395101Y-58682637D01*
X189388274Y-58686675D01*
X189388271Y-58686676D01*
X189377588Y-58692994D01*
X189359830Y-58701694D01*
X189348279Y-58706267D01*
X189348273Y-58706271D01*
X189340906Y-58709187D01*
X189334495Y-58713845D01*
X189334493Y-58713846D01*
X189305006Y-58735270D01*
X189295084Y-58741787D01*
X189263726Y-58760332D01*
X189263722Y-58760335D01*
X189256896Y-58764372D01*
X189242512Y-58778756D01*
X189227478Y-58791597D01*
X189211007Y-58803564D01*
X189205954Y-58809672D01*
X189182717Y-58837761D01*
X189174727Y-58846541D01*
X177328517Y-70692750D01*
X177320191Y-70700326D01*
X177313697Y-70704447D01*
X177308274Y-70710222D01*
X177266915Y-70754265D01*
X177264160Y-70757107D01*
X177244361Y-70776906D01*
X177241937Y-70780031D01*
X177241929Y-70780040D01*
X177241863Y-70780126D01*
X177234155Y-70789151D01*
X177203783Y-70821494D01*
X177199965Y-70828438D01*
X177199964Y-70828440D01*
X177193978Y-70839329D01*
X177183127Y-70855847D01*
X177170650Y-70871933D01*
X177153024Y-70912666D01*
X177147807Y-70923314D01*
X177126431Y-70962197D01*
X177124460Y-70969872D01*
X177124458Y-70969878D01*
X177121369Y-70981911D01*
X177114960Y-71000626D01*
X177112929Y-71005321D01*
X177067509Y-71059888D01*
X176999798Y-71081236D01*
X176955241Y-71074034D01*
X176898091Y-71053796D01*
X176898083Y-71053794D01*
X176893212Y-71052069D01*
X176888119Y-71051162D01*
X176888116Y-71051161D01*
X176678373Y-71013800D01*
X176678367Y-71013799D01*
X176673284Y-71012894D01*
X176599452Y-71011992D01*
X176455081Y-71010228D01*
X176455079Y-71010228D01*
X176449911Y-71010165D01*
X176229091Y-71043955D01*
X176016756Y-71113357D01*
X175818607Y-71216507D01*
X175814474Y-71219610D01*
X175814471Y-71219612D01*
X175644100Y-71347530D01*
X175639965Y-71350635D01*
X175564225Y-71429893D01*
X175559283Y-71435064D01*
X175497759Y-71470494D01*
X175426846Y-71467037D01*
X175369060Y-71425791D01*
X175350207Y-71392243D01*
X175308767Y-71281703D01*
X175305615Y-71273295D01*
X175218261Y-71156739D01*
X175101705Y-71069385D01*
X174965316Y-71018255D01*
X174903134Y-71011500D01*
X173106866Y-71011500D01*
X173044684Y-71018255D01*
X172908295Y-71069385D01*
X172791739Y-71156739D01*
X172704385Y-71273295D01*
X172653255Y-71409684D01*
X172646500Y-71471866D01*
X172646500Y-72785500D01*
X172626498Y-72853621D01*
X172572842Y-72900114D01*
X172520500Y-72911500D01*
X150052020Y-72911500D01*
X150040786Y-72910970D01*
X150033281Y-72909292D01*
X149965571Y-72911420D01*
X149964988Y-72911438D01*
X149961031Y-72911500D01*
X149933017Y-72911500D01*
X149929092Y-72911996D01*
X149929091Y-72911996D01*
X149928996Y-72912008D01*
X149917151Y-72912941D01*
X149887330Y-72913878D01*
X149880718Y-72914086D01*
X149880717Y-72914086D01*
X149872795Y-72914335D01*
X149853252Y-72920013D01*
X149833888Y-72924023D01*
X149821560Y-72925580D01*
X149821558Y-72925580D01*
X149813701Y-72926573D01*
X149806337Y-72929489D01*
X149806332Y-72929490D01*
X149772444Y-72942907D01*
X149761215Y-72946752D01*
X149744535Y-72951598D01*
X149718607Y-72959131D01*
X149711780Y-72963169D01*
X149711777Y-72963170D01*
X149701094Y-72969488D01*
X149683336Y-72978188D01*
X149671785Y-72982761D01*
X149671779Y-72982765D01*
X149664412Y-72985681D01*
X149658001Y-72990339D01*
X149657999Y-72990340D01*
X149628512Y-73011764D01*
X149618590Y-73018281D01*
X149587232Y-73036826D01*
X149587228Y-73036829D01*
X149580402Y-73040866D01*
X149566018Y-73055250D01*
X149550984Y-73068091D01*
X149534513Y-73080058D01*
X149515033Y-73103606D01*
X149506223Y-73114255D01*
X149498233Y-73123035D01*
X144826672Y-77794595D01*
X144764360Y-77828621D01*
X144737577Y-77831500D01*
X144684513Y-77831500D01*
X144678061Y-77832872D01*
X144678056Y-77832872D01*
X144591112Y-77851353D01*
X144497712Y-77871206D01*
X144491682Y-77873891D01*
X144491681Y-77873891D01*
X144329278Y-77946197D01*
X144329276Y-77946198D01*
X144323248Y-77948882D01*
X144317907Y-77952762D01*
X144317906Y-77952763D01*
X144267843Y-77989136D01*
X144168747Y-78061134D01*
X144164326Y-78066044D01*
X144164325Y-78066045D01*
X144051488Y-78191364D01*
X144040960Y-78203056D01*
X143996241Y-78280512D01*
X143963119Y-78337881D01*
X143945473Y-78368444D01*
X143886458Y-78550072D01*
X143866496Y-78740000D01*
X143886458Y-78929928D01*
X143945473Y-79111556D01*
X144040960Y-79276944D01*
X144045378Y-79281851D01*
X144045379Y-79281852D01*
X144144500Y-79391937D01*
X144168747Y-79418866D01*
X144323248Y-79531118D01*
X144329276Y-79533802D01*
X144329278Y-79533803D01*
X144491681Y-79606109D01*
X144497712Y-79608794D01*
X144591113Y-79628647D01*
X144678056Y-79647128D01*
X144678061Y-79647128D01*
X144684513Y-79648500D01*
X144875487Y-79648500D01*
X144881939Y-79647128D01*
X144881944Y-79647128D01*
X144968887Y-79628647D01*
X145062288Y-79608794D01*
X145068319Y-79606109D01*
X145230722Y-79533803D01*
X145230724Y-79533802D01*
X145236752Y-79531118D01*
X145391253Y-79418866D01*
X145415500Y-79391937D01*
X145514621Y-79281852D01*
X145514622Y-79281851D01*
X145519040Y-79276944D01*
X145614527Y-79111556D01*
X145673542Y-78929928D01*
X145690575Y-78767867D01*
X145717588Y-78702210D01*
X145726790Y-78691942D01*
X149240767Y-75177966D01*
X172673257Y-75177966D01*
X172703565Y-75312446D01*
X172706645Y-75322275D01*
X172786770Y-75519603D01*
X172791413Y-75528794D01*
X172902694Y-75710388D01*
X172908777Y-75718699D01*
X173048213Y-75879667D01*
X173055580Y-75886883D01*
X173219434Y-76022916D01*
X173227881Y-76028831D01*
X173411756Y-76136279D01*
X173421042Y-76140729D01*
X173620001Y-76216703D01*
X173629899Y-76219579D01*
X173733250Y-76240606D01*
X173747299Y-76239410D01*
X173751000Y-76229065D01*
X173751000Y-75182115D01*
X173746525Y-75166876D01*
X173745135Y-75165671D01*
X173737452Y-75164000D01*
X172688225Y-75164000D01*
X172674694Y-75167973D01*
X172673257Y-75177966D01*
X149240767Y-75177966D01*
X150199328Y-74219405D01*
X150261640Y-74185379D01*
X150288423Y-74182500D01*
X172648044Y-74182500D01*
X172716165Y-74202502D01*
X172762658Y-74256158D01*
X172772762Y-74326432D01*
X172762332Y-74361551D01*
X172728337Y-74434788D01*
X172724775Y-74444470D01*
X172669389Y-74644183D01*
X172670912Y-74652607D01*
X172683292Y-74656000D01*
X174133000Y-74656000D01*
X174201121Y-74676002D01*
X174247614Y-74729658D01*
X174259000Y-74782000D01*
X174259000Y-76245078D01*
X174238998Y-76313199D01*
X174222095Y-76334173D01*
X165094711Y-85461556D01*
X155978672Y-94577595D01*
X155916360Y-94611621D01*
X155889577Y-94614500D01*
X154570954Y-94614500D01*
X154502833Y-94594498D01*
X154456340Y-94540842D01*
X154446236Y-94470568D01*
X154461835Y-94425500D01*
X154501223Y-94357279D01*
X154501224Y-94357278D01*
X154504527Y-94351556D01*
X154563542Y-94169928D01*
X154567746Y-94129935D01*
X154582814Y-93986565D01*
X154583504Y-93980000D01*
X154575412Y-93903007D01*
X154564232Y-93796635D01*
X154564232Y-93796633D01*
X154563542Y-93790072D01*
X154504527Y-93608444D01*
X154487300Y-93578605D01*
X154438629Y-93494306D01*
X154409040Y-93443056D01*
X154375153Y-93405420D01*
X154285675Y-93306045D01*
X154285674Y-93306044D01*
X154281253Y-93301134D01*
X154160676Y-93213529D01*
X154132094Y-93192763D01*
X154132093Y-93192762D01*
X154126752Y-93188882D01*
X154120724Y-93186198D01*
X154120722Y-93186197D01*
X153958319Y-93113891D01*
X153958318Y-93113891D01*
X153952288Y-93111206D01*
X153849878Y-93089438D01*
X153771944Y-93072872D01*
X153771939Y-93072872D01*
X153765487Y-93071500D01*
X153574513Y-93071500D01*
X153568061Y-93072872D01*
X153568056Y-93072872D01*
X153490122Y-93089438D01*
X153387712Y-93111206D01*
X153381682Y-93113891D01*
X153381681Y-93113891D01*
X153219278Y-93186197D01*
X153219276Y-93186198D01*
X153213248Y-93188882D01*
X153207907Y-93192762D01*
X153207906Y-93192763D01*
X153179324Y-93213529D01*
X153058747Y-93301134D01*
X152999489Y-93366947D01*
X152939046Y-93404185D01*
X152905855Y-93408635D01*
X141110977Y-93408635D01*
X141042856Y-93388633D01*
X141005185Y-93351075D01*
X140918288Y-93216752D01*
X140918286Y-93216749D01*
X140915480Y-93212412D01*
X140765136Y-93047186D01*
X140761085Y-93043987D01*
X140761081Y-93043983D01*
X140593880Y-92911935D01*
X140593876Y-92911933D01*
X140589825Y-92908733D01*
X140548519Y-92885931D01*
X140498550Y-92835499D01*
X140483778Y-92766056D01*
X140508894Y-92699651D01*
X140536246Y-92673044D01*
X140592489Y-92632926D01*
X140715326Y-92545308D01*
X140765628Y-92495182D01*
X140816163Y-92444823D01*
X140873562Y-92387624D01*
X140920419Y-92322416D01*
X141000901Y-92210412D01*
X141003919Y-92206212D01*
X141011515Y-92190844D01*
X141100602Y-92010588D01*
X141100603Y-92010586D01*
X141102896Y-92005946D01*
X141151722Y-91845242D01*
X141166331Y-91797158D01*
X141166331Y-91797156D01*
X141167836Y-91792204D01*
X141196995Y-91570725D01*
X141197077Y-91567375D01*
X141198540Y-91507500D01*
X141198540Y-91507492D01*
X141198622Y-91504135D01*
X141180318Y-91281496D01*
X141125897Y-91064837D01*
X141036820Y-90859975D01*
X140915480Y-90672412D01*
X140765136Y-90507186D01*
X140761085Y-90503987D01*
X140761081Y-90503983D01*
X140593880Y-90371935D01*
X140593876Y-90371933D01*
X140589825Y-90368733D01*
X140585301Y-90366236D01*
X140585297Y-90366233D01*
X140536074Y-90339061D01*
X140486102Y-90288629D01*
X140470966Y-90228752D01*
X140470966Y-85851500D01*
X140490968Y-85783379D01*
X140544624Y-85736886D01*
X140596966Y-85725500D01*
X144073601Y-85725500D01*
X144141722Y-85745502D01*
X144158908Y-85760109D01*
X144159420Y-85759540D01*
X144164332Y-85763963D01*
X144168747Y-85768866D01*
X144188722Y-85783379D01*
X144271955Y-85843851D01*
X144323248Y-85881118D01*
X144329276Y-85883802D01*
X144329278Y-85883803D01*
X144401343Y-85915888D01*
X144497712Y-85958794D01*
X144591112Y-85978647D01*
X144678056Y-85997128D01*
X144678061Y-85997128D01*
X144684513Y-85998500D01*
X144875487Y-85998500D01*
X144881939Y-85997128D01*
X144881944Y-85997128D01*
X144968887Y-85978647D01*
X145062288Y-85958794D01*
X145158657Y-85915888D01*
X145230722Y-85883803D01*
X145230724Y-85883802D01*
X145236752Y-85881118D01*
X145391253Y-85768866D01*
X145519040Y-85626944D01*
X145614527Y-85461556D01*
X145673542Y-85279928D01*
X145675321Y-85263007D01*
X145692814Y-85096565D01*
X145693504Y-85090000D01*
X145679044Y-84952417D01*
X145674232Y-84906635D01*
X145674232Y-84906633D01*
X145673542Y-84900072D01*
X145614527Y-84718444D01*
X145519040Y-84553056D01*
X145436091Y-84460931D01*
X145395675Y-84416045D01*
X145395674Y-84416044D01*
X145391253Y-84411134D01*
X145253742Y-84311226D01*
X145242094Y-84302763D01*
X145242093Y-84302762D01*
X145236752Y-84298882D01*
X145230724Y-84296198D01*
X145230722Y-84296197D01*
X145068319Y-84223891D01*
X145068318Y-84223891D01*
X145062288Y-84221206D01*
X144968888Y-84201353D01*
X144881944Y-84182872D01*
X144881939Y-84182872D01*
X144875487Y-84181500D01*
X144684513Y-84181500D01*
X144678061Y-84182872D01*
X144678056Y-84182872D01*
X144591112Y-84201353D01*
X144497712Y-84221206D01*
X144491682Y-84223891D01*
X144491681Y-84223891D01*
X144329278Y-84296197D01*
X144329276Y-84296198D01*
X144323248Y-84298882D01*
X144317907Y-84302762D01*
X144317906Y-84302763D01*
X144211124Y-84380345D01*
X144168747Y-84411134D01*
X144164332Y-84416037D01*
X144159420Y-84420460D01*
X144157779Y-84418638D01*
X144106790Y-84450050D01*
X144073601Y-84454500D01*
X140015422Y-84454500D01*
X139947301Y-84434498D01*
X139926327Y-84417595D01*
X132619696Y-77110963D01*
X132585670Y-77048651D01*
X132590735Y-76977836D01*
X132634729Y-76919933D01*
X132691253Y-76878866D01*
X132695675Y-76873955D01*
X132814621Y-76741852D01*
X132814622Y-76741851D01*
X132819040Y-76736944D01*
X132914527Y-76571556D01*
X132973542Y-76389928D01*
X132981607Y-76313199D01*
X132992814Y-76206565D01*
X132993504Y-76200000D01*
X132988253Y-76150040D01*
X132974232Y-76016635D01*
X132974232Y-76016633D01*
X132973542Y-76010072D01*
X132914527Y-75828444D01*
X132819040Y-75663056D01*
X132810349Y-75653403D01*
X132747864Y-75584007D01*
X132717146Y-75520000D01*
X132715500Y-75499697D01*
X132715500Y-74418325D01*
X132716030Y-74407086D01*
X132717709Y-74399574D01*
X132716780Y-74369998D01*
X132715562Y-74331263D01*
X132715500Y-74327305D01*
X132715500Y-74299310D01*
X132714992Y-74295287D01*
X132714059Y-74283445D01*
X132713688Y-74271621D01*
X132712665Y-74239088D01*
X132706987Y-74219544D01*
X132702977Y-74200181D01*
X132701420Y-74187853D01*
X132701420Y-74187851D01*
X132700427Y-74179994D01*
X132697511Y-74172630D01*
X132697510Y-74172625D01*
X132684093Y-74138737D01*
X132680248Y-74127508D01*
X132670081Y-74092515D01*
X132667869Y-74084900D01*
X132663830Y-74078070D01*
X132657512Y-74067387D01*
X132648812Y-74049629D01*
X132644239Y-74038078D01*
X132644235Y-74038072D01*
X132641319Y-74030705D01*
X132615234Y-73994802D01*
X132608719Y-73984883D01*
X132590174Y-73953525D01*
X132590171Y-73953521D01*
X132586134Y-73946695D01*
X132571750Y-73932311D01*
X132558909Y-73917277D01*
X132551602Y-73907220D01*
X132546942Y-73900806D01*
X132512744Y-73872515D01*
X132503965Y-73864526D01*
X129365957Y-70726517D01*
X129358381Y-70718191D01*
X129354260Y-70711697D01*
X129304441Y-70664914D01*
X129301600Y-70662160D01*
X129281801Y-70642361D01*
X129278676Y-70639937D01*
X129278667Y-70639929D01*
X129278581Y-70639863D01*
X129269556Y-70632155D01*
X129242992Y-70607210D01*
X129237213Y-70601783D01*
X129219376Y-70591977D01*
X129202860Y-70581127D01*
X129186774Y-70568650D01*
X129146041Y-70551024D01*
X129135393Y-70545807D01*
X129123427Y-70539229D01*
X129096510Y-70524431D01*
X129088835Y-70522460D01*
X129088829Y-70522458D01*
X129076796Y-70519369D01*
X129058094Y-70512966D01*
X129039415Y-70504883D01*
X129033311Y-70503916D01*
X128974131Y-70466119D01*
X128944456Y-70401622D01*
X128954928Y-70330087D01*
X128954936Y-70330071D01*
X128969311Y-70299243D01*
X129005027Y-70165950D01*
X129027146Y-70083402D01*
X129027146Y-70083400D01*
X129028570Y-70078087D01*
X129048525Y-69850000D01*
X129028570Y-69621913D01*
X128969311Y-69400757D01*
X128966988Y-69395775D01*
X128874876Y-69198238D01*
X128874873Y-69198233D01*
X128872550Y-69193251D01*
X128741225Y-69005700D01*
X128579327Y-68843802D01*
X128574816Y-68840643D01*
X128570603Y-68837108D01*
X128571554Y-68835974D01*
X128531556Y-68785929D01*
X128524251Y-68715310D01*
X128556285Y-68651951D01*
X128617489Y-68615970D01*
X128634544Y-68612918D01*
X128645343Y-68611745D01*
X128781732Y-68560615D01*
X128898288Y-68473261D01*
X128985642Y-68356705D01*
X129036772Y-68220316D01*
X129043527Y-68158134D01*
X129043527Y-66461866D01*
X129036772Y-66399684D01*
X128985642Y-66263295D01*
X128898288Y-66146739D01*
X128781732Y-66059385D01*
X128645343Y-66008255D01*
X128583161Y-66001500D01*
X126886893Y-66001500D01*
X126824711Y-66008255D01*
X126688322Y-66059385D01*
X126571766Y-66146739D01*
X126484412Y-66263295D01*
X126433282Y-66399684D01*
X126432110Y-66410474D01*
X126431224Y-66412606D01*
X126430602Y-66415222D01*
X126430179Y-66415121D01*
X126404872Y-66476035D01*
X126346510Y-66516463D01*
X126275556Y-66518922D01*
X126214537Y-66482629D01*
X126207538Y-66473969D01*
X126204381Y-66470207D01*
X126201225Y-66465700D01*
X126039327Y-66303802D01*
X126034819Y-66300645D01*
X126034816Y-66300643D01*
X125956638Y-66245902D01*
X125851776Y-66172477D01*
X125846794Y-66170154D01*
X125846789Y-66170151D01*
X125649252Y-66078039D01*
X125649251Y-66078039D01*
X125644270Y-66075716D01*
X125638962Y-66074294D01*
X125638960Y-66074293D01*
X125428429Y-66017881D01*
X125428427Y-66017881D01*
X125423114Y-66016457D01*
X125417638Y-66015978D01*
X125417633Y-66015977D01*
X125372445Y-66012024D01*
X125306326Y-65986161D01*
X125294331Y-65975598D01*
X116921877Y-57603144D01*
X116887851Y-57540832D01*
X116890414Y-57477420D01*
X116897501Y-57454096D01*
X116902370Y-57438069D01*
X116931529Y-57216590D01*
X116933156Y-57150000D01*
X116914852Y-56927361D01*
X116860431Y-56710702D01*
X116771354Y-56505840D01*
X116703824Y-56401455D01*
X116652822Y-56322617D01*
X116652820Y-56322614D01*
X116650014Y-56318277D01*
X116499670Y-56153051D01*
X116495619Y-56149852D01*
X116495615Y-56149848D01*
X116328414Y-56017800D01*
X116328410Y-56017798D01*
X116324359Y-56014598D01*
X116312777Y-56008204D01*
X116206287Y-55949419D01*
X116128789Y-55906638D01*
X116123920Y-55904914D01*
X116123916Y-55904912D01*
X115923087Y-55833795D01*
X115923083Y-55833794D01*
X115918212Y-55832069D01*
X115913119Y-55831162D01*
X115913116Y-55831161D01*
X115703373Y-55793800D01*
X115703367Y-55793799D01*
X115698284Y-55792894D01*
X115624452Y-55791992D01*
X115480081Y-55790228D01*
X115480079Y-55790228D01*
X115474911Y-55790165D01*
X115254091Y-55823955D01*
X115041756Y-55893357D01*
X114843607Y-55996507D01*
X114839474Y-55999610D01*
X114839471Y-55999612D01*
X114720336Y-56089061D01*
X114664965Y-56130635D01*
X114646605Y-56149848D01*
X114527371Y-56274619D01*
X114510629Y-56292138D01*
X114403201Y-56449621D01*
X114348293Y-56494621D01*
X114277768Y-56502792D01*
X114214021Y-56471538D01*
X114193324Y-56447054D01*
X114112822Y-56322617D01*
X114112820Y-56322614D01*
X114110014Y-56318277D01*
X113959670Y-56153051D01*
X113955619Y-56149852D01*
X113955615Y-56149848D01*
X113788414Y-56017800D01*
X113788410Y-56017798D01*
X113784359Y-56014598D01*
X113772777Y-56008204D01*
X113666287Y-55949419D01*
X113588789Y-55906638D01*
X113583920Y-55904914D01*
X113583916Y-55904912D01*
X113383087Y-55833795D01*
X113383083Y-55833794D01*
X113378212Y-55832069D01*
X113373119Y-55831162D01*
X113373116Y-55831161D01*
X113163373Y-55793800D01*
X113163367Y-55793799D01*
X113158284Y-55792894D01*
X113084452Y-55791992D01*
X112940081Y-55790228D01*
X112940079Y-55790228D01*
X112934911Y-55790165D01*
X112714091Y-55823955D01*
X112501756Y-55893357D01*
X112303607Y-55996507D01*
X112299474Y-55999610D01*
X112299471Y-55999612D01*
X112180336Y-56089061D01*
X112124965Y-56130635D01*
X112068537Y-56189684D01*
X112044283Y-56215064D01*
X111982759Y-56250494D01*
X111911846Y-56247037D01*
X111854060Y-56205791D01*
X111835207Y-56172243D01*
X111793767Y-56061703D01*
X111790615Y-56053295D01*
X111703261Y-55936739D01*
X111586705Y-55849385D01*
X111450316Y-55798255D01*
X111388134Y-55791500D01*
X109591866Y-55791500D01*
X109529684Y-55798255D01*
X109393295Y-55849385D01*
X109276739Y-55936739D01*
X109189385Y-56053295D01*
X109138255Y-56189684D01*
X109131500Y-56251866D01*
X109131500Y-58048134D01*
X100508500Y-58048134D01*
X100508500Y-55014583D01*
X173566152Y-55014583D01*
X173566449Y-55019736D01*
X173566449Y-55019739D01*
X173578713Y-55232435D01*
X173579011Y-55237603D01*
X173580148Y-55242649D01*
X173580149Y-55242655D01*
X173598898Y-55325848D01*
X173628123Y-55455527D01*
X173712167Y-55662504D01*
X173749586Y-55723566D01*
X173826192Y-55848576D01*
X173828888Y-55852976D01*
X173975151Y-56021826D01*
X174051747Y-56085417D01*
X174137813Y-56156870D01*
X174147027Y-56164520D01*
X174339901Y-56277226D01*
X174344726Y-56279068D01*
X174344727Y-56279069D01*
X174390120Y-56296403D01*
X174548593Y-56356918D01*
X174553661Y-56357949D01*
X174553664Y-56357950D01*
X174660918Y-56379771D01*
X174767498Y-56401455D01*
X174772673Y-56401645D01*
X174772675Y-56401645D01*
X174985574Y-56409452D01*
X174985578Y-56409452D01*
X174990738Y-56409641D01*
X174995858Y-56408985D01*
X174995860Y-56408985D01*
X175207189Y-56381913D01*
X175207190Y-56381913D01*
X175212317Y-56381256D01*
X175287853Y-56358594D01*
X175421330Y-56318549D01*
X175421335Y-56318547D01*
X175426285Y-56317062D01*
X175626895Y-56218784D01*
X175808761Y-56089061D01*
X175847595Y-56050363D01*
X175904036Y-55994118D01*
X175966997Y-55931377D01*
X176026495Y-55848577D01*
X176097354Y-55749965D01*
X176098677Y-55750916D01*
X176145546Y-55707745D01*
X176215481Y-55695513D01*
X176280927Y-55723032D01*
X176308776Y-55754882D01*
X176368888Y-55852976D01*
X176515151Y-56021826D01*
X176591747Y-56085417D01*
X176677813Y-56156870D01*
X176687027Y-56164520D01*
X176879901Y-56277226D01*
X176884726Y-56279068D01*
X176884727Y-56279069D01*
X176930120Y-56296403D01*
X177088593Y-56356918D01*
X177093661Y-56357949D01*
X177093664Y-56357950D01*
X177200918Y-56379771D01*
X177307498Y-56401455D01*
X177312673Y-56401645D01*
X177312675Y-56401645D01*
X177525574Y-56409452D01*
X177525578Y-56409452D01*
X177530738Y-56409641D01*
X177535858Y-56408985D01*
X177535860Y-56408985D01*
X177747189Y-56381913D01*
X177747190Y-56381913D01*
X177752317Y-56381256D01*
X177827853Y-56358594D01*
X177961330Y-56318549D01*
X177961335Y-56318547D01*
X177966285Y-56317062D01*
X178166895Y-56218784D01*
X178348761Y-56089061D01*
X178456992Y-55981207D01*
X178519363Y-55947292D01*
X178590169Y-55952480D01*
X178646931Y-55995126D01*
X178663913Y-56026229D01*
X178708286Y-56144593D01*
X178795640Y-56261149D01*
X178912196Y-56348503D01*
X179048585Y-56399633D01*
X179110767Y-56406388D01*
X180907035Y-56406388D01*
X180969217Y-56399633D01*
X181105606Y-56348503D01*
X181222162Y-56261149D01*
X181309516Y-56144593D01*
X181360646Y-56008204D01*
X181367401Y-55946022D01*
X181367401Y-54149754D01*
X181360646Y-54087572D01*
X181309516Y-53951183D01*
X181222162Y-53834627D01*
X181105606Y-53747273D01*
X180986588Y-53702655D01*
X180929824Y-53660013D01*
X180905124Y-53593452D01*
X180920331Y-53524103D01*
X180941878Y-53495423D01*
X181042953Y-53394700D01*
X181049631Y-53386853D01*
X181173904Y-53213908D01*
X181179214Y-53205071D01*
X181273571Y-53014155D01*
X181277370Y-53004560D01*
X181339278Y-52800798D01*
X181341456Y-52790725D01*
X181342887Y-52779850D01*
X181340676Y-52765666D01*
X181327518Y-52761888D01*
X179880901Y-52761888D01*
X179812780Y-52741886D01*
X179766287Y-52688230D01*
X179754901Y-52635888D01*
X179754901Y-52235773D01*
X180262901Y-52235773D01*
X180267376Y-52251012D01*
X180268766Y-52252217D01*
X180276449Y-52253888D01*
X181327245Y-52253888D01*
X181340776Y-52249915D01*
X181342081Y-52240835D01*
X181300115Y-52073763D01*
X181296795Y-52064012D01*
X181211873Y-51868702D01*
X181207006Y-51859627D01*
X181091327Y-51680814D01*
X181085037Y-51672645D01*
X180941707Y-51515128D01*
X180934174Y-51508103D01*
X180767040Y-51376110D01*
X180758453Y-51370405D01*
X180572018Y-51267487D01*
X180562606Y-51263257D01*
X180361860Y-51192168D01*
X180351889Y-51189534D01*
X180280738Y-51176860D01*
X180267441Y-51178320D01*
X180262901Y-51192877D01*
X180262901Y-52235773D01*
X179754901Y-52235773D01*
X179754901Y-51190990D01*
X179750983Y-51177646D01*
X179736707Y-51175659D01*
X179698225Y-51181548D01*
X179688189Y-51183939D01*
X179485769Y-51250100D01*
X179476260Y-51254097D01*
X179287364Y-51352430D01*
X179278639Y-51357924D01*
X179108334Y-51485793D01*
X179100627Y-51492636D01*
X178953491Y-51646605D01*
X178947010Y-51654610D01*
X178842399Y-51807962D01*
X178787488Y-51852964D01*
X178716963Y-51861135D01*
X178653216Y-51829881D01*
X178632519Y-51805397D01*
X178551723Y-51680505D01*
X178551721Y-51680502D01*
X178548915Y-51676165D01*
X178398571Y-51510939D01*
X178394520Y-51507740D01*
X178394516Y-51507736D01*
X178227315Y-51375688D01*
X178227311Y-51375686D01*
X178223260Y-51372486D01*
X178186929Y-51352430D01*
X178171037Y-51343657D01*
X178027690Y-51264526D01*
X178022821Y-51262802D01*
X178022817Y-51262800D01*
X177821988Y-51191683D01*
X177821984Y-51191682D01*
X177817113Y-51189957D01*
X177812020Y-51189050D01*
X177812017Y-51189049D01*
X177602274Y-51151688D01*
X177602268Y-51151687D01*
X177597185Y-51150782D01*
X177523353Y-51149880D01*
X177378982Y-51148116D01*
X177378980Y-51148116D01*
X177373812Y-51148053D01*
X177152992Y-51181843D01*
X176940657Y-51251245D01*
X176742508Y-51354395D01*
X176738375Y-51357498D01*
X176738372Y-51357500D01*
X176568001Y-51485418D01*
X176563866Y-51488523D01*
X176409530Y-51650026D01*
X176302102Y-51807509D01*
X176247194Y-51852509D01*
X176176669Y-51860680D01*
X176112922Y-51829426D01*
X176092225Y-51804942D01*
X176011723Y-51680505D01*
X176011721Y-51680502D01*
X176008915Y-51676165D01*
X175858571Y-51510939D01*
X175854520Y-51507740D01*
X175854516Y-51507736D01*
X175687315Y-51375688D01*
X175687311Y-51375686D01*
X175683260Y-51372486D01*
X175646929Y-51352430D01*
X175631037Y-51343657D01*
X175487690Y-51264526D01*
X175482821Y-51262802D01*
X175482817Y-51262800D01*
X175281988Y-51191683D01*
X175281984Y-51191682D01*
X175277113Y-51189957D01*
X175272020Y-51189050D01*
X175272017Y-51189049D01*
X175062274Y-51151688D01*
X175062268Y-51151687D01*
X175057185Y-51150782D01*
X174983353Y-51149880D01*
X174838982Y-51148116D01*
X174838980Y-51148116D01*
X174833812Y-51148053D01*
X174612992Y-51181843D01*
X174400657Y-51251245D01*
X174202508Y-51354395D01*
X174198375Y-51357498D01*
X174198372Y-51357500D01*
X174028001Y-51485418D01*
X174023866Y-51488523D01*
X173869530Y-51650026D01*
X173743644Y-51834568D01*
X173727800Y-51868702D01*
X173674691Y-51983116D01*
X173649589Y-52037193D01*
X173589890Y-52252458D01*
X173566152Y-52474583D01*
X173566449Y-52479736D01*
X173566449Y-52479739D01*
X173568072Y-52507888D01*
X173579011Y-52697603D01*
X173580148Y-52702649D01*
X173580149Y-52702655D01*
X173592926Y-52759347D01*
X173628123Y-52915527D01*
X173689574Y-53066864D01*
X173705254Y-53105478D01*
X173712167Y-53122504D01*
X173755665Y-53193486D01*
X173826192Y-53308576D01*
X173828888Y-53312976D01*
X173975151Y-53481826D01*
X174147027Y-53624520D01*
X174207766Y-53660013D01*
X174220346Y-53667364D01*
X174269070Y-53719002D01*
X174282141Y-53788785D01*
X174255410Y-53854557D01*
X174214956Y-53887915D01*
X174202508Y-53894395D01*
X174198375Y-53897498D01*
X174198372Y-53897500D01*
X174045229Y-54012483D01*
X174023866Y-54028523D01*
X173984426Y-54069795D01*
X173874836Y-54184474D01*
X173869530Y-54190026D01*
X173866621Y-54194291D01*
X173866615Y-54194299D01*
X173826958Y-54252434D01*
X173743644Y-54374568D01*
X173705473Y-54456801D01*
X173660655Y-54553354D01*
X173649589Y-54577193D01*
X173589890Y-54792458D01*
X173566152Y-55014583D01*
X100508500Y-55014583D01*
X100508500Y-52884065D01*
X100528502Y-52815944D01*
X100582158Y-52769451D01*
X100652432Y-52759347D01*
X100717012Y-52788841D01*
X100755396Y-52848567D01*
X100758079Y-52859484D01*
X100770179Y-52920313D01*
X100781378Y-52976616D01*
X100782957Y-52981014D01*
X100782959Y-52981021D01*
X100832038Y-53117717D01*
X100870704Y-53225410D01*
X100872921Y-53229536D01*
X100940301Y-53354936D01*
X100995822Y-53458267D01*
X100998617Y-53462011D01*
X100998619Y-53462013D01*
X101081743Y-53573329D01*
X101153985Y-53670073D01*
X101157292Y-53673351D01*
X101157297Y-53673357D01*
X101327225Y-53841807D01*
X101341718Y-53856174D01*
X101345485Y-53858936D01*
X101345486Y-53858937D01*
X101482761Y-53959591D01*
X101554896Y-54012483D01*
X101559031Y-54014659D01*
X101559035Y-54014661D01*
X101635247Y-54054758D01*
X101788836Y-54135565D01*
X101928891Y-54184474D01*
X102032069Y-54220505D01*
X102038400Y-54222716D01*
X102042993Y-54223588D01*
X102293515Y-54271151D01*
X102293518Y-54271151D01*
X102298104Y-54272022D01*
X102430173Y-54277211D01*
X102557575Y-54282218D01*
X102557581Y-54282218D01*
X102562243Y-54282401D01*
X102825015Y-54253622D01*
X102829526Y-54252434D01*
X102829528Y-54252434D01*
X103076124Y-54187511D01*
X103076126Y-54187510D01*
X103080647Y-54186320D01*
X103084944Y-54184474D01*
X103319229Y-54083817D01*
X103319231Y-54083816D01*
X103323523Y-54081972D01*
X103548307Y-53942871D01*
X103584199Y-53912486D01*
X103746496Y-53775093D01*
X103746498Y-53775091D01*
X103750063Y-53772073D01*
X103924356Y-53573329D01*
X103938038Y-53552059D01*
X104064831Y-53354936D01*
X104067359Y-53351006D01*
X104175930Y-53109988D01*
X104247683Y-52855570D01*
X104259924Y-52759347D01*
X104280645Y-52596471D01*
X104280645Y-52596465D01*
X104281043Y-52593340D01*
X104283487Y-52500000D01*
X104270181Y-52320939D01*
X104264243Y-52241036D01*
X104264242Y-52241032D01*
X104263897Y-52236384D01*
X104205557Y-51978559D01*
X104190028Y-51938626D01*
X104111442Y-51736542D01*
X104111441Y-51736540D01*
X104109749Y-51732189D01*
X104083535Y-51686323D01*
X104060653Y-51646289D01*
X103978578Y-51502687D01*
X103814925Y-51295094D01*
X103622385Y-51113970D01*
X103585212Y-51088182D01*
X103409026Y-50965958D01*
X103409021Y-50965955D01*
X103405188Y-50963296D01*
X103400997Y-50961229D01*
X103172294Y-50848445D01*
X103172291Y-50848444D01*
X103168106Y-50846380D01*
X103111150Y-50828148D01*
X102920792Y-50767214D01*
X102920794Y-50767214D01*
X102916347Y-50765791D01*
X102873801Y-50758862D01*
X102809781Y-50728170D01*
X102772517Y-50667739D01*
X102773841Y-50596754D01*
X102813331Y-50537754D01*
X102878450Y-50509470D01*
X102894054Y-50508500D01*
X247094027Y-50508500D01*
X247162148Y-50528502D01*
G37*
%TD.AperFunction*%
%TD*%
M02*
